<svg width="1001" height="398" viewBox="0 0 1001 398" fill="none" xmlns="http://www.w3.org/2000/svg">
  <g id="Group 995">
    <path id="Line 2 (Stroke)" opacity="0.2" fill-rule="evenodd" clip-rule="evenodd"
      d="M976.578 398H24.084V270.5L261 255L501.5 189L740 171L976.578 110V398Z" fill="url(#paint0_linear)" />
    <g id="Group 644">
      <g id="Group 17">
        <text
          id="&#208;&#146;&#209;&#139; &#208;&#191;&#208;&#190;&#208;&#187;&#209;&#131;&#209;&#135;&#208;&#176;&#208;&#181;&#209;&#130;&#208;&#181; 5% &#209;&#129; &#208;&#184;&#209;&#133;"
          fill="#17233B" xml:space="preserve" style="white-space: pre" font-family="Lato" font-size="15"
          letter-spacing="0em">
          <tspan x="478" y="153.806">4 &#x437;&#x430;&#x439;&#x43c;</tspan>
        </text>
      </g>
      <g id="Group 20">
        <path id="Oval 7"
          d="M524 103C524 115.703 513.703 126 501 126C488.297 126 478 115.703 478 103C478 90.2975 488.297 80 501 80C513.703 80 524 90.2975 524 103Z"
          stroke="#FF4E2C" stroke-width="2" />
        <text id="3" fill="#FF4E2C" xml:space="preserve" style="white-space: pre" font-family="Lato" font-size="15"
          font-weight="bold" letter-spacing="0px">
          <tspan x="483.356" y="107.805">-15%</tspan>
        </text>
      </g>
    </g>
    <g id="Group 643">
      <g id="Group 24">
        <text
          id="&#208;&#158;&#208;&#189;&#208;&#184; &#209;&#128;&#208;&#181;&#208;&#179;&#208;&#184;&#209;&#129;&#209;&#130;&#209;&#128;&#208;&#184;&#209;&#128;&#209;&#131;&#209;&#142;&#209;&#130;&#209;&#129;&#209;&#143; &#208;&#184;"
          fill="#17233B" xml:space="preserve" style="white-space: pre" font-family="Lato" font-size="15"
          letter-spacing="0em">
          <tspan x="239" y="218.805">3 &#x437;&#x430;&#x439;&#x43c;</tspan>
        </text>
      </g>
      <g id="Group 51">
        <rect width="48" height="48" transform="translate(238 144)" fill="white" />
        <path id="Oval 7_2"
          d="M285 168C285 180.703 274.703 191 262 191C249.297 191 239 180.703 239 168C239 155.297 249.297 145 262 145C274.703 145 285 155.297 285 168Z"
          stroke="#FF4E2C" stroke-width="2" />
        <text id="2" fill="#FF4E2C" xml:space="preserve" style="white-space: pre" font-family="Lato" font-size="15"
          font-weight="bold" letter-spacing="0px">
          <tspan x="244.356" y="172.805">-10%</tspan>
        </text>
      </g>
    </g>
    <g id="Group 642">
      <g id="Group 52">
        <text
          id="&#208;&#146;&#209;&#139; &#208;&#191;&#209;&#128;&#208;&#184;&#208;&#179;&#208;&#187;&#208;&#176;&#209;&#136;&#208;&#176;&#208;&#181;&#209;&#130;&#208;&#181; &#208;&#180;&#209;&#128;&#209;&#131;&#208;&#183;&#208;&#181;"
          fill="#17233B" xml:space="preserve" style="white-space: pre" font-family="Lato" font-size="15"
          letter-spacing="0em">
          <tspan x="1" y="234.805">2 &#x437;&#x430;&#x439;&#x43c;</tspan>
        </text>
      </g>
      <g id="Group 53">
        <path id="Oval 7_3"
          d="M47 184C47 196.703 36.7026 207 24 207C11.2975 207 1 196.703 1 184C1 171.297 11.2975 161 24 161C36.7026 161 47 171.297 47 184Z"
          stroke="#FF4E2C" stroke-width="2" />
        <text id="1" fill="#FF4E2C" xml:space="preserve" style="white-space: pre" font-family="Lato" font-size="15"
          font-weight="bold" letter-spacing="0px">
          <tspan x="10.2065" y="188.805">-5%</tspan>
        </text>
      </g>
    </g>
    <g id="Group 2">
      <g id="Group 645">
        <g id="Group 17.1">
          <text
            id="&#208;&#146;&#209;&#139; &#208;&#191;&#208;&#190;&#208;&#187;&#209;&#131;&#209;&#135;&#208;&#176;&#208;&#181;&#209;&#130;&#208;&#181; 5% &#209;&#129; &#208;&#184;&#209;&#133;_2"
            fill="#17233B" xml:space="preserve" style="white-space: pre" font-family="Lato" font-size="15"
            letter-spacing="0em">
            <tspan x="716" y="135.805">5 &#x437;&#x430;&#x439;&#x43c;</tspan>
          </text>
        </g>
        <g id="Group 20.1">
          <path id="Oval 7_4"
            d="M762 85C762 97.7026 751.703 108 739 108C726.297 108 716 97.7026 716 85C716 72.2975 726.297 62 739 62C751.703 62 762 72.2975 762 85Z"
            fill="white" stroke="#FF4E2C" stroke-width="2" />
          <text id="3_2" fill="#FF4E2C" xml:space="preserve" style="white-space: pre" font-family="Lato" font-size="15"
            font-weight="bold" letter-spacing="0px">
            <tspan x="721.356" y="89.805">-20%</tspan>
          </text>
        </g>
      </g>
    </g>
    <g id="Group 646">
      <g id="Group 17.2">
        <text
          id="&#208;&#146;&#209;&#139; &#208;&#191;&#208;&#190;&#208;&#187;&#209;&#131;&#209;&#135;&#208;&#176;&#208;&#181;&#209;&#130;&#208;&#181; 5% &#209;&#129; &#208;&#184;&#209;&#133;_3"
          fill="#17233B" xml:space="preserve" style="white-space: pre" font-family="Lato" font-size="15"
          letter-spacing="0em">
          <tspan x="954" y="74.8055">6 &#x437;&#x430;&#x439;&#x43c;</tspan>
        </text>
      </g>
      <g id="Group 20.2">
        <path id="Oval 7_5"
          d="M1000 24C1000 36.7026 989.703 47 977 47C964.297 47 954 36.7026 954 24C954 11.2975 964.297 1 977 1C989.703 1 1000 11.2975 1000 24Z"
          fill="white" stroke="#FF4E2C" stroke-width="2" />
        <text id="3_3" fill="#FF4E2C" xml:space="preserve" style="white-space: pre" font-family="Lato" font-size="15"
          font-weight="bold" letter-spacing="0px">
          <tspan x="959.356" y="28.805">-25%</tspan>
        </text>
      </g>
    </g>
    <path id="Line 2" d="M24 270.5L261 255L501 189L739 171L977 110" stroke="#FF4E2C" stroke-width="2" />
    <path id="Oval 2.4" fill-rule="evenodd" clip-rule="evenodd"
      d="M739 179C743.418 179 747 175.418 747 171C747 166.582 743.418 163 739 163C734.582 163 731 166.582 731 171C731 175.418 734.582 179 739 179Z"
      fill="white" stroke="#FF4E2C" stroke-width="2" />
    <path id="Oval 2.3" fill-rule="evenodd" clip-rule="evenodd"
      d="M501 197C505.418 197 509 193.418 509 189C509 184.582 505.418 181 501 181C496.582 181 493 184.582 493 189C493 193.418 496.582 197 501 197Z"
      fill="white" stroke="#FF4E2C" stroke-width="2" />
    <path id="Oval 2.8" fill-rule="evenodd" clip-rule="evenodd"
      d="M977 118C981.418 118 985 114.418 985 110C985 105.581 981.418 102 977 102C972.582 102 969 105.581 969 110C969 114.418 972.582 118 977 118Z"
      fill="white" stroke="#FF4E2C" stroke-width="2" />
    <path id="Oval 2.6" fill-rule="evenodd" clip-rule="evenodd"
      d="M261 262C265.418 262 269 258.418 269 254C269 249.582 265.418 246 261 246C256.582 246 253 249.582 253 254C253 258.418 256.582 262 261 262Z"
      fill="white" stroke="#FF4E2C" stroke-width="2" />
    <path id="Oval 2.7" fill-rule="evenodd" clip-rule="evenodd"
      d="M24 278C28.4183 278 32 274.418 32 270C32 265.582 28.4183 262 24 262C19.5817 262 16 265.582 16 270C16 274.418 19.5817 278 24 278Z"
      fill="white" stroke="#FF4E2C" stroke-width="2" />
  </g>
  <defs>
    <linearGradient id="paint0_linear" x1="500.331" y1="109.093" x2="500.331" y2="398" gradientUnits="userSpaceOnUse">
      <stop stop-color="#FF4E2C" />
      <stop offset="1" stop-color="#FF4E2C" stop-opacity="0" />
    </linearGradient>
  </defs>
</svg>