<svg width="64" height="71" viewBox="0 0 64 71" fill="none" xmlns="http://www.w3.org/2000/svg">
<path d="M63.4273 47.8508C63.1053 50.9705 60.6628 55.2338 58.298 57.0435C58.2203 57.0435 53.6684 60.4852 48.0506 63.8492C42.444 67.2132 37.237 69.5891 37.1482 69.5891C35.8492 70.1664 33.973 70.4883 32.0301 70.4883C30.0761 70.4883 28.2109 70.1553 26.9119 69.5891C26.8342 69.5891 21.7049 67.2132 16.0206 63.8492C10.4139 60.4852 5.77318 57.0435 5.77318 57.0435C3.33068 55.2449 0.976996 50.8928 0.65503 47.8508C0.577314 47.8508 0 42.0221 0 35.2941C0 28.5662 0.56621 22.7375 0.56621 22.7375C0.888176 19.6177 3.33068 15.3545 5.68436 13.5448C5.76207 13.5448 10.314 10.1031 15.9318 6.73909C21.5384 3.3751 26.7454 0.988102 26.8231 0.988102C28.2109 0.333068 30.0761 0 32.0301 0C33.9841 0 35.8492 0.333082 37.1482 0.899298C37.2259 0.899298 42.3552 3.27518 48.0506 6.63917C53.6573 10.0032 58.298 13.456 58.298 13.456C60.7405 15.2656 63.183 19.6066 63.4273 22.6486C63.4273 22.7264 63.9935 28.4773 63.9935 35.2053C64.0712 42.0332 63.4273 47.8508 63.4273 47.8508Z" fill="white"/>
<path d="M58.14 25.9242C57.818 22.8378 55.5531 18.8409 53.0995 17.0202C53.0662 16.998 49.5357 14.3667 45.1836 11.8021C40.8204 9.23748 36.8347 7.42782 36.7903 7.40561C35.4358 6.79499 33.6484 6.46191 31.7499 6.46191C29.8514 6.46191 28.0528 6.79499 26.6983 7.40561C26.6539 7.42782 22.6682 9.23748 18.3161 11.8021C13.964 14.3667 10.4335 16.998 10.4002 17.0202C9.50092 17.6863 8.60165 18.6744 7.79118 19.8513C7.66906 20.0289 7.65796 20.262 7.75788 20.4508C7.8578 20.6395 8.05764 20.7616 8.27968 20.7616H11.3661C11.5215 20.7616 11.677 20.695 11.788 20.584C12.0544 20.3064 12.3098 20.0733 12.543 19.8957C12.5763 19.8735 15.9402 17.3644 20.1369 14.8996C24.3336 12.4238 28.1305 10.703 28.186 10.6808C29.0631 10.2811 30.3621 10.0479 31.7499 10.0479C33.1377 10.0479 34.4366 10.2811 35.3248 10.6808C35.3581 10.703 39.1995 12.446 43.3629 14.8996C47.5484 17.3644 50.9235 19.8735 50.9568 19.8957C52.6221 21.1391 54.343 24.1922 54.5761 26.3239C54.6539 27.0677 55.0202 31.0423 55.0202 35.5277C55.0202 40.013 54.6539 43.9876 54.5761 44.7648C54.3541 46.8742 52.6332 49.9162 50.9568 51.1708C50.9235 51.193 47.5484 53.7021 43.3629 56.1779C39.2106 58.6315 35.3581 60.3745 35.3248 60.3856C34.4477 60.7853 33.1377 61.0185 31.761 61.0185C30.3732 61.0185 29.0742 60.7853 28.186 60.3856C28.1527 60.3745 24.3558 58.6537 20.148 56.1779C15.9624 53.7132 12.5874 51.193 12.554 51.1708C12.3209 50.9931 12.0656 50.7711 11.7991 50.4935C11.6881 50.3825 11.5326 50.3159 11.3772 50.3159H8.27968C8.05764 50.3159 7.8578 50.438 7.75788 50.6268C7.65796 50.8155 7.66906 51.0486 7.79118 51.2263C8.59055 52.4031 9.48983 53.3801 10.3891 54.0574C10.4224 54.0796 13.9529 56.7108 18.3161 59.2754C22.6682 61.84 26.665 63.6497 26.7094 63.6719C28.0639 64.2826 29.8514 64.6156 31.761 64.6156C33.6595 64.6156 35.4469 64.2826 36.8014 63.6719C36.8458 63.6497 40.8315 61.84 45.1947 59.2754C49.5468 56.7108 53.0773 54.0796 53.1106 54.0574C55.5642 52.2366 57.818 48.2398 58.1511 45.1533C58.1511 45.1089 58.6174 40.6791 58.6174 35.5388C58.6063 30.3984 58.1511 25.9686 58.14 25.9242Z" fill="url(#paint0_linear)"/>
<path d="M26.9759 37.1819H21.6468C21.5913 37.1819 21.5469 37.2263 21.5469 37.2707C21.4137 39.6799 20.9585 42.2667 20.3034 44.3873C20.2923 44.4206 20.3034 44.4539 20.3145 44.4761C20.3367 44.4983 20.3589 44.5205 20.3922 44.5205H22.213C22.2574 44.5205 22.2907 44.4983 22.3018 44.4539C22.8125 42.8218 23.2233 40.7013 23.3788 38.9027H25.1218V44.4317C25.1218 44.4872 25.1662 44.5316 25.2217 44.5316H26.9648C27.0203 44.5316 27.0647 44.4872 27.0647 44.4317V37.2929C27.0758 37.2263 27.0314 37.1819 26.9759 37.1819Z" fill="#ED2E53"/>
<path d="M49.5033 37.1819H47.7603C47.7047 37.1819 47.6603 37.2263 47.6603 37.2818V42.7996C47.2828 42.9107 46.8943 42.9551 46.4724 42.9551C45.3177 42.9551 45.0513 42.5998 45.0513 41.0788V37.2818C45.0513 37.2263 45.0069 37.1819 44.9514 37.1819H43.2083C43.1528 37.1819 43.1084 37.2263 43.1084 37.2818V41.2675C43.1084 43.7544 43.9522 44.7314 46.106 44.7314C47.3384 44.7314 48.7039 44.4206 49.5144 44.1097C49.5477 44.0986 49.581 44.0542 49.581 44.0209V37.2929C49.6032 37.2263 49.5588 37.1819 49.5033 37.1819Z" fill="#ED2E53"/>
<path d="M12.6543 37.1931H10.8891C10.8447 37.1931 10.8114 37.2264 10.8003 37.2597C10.5227 38.3588 9.95649 40.1907 9.21263 42.1114L7.43626 37.2375C7.42516 37.2042 7.38075 37.1709 7.34744 37.1709H5.55998C5.52667 37.1709 5.50447 37.182 5.48227 37.2153C5.46006 37.2375 5.46005 37.2708 5.47116 37.3041L8.1246 44.5983C7.84704 45.1534 7.60281 45.6197 7.35856 46.0749C7.18092 46.408 7.01438 46.7188 6.83675 47.063C6.82565 47.0963 6.82565 47.1296 6.83675 47.1629C6.84785 47.1962 6.88115 47.2073 6.91445 47.2073H8.84626C8.87956 47.2073 8.91287 47.1851 8.93508 47.1518C9.25704 46.519 9.66783 45.6419 10.0453 44.7426C11.1777 42.0892 12.0881 39.5801 12.7543 37.3041C12.7654 37.2708 12.7543 37.2375 12.7431 37.2153C12.7098 37.2042 12.6765 37.1931 12.6543 37.1931Z" fill="#ED2E53"/>
<path d="M18.9826 42.8107C18.9715 42.7885 18.9604 42.7663 18.9271 42.7552C18.9049 42.7441 18.8826 42.7441 18.8493 42.7552C18.4275 42.9106 17.6281 43.0439 17.073 43.0439C15.8628 43.0439 15.2855 42.7219 15.2855 40.8567C15.2855 39.369 15.4632 38.6696 17.073 38.6696C17.5282 38.6696 17.9501 38.7362 18.4941 38.8916C18.5385 38.9027 18.5829 38.8805 18.6051 38.8472C18.8049 38.4697 19.0492 38.0034 19.3267 37.4372C19.3379 37.415 19.3379 37.3817 19.3267 37.3595C19.3156 37.3373 19.2934 37.3151 19.2712 37.304C18.5607 37.0819 17.7058 36.9487 16.9509 36.9487C14.4084 36.9487 13.2871 38.1478 13.2871 40.8345C13.2871 43.5546 14.4195 44.7758 16.9509 44.7758C17.5837 44.7758 18.8382 44.6426 19.4489 44.3983C19.4933 44.3761 19.5266 44.3206 19.5044 44.2762L18.9826 42.8107Z" fill="#ED2E53"/>
<path d="M35.5245 37.1931H33.7592C33.7148 37.1931 33.6815 37.2264 33.6704 37.2597C33.3928 38.3588 32.8266 40.1907 32.0827 42.1114L30.3064 37.2375C30.2953 37.2042 30.2509 37.1709 30.2176 37.1709H28.4301C28.3968 37.1709 28.3635 37.182 28.3524 37.2153C28.3302 37.2375 28.3302 37.2708 28.3413 37.3041L30.9947 44.5983C30.7172 45.1534 30.4729 45.6197 30.2287 46.0638C30.051 46.3969 29.8734 46.7188 29.7069 47.063C29.6958 47.0963 29.6958 47.1296 29.7069 47.1629C29.7291 47.1962 29.7513 47.2073 29.7846 47.2073H31.7164C31.7497 47.2073 31.783 47.1851 31.8052 47.1518C32.1383 46.519 32.5379 45.6419 32.9154 44.7426C34.0478 42.0892 34.9582 39.5912 35.6244 37.3041C35.6355 37.2708 35.6244 37.2375 35.6133 37.2153C35.58 37.2042 35.5578 37.1931 35.5245 37.1931Z" fill="#ED2E53"/>
<path d="M42.0528 37.1819H36.9124C36.8569 37.1819 36.8125 37.2263 36.8125 37.2818V44.4206C36.8125 44.4761 36.8569 44.5205 36.9124 44.5205H38.6555C38.711 44.5205 38.7554 44.4761 38.7554 44.4206V38.8916H41.4421C41.4866 38.8916 41.5199 38.8694 41.531 38.8361C41.7308 38.3587 41.9417 37.848 42.1527 37.3151C42.1638 37.2818 42.1638 37.2485 42.1416 37.2263C42.1083 37.2041 42.0861 37.1819 42.0528 37.1819Z" fill="#ED2E53"/>
<path d="M15.4617 26.1577C12.9526 26.1577 11.9756 27.2346 11.9756 29.9991C11.9756 32.808 12.9526 33.896 15.4617 33.896C17.993 33.896 18.9811 32.808 18.9811 29.9991C18.9811 27.2346 17.993 26.1577 15.4617 26.1577ZM15.4617 32.2862C14.3182 32.2862 13.9629 31.9753 13.9629 30.0324C13.9629 27.9563 14.3515 27.7786 15.4617 27.7786C16.5941 27.7786 16.9938 27.9674 16.9938 30.0324C16.9938 31.9753 16.6274 32.2862 15.4617 32.2862Z" fill="#0066B2"/>
<path d="M25.9201 31.9865C25.909 31.9643 25.8979 31.9421 25.8646 31.931C25.8424 31.9199 25.809 31.9199 25.7868 31.931C25.365 32.0864 24.5656 32.2196 24.0105 32.2196C22.8003 32.2196 22.223 31.8977 22.223 30.0325C22.223 28.5448 22.4007 27.8454 24.0105 27.8454C24.4657 27.8454 24.8876 27.912 25.4316 28.0674C25.476 28.0785 25.5204 28.0563 25.5426 28.023C25.7424 27.6455 25.9867 27.1792 26.2642 26.613C26.2754 26.5908 26.2754 26.5575 26.2642 26.5353C26.2531 26.5131 26.2309 26.4909 26.2087 26.4798C25.4982 26.2466 24.6544 26.1245 23.8884 26.1245C21.357 26.1245 20.2246 27.3236 20.2246 30.0103C20.2246 32.7304 21.357 33.9516 23.8884 33.9516C24.5212 33.9516 25.7757 33.8184 26.3864 33.5741C26.4308 33.5519 26.4641 33.4964 26.4419 33.452L25.9201 31.9865Z" fill="#0066B2"/>
<path d="M11.2992 26.3689H6.14777C6.09226 26.3689 6.04785 26.4133 6.04785 26.4688V33.6076C6.04785 33.6631 6.09226 33.7075 6.14777 33.7075H7.89083C7.94634 33.7075 7.99075 33.6631 7.99075 33.6076V28.0787H10.6775C10.7219 28.0787 10.7552 28.0564 10.7663 28.0231C10.9662 27.5457 11.1771 27.035 11.388 26.5132C11.3991 26.4799 11.3992 26.4466 11.3769 26.4244C11.3547 26.38 11.3214 26.3689 11.2992 26.3689Z" fill="#0066B2"/>
<defs>
<linearGradient id="paint0_linear" x1="35.1877" y1="7.96427" x2="29.947" y2="64.9546" gradientUnits="userSpaceOnUse">
<stop offset="0.1854" stop-color="#0066B2"/>
<stop offset="0.7226" stop-color="#ED2E53"/>
</linearGradient>
</defs>
</svg>
