<svg width="267" height="267" viewBox="0 0 267 267" fill="none" xmlns="http://www.w3.org/2000/svg">
<path fill-rule="evenodd" clip-rule="evenodd" d="M150.653 156.369C150.653 159.525 145.53 162.087 139.218 162.087C132.906 162.087 127.783 159.525 127.783 156.369C127.783 153.213 132.906 150.652 139.218 150.652C145.53 150.652 150.653 153.213 150.653 156.369V156.369Z" stroke="#FF4E2C" stroke-width="3" stroke-linecap="round" stroke-linejoin="round"/>
<path fill-rule="evenodd" clip-rule="evenodd" d="M207.83 76.3261C207.83 35.2752 174.555 2 133.504 2C92.453 2 59.1777 35.2752 59.1777 76.3261C59.1777 81.8148 59.9667 87.0862 61.0988 92.2319C59.8867 95.8567 59.1777 100.213 59.1777 104.913C59.1777 117.548 64.3005 127.783 70.6125 127.783C71.8017 127.783 72.9223 127.314 73.9972 126.651C82.3903 160.532 105.82 184.957 133.504 184.957C161.187 184.957 184.617 160.532 193.01 126.651C194.085 127.314 195.206 127.783 196.395 127.783C202.707 127.783 207.83 117.548 207.83 104.913C207.83 100.213 207.121 95.8567 205.909 92.2319C207.041 87.0862 207.83 81.8148 207.83 76.3261V76.3261Z" stroke="#17233B" stroke-width="3" stroke-linecap="round" stroke-linejoin="round"/>
<path d="M61.0938 92.2324C68.1033 92.2324 76.3249 93.4788 76.3249 93.4788C76.3249 93.4788 73.8207 59.1745 82.0423 59.1745C90.2639 59.1745 116.347 60.2494 116.347 36.3049C116.347 46.6648 149.931 70.6093 184.955 70.6093C184.955 80.6147 190.673 93.4788 190.673 93.4788L205.892 92.2324" stroke="#17233B" stroke-width="3" stroke-linecap="round" stroke-linejoin="round"/>
<path d="M104.914 104.914H116.349" stroke="#17233B" stroke-width="3" stroke-linecap="round" stroke-linejoin="round"/>
<path d="M150.65 104.914H162.085" stroke="#17233B" stroke-width="3" stroke-linecap="round" stroke-linejoin="round"/>
<path fill-rule="evenodd" clip-rule="evenodd" d="M265 265L256.115 229.46C254.503 222.988 250.123 217.545 244.154 214.561L184.957 184.956L150.652 265L139.217 242.13C139.217 242.13 150.652 227.836 150.652 219.26C150.652 210.684 142.076 207.826 133.5 207.826C124.924 207.826 116.348 210.684 116.348 219.26C116.348 227.836 127.783 242.13 127.783 242.13L116.348 265L82.0435 184.956L22.8456 214.561C16.8767 217.545 12.4971 222.988 10.8848 229.46L2 265H265V265Z" stroke="#17233B" stroke-width="3" stroke-linecap="round" stroke-linejoin="round"/>
<path d="M202.107 127.783C202.107 149.223 163.515 156.37 150.65 156.37" stroke="#FF4E2C" stroke-width="3" stroke-linecap="round" stroke-linejoin="round"/>
</svg>
