<svg width="102" height="68" viewBox="0 0 102 68" fill="none" xmlns="http://www.w3.org/2000/svg">
<path fill-rule="evenodd" clip-rule="evenodd" d="M92.3043 66.2174H9.69565C4.8913 66.2174 1 62.3261 1 57.5217V9.69565C1 4.8913 4.8913 1 9.69565 1H92.3043C97.1087 1 101 4.8913 101 9.69565V57.5217C101 62.3261 97.1087 66.2174 92.3043 66.2174V66.2174Z" stroke="#17233B" stroke-width="2" stroke-linecap="round" stroke-linejoin="round"/>
<path d="M14.043 44.4783H31.4343" stroke="#17233B" stroke-width="2" stroke-linecap="round" stroke-linejoin="round"/>
<path d="M14.043 53.1738H53.1734" stroke="#17233B" stroke-width="2" stroke-linecap="round" stroke-linejoin="round"/>
<path fill-rule="evenodd" clip-rule="evenodd" d="M74.9144 46.6521C74.9144 44.726 75.7622 43.0173 77.0883 41.8217C75.9318 40.7825 74.4187 40.1304 72.7405 40.1304C69.1405 40.1304 66.2188 43.0521 66.2188 46.6521C66.2188 50.2521 69.1405 53.1738 72.7405 53.1738C74.4187 53.1738 75.9318 52.5217 77.0883 51.4825C75.7622 50.2869 74.9144 48.5782 74.9144 46.6521V46.6521Z" stroke="#FF4E2C" stroke-width="2" stroke-linecap="round" stroke-linejoin="round"/>
<path d="M14.043 31.4348H22.7386" stroke="#17233B" stroke-width="2" stroke-linecap="round" stroke-linejoin="round"/>
<path d="M31.4336 31.4348H40.1292" stroke="#17233B" stroke-width="2" stroke-linecap="round" stroke-linejoin="round"/>
<path d="M48.8242 31.4348H57.5199" stroke="#17233B" stroke-width="2" stroke-linecap="round" stroke-linejoin="round"/>
<path fill-rule="evenodd" clip-rule="evenodd" d="M87.9575 46.6521C87.9575 50.2521 85.0358 53.1738 81.4358 53.1738C77.8358 53.1738 74.9141 50.2521 74.9141 46.6521C74.9141 43.0521 77.8358 40.1304 81.4358 40.1304C85.0358 40.1304 87.9575 43.0521 87.9575 46.6521V46.6521Z" stroke="#FF4E2C" stroke-width="2" stroke-linecap="round" stroke-linejoin="round"/>
</svg>
