<svg width="431" height="284" viewBox="0 0 431 284" fill="none" xmlns="http://www.w3.org/2000/svg">
<g filter="url(#filter0_dd)">
<rect x="11" y="2.84082" width="416" height="268.591" rx="7.23478" fill="white"/>
<rect x="11.4522" y="3.29299" width="415.096" height="267.687" rx="6.78261" stroke="#E5E9F2" stroke-opacity="0.6" stroke-width="0.904348"/>
</g>
<rect x="202.723" y="74.2842" width="14.4696" height="14.4696" rx="7.23478" fill="#FFD422"/>
<rect x="148.461" y="74.2842" width="14.4696" height="14.4696" rx="7.23478" fill="#696CFF"/>
<rect x="256.98" y="74.2842" width="14.4696" height="14.4696" rx="7.23478" fill="#03C3EC"/>
<rect x="311.242" y="74.2842" width="14.4696" height="14.4696" rx="7.23478" fill="#A7E521"/>
<rect x="364.598" y="74.2842" width="14.4696" height="14.4696" rx="7.23478" fill="#03C3EC"/>
<rect x="202.723" y="123.119" width="14.4696" height="14.4696" rx="7.23478" fill="#696CFF"/>
<rect x="148.461" y="123.119" width="14.4696" height="14.4696" rx="7.23478" fill="#FF3E1D"/>
<rect x="256.98" y="123.119" width="14.4696" height="14.4696" rx="7.23478" fill="#FFD422"/>
<rect x="311.242" y="123.119" width="14.4696" height="14.4696" rx="7.23478" fill="#03C3EC"/>
<rect x="364.598" y="123.119" width="14.4696" height="14.4696" rx="7.23478" fill="#A7E521"/>
<rect x="202.723" y="171.954" width="14.4696" height="14.4696" rx="7.23478" fill="#FF3E1D"/>
<rect x="148.461" y="171.954" width="14.4696" height="14.4696" rx="7.23478" fill="#FF3E1D"/>
<rect x="256.98" y="171.954" width="14.4696" height="14.4696" rx="7.23478" fill="#696CFF"/>
<rect x="311.242" y="171.954" width="14.4696" height="14.4696" rx="7.23478" fill="#FFD422"/>
<rect x="364.598" y="171.954" width="14.4696" height="14.4696" rx="7.23478" fill="#03C3EC"/>
<rect x="202.723" y="220.789" width="14.4696" height="14.4696" rx="7.23478" fill="#FF3E1D"/>
<rect x="148.461" y="220.789" width="14.4696" height="14.4696" rx="7.23478" fill="#FF3E1D"/>
<rect x="256.98" y="220.789" width="14.4696" height="14.4696" rx="7.23478" fill="#FF3E1D"/>
<rect x="311.242" y="220.789" width="14.4696" height="14.4696" rx="7.23478" fill="#696CFF"/>
<rect x="364.598" y="220.789" width="14.4696" height="14.4696" rx="7.23478" fill="#FFD422"/>
<path d="M33.6589 215.853V223.745H34.5838L38.8845 217.548H38.9616V223.745H39.9174V215.853H38.9925L34.6762 222.065H34.5992V215.853H33.6589ZM41.7065 223.745H42.6159V218.674H45.4523V223.745H46.3618V217.826H41.7065V223.745ZM50.4275 223.868C52.0307 223.868 53.1097 222.651 53.1097 220.816C53.1097 218.966 52.0307 217.749 50.4275 217.749C48.8243 217.749 47.7453 218.966 47.7453 220.816C47.7453 222.651 48.8243 223.868 50.4275 223.868ZM50.4275 223.051C49.2097 223.051 48.6548 222.003 48.6548 220.816C48.6548 219.629 49.2097 218.566 50.4275 218.566C51.6453 218.566 52.2002 219.629 52.2002 220.816C52.2002 222.003 51.6453 223.051 50.4275 223.051ZM53.7244 218.674H55.6821V223.745H56.5916V218.674H58.5339V217.826H53.7244V218.674ZM62.035 223.868C63.2374 223.868 64.116 223.267 64.3935 222.373L63.5149 222.127C63.2836 222.743 62.748 223.051 62.035 223.051C60.9675 223.051 60.2315 222.362 60.1891 221.094H64.486V220.708C64.486 218.504 63.1757 217.749 61.9425 217.749C60.3394 217.749 59.2757 219.013 59.2757 220.832C59.2757 222.651 60.3239 223.868 62.035 223.868ZM60.1891 220.308C60.2507 219.387 60.902 218.566 61.9425 218.566C62.9291 218.566 63.5611 219.306 63.5611 220.308H60.1891ZM65.8695 223.745H66.779V221.248H67.596L69.5383 223.745H70.7098L68.2897 220.678L70.679 217.826H69.5074L67.3802 220.4H66.779V217.826H65.8695V223.745ZM73.4402 223.884C74.473 223.884 75.0125 223.329 75.1975 222.944H75.2438V223.745H76.1532V219.845C76.1532 217.964 74.7196 217.749 73.9643 217.749C73.0702 217.749 72.0529 218.057 71.5904 219.136L72.4536 219.444C72.654 219.013 73.128 218.55 73.9951 218.55C74.8314 218.55 75.2438 218.993 75.2438 219.753V219.783C75.2438 220.223 74.7967 220.184 73.7177 220.323C72.6194 220.466 71.4208 220.708 71.4208 222.065C71.4208 223.221 72.3149 223.884 73.4402 223.884ZM73.5789 223.067C72.8544 223.067 72.3303 222.743 72.3303 222.111C72.3303 221.417 72.9623 221.202 73.6714 221.109C74.0568 221.063 75.0896 220.955 75.2438 220.77V221.602C75.2438 222.342 74.658 223.067 73.5789 223.067ZM83.6247 215.853H82.669L80.6959 217.163V218.134L82.6227 216.855H82.669V223.745H83.6247V215.853ZM88.4689 223.853C90.2108 223.853 91.2128 222.377 91.2128 219.799C91.2128 217.24 90.1954 215.745 88.4689 215.745C86.7424 215.745 85.725 217.24 85.725 219.799C85.725 222.377 86.727 223.853 88.4689 223.853ZM88.4689 223.005C87.3205 223.005 86.6499 221.853 86.6499 219.799C86.6499 217.749 87.3282 216.577 88.4689 216.577C89.6096 216.577 90.2879 217.749 90.2879 219.799C90.2879 221.853 89.6173 223.005 88.4689 223.005ZM96.7005 222.265C96.7005 223.129 97.24 223.853 98.242 223.853C99.2286 223.853 99.7681 223.129 99.7681 222.265V221.849C99.7681 220.986 99.244 220.261 98.242 220.261C97.2554 220.261 96.7005 220.986 96.7005 221.849V222.265ZM92.7697 217.749C92.7697 218.612 93.3092 219.336 94.3112 219.336C95.2977 219.336 95.8373 218.612 95.8373 217.749V217.332C95.8373 216.469 95.3131 215.745 94.3112 215.745C93.3246 215.745 92.7697 216.469 92.7697 217.332V217.749ZM93.0626 223.745H93.9412L99.3673 215.853H98.4886L93.0626 223.745ZM97.4867 221.849C97.4867 221.371 97.7025 220.924 98.242 220.924C98.7969 220.924 98.9819 221.371 98.9819 221.849V222.265C98.9819 222.743 98.7815 223.19 98.242 223.19C97.6871 223.19 97.4867 222.743 97.4867 222.265V221.849ZM93.5558 217.332C93.5558 216.855 93.7716 216.408 94.3112 216.408C94.8661 216.408 95.0511 216.855 95.0511 217.332V217.749C95.0511 218.227 94.8507 218.674 94.3112 218.674C93.7562 218.674 93.5558 218.227 93.5558 217.749V217.332Z" fill="#778699"/>
<path d="M38.5673 230.446H33.4931V237.023H34.4823V231.294H37.5781V237.023H38.5673V230.446ZM42.1336 237.123C43.2094 237.123 43.9705 236.593 44.1889 235.79L43.2801 235.626C43.1067 236.092 42.6892 236.33 42.1432 236.33C41.3211 236.33 40.7687 235.797 40.743 234.846H44.2499V234.506C44.2499 232.723 43.1837 232.026 42.0661 232.026C40.6916 232.026 39.786 233.073 39.786 234.589C39.786 236.121 40.6788 237.123 42.1336 237.123ZM40.7462 234.127C40.7848 233.427 41.2922 232.82 42.0726 232.82C42.8176 232.82 43.3058 233.372 43.309 234.127H40.7462ZM45.3153 238.873H46.2756V236.256H46.3334C46.5068 236.571 46.8601 237.12 47.7593 237.12C48.9539 237.12 49.821 236.163 49.821 234.567C49.821 232.967 48.9411 232.026 47.7496 232.026C46.8344 232.026 46.5036 232.585 46.3334 232.89H46.2531V232.091H45.3153V238.873ZM46.2563 234.557C46.2563 233.526 46.7059 232.842 47.5441 232.842C48.4144 232.842 48.8512 233.578 48.8512 234.557C48.8512 235.546 48.4016 236.301 47.5441 236.301C46.7188 236.301 46.2563 235.594 46.2563 234.557ZM50.8969 237.023H53.2541C54.3331 237.023 54.9658 236.477 54.9658 235.694C54.9658 234.962 54.4038 234.512 53.7454 234.435C54.3524 234.319 54.7538 233.985 54.7538 233.407C54.7538 232.598 54.0537 232.091 52.9426 232.091H50.8969V237.023ZM51.7993 236.221V234.849H53.2541C53.7294 234.849 54.0152 235.129 54.0152 235.588C54.0152 235.98 53.7294 236.221 53.2541 236.221H51.7993ZM51.7993 234.146V232.903H52.9426C53.4885 232.903 53.8193 233.131 53.8193 233.51C53.8193 233.905 53.4917 234.146 52.9522 234.146H51.7993ZM58.097 237.123C59.4875 237.123 60.3964 236.105 60.3964 234.58C60.3964 233.044 59.4875 232.026 58.097 232.026C56.7064 232.026 55.7976 233.044 55.7976 234.58C55.7976 236.105 56.7064 237.123 58.097 237.123ZM58.1002 236.317C57.1913 236.317 56.7674 235.524 56.7674 234.576C56.7674 233.632 57.1913 232.829 58.1002 232.829C59.0026 232.829 59.4265 233.632 59.4265 234.576C59.4265 235.524 59.0026 236.317 58.1002 236.317ZM62.4092 232.091H61.4682V237.023H62.4092V234.975H64.5448V237.023H65.4825V232.091H64.5448V234.143H62.4092V232.091ZM68.2026 237.133C69.0183 237.133 69.4776 236.718 69.6606 236.349H69.6992V237.023H70.6369V233.748C70.6369 232.312 69.5065 232.026 68.7229 232.026C67.8301 232.026 67.008 232.386 66.6868 233.285L67.5892 233.491C67.7305 233.141 68.0902 232.804 68.7357 232.804C69.3555 232.804 69.6735 233.128 69.6735 233.687V233.709C69.6735 234.059 69.3138 234.053 68.4274 234.156C67.4929 234.265 66.5359 234.509 66.5359 235.63C66.5359 236.6 67.2649 237.133 68.2026 237.133ZM68.4114 236.362C67.8686 236.362 67.4768 236.118 67.4768 235.643C67.4768 235.129 67.9329 234.946 68.4885 234.872C68.8 234.83 69.5386 234.747 69.6767 234.608V235.244C69.6767 235.829 69.211 236.362 68.4114 236.362ZM75.8756 232.091H74.9379V234.547C74.6135 234.634 74.2859 234.685 73.9102 234.685C73.2551 234.685 72.8504 234.39 72.8504 233.693V232.081H71.9159V233.693C71.9159 234.926 72.6898 235.514 73.9102 235.514C74.2827 235.514 74.6231 235.463 74.9379 235.382V237.023H75.8756V232.091ZM78.5885 237.133C79.4042 237.133 79.8635 236.718 80.0465 236.349H80.085V237.023H81.0228V233.748C81.0228 232.312 79.8924 232.026 79.1088 232.026C78.216 232.026 77.3938 232.386 77.0727 233.285L77.9751 233.491C78.1164 233.141 78.4761 232.804 79.1216 232.804C79.7414 232.804 80.0594 233.128 80.0594 233.687V233.709C80.0594 234.059 79.6997 234.053 78.8133 234.156C77.8788 234.265 76.9218 234.509 76.9218 235.63C76.9218 236.6 77.6508 237.133 78.5885 237.133ZM78.7972 236.362C78.2545 236.362 77.8627 236.118 77.8627 235.643C77.8627 235.129 78.3187 234.946 78.8743 234.872C79.1858 234.83 79.9245 234.747 80.0626 234.608V235.244C80.0626 235.829 79.5969 236.362 78.7972 236.362ZM81.9132 237.023H82.2215C83.2973 237.023 83.6923 236.227 83.7694 234.596L83.8465 232.919H85.4586V237.023H86.3996V232.091H82.9569L82.8702 234.274C82.8092 235.797 82.6357 236.192 82.0866 236.192H81.91L81.9132 237.023ZM88.6211 233.786V232.091H87.6802V237.023H89.835C91.0426 237.023 91.717 236.323 91.717 235.395C91.717 234.448 91.0426 233.786 89.835 233.786H88.6211ZM88.6211 234.615H89.835C90.3874 234.615 90.7824 234.949 90.7824 235.424C90.7824 235.874 90.3874 236.195 89.835 236.195H88.6211V234.615ZM93.7346 232.091H92.7936V237.023H93.7346V234.975H95.8702V237.023H96.8079V232.091H95.8702V234.143H93.7346V232.091ZM99.0335 233.786V232.091H98.0925V237.023H100.247C101.455 237.023 102.129 236.323 102.129 235.395C102.129 234.448 101.455 233.786 100.247 233.786H99.0335ZM102.829 237.023H103.79V232.091H102.829V237.023ZM99.0335 234.615H100.247C100.8 234.615 101.195 234.949 101.195 235.424C101.195 235.874 100.8 236.195 100.247 236.195H99.0335V234.615ZM106.019 235.678V232.091H105.078V237.023H106.122L108.287 233.433V237.023H109.227V232.091H108.193L106.019 235.678ZM107.782 230.421C107.782 230.745 107.602 231.031 107.153 231.031C106.697 231.031 106.527 230.742 106.527 230.421H105.74C105.74 231.143 106.289 231.641 107.153 231.641C108.023 231.641 108.572 231.143 108.572 230.421H107.782ZM33.3486 248.023H35.7058C36.7849 248.023 37.4176 247.477 37.4176 246.694C37.4176 245.962 36.8555 245.512 36.1972 245.435C36.8042 245.319 37.2056 244.985 37.2056 244.407C37.2056 243.598 36.5055 243.091 35.3943 243.091H33.3486V248.023ZM34.2511 247.221V245.849H35.7058C36.1811 245.849 36.467 246.129 36.467 246.588C36.467 246.98 36.1811 247.221 35.7058 247.221H34.2511ZM34.2511 245.146V243.903H35.3943C35.9403 243.903 36.2711 244.131 36.2711 244.51C36.2711 244.905 35.9435 245.146 35.404 245.146H34.2511ZM38.1787 246.72C38.2076 247.58 39.0136 248.123 40.1088 248.123C41.2328 248.123 42.0453 247.558 42.0453 246.652C42.0453 246.01 41.6374 245.535 41.0658 245.496V245.445C41.5828 245.297 41.9393 244.95 41.9393 244.407C41.9393 243.598 41.2456 243.026 40.1473 243.026C39.0939 243.026 38.32 243.588 38.3007 244.417H39.2706C39.2898 244.048 39.672 243.791 40.1955 243.791C40.7125 243.791 41.0144 244.06 41.0144 244.462C41.0144 244.838 40.7446 245.114 40.2019 245.114H39.399V245.869H40.2019C40.7478 245.869 41.0979 246.17 41.0979 246.617C41.0979 247.121 40.6515 247.349 40.0991 247.349C39.5564 247.349 39.1903 247.124 39.1614 246.72H38.1787ZM43.9778 243.091H43.0368V248.023H43.9778V245.975H46.1134V248.023H47.0511V243.091H46.1134V245.143H43.9778V243.091ZM50.4135 248.123C51.8041 248.123 52.7129 247.105 52.7129 245.58C52.7129 244.044 51.8041 243.026 50.4135 243.026C49.023 243.026 48.1141 244.044 48.1141 245.58C48.1141 247.105 49.023 248.123 50.4135 248.123ZM50.4168 247.317C49.5079 247.317 49.084 246.524 49.084 245.576C49.084 244.632 49.5079 243.829 50.4168 243.829C51.3192 243.829 51.7431 244.632 51.7431 245.576C51.7431 246.524 51.3192 247.317 50.4168 247.317ZM55.8626 248.123C57.0283 248.123 57.783 247.423 57.889 246.463H56.9545C56.8324 246.996 56.4182 247.31 55.869 247.31C55.0565 247.31 54.533 246.633 54.533 245.557C54.533 244.5 55.0661 243.836 55.869 243.836C56.4792 243.836 56.8517 244.221 56.9545 244.684H57.889C57.7863 243.688 56.9738 243.026 55.853 243.026C54.4624 243.026 53.5632 244.073 53.5632 245.58C53.5632 247.066 54.4303 248.123 55.8626 248.123Z" fill="#778699"/>
<rect x="32.7031" y="203.606" width="372.591" height="0.904348" fill="#D7E1EA"/>
<path d="M38.2988 183.05H39.4395L36.1407 178.626L39.3316 175.157H38.1909L35.0308 178.579H34.6146V175.157H33.6589V183.05H34.6146V179.427H35.5857L38.2988 183.05ZM40.5513 185.27H41.4608V182.14H41.5379C41.7383 182.464 42.1236 183.173 43.2643 183.173C44.7442 183.173 45.777 181.986 45.777 180.106C45.777 178.24 44.7442 177.053 43.2489 177.053C42.0928 177.053 41.7383 177.762 41.5379 178.071H41.43V177.13H40.5513V185.27ZM41.4454 180.09C41.4454 178.764 42.0311 177.87 43.141 177.87C44.2971 177.87 44.8675 178.842 44.8675 180.09C44.8675 181.354 44.2817 182.356 43.141 182.356C42.0466 182.356 41.4454 181.431 41.4454 180.09ZM49.6462 183.173C50.8485 183.173 51.7272 182.572 52.0047 181.678L51.126 181.431C50.8948 182.048 50.3591 182.356 49.6462 182.356C48.5787 182.356 47.8426 181.666 47.8002 180.398H52.0971V180.013C52.0971 177.809 50.7869 177.053 49.5537 177.053C47.9505 177.053 46.8869 178.317 46.8869 180.136C46.8869 181.955 47.9351 183.173 49.6462 183.173ZM47.8002 179.612C47.8619 178.691 48.5132 177.87 49.5537 177.87C50.5402 177.87 51.1722 178.61 51.1722 179.612H47.8002ZM52.8486 184.745H53.7581V183.05H58.136V184.745H59.0455V182.202H58.136V177.13H54.3747L54.1743 179.474C54.0317 181.131 53.8198 181.701 53.3419 182.202H52.8486V184.745ZM54.3747 182.202C54.7909 181.655 54.9412 180.711 55.0684 179.474L55.2225 177.978H57.2265V182.202H54.3747ZM61.1621 181.709V177.13H60.2527V183.05H61.3163L64.1527 178.472V183.05H65.0621V177.13H64.0139L61.1621 181.709ZM65.9225 177.978H67.8802V183.05H68.7897V177.978H70.732V177.13H65.9225V177.978ZM72.9681 177.13H72.0586V183.05H72.9681V180.522H75.8045V183.05H76.714V177.13H75.8045V179.674H72.9681V177.13ZM80.1168 183.189C81.1496 183.189 81.6892 182.634 81.8741 182.248H81.9204V183.05H82.8299V179.15C82.8299 177.269 81.3963 177.053 80.6409 177.053C79.7469 177.053 78.7295 177.362 78.267 178.441L79.1303 178.749C79.3307 178.317 79.8047 177.855 80.6718 177.855C81.508 177.855 81.9204 178.298 81.9204 179.057V179.088C81.9204 179.527 81.4734 179.489 80.3943 179.628C79.296 179.77 78.0975 180.013 78.0975 181.37C78.0975 182.526 78.9915 183.189 80.1168 183.189ZM80.2556 182.372C79.5311 182.372 79.0069 182.048 79.0069 181.416C79.0069 180.722 79.639 180.506 80.3481 180.414C80.7334 180.368 81.7662 180.26 81.9204 180.075V180.907C81.9204 181.647 81.3346 182.372 80.2556 182.372ZM88.0507 183.05H88.914V177.13H86.4784C85.2028 177.13 84.4282 177.797 84.4282 178.888C84.4282 179.701 84.8367 180.279 85.5497 180.522L84.1045 183.05H85.0911L86.463 180.645H88.0507V183.05ZM88.0507 179.797H86.3705C85.7269 179.797 85.3377 179.454 85.3377 178.888C85.3377 178.314 85.7693 177.963 86.4784 177.963H88.0507V179.797ZM93.6358 183.05H94.5453V180.553H95.3623L97.3046 183.05H98.4761L96.056 179.982L98.4453 177.13H97.2737L95.1465 179.705H94.5453V177.13H93.6358V183.05ZM101.207 183.189C102.239 183.189 102.779 182.634 102.964 182.248H103.01V183.05H103.92V179.15C103.92 177.269 102.486 177.053 101.731 177.053C100.837 177.053 99.8192 177.362 99.3567 178.441L100.22 178.749C100.42 178.317 100.894 177.855 101.761 177.855C102.598 177.855 103.01 178.298 103.01 179.057V179.088C103.01 179.527 102.563 179.489 101.484 179.628C100.386 179.77 99.1871 180.013 99.1871 181.37C99.1871 182.526 100.081 183.189 101.207 183.189ZM101.345 182.372C100.621 182.372 100.097 182.048 100.097 181.416C100.097 180.722 100.729 180.506 101.438 180.414C101.823 180.368 102.856 180.26 103.01 180.075V180.907C103.01 181.647 102.424 182.372 101.345 182.372ZM105.58 185.27H106.489V182.14H106.566C106.767 182.464 107.152 183.173 108.293 183.173C109.772 183.173 110.805 181.986 110.805 180.106C110.805 178.24 109.772 177.053 108.277 177.053C107.121 177.053 106.767 177.762 106.566 178.071H106.458V177.13H105.58V185.27ZM106.474 180.09C106.474 178.764 107.059 177.87 108.169 177.87C109.325 177.87 109.896 178.842 109.896 180.09C109.896 181.354 109.31 182.356 108.169 182.356C107.075 182.356 106.474 181.431 106.474 180.09ZM111.419 177.978H113.377V183.05H114.286V177.978H116.228V177.13H111.419V177.978ZM118.99 183.189C120.022 183.189 120.562 182.634 120.747 182.248H120.793V183.05H121.703V179.15C121.703 177.269 120.269 177.053 119.514 177.053C118.62 177.053 117.602 177.362 117.14 178.441L118.003 178.749C118.203 178.317 118.677 177.855 119.545 177.855C120.381 177.855 120.793 178.298 120.793 179.057V179.088C120.793 179.527 120.346 179.489 119.267 179.628C118.169 179.77 116.97 180.013 116.97 181.37C116.97 182.526 117.864 183.189 118.99 183.189ZM119.128 182.372C118.404 182.372 117.88 182.048 117.88 181.416C117.88 180.722 118.512 180.506 119.221 180.414C119.606 180.368 120.639 180.26 120.793 180.075V180.907C120.793 181.647 120.207 182.372 119.128 182.372Z" fill="#778699"/>
<rect x="32.7031" y="154.771" width="372.591" height="0.904348" fill="#D7E1EA"/>
<path d="M39.5628 118.183H33.6743V126.075H34.63V119.031H38.6071V126.075H39.5628V118.183ZM43.7721 126.199C45.3752 126.199 46.4543 124.981 46.4543 123.146C46.4543 121.297 45.3752 120.079 43.7721 120.079C42.1689 120.079 41.0899 121.297 41.0899 123.146C41.0899 124.981 42.1689 126.199 43.7721 126.199ZM43.7721 125.382C42.5543 125.382 41.9993 124.333 41.9993 123.146C41.9993 121.959 42.5543 120.896 43.7721 120.896C44.9899 120.896 45.5448 121.959 45.5448 123.146C45.5448 124.333 44.9899 125.382 43.7721 125.382ZM47.069 121.004H49.0267V126.075H49.9362V121.004H51.8784V120.156H47.069V121.004ZM53.2051 128.295H54.1146V125.166H54.1917C54.3921 125.489 54.7774 126.199 55.9181 126.199C57.398 126.199 58.4308 125.012 58.4308 123.131C58.4308 121.266 57.398 120.079 55.9027 120.079C54.7466 120.079 54.3921 120.788 54.1917 121.096H54.0838V120.156H53.2051V128.295ZM54.0992 123.116C54.0992 121.79 54.6849 120.896 55.7948 120.896C56.9509 120.896 57.5213 121.867 57.5213 123.116C57.5213 124.38 56.9355 125.382 55.7948 125.382C54.7004 125.382 54.0992 124.457 54.0992 123.116ZM62.3 126.199C63.5023 126.199 64.381 125.597 64.6585 124.703L63.7798 124.457C63.5486 125.073 63.0129 125.382 62.3 125.382C61.2325 125.382 60.4964 124.692 60.454 123.424H64.7509V123.038C64.7509 120.834 63.4407 120.079 62.2075 120.079C60.6043 120.079 59.5407 121.343 59.5407 123.162C59.5407 124.981 60.5889 126.199 62.3 126.199ZM60.454 122.638C60.5157 121.717 61.167 120.896 62.2075 120.896C63.194 120.896 63.826 121.636 63.826 122.638H60.454ZM70.5277 117.936C70.2387 118.179 69.8071 118.179 69.202 118.175C69.0055 118.175 68.7897 118.175 68.5546 118.183C66.751 118.229 65.857 119.601 65.857 122.237V122.869C65.857 125.058 66.9206 126.199 68.5084 126.199C70.0923 126.199 71.1443 125.05 71.1443 123.193C71.1443 121.327 70.0768 120.341 68.6933 120.341C67.8802 120.341 67.121 120.68 66.7202 121.42H66.6431C66.7665 119.894 67.3368 119.077 68.57 119.031C69.6645 118.984 70.4507 119.015 70.9902 118.491L70.5277 117.936ZM68.5084 125.382C67.4293 125.382 66.7665 124.518 66.7665 123.193C66.7857 121.898 67.437 121.158 68.4929 121.158C69.5759 121.158 70.2348 121.898 70.2348 123.193C70.2348 124.526 69.5797 125.382 68.5084 125.382ZM73.445 124.734V120.156H72.5355V126.075H73.5992L76.4355 121.497V126.075H77.345V120.156H76.2968L73.445 124.734ZM78.2054 121.004H80.1631V126.075H81.0726V121.004H83.0149V120.156H78.2054V121.004ZM86.516 126.199C87.7184 126.199 88.597 125.597 88.8745 124.703L87.9958 124.457C87.7646 125.073 87.2289 125.382 86.516 125.382C85.4485 125.382 84.7124 124.692 84.67 123.424H88.967V123.038C88.967 120.834 87.6567 120.079 86.4235 120.079C84.8203 120.079 83.7567 121.343 83.7567 123.162C83.7567 124.981 84.8049 126.199 86.516 126.199ZM84.67 122.638C84.7317 121.717 85.383 120.896 86.4235 120.896C87.4101 120.896 88.0421 121.636 88.0421 122.638H84.67ZM89.8264 126.075H90.1347C91.4449 126.075 91.8226 125.058 91.9074 123.116L91.9999 121.004H94.1734V126.075H95.0829V120.156H91.1366L91.0287 122.776C90.9517 124.765 90.7513 125.227 90.0422 125.227H89.8264V126.075ZM97.661 122.299V120.156H96.7516V126.075H99.2334C100.621 126.075 101.376 125.227 101.376 124.164C101.376 123.085 100.621 122.299 99.2334 122.299H97.661ZM97.661 123.146H99.2334C99.954 123.146 100.467 123.586 100.467 124.21C100.467 124.807 99.954 125.227 99.2334 125.227H97.661V123.146ZM105.165 126.199C106.476 126.199 107.339 125.397 107.493 124.349H106.583C106.414 124.996 105.874 125.382 105.165 125.382C104.086 125.382 103.393 124.487 103.393 123.116C103.393 121.774 104.102 120.896 105.165 120.896C105.967 120.896 106.445 121.389 106.583 121.929H107.493C107.339 120.819 106.398 120.079 105.15 120.079C103.547 120.079 102.483 121.343 102.483 123.146C102.483 124.919 103.5 126.199 105.165 126.199ZM108.822 126.075H109.732V123.578H110.549L112.491 126.075H113.663L111.243 123.008L113.632 120.156H112.46L110.333 122.73H109.732V120.156H108.822V126.075ZM115.561 124.734V120.156H114.651V126.075H115.715L118.551 121.497V126.075H119.461V120.156H118.413L115.561 124.734ZM123.608 126.199C124.811 126.199 125.689 125.597 125.967 124.703L125.088 124.457C124.857 125.073 124.321 125.382 123.608 125.382C122.541 125.382 121.805 124.692 121.762 123.424H126.059V123.038C126.059 120.834 124.749 120.079 123.516 120.079C121.913 120.079 120.849 121.343 120.849 123.162C120.849 124.981 121.897 126.199 123.608 126.199ZM121.762 122.638C121.824 121.717 122.475 120.896 123.516 120.896C124.502 120.896 125.134 121.636 125.134 122.638H121.762ZM33.5355 142.075H34.445V139.578H35.262L37.2043 142.075H38.3759L35.9557 139.008L38.345 136.156H37.1735L35.0462 138.73H34.445V136.156H33.5355V142.075ZM39.3643 144.295H40.2738V141.166H40.3509C40.5513 141.489 40.9367 142.199 42.0774 142.199C43.5572 142.199 44.59 141.012 44.59 139.131C44.59 137.266 43.5572 136.079 42.062 136.079C40.9058 136.079 40.5513 136.788 40.3509 137.096H40.243V136.156H39.3643V144.295ZM40.2584 139.116C40.2584 137.79 40.8442 136.896 41.9541 136.896C43.1102 136.896 43.6805 137.867 43.6805 139.116C43.6805 140.38 43.0948 141.382 41.9541 141.382C40.8596 141.382 40.2584 140.457 40.2584 139.116ZM48.4592 142.199C49.6616 142.199 50.5402 141.597 50.8177 140.703L49.939 140.457C49.7078 141.073 49.1721 141.382 48.4592 141.382C47.3917 141.382 46.6556 140.692 46.6133 139.424H50.9102V139.038C50.9102 136.834 49.5999 136.079 48.3667 136.079C46.7635 136.079 45.6999 137.343 45.6999 139.162C45.6999 140.981 46.7481 142.199 48.4592 142.199ZM46.6133 138.638C46.6749 137.717 47.3262 136.896 48.3667 136.896C49.3533 136.896 49.9853 137.636 49.9853 138.638H46.6133ZM51.6617 143.771H52.5712V142.075H56.949V143.771H57.8585V141.227H56.949V136.156H53.1878L52.9874 138.499C52.8448 140.156 52.6328 140.726 52.155 141.227H51.6617V143.771ZM53.1878 141.227C53.604 140.68 53.7543 139.736 53.8814 138.499L54.0356 137.004H56.0395V141.227H53.1878ZM59.9752 140.734V136.156H59.0657V142.075H60.1293L62.9657 137.497V142.075H63.8752V136.156H62.827L59.9752 140.734ZM64.7355 137.004H66.6932V142.075H67.6027V137.004H69.545V136.156H64.7355V137.004ZM71.7812 138.299V136.156H70.8717V142.075H73.3535C74.7408 142.075 75.4962 141.227 75.4962 140.164C75.4962 139.085 74.7408 138.299 73.3535 138.299H71.7812ZM76.4365 142.075H77.346V136.156H76.4365V142.075ZM71.7812 139.146H73.3535C74.0741 139.146 74.5867 139.586 74.5867 140.21C74.5867 140.807 74.0741 141.227 73.3535 141.227H71.7812V139.146Z" fill="#778699"/>
<rect x="32.7031" y="105.937" width="372.591" height="0.904348" fill="#D7E1EA"/>
<path d="M33.6589 77.4874V85.3799H34.5529V79.3834H34.63L37.0964 85.3799H37.9596L40.426 79.3834H40.5031V85.3799H41.3972V77.4874H40.2565L37.5743 84.0388H37.4818L34.7996 77.4874H33.6589ZM44.0996 84.0388V79.4605H43.1902V85.3799H44.2538L47.0902 80.8016V85.3799H47.9996V79.4605H46.9514L44.0996 84.0388ZM49.6654 85.3799H50.5749V82.8826H51.3919L53.3342 85.3799H54.5057L52.0856 82.3123L54.4749 79.4605H53.3034L51.1761 82.0348H50.5749V79.4605H49.6654V85.3799ZM55.4942 87.5996H56.4037V84.4704H56.4808C56.6812 84.7941 57.0666 85.5032 58.2073 85.5032C59.6871 85.5032 60.7199 84.3162 60.7199 82.4356C60.7199 80.5704 59.6871 79.3834 58.1919 79.3834C57.0357 79.3834 56.6812 80.0925 56.4808 80.4008H56.3729V79.4605H55.4942V87.5996ZM56.3883 82.4202C56.3883 81.0945 56.9741 80.2004 58.084 80.2004C59.2401 80.2004 59.8104 81.1716 59.8104 82.4202C59.8104 83.6842 59.2247 84.6862 58.084 84.6862C56.9895 84.6862 56.3883 83.7613 56.3883 82.4202ZM64.512 85.5032C66.1152 85.5032 67.1942 84.2854 67.1942 82.451C67.1942 80.6012 66.1152 79.3834 64.512 79.3834C62.9089 79.3834 61.8298 80.6012 61.8298 82.451C61.8298 84.2854 62.9089 85.5032 64.512 85.5032ZM64.512 84.6862C63.2942 84.6862 62.7393 83.638 62.7393 82.451C62.7393 81.2641 63.2942 80.2004 64.512 80.2004C65.7298 80.2004 66.2847 81.2641 66.2847 82.451C66.2847 83.638 65.7298 84.6862 64.512 84.6862ZM68.2126 83.8692C68.2434 84.8404 69.1722 85.5032 70.4323 85.5032C71.7272 85.5032 72.6675 84.8095 72.6675 83.7305C72.6675 82.9906 72.2243 82.3894 71.5576 82.3431V82.2815C72.1203 82.108 72.5442 81.6995 72.5442 81.0328C72.5442 80.0964 71.7426 79.3834 70.494 79.3834C69.2608 79.3834 68.3821 80.0617 68.3513 81.0174H69.3071C69.334 80.528 69.8466 80.185 70.5403 80.185C71.2301 80.185 71.6193 80.5357 71.6193 81.0637C71.6193 81.557 71.2802 81.9269 70.5557 81.9269H69.5383V82.7439H70.5557C71.2802 82.7439 71.7426 83.1409 71.7426 83.7305C71.7426 84.4049 71.1453 84.6862 70.4169 84.6862C69.704 84.6862 69.2261 84.4049 69.1837 83.8692H68.2126ZM75.6869 85.5186C76.7197 85.5186 77.2593 84.9637 77.4443 84.5783H77.4905V85.3799H78.4V81.4799C78.4 79.5993 76.9664 79.3834 76.2111 79.3834C75.317 79.3834 74.2996 79.6917 73.8371 80.7708L74.7004 81.0791C74.9008 80.6475 75.3748 80.185 76.2419 80.185C77.0781 80.185 77.4905 80.6282 77.4905 81.3874V81.4182C77.4905 81.8576 77.0435 81.819 75.9644 81.9577C74.8661 82.1003 73.6676 82.3431 73.6676 83.6996C73.6676 84.8558 74.5616 85.5186 75.6869 85.5186ZM75.8257 84.7016C75.1012 84.7016 74.5771 84.3779 74.5771 83.7459C74.5771 83.0522 75.2091 82.8364 75.9182 82.7439C76.3035 82.6977 77.3363 82.5898 77.4905 82.4048V83.2372C77.4905 83.9771 76.9047 84.7016 75.8257 84.7016ZM80.9695 84.0388V79.4605H80.06V85.3799H81.1236L83.96 80.8016V85.3799H84.8695V79.4605H83.8213L80.9695 84.0388ZM83.2201 77.4874C83.2201 77.8882 83.0043 78.2427 82.4647 78.2427C81.9252 78.2427 81.7248 77.8882 81.7248 77.4874H80.877C80.877 78.3198 81.4936 78.9056 82.4647 78.9056C83.4513 78.9056 84.0679 78.3198 84.0679 77.4874H83.2201ZM89.7724 84.1467L87.7376 79.4605H86.5353V85.3799H87.4447V80.7669L89.4025 85.3799H90.1424L92.1001 80.8517V85.3799H93.0096V79.4605H91.838L89.7724 84.1467ZM95.5839 81.6032V79.4605H94.6744V85.3799H97.1562C98.5436 85.3799 99.2989 84.5321 99.2989 83.4684C99.2989 82.3894 98.5436 81.6032 97.1562 81.6032H95.5839ZM100.239 85.3799H101.149V79.4605H100.239V85.3799ZM95.5839 82.451H97.1562C97.8769 82.451 98.3894 82.8904 98.3894 83.5147C98.3894 84.112 97.8769 84.5321 97.1562 84.5321H95.5839V82.451Z" fill="#778699"/>
<rect x="32.7031" y="57.1016" width="372.591" height="0.904348" fill="#D7E1EA"/>
<path d="M33.3891 36.5449H36.7611C38.5339 36.5449 39.478 35.62 39.478 34.3637C39.478 33.196 38.6418 32.4908 37.7438 32.4484V32.3713C38.5647 32.1863 39.1697 31.6044 39.1697 30.6757C39.1697 29.4926 38.2911 28.6524 36.5492 28.6524H33.3891V36.5449ZM35.0578 35.1807V33.0843H36.4567C37.2583 33.0843 37.7554 33.5467 37.7554 34.198C37.7554 34.7915 37.3508 35.1807 36.4181 35.1807H35.0578ZM35.0578 31.9551V30.0012H36.3257C37.0656 30.0012 37.4856 30.3828 37.4856 30.9531C37.4856 31.5774 36.9769 31.9551 36.2948 31.9551H35.0578ZM42.2209 36.6567C43.0957 36.6567 43.6622 36.2752 43.9513 35.7241H43.9975V36.5449H45.5544V32.5524C45.5544 31.142 44.3598 30.5485 43.0418 30.5485C41.6236 30.5485 40.691 31.2267 40.4636 32.3058L41.982 32.4291C42.0938 32.036 42.4445 31.747 43.0341 31.747C43.5929 31.747 43.9127 32.0283 43.9127 32.5139V32.537C43.9127 32.9185 43.5081 32.9686 42.4791 33.0688C41.3076 33.1767 40.2555 33.5698 40.2555 34.8917C40.2555 36.0632 41.0918 36.6567 42.2209 36.6567ZM42.6911 35.5237C42.1863 35.5237 41.824 35.2886 41.824 34.8377C41.824 34.3753 42.2055 34.1479 42.7836 34.067C43.142 34.0169 43.7278 33.9321 43.9243 33.801V34.4292C43.9243 35.0497 43.4117 35.5237 42.6911 35.5237ZM46.8281 30.6256V36.5449H54.8709V30.6256H53.3024V35.2424H51.6337V30.6256H50.0653V35.2424H48.3966V30.6256H46.8281ZM58.6553 38.7647H60.297V35.5969H60.3471C60.5744 36.0902 61.0716 36.6413 62.0273 36.6413C63.3761 36.6413 64.4282 35.5738 64.4282 33.5929C64.4282 31.5582 63.3299 30.5485 62.0312 30.5485C61.0407 30.5485 60.5667 31.1381 60.3471 31.6198H60.2738V30.6256H58.6553V38.7647ZM60.2623 33.5852C60.2623 32.5293 60.7093 31.8549 61.5071 31.8549C62.3202 31.8549 62.7518 32.5601 62.7518 33.5852C62.7518 34.618 62.3125 35.3348 61.5071 35.3348C60.717 35.3348 60.2623 34.6412 60.2623 33.5852ZM68.2203 36.6605C69.6847 36.6605 70.6713 35.9476 70.9025 34.8493L69.3841 34.7491C69.2184 35.2 68.7945 35.435 68.2473 35.435C67.4264 35.435 66.9062 34.8917 66.9062 34.0092V34.0053H70.9372V33.5544C70.9372 31.5427 69.7194 30.5485 68.1548 30.5485C66.4129 30.5485 65.2837 31.7855 65.2837 33.6122C65.2837 35.489 66.3975 36.6605 68.2203 36.6605ZM66.9062 32.9879C66.9408 32.3135 67.4534 31.774 68.1818 31.774C68.8947 31.774 69.388 32.2827 69.3918 32.9879H66.9062ZM73.577 34.3791V30.6256H72.0085V36.5449H73.6387L75.7621 32.7798V36.5449H77.3267V30.6256H75.7081L73.577 34.3791ZM75.4268 28.5599C75.4268 28.9222 75.211 29.2498 74.6638 29.2498C74.1011 29.2498 73.893 28.9145 73.8969 28.5599H72.76C72.76 29.4926 73.4961 30.1169 74.6638 30.1169C75.8315 30.1169 76.5675 29.4926 76.5714 28.5599H75.4268ZM78.0589 31.9166H79.9511V36.5449H81.5157V31.9166H83.4234V30.6256H78.0589V31.9166ZM85.9871 34.3791V30.6256H84.4186V36.5449H86.0487L88.1721 32.7798V36.5449H89.7368V30.6256H88.1182L85.9871 34.3791ZM92.6213 30.6256H91.0528V36.5449H92.6213V34.2211H94.6445V36.5449H96.2014V30.6256H94.6445V32.9301H92.6213V30.6256ZM101.529 30.6256H97.4751V36.5449H99.0706V31.9166H101.529V30.6256Z" fill="#2C3F58"/>
<path d="M151.425 35.6348C152.902 35.6348 153.959 34.8223 153.956 33.6983C153.959 32.8794 153.439 32.2949 152.472 32.1729V32.1215C153.207 31.9898 153.715 31.4696 153.712 30.7309C153.715 29.6936 152.806 28.8779 151.444 28.8779C150.096 28.8779 149.081 29.6679 149.061 30.8048H150.394C150.41 30.3038 150.87 29.9795 151.438 29.9795C152 29.9795 152.376 30.3199 152.372 30.8144C152.376 31.3315 151.936 31.6815 151.303 31.6815H150.69V32.7028H151.303C152.048 32.7028 152.514 33.0753 152.511 33.6052C152.514 34.1287 152.064 34.4884 151.428 34.4884C150.815 34.4884 150.356 34.1672 150.33 33.6855H148.93C148.952 34.8352 149.98 35.6348 151.425 35.6348ZM157.534 35.6894C159.188 35.6894 160.187 34.4305 160.19 32.2628C160.193 30.1111 159.182 28.8779 157.534 28.8779C155.883 28.8779 154.881 30.1079 154.878 32.2628C154.872 34.4241 155.877 35.6862 157.534 35.6894ZM157.534 34.5365C156.779 34.5365 156.291 33.7786 156.294 32.2628C156.298 30.7695 156.783 30.018 157.534 30.018C158.282 30.018 158.771 30.7695 158.771 32.2628C158.774 33.7786 158.286 34.5365 157.534 34.5365ZM164.043 28.9678H162.736L161.108 29.9987V31.2319L162.614 30.2878H162.652V35.5449H164.043V28.9678ZM168.692 31.7136H165.693V32.7991H168.692V31.7136ZM169.746 34.3888H172.903V35.5449H174.232V34.3888H175.048V33.2744H174.232V28.9678H172.492L169.746 33.2937V34.3888ZM172.928 33.2744H171.146V33.223L172.877 30.4837H172.928V33.2744ZM178.553 35.6894C180.207 35.6894 181.206 34.4305 181.209 32.2628C181.212 30.1111 180.201 28.8779 178.553 28.8779C176.902 28.8779 175.9 30.1079 175.897 32.2628C175.891 34.4241 176.896 35.6862 178.553 35.6894ZM178.553 34.5365C177.798 34.5365 177.31 33.7786 177.314 32.2628C177.317 30.7695 177.802 30.018 178.553 30.018C179.301 30.018 179.79 30.7695 179.79 32.2628C179.793 33.7786 179.305 34.5365 178.553 34.5365ZM184.779 35.6894C186.433 35.6894 187.432 34.4305 187.435 32.2628C187.438 30.1111 186.427 28.8779 184.779 28.8779C183.129 28.8779 182.127 30.1079 182.123 32.2628C182.117 34.4241 183.122 35.6862 184.779 35.6894ZM184.779 34.5365C184.025 34.5365 183.537 33.7786 183.54 32.2628C183.543 30.7695 184.028 30.018 184.779 30.018C185.528 30.018 186.016 30.7695 186.016 32.2628C186.019 33.7786 185.531 34.5365 184.779 34.5365Z" fill="#2C3F58"/>
<path d="M203.156 34.3888H206.313V35.5449H207.643V34.3888H208.458V33.2744H207.643V28.9678H205.902L203.156 33.2937V34.3888ZM206.339 33.2744H204.556V33.223L206.287 30.4837H206.339V33.2744ZM211.964 35.6894C213.618 35.6894 214.616 34.4305 214.62 32.2628C214.623 30.1111 213.611 28.8779 211.964 28.8779C210.313 28.8779 209.311 30.1079 209.308 32.2628C209.301 34.4241 210.307 35.6862 211.964 35.6894ZM211.964 34.5365C211.209 34.5365 210.721 33.7786 210.724 32.2628C210.727 30.7695 211.212 30.018 211.964 30.018C212.712 30.018 213.2 30.7695 213.2 32.2628C213.203 33.7786 212.715 34.5365 211.964 34.5365ZM218.472 28.9678H217.165L215.537 29.9987V31.2319L217.043 30.2878H217.082V35.5449H218.472V28.9678ZM223.122 31.7136H220.122V32.7991H223.122V31.7136ZM226.677 35.6348C228.141 35.6348 229.137 34.681 229.134 33.3515C229.137 32.0926 228.257 31.187 227.072 31.187C226.494 31.187 225.996 31.4278 225.765 31.7522H225.726L225.897 30.1047H228.771V28.9678H224.75L224.439 32.4362L225.675 32.6578C225.877 32.3848 226.269 32.2146 226.658 32.2146C227.319 32.2178 227.795 32.6964 227.795 33.3868C227.795 34.0709 227.329 34.5429 226.677 34.5429C226.125 34.5429 225.678 34.1961 225.646 33.6855H224.297C224.323 34.8223 225.315 35.6348 226.677 35.6348ZM232.682 35.6894C234.336 35.6894 235.335 34.4305 235.338 32.2628C235.341 30.1111 234.33 28.8779 232.682 28.8779C231.032 28.8779 230.03 30.1079 230.027 32.2628C230.02 34.4241 231.025 35.6862 232.682 35.6894ZM232.682 34.5365C231.928 34.5365 231.44 33.7786 231.443 32.2628C231.446 30.7695 231.931 30.018 232.682 30.018C233.431 30.018 233.919 30.7695 233.919 32.2628C233.922 33.7786 233.434 34.5365 232.682 34.5365ZM238.909 35.6894C240.563 35.6894 241.561 34.4305 241.564 32.2628C241.568 30.1111 240.556 28.8779 238.909 28.8779C237.258 28.8779 236.256 30.1079 236.253 32.2628C236.246 34.4241 237.251 35.6862 238.909 35.6894ZM238.909 34.5365C238.154 34.5365 237.666 33.7786 237.669 32.2628C237.672 30.7695 238.157 30.018 238.909 30.018C239.657 30.018 240.145 30.7695 240.145 32.2628C240.148 33.7786 239.66 34.5365 238.909 34.5365Z" fill="#2C3F58"/>
<path d="M259.916 35.6348C261.38 35.6348 262.376 34.681 262.373 33.3515C262.376 32.0926 261.496 31.187 260.311 31.187C259.733 31.187 259.235 31.4278 259.004 31.7522H258.965L259.135 30.1047H262.01V28.9678H257.989L257.677 32.4362L258.914 32.6578C259.116 32.3848 259.508 32.2146 259.896 32.2146C260.558 32.2178 261.033 32.6964 261.033 33.3868C261.033 34.0709 260.568 34.5429 259.916 34.5429C259.363 34.5429 258.917 34.1961 258.885 33.6855H257.536C257.562 34.8223 258.554 35.6348 259.916 35.6348ZM265.921 35.6894C267.575 35.6894 268.574 34.4305 268.577 32.2628C268.58 30.1111 267.569 28.8779 265.921 28.8779C264.27 28.8779 263.269 30.1079 263.265 32.2628C263.259 34.4241 264.264 35.6862 265.921 35.6894ZM265.921 34.5365C265.166 34.5365 264.678 33.7786 264.682 32.2628C264.685 30.7695 265.17 30.018 265.921 30.018C266.669 30.018 267.158 30.7695 267.158 32.2628C267.161 33.7786 266.673 34.5365 265.921 34.5365ZM272.43 28.9678H271.123L269.495 29.9987V31.2319L271.001 30.2878H271.039V35.5449H272.43V28.9678ZM277.079 31.7136H274.08V32.7991H277.079V31.7136ZM280.757 35.6348C282.221 35.6413 283.22 34.681 283.217 33.3419C283.22 32.1087 282.359 31.2191 281.193 31.2191C280.471 31.2191 279.832 31.5659 279.536 32.1472H279.491C279.498 30.8658 279.947 30.0694 280.805 30.0694C281.309 30.0694 281.672 30.3456 281.778 30.8048H283.149C283.017 29.7225 282.118 28.8779 280.805 28.8779C279.18 28.8779 278.136 30.1946 278.13 32.4041C278.126 34.8127 279.405 35.6284 280.757 35.6348ZM280.75 34.5429C280.108 34.5429 279.633 34.0259 279.633 33.3836C279.636 32.7445 280.121 32.2243 280.76 32.2243C281.402 32.2243 281.871 32.7285 281.868 33.3804C281.871 34.0387 281.392 34.5429 280.75 34.5429ZM286.781 35.6894C288.435 35.6894 289.434 34.4305 289.437 32.2628C289.44 30.1111 288.429 28.8779 286.781 28.8779C285.131 28.8779 284.129 30.1079 284.125 32.2628C284.119 34.4241 285.124 35.6862 286.781 35.6894ZM286.781 34.5365C286.027 34.5365 285.538 33.7786 285.542 32.2628C285.545 30.7695 286.03 30.018 286.781 30.018C287.53 30.018 288.018 30.7695 288.018 32.2628C288.021 33.7786 287.533 34.5365 286.781 34.5365ZM293.007 35.6894C294.661 35.6894 295.66 34.4305 295.663 32.2628C295.667 30.1111 294.655 28.8779 293.007 28.8779C291.357 28.8779 290.355 30.1079 290.352 32.2628C290.345 34.4241 291.35 35.6862 293.007 35.6894ZM293.007 34.5365C292.253 34.5365 291.765 33.7786 291.768 32.2628C291.771 30.7695 292.256 30.018 293.007 30.018C293.756 30.018 294.244 30.7695 294.244 32.2628C294.247 33.7786 293.759 34.5365 293.007 34.5365Z" fill="#2C3F58"/>
<path d="M314.3 35.6348C315.764 35.6413 316.763 34.681 316.759 33.3419C316.763 32.1087 315.902 31.2191 314.736 31.2191C314.014 31.2191 313.375 31.5659 313.079 32.1472H313.034C313.041 30.8658 313.49 30.0694 314.348 30.0694C314.852 30.0694 315.215 30.3456 315.321 30.8048H316.692C316.56 29.7225 315.661 28.8779 314.348 28.8779C312.723 28.8779 311.679 30.1946 311.673 32.4041C311.669 34.8127 312.947 35.6284 314.3 35.6348ZM314.293 34.5429C313.651 34.5429 313.175 34.0259 313.175 33.3836C313.179 32.7445 313.664 32.2243 314.303 32.2243C314.945 32.2243 315.414 32.7285 315.411 33.3804C315.414 34.0387 314.935 34.5429 314.293 34.5429ZM320.324 35.6894C321.978 35.6894 322.977 34.4305 322.98 32.2628C322.983 30.1111 321.972 28.8779 320.324 28.8779C318.674 28.8779 317.672 30.1079 317.668 32.2628C317.662 34.4241 318.667 35.6862 320.324 35.6894ZM320.324 34.5365C319.57 34.5365 319.081 33.7786 319.085 32.2628C319.088 30.7695 319.573 30.018 320.324 30.018C321.072 30.018 321.561 30.7695 321.561 32.2628C321.564 33.7786 321.076 34.5365 320.324 34.5365ZM326.833 28.9678H325.526L323.898 29.9987V31.2319L325.404 30.2878H325.442V35.5449H326.833V28.9678ZM331.482 31.7136H328.483V32.7991H331.482V31.7136ZM332.631 35.5449H334.066L336.796 30.1208V28.9678H332.181V30.1047H335.357V30.1497L332.631 35.5449ZM340.186 35.6894C341.84 35.6894 342.839 34.4305 342.842 32.2628C342.845 30.1111 341.834 28.8779 340.186 28.8779C338.536 28.8779 337.534 30.1079 337.53 32.2628C337.524 34.4241 338.529 35.6862 340.186 35.6894ZM340.186 34.5365C339.432 34.5365 338.943 33.7786 338.947 32.2628C338.95 30.7695 339.435 30.018 340.186 30.018C340.935 30.018 341.423 30.7695 341.423 32.2628C341.426 33.7786 340.938 34.5365 340.186 34.5365ZM346.413 35.6894C348.066 35.6894 349.065 34.4305 349.068 32.2628C349.072 30.1111 348.06 28.8779 346.413 28.8779C344.762 28.8779 343.76 30.1079 343.757 32.2628C343.75 34.4241 344.755 35.6862 346.413 35.6894ZM346.413 34.5365C345.658 34.5365 345.17 33.7786 345.173 32.2628C345.176 30.7695 345.661 30.018 346.413 30.018C347.161 30.018 347.649 30.7695 347.649 32.2628C347.652 33.7786 347.164 34.5365 346.413 34.5365Z" fill="#2C3F58"/>
<path d="M365.395 35.5449H366.83L369.56 30.1208V28.9678H364.945V30.1047H368.121V30.1497L365.395 35.5449ZM372.951 35.6894C374.604 35.6894 375.603 34.4305 375.606 32.2628C375.61 30.1111 374.598 28.8779 372.951 28.8779C371.3 28.8779 370.298 30.1079 370.295 32.2628C370.288 34.4241 371.293 35.6862 372.951 35.6894ZM372.951 34.5365C372.196 34.5365 371.708 33.7786 371.711 32.2628C371.714 30.7695 372.199 30.018 372.951 30.018C373.699 30.018 374.187 30.7695 374.187 32.2628C374.19 33.7786 373.702 34.5365 372.951 34.5365ZM379.459 28.9678H378.152L376.524 29.9987V31.2319L378.03 30.2878H378.069V35.5449H379.459V28.9678ZM384.109 31.7136H381.109V32.7991H384.109V31.7136ZM387.715 35.6348C389.199 35.6348 390.265 34.8416 390.268 33.7754C390.265 32.9533 389.633 32.2821 388.842 32.1504V32.1054C389.53 31.9641 390.021 31.37 390.024 30.6474C390.021 29.6294 389.045 28.8779 387.715 28.8779C386.383 28.8779 385.406 29.6294 385.409 30.6474C385.406 31.3668 385.891 31.9641 386.591 32.1054V32.1504C385.788 32.2821 385.162 32.9533 385.165 33.7754C385.162 34.8416 386.232 35.6348 387.715 35.6348ZM387.715 34.6136C387.054 34.6136 386.611 34.2218 386.611 33.6662C386.611 33.0978 387.076 32.6867 387.715 32.6867C388.351 32.6867 388.82 33.0978 388.82 33.6662C388.82 34.225 388.374 34.6136 387.715 34.6136ZM387.715 31.6751C387.16 31.6751 386.765 31.3122 386.765 30.792C386.765 30.2781 387.153 29.9249 387.715 29.9249C388.274 29.9249 388.666 30.2813 388.666 30.792C388.666 31.3122 388.268 31.6751 387.715 31.6751ZM393.643 35.6348C395.107 35.6348 396.103 34.681 396.1 33.3515C396.103 32.0926 395.223 31.187 394.038 31.187C393.46 31.187 392.962 31.4278 392.731 31.7522H392.692L392.862 30.1047H395.737V28.9678H391.716L391.404 32.4362L392.641 32.6578C392.843 32.3848 393.235 32.2146 393.624 32.2146C394.285 32.2178 394.76 32.6964 394.76 33.3868C394.76 34.0709 394.295 34.5429 393.643 34.5429C393.09 34.5429 392.644 34.1961 392.612 33.6855H391.263C391.289 34.8223 392.281 35.6348 393.643 35.6348ZM399.648 35.6894C401.302 35.6894 402.301 34.4305 402.304 32.2628C402.307 30.1111 401.296 28.8779 399.648 28.8779C397.998 28.8779 396.996 30.1079 396.992 32.2628C396.986 34.4241 397.991 35.6862 399.648 35.6894ZM399.648 34.5365C398.894 34.5365 398.405 33.7786 398.409 32.2628C398.412 30.7695 398.897 30.018 399.648 30.018C400.397 30.018 400.885 30.7695 400.885 32.2628C400.888 33.7786 400.4 34.5365 399.648 34.5365Z" fill="#2C3F58"/>
<defs>
<filter id="filter0_dd" x="0.147826" y="0.127777" width="430.47" height="283.061" filterUnits="userSpaceOnUse" color-interpolation-filters="sRGB">
<feFlood flood-opacity="0" result="BackgroundImageFix"/>
<feColorMatrix in="SourceAlpha" type="matrix" values="0 0 0 0 0 0 0 0 0 0 0 0 0 0 0 0 0 0 127 0"/>
<feOffset dx="-3.61739" dy="4.52174"/>
<feGaussianBlur stdDeviation="3.61739"/>
<feColorMatrix type="matrix" values="0 0 0 0 0.262745 0 0 0 0 0.337255 0 0 0 0 0.392157 0 0 0 0.123689 0"/>
<feBlend mode="normal" in2="BackgroundImageFix" result="effect1_dropShadow"/>
<feColorMatrix in="SourceAlpha" type="matrix" values="0 0 0 0 0 0 0 0 0 0 0 0 0 0 0 0 0 0 127 0"/>
<feOffset dx="-0.904348" dy="1.8087"/>
<feGaussianBlur stdDeviation="1.8087"/>
<feColorMatrix type="matrix" values="0 0 0 0 0.262745 0 0 0 0 0.337255 0 0 0 0 0.392157 0 0 0 0.10047 0"/>
<feBlend mode="normal" in2="effect1_dropShadow" result="effect2_dropShadow"/>
<feBlend mode="normal" in="SourceGraphic" in2="effect2_dropShadow" result="shape"/>
</filter>
</defs>
</svg>
