<svg width="431" height="369" viewBox="0 0 431 369" fill="none" xmlns="http://www.w3.org/2000/svg">
<g filter="url(#filter0_dd)">
<rect x="11" y="2.84082" width="416" height="353.6" rx="7.23478" fill="white"/>
<rect x="11.4522" y="3.29299" width="415.096" height="352.696" rx="6.78261" stroke="#E5E9F2" stroke-opacity="0.6" stroke-width="0.904348"/>
</g>
<rect x="65.2617" y="266.006" width="340.035" height="0.904348" fill="#D7E1EA"/>
<rect x="65.2617" y="241.589" width="340.035" height="0.904348" fill="#D7E1EA"/>
<rect x="65.2617" y="290.424" width="340.035" height="0.904348" fill="#D7E1EA"/>
<rect x="65.2617" y="217.171" width="340.035" height="0.904348" fill="#D7E1EA"/>
<rect x="65.2617" y="192.754" width="340.035" height="0.904348" fill="#D7E1EA"/>
<rect x="65.2617" y="168.336" width="340.035" height="0.904348" fill="#D7E1EA"/>
<rect x="65.2617" y="143.919" width="340.035" height="0.904348" fill="#D7E1EA"/>
<rect x="65.2617" y="119.501" width="340.035" height="0.904348" fill="#D7E1EA"/>
<rect x="65.2617" y="95.084" width="340.035" height="0.904348" fill="#D7E1EA"/>
<path d="M82.4453 247.015C82.4453 244.018 84.8747 241.589 87.8714 241.589C90.8681 241.589 93.2975 244.018 93.2975 247.015V314.841H82.4453V247.015Z" fill="#D7E1EA"/>
<path d="M111.383 222.597C111.383 219.6 113.812 217.171 116.809 217.171C119.806 217.171 122.235 219.6 122.235 222.597V314.84H111.383V222.597Z" fill="#D7E1EA"/>
<path d="M313.957 148.441C313.957 145.444 316.386 143.015 319.383 143.015C322.38 143.015 324.809 145.444 324.809 148.441V314.841H313.957V148.441Z" fill="#D7E1EA"/>
<path d="M227.141 173.762C227.141 170.765 229.57 168.336 232.567 168.336C235.563 168.336 237.993 170.765 237.993 173.762V314.84H227.141V173.762Z" fill="#D7E1EA"/>
<path d="M285.02 149.345C285.02 146.348 287.449 143.919 290.446 143.919C293.442 143.919 295.872 146.348 295.872 149.345V314.841H285.02V149.345Z" fill="#D7E1EA"/>
<path d="M140.324 221.693C140.324 218.696 142.754 216.267 145.75 216.267C148.747 216.267 151.176 218.696 151.176 221.693V314.841H140.324V221.693Z" fill="#A25BAA"/>
<path d="M169.262 198.18C169.262 195.183 171.691 192.754 174.688 192.754C177.685 192.754 180.114 195.183 180.114 198.18V314.841H169.262V198.18Z" fill="#D7E1EA"/>
<path d="M198.203 197.276C198.203 194.279 200.632 191.85 203.629 191.85C206.626 191.85 209.055 194.279 209.055 197.276V314.841H198.203V197.276Z" fill="#D7E1EA"/>
<path d="M342.898 124.928C342.898 121.931 345.328 119.502 348.325 119.502C351.321 119.502 353.751 121.931 353.751 124.928V314.841H342.898V124.928Z" fill="#D7E1EA"/>
<path d="M371.836 113.171C371.836 110.174 374.265 107.745 377.262 107.745C380.259 107.745 382.688 110.174 382.688 113.171V314.841H371.836V113.171Z" fill="#D7E1EA"/>
<path d="M256.082 172.858C256.082 169.861 258.511 167.432 261.508 167.432C264.505 167.432 266.934 169.861 266.934 172.858V314.84H256.082V172.858Z" fill="#D7E1EA"/>
<path d="M87.8711 241.589L116.81 217.171L145.749 216.267L174.688 192.754L203.628 191.849L232.567 168.336L261.506 167.432L290.445 143.919L319.384 143.015L347.871 119.502L377.262 107.745" stroke="url(#paint0_linear)" stroke-width="1.8087" stroke-linecap="round"/>
<rect x="65.2617" y="314.841" width="340.035" height="0.904348" fill="#D7E1EA"/>
<path d="M36.0944 316.096C37.8363 316.096 38.8383 314.62 38.8383 312.042C38.8383 309.483 37.8209 307.988 36.0944 307.988C34.3679 307.988 33.3506 309.483 33.3506 312.042C33.3506 314.62 34.3525 316.096 36.0944 316.096ZM36.0944 315.248C34.946 315.248 34.2755 314.096 34.2755 312.042C34.2755 309.992 34.9537 308.82 36.0944 308.82C37.2351 308.82 37.9134 309.992 37.9134 312.042C37.9134 314.096 37.2428 315.248 36.0944 315.248Z" fill="#778699"/>
<path d="M33.5201 267.154H38.4992V266.306H34.8304V266.245L36.6031 264.349C37.9596 262.896 38.3604 262.218 38.3604 261.343C38.3604 260.125 37.3739 259.154 35.9865 259.154C34.603 259.154 33.551 260.094 33.551 261.482H34.4604C34.4604 260.584 35.0424 259.986 35.9557 259.986C36.8112 259.986 37.4664 260.51 37.4664 261.343C37.4664 262.071 37.0386 262.611 36.1253 263.609L33.5201 266.461V267.154ZM42.6651 267.262C44.407 267.262 45.409 265.786 45.409 263.208C45.409 260.649 44.3916 259.154 42.6651 259.154C40.9386 259.154 39.9212 260.649 39.9212 263.208C39.9212 265.786 40.9232 267.262 42.6651 267.262ZM42.6651 266.414C41.5167 266.414 40.8461 265.262 40.8461 263.208C40.8461 261.158 41.5244 259.986 42.6651 259.986C43.8058 259.986 44.4841 261.158 44.4841 263.208C44.4841 265.262 43.8135 266.414 42.6651 266.414ZM49.4477 267.262C51.1896 267.262 52.1916 265.786 52.1916 263.208C52.1916 260.649 51.1742 259.154 49.4477 259.154C47.7212 259.154 46.7038 260.649 46.7038 263.208C46.7038 265.786 47.7058 267.262 49.4477 267.262ZM49.4477 266.414C48.2993 266.414 47.6287 265.262 47.6287 263.208C47.6287 261.158 48.307 259.986 49.4477 259.986C50.5884 259.986 51.2667 261.158 51.2667 263.208C51.2667 265.262 50.5961 266.414 49.4477 266.414Z" fill="#778699"/>
<path d="M36.1869 242.844C37.7169 242.844 38.8537 241.885 38.8537 240.594C38.8537 239.592 38.2602 238.863 37.266 238.698V238.636C38.0637 238.393 38.5608 237.738 38.5608 236.848C38.5608 235.73 37.6783 234.736 36.2177 234.736C34.8535 234.736 33.7205 235.576 33.6743 236.817H34.5992C34.6339 236.031 35.3815 235.568 36.2023 235.568C37.0733 235.568 37.6359 236.096 37.6359 236.894C37.6359 237.726 36.9846 238.266 36.0482 238.266H35.4162V239.114H36.0482C37.2467 239.114 37.9134 239.723 37.9134 240.594C37.9134 241.43 37.185 241.996 36.1715 241.996C35.2582 241.996 34.5337 241.526 34.4759 240.763H33.5047C33.5625 242.004 34.657 242.844 36.1869 242.844ZM43.0042 242.844C44.7461 242.844 45.7481 241.368 45.7481 238.79C45.7481 236.231 44.7307 234.736 43.0042 234.736C41.2777 234.736 40.2603 236.231 40.2603 238.79C40.2603 241.368 41.2623 242.844 43.0042 242.844ZM43.0042 241.996C41.8558 241.996 41.1852 240.844 41.1852 238.79C41.1852 236.74 41.8635 235.568 43.0042 235.568C44.1449 235.568 44.8232 236.74 44.8232 238.79C44.8232 240.844 44.1526 241.996 43.0042 241.996ZM49.7868 242.844C51.5287 242.844 52.5307 241.368 52.5307 238.79C52.5307 236.231 51.5133 234.736 49.7868 234.736C48.0603 234.736 47.0429 236.231 47.0429 238.79C47.0429 241.368 48.0449 242.844 49.7868 242.844ZM49.7868 241.996C48.6384 241.996 47.9678 240.844 47.9678 238.79C47.9678 236.74 48.6461 235.568 49.7868 235.568C50.9275 235.568 51.6058 236.74 51.6058 238.79C51.6058 240.844 50.9352 241.996 49.7868 241.996Z" fill="#778699"/>
<path d="M36.2948 283.679H35.3391L33.366 284.989V285.96L35.2928 284.681H35.3391V291.571H36.2948V283.679ZM41.139 291.679C42.8809 291.679 43.8829 290.203 43.8829 287.625C43.8829 285.066 42.8655 283.571 41.139 283.571C39.4125 283.571 38.3951 285.066 38.3951 287.625C38.3951 290.203 39.3971 291.679 41.139 291.679ZM41.139 290.831C39.9906 290.831 39.32 289.679 39.32 287.625C39.32 285.575 39.9983 284.403 41.139 284.403C42.2797 284.403 42.958 285.575 42.958 287.625C42.958 289.679 42.2874 290.831 41.139 290.831ZM47.9216 291.679C49.6635 291.679 50.6655 290.203 50.6655 287.625C50.6655 285.066 49.6481 283.571 47.9216 283.571C46.1951 283.571 45.1777 285.066 45.1777 287.625C45.1777 290.203 46.1797 291.679 47.9216 291.679ZM47.9216 290.831C46.7732 290.831 46.1026 289.679 46.1026 287.625C46.1026 285.575 46.7809 284.403 47.9216 284.403C49.0623 284.403 49.7406 285.575 49.7406 287.625C49.7406 289.679 49.07 290.831 47.9216 290.831Z" fill="#778699"/>
<path d="M33.3351 216.701H37.0502V218.319H37.9596V216.701H39.0387V215.853H37.9596V210.427H36.8035L33.3351 215.915V216.701ZM37.0502 215.853H34.3679V215.791L36.9885 211.645H37.0502V215.853ZM43.0572 218.427C44.7991 218.427 45.8011 216.951 45.8011 214.373C45.8011 211.814 44.7837 210.319 43.0572 210.319C41.3307 210.319 40.3133 211.814 40.3133 214.373C40.3133 216.951 41.3153 218.427 43.0572 218.427ZM43.0572 217.579C41.9088 217.579 41.2382 216.427 41.2382 214.373C41.2382 212.323 41.9165 211.151 43.0572 211.151C44.1979 211.151 44.8762 212.323 44.8762 214.373C44.8762 216.427 44.2056 217.579 43.0572 217.579ZM49.8398 218.427C51.5817 218.427 52.5837 216.951 52.5837 214.373C52.5837 211.814 51.5663 210.319 49.8398 210.319C48.1133 210.319 47.0959 211.814 47.0959 214.373C47.0959 216.951 48.0979 218.427 49.8398 218.427ZM49.8398 217.579C48.6914 217.579 48.0208 216.427 48.0208 214.373C48.0208 212.323 48.6991 211.151 49.8398 211.151C50.9805 211.151 51.6588 212.323 51.6588 214.373C51.6588 216.427 50.9882 217.579 49.8398 217.579Z" fill="#778699"/>
<path d="M35.9865 194.009C37.4895 194.009 38.5917 192.899 38.5917 191.389C38.5917 189.859 37.528 188.737 36.079 188.737C35.5472 188.737 35.0308 188.926 34.7071 189.184H34.6608L34.9383 186.857H38.2371V186.009H34.1367L33.6589 189.893L34.5529 190.001C34.8805 189.766 35.4393 189.597 35.9249 189.601C36.9307 189.608 37.6668 190.371 37.6668 191.404C37.6668 192.418 36.9577 193.161 35.9865 193.161C35.1772 193.161 34.5337 192.641 34.4604 191.928H33.5355C33.5933 193.131 34.63 194.009 35.9865 194.009ZM42.6969 194.009C44.4388 194.009 45.4407 192.533 45.4407 189.955C45.4407 187.396 44.4234 185.901 42.6969 185.901C40.9704 185.901 39.953 187.396 39.953 189.955C39.953 192.533 40.955 194.009 42.6969 194.009ZM42.6969 193.161C41.5485 193.161 40.8779 192.009 40.8779 189.955C40.8779 187.905 41.5562 186.733 42.6969 186.733C43.8376 186.733 44.5158 187.905 44.5158 189.955C44.5158 192.009 43.8453 193.161 42.6969 193.161ZM49.4795 194.009C51.2214 194.009 52.2234 192.533 52.2234 189.955C52.2234 187.396 51.206 185.901 49.4795 185.901C47.753 185.901 46.7356 187.396 46.7356 189.955C46.7356 192.533 47.7376 194.009 49.4795 194.009ZM49.4795 193.161C48.3311 193.161 47.6605 192.009 47.6605 189.955C47.6605 187.905 48.3388 186.733 49.4795 186.733C50.6202 186.733 51.2985 187.905 51.2985 189.955C51.2985 192.009 50.6279 193.161 49.4795 193.161Z" fill="#778699"/>
<path d="M36.1407 169.592C37.7361 169.612 38.7766 168.409 38.7766 166.941C38.7766 165.415 37.6475 164.32 36.2948 164.32C35.4817 164.32 34.7842 164.717 34.3525 165.369H34.2909C34.2947 163.446 35.0424 162.332 36.264 162.332C37.0964 162.332 37.5974 162.856 37.7747 163.565H38.715C38.5223 162.34 37.5897 161.484 36.264 161.484C34.4874 161.484 33.3968 163.056 33.3968 165.846C33.3968 168.764 34.8458 169.577 36.1407 169.592ZM36.1407 168.744C35.1503 168.744 34.4258 167.9 34.4296 166.956C34.4335 166.012 35.1927 165.168 36.1715 165.168C37.1388 165.168 37.8517 165.962 37.8517 166.941C37.8517 167.943 37.108 168.744 36.1407 168.744ZM42.8664 169.592C44.6083 169.592 45.6103 168.116 45.6103 165.538C45.6103 162.979 44.5929 161.484 42.8664 161.484C41.14 161.484 40.1226 162.979 40.1226 165.538C40.1226 168.116 41.1245 169.592 42.8664 169.592ZM42.8664 168.744C41.718 168.744 41.0475 167.592 41.0475 165.538C41.0475 163.488 41.7257 162.316 42.8664 162.316C44.0072 162.316 44.6854 163.488 44.6854 165.538C44.6854 167.592 44.0149 168.744 42.8664 168.744ZM49.649 169.592C51.3909 169.592 52.3929 168.116 52.3929 165.538C52.3929 162.979 51.3755 161.484 49.649 161.484C47.9226 161.484 46.9052 162.979 46.9052 165.538C46.9052 168.116 47.9072 169.592 49.649 169.592ZM49.649 168.744C48.5006 168.744 47.8301 167.592 47.8301 165.538C47.8301 163.488 48.5083 162.316 49.649 162.316C50.7898 162.316 51.468 163.488 51.468 165.538C51.468 167.592 50.7975 168.744 49.649 168.744Z" fill="#778699"/>
<path d="M33.7668 145.067H34.7687L38.2834 138.069V137.175H33.2272V138.023H37.2968V138.084L33.7668 145.067ZM42.1246 145.175C43.8665 145.175 44.8685 143.699 44.8685 141.121C44.8685 138.562 43.8511 137.067 42.1246 137.067C40.3981 137.067 39.3807 138.562 39.3807 141.121C39.3807 143.699 40.3827 145.175 42.1246 145.175ZM42.1246 144.327C40.9762 144.327 40.3056 143.175 40.3056 141.121C40.3056 139.071 40.9839 137.899 42.1246 137.899C43.2653 137.899 43.9436 139.071 43.9436 141.121C43.9436 143.175 43.273 144.327 42.1246 144.327ZM48.9072 145.175C50.6491 145.175 51.6511 143.699 51.6511 141.121C51.6511 138.562 50.6337 137.067 48.9072 137.067C47.1807 137.067 46.1633 138.562 46.1633 141.121C46.1633 143.699 47.1653 145.175 48.9072 145.175ZM48.9072 144.327C47.7588 144.327 47.0882 143.175 47.0882 141.121C47.0882 139.071 47.7665 137.899 48.9072 137.899C50.0479 137.899 50.7262 139.071 50.7262 141.121C50.7262 143.175 50.0556 144.327 48.9072 144.327Z" fill="#778699"/>
<path d="M36.0482 120.757C37.6244 120.757 38.7227 119.836 38.7304 118.553C38.7227 117.555 38.056 116.707 37.2043 116.549V116.503C37.9442 116.31 38.4298 115.586 38.4375 114.745C38.4298 113.543 37.4201 112.649 36.0482 112.649C34.6608 112.649 33.6511 113.543 33.6589 114.745C33.6511 115.586 34.1367 116.31 34.8921 116.503V116.549C34.025 116.707 33.3583 117.555 33.366 118.553C33.3583 119.836 34.4566 120.757 36.0482 120.757ZM36.0482 119.909C34.9653 119.909 34.2986 119.355 34.3063 118.507C34.2986 117.617 35.0346 116.981 36.0482 116.981C37.0463 116.981 37.7824 117.617 37.7901 118.507C37.7824 119.355 37.1157 119.909 36.0482 119.909ZM36.0482 116.164C35.1849 116.164 34.576 115.624 34.5838 114.807C34.576 114.006 35.1618 113.481 36.0482 113.481C36.9191 113.481 37.5049 114.006 37.5126 114.807C37.5049 115.624 36.896 116.164 36.0482 116.164ZM42.7817 120.757C44.5236 120.757 45.5255 119.281 45.5255 116.703C45.5255 114.144 44.5081 112.649 42.7817 112.649C41.0552 112.649 40.0378 114.144 40.0378 116.703C40.0378 119.281 41.0398 120.757 42.7817 120.757ZM42.7817 119.909C41.6332 119.909 40.9627 118.757 40.9627 116.703C40.9627 114.653 41.6409 113.481 42.7817 113.481C43.9224 113.481 44.6006 114.653 44.6006 116.703C44.6006 118.757 43.9301 119.909 42.7817 119.909ZM49.5643 120.757C51.3062 120.757 52.3081 119.281 52.3081 116.703C52.3081 114.144 51.2907 112.649 49.5643 112.649C47.8378 112.649 46.8204 114.144 46.8204 116.703C46.8204 119.281 47.8224 120.757 49.5643 120.757ZM49.5643 119.909C48.4158 119.909 47.7453 118.757 47.7453 116.703C47.7453 114.653 48.4236 113.481 49.5643 113.481C50.705 113.481 51.3832 114.653 51.3832 116.703C51.3832 118.757 50.7127 119.909 49.5643 119.909Z" fill="#778699"/>
<path d="M36.0328 88.232C34.4296 88.2128 33.3968 89.419 33.3968 90.868C33.3968 92.3941 34.5221 93.4885 35.8786 93.4885C36.6956 93.4885 37.3893 93.0878 37.8209 92.4403H37.8826C37.8826 94.3826 37.1272 95.4925 35.9094 95.4925C35.077 95.4925 34.5683 94.9684 34.3988 94.2439H33.4585C33.6434 95.4925 34.5838 96.3403 35.9094 96.3403C37.6822 96.3403 38.7766 94.768 38.7766 91.9625C38.7766 89.0644 37.3276 88.2474 36.0328 88.232ZM36.0328 89.0799C37.0193 89.0799 37.7438 89.9277 37.7438 90.8526C37.7438 91.7929 36.9731 92.6407 36.0019 92.6407C35.0308 92.6407 34.3217 91.8546 34.3217 90.868C34.3217 89.8814 35.0616 89.0799 36.0328 89.0799ZM42.8664 96.3403C44.6083 96.3403 45.6103 94.8643 45.6103 92.2862C45.6103 89.7273 44.5929 88.232 42.8664 88.232C41.14 88.232 40.1226 89.7273 40.1226 92.2862C40.1226 94.8643 41.1245 96.3403 42.8664 96.3403ZM42.8664 95.4925C41.718 95.4925 41.0475 94.3402 41.0475 92.2862C41.0475 90.236 41.7257 89.0644 42.8664 89.0644C44.0072 89.0644 44.6854 90.236 44.6854 92.2862C44.6854 94.3402 44.0149 95.4925 42.8664 95.4925ZM49.649 96.3403C51.3909 96.3403 52.3929 94.8643 52.3929 92.2862C52.3929 89.7273 51.3755 88.232 49.649 88.232C47.9226 88.232 46.9052 89.7273 46.9052 92.2862C46.9052 94.8643 47.9072 96.3403 49.649 96.3403ZM49.649 95.4925C48.5006 95.4925 47.8301 94.3402 47.8301 92.2862C47.8301 90.236 48.5083 89.0644 49.649 89.0644C50.7898 89.0644 51.468 90.236 51.468 92.2862C51.468 94.3402 50.7975 95.4925 49.649 95.4925Z" fill="#778699"/>
<path d="M79.9747 325.102C79.9747 323.84 79.2194 323.075 78.1982 323.075C77.1731 323.075 76.4197 323.84 76.4197 325.102C76.4197 326.362 77.1731 327.129 78.1982 327.129C79.2194 327.129 79.9747 326.364 79.9747 325.102ZM79.3851 325.102C79.3851 326.064 78.8764 326.586 78.1982 326.586C77.518 326.586 77.0112 326.064 77.0112 325.102C77.0112 324.141 77.518 323.618 78.1982 323.618C78.8764 323.618 79.3851 324.141 79.3851 325.102ZM80.7961 323.129V324.432C80.7941 325.312 81.3279 325.659 82.1911 325.659C82.5707 325.659 82.8983 325.611 83.1815 325.53V327.075H83.7712V323.129H83.1815V325.021C82.8867 325.1 82.5206 325.148 82.1911 325.148C81.6767 325.148 81.3838 324.975 81.3838 324.432V323.129H80.7961ZM84.686 327.075H87.1832V326.563H85.2814V325.354H87.031V324.844H85.2814V323.641H87.1601V323.129H84.686V327.075ZM87.9554 327.075H88.5508V325.354H90.5181V327.075H91.1155V323.129H90.5181V324.844H88.5508V323.129H87.9554V327.075ZM92.5837 324.721V323.129H91.9864V327.075H93.4643C94.343 327.075 94.8459 326.586 94.844 325.879C94.8459 325.173 94.343 324.721 93.4643 324.721H92.5837ZM92.5837 325.222H93.4643C93.975 325.222 94.2563 325.514 94.2563 325.871C94.2563 326.237 93.975 326.574 93.4643 326.574H92.5837V325.222ZM97.0059 327.075H97.6013V325.354H99.5687V327.075H100.166V323.129H99.5687V324.844H97.6013V323.129H97.0059V327.075ZM101.033 323.129V327.075H101.58L103.586 324.181H103.623V327.075H104.218V323.129H103.667L101.659 326.027H101.623V323.129H101.033ZM106.407 327.129C107.212 327.129 107.804 326.647 107.802 325.992C107.804 325.493 107.501 325.135 106.977 325.054V325.023C107.389 324.917 107.657 324.593 107.655 324.15C107.657 323.57 107.181 323.075 106.422 323.075C105.698 323.075 105.116 323.512 105.096 324.154H105.673C105.686 323.792 106.027 323.572 106.414 323.572C106.817 323.572 107.081 323.817 107.079 324.181C107.081 324.563 106.775 324.813 106.337 324.813H106.004V325.299H106.337C106.885 325.299 107.201 325.576 107.201 325.973C107.201 326.356 106.867 326.617 106.403 326.617C105.975 326.617 105.642 326.397 105.619 326.046H105.014C105.039 326.69 105.609 327.129 106.407 327.129ZM110.925 327.075H111.652L110.014 324.896L111.592 323.129H110.865L109.374 324.796H109.179V323.129H108.584V327.075H109.179V325.306H109.6L110.925 327.075ZM112.537 327.075L112.899 326.031H114.44L114.801 327.075H115.433L114.013 323.129H113.325L111.905 327.075H112.537ZM113.072 325.53L113.654 323.846H113.685L114.267 325.53H113.072ZM118.635 327.075V323.129H117.228C116.313 323.129 115.862 323.64 115.862 324.366C115.862 324.896 116.103 325.299 116.586 325.478L115.712 327.075H116.39L117.191 325.582C117.205 325.582 117.216 325.582 117.23 325.582H118.039V327.075H118.635ZM118.039 325.069H117.284C116.704 325.069 116.461 324.811 116.461 324.366C116.461 323.919 116.704 323.64 117.292 323.64H118.039V325.069ZM79.9747 332.102C79.9747 330.84 79.2194 330.075 78.1982 330.075C77.1731 330.075 76.4197 330.84 76.4197 332.102C76.4197 333.362 77.1731 334.129 78.1982 334.129C79.2194 334.129 79.9747 333.364 79.9747 332.102ZM79.3851 332.102C79.3851 333.064 78.8764 333.586 78.1982 333.586C77.518 333.586 77.0112 333.064 77.0112 332.102C77.0112 331.141 77.518 330.618 78.1982 330.618C78.8764 330.618 79.3851 331.141 79.3851 332.102ZM80.4184 335.029H80.9888V334.075H83.6382V335.023H84.2086V333.57H83.7615V330.129H81.3279L81.2354 331.796C81.1757 332.894 80.9425 333.347 80.6785 333.57H80.4184V335.029ZM81.3799 333.57C81.6054 333.21 81.7576 332.63 81.8058 331.796L81.8674 330.641H83.1912V333.57H81.3799ZM88.2887 332.102C88.2887 330.84 87.5334 330.075 86.5122 330.075C85.4871 330.075 84.7337 330.84 84.7337 332.102C84.7337 333.362 85.4871 334.129 86.5122 334.129C87.5334 334.129 88.2887 333.364 88.2887 332.102ZM87.6991 332.102C87.6991 333.064 87.1904 333.586 86.5122 333.586C85.832 333.586 85.3252 333.064 85.3252 332.102C85.3252 331.141 85.832 330.618 86.5122 330.618C87.1904 330.618 87.6991 331.141 87.6991 332.102ZM89.0311 334.075H90.509C91.3857 334.075 91.8886 333.586 91.8886 332.879C91.8886 332.173 91.3857 331.721 90.509 331.721H89.6265V330.641H91.4917V330.129H89.0311V334.075ZM89.6265 333.574V332.222H90.509C91.0177 332.222 91.299 332.514 91.299 332.871C91.299 333.237 91.0177 333.574 90.509 333.574H89.6265ZM92.5919 334.075H93.1873V332.688H93.9966C94.9119 332.688 95.3647 332.135 95.3647 331.406C95.3647 330.68 94.9158 330.129 93.9986 330.129H92.5919V334.075ZM93.1873 332.183V330.64H93.935C94.5246 330.64 94.7655 330.959 94.7655 331.406C94.7655 331.854 94.5246 332.183 93.9427 332.183H93.1873ZM98.6948 334.075V330.129H97.2882C96.373 330.129 95.9221 330.64 95.9221 331.366C95.9221 331.896 96.1629 332.299 96.6466 332.478L95.7718 334.075H96.45L97.2516 332.582C97.2651 332.582 97.2767 332.582 97.2901 332.582H98.0994V334.075H98.6948ZM98.0994 332.069H97.3441C96.7641 332.069 96.5213 331.811 96.5213 331.366C96.5213 330.919 96.7641 330.64 97.3518 330.64H98.0994V332.069ZM99.56 334.075H102.057V333.563H100.155V332.354H101.905V331.844H100.155V330.641H102.034V330.129H99.56V334.075ZM102.829 330.129V334.075H103.396V331.218H103.433L104.596 334.069H105.067L106.23 331.22H106.267V334.075H106.833V330.129H106.111L104.855 333.197H104.808L103.552 330.129H102.829ZM111.127 332.102C111.127 330.84 110.372 330.075 109.35 330.075C108.325 330.075 107.572 330.84 107.572 332.102C107.572 333.362 108.325 334.129 109.35 334.129C110.372 334.129 111.127 333.364 111.127 332.102ZM110.537 332.102C110.537 333.064 110.029 333.586 109.35 333.586C108.67 333.586 108.164 333.064 108.164 332.102C108.164 331.141 108.67 330.618 109.35 330.618C110.029 330.618 110.537 331.141 110.537 332.102ZM115.147 331.412C115.012 330.568 114.351 330.075 113.517 330.075C112.496 330.075 111.742 330.84 111.742 332.102C111.742 333.364 112.492 334.129 113.517 334.129C114.384 334.129 115.018 333.586 115.147 332.805L114.546 332.803C114.444 333.308 114.02 333.586 113.521 333.586C112.844 333.586 112.334 333.067 112.334 332.102C112.334 331.144 112.842 330.618 113.523 330.618C114.026 330.618 114.448 330.902 114.546 331.412H115.147ZM115.665 330.641H116.894V334.075H117.488V330.641H118.719V330.129H115.665V330.641ZM119.995 331.721V330.129H119.398V334.075H120.876C121.754 334.075 122.257 333.586 122.255 332.879C122.257 332.173 121.754 331.721 120.876 331.721H119.995ZM119.995 332.222H120.876C121.386 332.222 121.668 332.514 121.668 332.871C121.668 333.237 121.386 333.574 120.876 333.574H119.995V332.222Z" fill="#778699"/>
<path d="M140.754 327.075H142.266C143.184 327.075 143.598 326.619 143.598 326.013C143.598 325.403 143.17 325.058 142.779 325.037V324.998C143.141 324.906 143.444 324.659 143.444 324.166C143.444 323.582 143.039 323.129 142.199 323.129H140.754V327.075ZM141.349 326.565V325.301H142.23C142.708 325.301 143.006 325.609 143.006 325.985C143.006 326.316 142.781 326.565 142.209 326.565H141.349ZM141.349 324.836V323.636H142.162C142.634 323.636 142.86 323.884 142.86 324.212C142.86 324.593 142.548 324.836 142.147 324.836H141.349ZM144.304 327.075H146.801V326.563H144.9V325.354H146.649V324.844H144.9V323.641H146.778V323.129H144.304V327.075ZM147.574 327.075H148.169V325.688H148.978C149.894 325.688 150.346 325.135 150.346 324.406C150.346 323.68 149.897 323.129 148.98 323.129H147.574V327.075ZM148.169 325.183V323.64H148.917C149.506 323.64 149.747 323.959 149.747 324.406C149.747 324.854 149.506 325.183 148.924 325.183H148.169ZM154.472 325.102C154.472 323.84 153.717 323.075 152.696 323.075C151.671 323.075 150.917 323.84 150.917 325.102C150.917 326.362 151.671 327.129 152.696 327.129C153.717 327.129 154.472 326.364 154.472 325.102ZM153.883 325.102C153.883 326.064 153.374 326.586 152.696 326.586C152.015 326.586 151.509 326.064 151.509 325.102C151.509 324.141 152.015 323.618 152.696 323.618C153.374 323.618 153.883 324.141 153.883 325.102ZM157.847 327.075V323.129H156.44C155.525 323.129 155.074 323.64 155.074 324.366C155.074 324.896 155.315 325.299 155.798 325.478L154.924 327.075H155.602L156.403 325.582C156.417 325.582 156.429 325.582 156.442 325.582H157.251V327.075H157.847ZM157.251 325.069H156.496C155.916 325.069 155.673 324.811 155.673 324.366C155.673 323.919 155.916 323.64 156.504 323.64H157.251V325.069ZM158.517 323.641H159.747V327.075H160.34V323.641H161.571V323.129H158.517V323.641ZM162.246 327.075H162.842V325.354H164.809V327.075H165.406V323.129H164.809V324.844H162.842V323.129H162.246V327.075ZM169.701 325.102C169.701 323.84 168.946 323.075 167.925 323.075C166.9 323.075 166.146 323.84 166.146 325.102C166.146 326.362 166.9 327.129 167.925 327.129C168.946 327.129 169.701 326.364 169.701 325.102ZM169.112 325.102C169.112 326.064 168.603 326.586 167.925 326.586C167.245 326.586 166.738 326.064 166.738 325.102C166.738 324.141 167.245 323.618 167.925 323.618C168.603 323.618 169.112 324.141 169.112 325.102ZM173.721 324.412C173.586 323.568 172.925 323.075 172.091 323.075C171.07 323.075 170.316 323.84 170.316 325.102C170.316 326.364 171.066 327.129 172.091 327.129C172.958 327.129 173.592 326.586 173.721 325.805L173.12 325.803C173.018 326.308 172.594 326.586 172.095 326.586C171.419 326.586 170.908 326.067 170.908 325.102C170.908 324.144 171.417 323.618 172.097 323.618C172.6 323.618 173.022 323.902 173.12 324.412H173.721ZM174.239 323.641H175.468V327.075H176.062V323.641H177.293V323.129H174.239V323.641ZM178.569 324.721V323.129H177.972V327.075H179.45C180.329 327.075 180.831 326.586 180.83 325.879C180.831 325.173 180.329 324.721 179.45 324.721H178.569ZM178.569 325.222H179.45C179.961 325.222 180.242 325.514 180.242 325.871C180.242 326.237 179.961 326.574 179.45 326.574H178.569V325.222ZM144.182 332.102C144.182 330.84 143.426 330.075 142.405 330.075C141.38 330.075 140.627 330.84 140.627 332.102C140.627 333.362 141.38 334.129 142.405 334.129C143.426 334.129 144.182 333.364 144.182 332.102ZM143.592 332.102C143.592 333.064 143.083 333.586 142.405 333.586C141.725 333.586 141.218 333.064 141.218 332.102C141.218 331.141 141.725 330.618 142.405 330.618C143.083 330.618 143.592 331.141 143.592 332.102ZM144.625 335.029H145.196V334.075H147.845V335.023H148.416V333.57H147.969V330.129H145.535L145.442 331.796C145.383 332.894 145.15 333.347 144.886 333.57H144.625V335.029ZM145.587 333.57C145.812 333.21 145.965 332.63 146.013 331.796L146.074 330.641H147.398V333.57H145.587ZM152.496 332.102C152.496 330.84 151.74 330.075 150.719 330.075C149.694 330.075 148.941 330.84 148.941 332.102C148.941 333.362 149.694 334.129 150.719 334.129C151.74 334.129 152.496 333.364 152.496 332.102ZM151.906 332.102C151.906 333.064 151.397 333.586 150.719 333.586C150.039 333.586 149.532 333.064 149.532 332.102C149.532 331.141 150.039 330.618 150.719 330.618C151.397 330.618 151.906 331.141 151.906 332.102ZM153.238 334.075H154.716C155.593 334.075 156.096 333.586 156.096 332.879C156.096 332.173 155.593 331.721 154.716 331.721H153.834V330.641H155.699V330.129H153.238V334.075ZM153.834 333.574V332.222H154.716C155.225 332.222 155.506 332.514 155.506 332.871C155.506 333.237 155.225 333.574 154.716 333.574H153.834ZM156.799 334.075H157.394V332.688H158.204C159.119 332.688 159.572 332.135 159.572 331.406C159.572 330.68 159.123 330.129 158.206 330.129H156.799V334.075ZM157.394 332.183V330.64H158.142C158.732 330.64 158.972 330.959 158.972 331.406C158.972 331.854 158.732 332.183 158.15 332.183H157.394ZM160.27 334.075H162.767V333.563H160.865V332.354H162.615V331.844H160.865V330.641H162.744V330.129H160.27V334.075ZM163.539 334.075H164.135V332.354H166.102V334.075H166.699V330.129H166.102V331.844H164.135V330.129H163.539V334.075ZM167.566 330.129V334.075H168.114L170.119 331.181H170.156V334.075H170.751V330.129H170.2L168.193 333.027H168.156V330.129H167.566ZM174.252 334.075V330.129H172.846C171.93 330.129 171.479 330.64 171.479 331.366C171.479 331.896 171.72 332.299 172.204 332.478L171.329 334.075H172.007L172.809 332.582C172.822 332.582 172.834 332.582 172.847 332.582H173.657V334.075H174.252ZM173.657 332.069H172.901C172.321 332.069 172.079 331.811 172.079 331.366C172.079 330.919 172.321 330.64 172.909 330.64H173.657V332.069ZM176.553 334.075H179.051V333.563H177.149V332.354H178.898V331.844H177.149V330.641H179.027V330.129H176.553V334.075ZM183.1 331.412C182.965 330.568 182.305 330.075 181.47 330.075C180.449 330.075 179.696 330.84 179.696 332.102C179.696 333.364 180.445 334.129 181.47 334.129C182.337 334.129 182.971 333.586 183.1 332.805L182.499 332.803C182.397 333.308 181.973 333.586 181.474 333.586C180.798 333.586 180.287 333.067 180.287 332.102C180.287 331.144 180.796 330.618 181.476 330.618C181.979 330.618 182.401 330.902 182.499 331.412H183.1ZM183.618 330.641H184.848V334.075H185.441V330.641H186.672V330.129H183.618V330.641ZM187.948 331.721V330.129H187.351V334.075H188.829C189.708 334.075 190.211 333.586 190.209 332.879C190.211 332.173 189.708 331.721 188.829 331.721H187.948ZM187.948 332.222H188.829C189.34 332.222 189.621 332.514 189.621 332.871C189.621 333.237 189.34 333.574 188.829 333.574H187.948V332.222Z" fill="#2C3F58"/>
<path d="M201.91 324.412C201.776 323.568 201.115 323.075 200.28 323.075C199.259 323.075 198.506 323.84 198.506 325.102C198.506 326.364 199.255 327.129 200.28 327.129C201.147 327.129 201.781 326.586 201.91 325.805L201.309 325.803C201.207 326.308 200.783 326.586 200.284 326.586C199.608 326.586 199.097 326.067 199.097 325.102C199.097 324.144 199.606 323.618 200.286 323.618C200.789 323.618 201.211 323.902 201.309 324.412H201.91ZM202.428 323.641H203.658V327.075H204.251V323.641H205.482V323.129H202.428V323.641ZM206.019 327.075L206.381 326.031H207.923L208.283 327.075H208.915L207.495 323.129H206.807L205.387 327.075H206.019ZM206.555 325.53L207.137 323.846H207.167L207.749 325.53H206.555ZM209.485 327.075H210.08V325.354H212.048V327.075H212.645V323.129H212.048V324.844H210.08V323.129H209.485V327.075ZM213.213 328.029H213.784V327.075H216.433V328.023H217.004V326.57H216.557V323.129H214.123L214.03 324.796C213.971 325.894 213.738 326.347 213.474 326.57H213.213V328.029ZM214.175 326.57C214.4 326.21 214.553 325.63 214.601 324.796L214.662 323.641H215.986V326.57H214.175ZM217.989 327.075L218.351 326.031H219.893L220.253 327.075H220.885L219.465 323.129H218.777L217.357 327.075H217.989ZM218.525 325.53L219.107 323.846H219.138L219.72 325.53H218.525ZM221.455 327.075H222.051V325.688H222.86C223.775 325.688 224.228 325.135 224.228 324.406C224.228 323.68 223.779 323.129 222.862 323.129H221.455V327.075ZM222.051 325.183V323.64H222.798C223.388 323.64 223.629 323.959 223.629 324.406C223.629 324.854 223.388 325.183 222.806 325.183H222.051ZM224.731 323.641H225.961V327.075H226.554V323.641H227.785V323.129H224.731V323.641ZM228.46 327.075H229.056V325.354H231.023V327.075H231.62V323.129H231.023V324.844H229.056V323.129H228.46V327.075ZM232.821 327.075L233.183 326.031H234.725L235.085 327.075H235.717L234.297 323.129H233.609L232.189 327.075H232.821ZM233.357 325.53L233.938 323.846H233.969L234.551 325.53H233.357ZM238.919 327.075V323.129H237.512C236.597 323.129 236.146 323.64 236.146 324.366C236.146 324.896 236.387 325.299 236.871 325.478L235.996 327.075H236.674L237.476 325.582C237.489 325.582 237.501 325.582 237.514 325.582H238.324V327.075H238.919ZM238.324 325.069H237.568C236.988 325.069 236.745 324.811 236.745 324.366C236.745 323.919 236.988 323.64 237.576 323.64H238.324V325.069ZM202.061 332.102C202.061 330.84 201.305 330.075 200.284 330.075C199.259 330.075 198.506 330.84 198.506 332.102C198.506 333.362 199.259 334.129 200.284 334.129C201.305 334.129 202.061 333.364 202.061 332.102ZM201.471 332.102C201.471 333.064 200.962 333.586 200.284 333.586C199.604 333.586 199.097 333.064 199.097 332.102C199.097 331.141 199.604 330.618 200.284 330.618C200.962 330.618 201.471 331.141 201.471 332.102ZM202.504 335.029H203.075V334.075H205.724V335.023H206.295V333.57H205.847V330.129H203.414L203.321 331.796C203.262 332.894 203.028 333.347 202.764 333.57H202.504V335.029ZM203.466 333.57C203.691 333.21 203.844 332.63 203.892 331.796L203.953 330.641H205.277V333.57H203.466ZM210.375 332.102C210.375 330.84 209.619 330.075 208.598 330.075C207.573 330.075 206.82 330.84 206.82 332.102C206.82 333.362 207.573 334.129 208.598 334.129C209.619 334.129 210.375 333.364 210.375 332.102ZM209.785 332.102C209.785 333.064 209.276 333.586 208.598 333.586C207.918 333.586 207.411 333.064 207.411 332.102C207.411 331.141 207.918 330.618 208.598 330.618C209.276 330.618 209.785 331.141 209.785 332.102ZM211.117 334.075H212.595C213.472 334.075 213.975 333.586 213.975 332.879C213.975 332.173 213.472 331.721 212.595 331.721H211.712V330.641H213.578V330.129H211.117V334.075ZM211.712 333.574V332.222H212.595C213.104 332.222 213.385 332.514 213.385 332.871C213.385 333.237 213.104 333.574 212.595 333.574H211.712ZM214.678 334.075H215.273V332.688H216.083C216.998 332.688 217.451 332.135 217.451 331.406C217.451 330.68 217.002 330.129 216.084 330.129H214.678V334.075ZM215.273 332.183V330.64H216.021C216.611 330.64 216.851 330.959 216.851 331.406C216.851 331.854 216.611 332.183 216.029 332.183H215.273ZM220.781 334.075V330.129H219.374C218.459 330.129 218.008 330.64 218.008 331.366C218.008 331.896 218.249 332.299 218.733 332.478L217.858 334.075H218.536L219.338 332.582C219.351 332.582 219.363 332.582 219.376 332.582H220.185V334.075H220.781ZM220.185 332.069H219.43C218.85 332.069 218.607 331.811 218.607 331.366C218.607 330.919 218.85 330.64 219.438 330.64H220.185V332.069ZM221.646 334.075H224.143V333.563H222.241V332.354H223.991V331.844H222.241V330.641H224.12V330.129H221.646V334.075ZM224.915 330.129V334.075H225.482V331.218H225.518L226.682 334.069H227.152L228.316 331.22H228.353V334.075H228.919V330.129H228.197L226.941 333.197H226.894L225.638 330.129H224.915ZM233.213 332.102C233.213 330.84 232.458 330.075 231.436 330.075C230.411 330.075 229.658 330.84 229.658 332.102C229.658 333.362 230.411 334.129 231.436 334.129C232.458 334.129 233.213 333.364 233.213 332.102ZM232.623 332.102C232.623 333.064 232.115 333.586 231.436 333.586C230.756 333.586 230.249 333.064 230.249 332.102C230.249 331.141 230.756 330.618 231.436 330.618C232.115 330.618 232.623 331.141 232.623 332.102ZM237.233 331.412C237.098 330.568 236.437 330.075 235.603 330.075C234.582 330.075 233.828 330.84 233.828 332.102C233.828 333.364 234.578 334.129 235.603 334.129C236.47 334.129 237.104 333.586 237.233 332.805L236.632 332.803C236.53 333.308 236.106 333.586 235.607 333.586C234.93 333.586 234.42 333.067 234.42 332.102C234.42 331.144 234.928 330.618 235.609 330.618C236.111 330.618 236.533 330.902 236.632 331.412H237.233ZM237.751 330.641H238.98V334.075H239.574V330.641H240.805V330.129H237.751V330.641ZM242.081 331.721V330.129H241.484V334.075H242.962C243.84 334.075 244.343 333.586 244.341 332.879C244.343 332.173 243.84 331.721 242.962 331.721H242.081ZM242.081 332.222H242.962C243.472 332.222 243.753 332.514 243.753 332.871C243.753 333.237 243.472 333.574 242.962 333.574H242.081V332.222Z" fill="#778699"/>
<path d="M256.512 327.075H258.024C258.941 327.075 259.356 326.619 259.356 326.013C259.356 325.403 258.928 325.058 258.537 325.037V324.998C258.899 324.906 259.202 324.659 259.202 324.166C259.202 323.582 258.797 323.129 257.957 323.129H256.512V327.075ZM257.107 326.565V325.301H257.988C258.466 325.301 258.764 325.609 258.764 325.985C258.764 326.316 258.539 326.565 257.966 326.565H257.107ZM257.107 324.836V323.636H257.92C258.392 323.636 258.618 323.884 258.618 324.212C258.618 324.593 258.306 324.836 257.905 324.836H257.107ZM263.49 325.102C263.49 323.84 262.735 323.075 261.713 323.075C260.688 323.075 259.935 323.84 259.935 325.102C259.935 326.362 260.688 327.129 261.713 327.129C262.735 327.129 263.49 326.364 263.49 325.102ZM262.9 325.102C262.9 326.064 262.392 326.586 261.713 326.586C261.033 326.586 260.526 326.064 260.526 325.102C260.526 324.141 261.033 323.618 261.713 323.618C262.392 323.618 262.9 324.141 262.9 325.102ZM265.552 327.129C266.358 327.129 266.949 326.647 266.947 325.992C266.949 325.493 266.647 325.135 266.122 325.054V325.023C266.535 324.917 266.803 324.593 266.801 324.15C266.803 323.57 266.327 323.075 265.568 323.075C264.843 323.075 264.261 323.512 264.242 324.154H264.818C264.831 323.792 265.173 323.572 265.56 323.572C265.963 323.572 266.227 323.817 266.225 324.181C266.227 324.563 265.92 324.813 265.483 324.813H265.149V325.299H265.483C266.03 325.299 266.346 325.576 266.346 325.973C266.346 326.356 266.013 326.617 265.548 326.617C265.12 326.617 264.787 326.397 264.764 326.046H264.159C264.184 326.69 264.754 327.129 265.552 327.129ZM267.729 323.129V327.075H268.296V324.218H268.333L269.496 327.069H269.967L271.13 324.22H271.167V327.075H271.734V323.129H271.011L269.755 326.197H269.708L268.452 323.129H267.729ZM276.027 325.102C276.027 323.84 275.272 323.075 274.251 323.075C273.225 323.075 272.472 323.84 272.472 325.102C272.472 326.362 273.225 327.129 274.251 327.129C275.272 327.129 276.027 326.364 276.027 325.102ZM275.437 325.102C275.437 326.064 274.929 326.586 274.251 326.586C273.57 326.586 273.064 326.064 273.064 325.102C273.064 324.141 273.57 323.618 274.251 323.618C274.929 323.618 275.437 324.141 275.437 325.102ZM279.228 323.129H278.638V324.836H278.181L277.202 323.129H276.474L277.65 325.01L276.385 327.075H277.073L278.079 325.391H278.638V327.075H279.228V325.391H279.792L280.785 327.075H281.48L280.224 325.013L281.395 323.129H280.669L279.698 324.836H279.228V323.129ZM282.063 327.075H282.658V325.354H284.626V327.075H285.223V323.129H284.626V324.844H282.658V323.129H282.063V327.075ZM286.424 327.075L286.786 326.031H288.327L288.688 327.075H289.32L287.9 323.129H287.212L285.792 327.075H286.424ZM286.959 325.53L287.541 323.846H287.572L288.154 325.53H286.959ZM292.522 327.075V323.129H291.115C290.2 323.129 289.749 323.64 289.749 324.366C289.749 324.896 289.99 325.299 290.473 325.478L289.599 327.075H290.277L291.078 325.582C291.092 325.582 291.103 325.582 291.117 325.582H291.926V327.075H292.522ZM291.926 325.069H291.171C290.591 325.069 290.348 324.811 290.348 324.366C290.348 323.919 290.591 323.64 291.179 323.64H291.926V325.069ZM259.94 332.102C259.94 330.84 259.184 330.075 258.163 330.075C257.138 330.075 256.384 330.84 256.384 332.102C256.384 333.362 257.138 334.129 258.163 334.129C259.184 334.129 259.94 333.364 259.94 332.102ZM259.35 332.102C259.35 333.064 258.841 333.586 258.163 333.586C257.483 333.586 256.976 333.064 256.976 332.102C256.976 331.141 257.483 330.618 258.163 330.618C258.841 330.618 259.35 331.141 259.35 332.102ZM260.383 335.029H260.954V334.075H263.603V335.023H264.173V333.57H263.726V330.129H261.293L261.2 331.796C261.141 332.894 260.907 333.347 260.643 333.57H260.383V335.029ZM261.345 333.57C261.57 333.21 261.722 332.63 261.771 331.796L261.832 330.641H263.156V333.57H261.345ZM268.254 332.102C268.254 330.84 267.498 330.075 266.477 330.075C265.452 330.075 264.698 330.84 264.698 332.102C264.698 333.362 265.452 334.129 266.477 334.129C267.498 334.129 268.254 333.364 268.254 332.102ZM267.664 332.102C267.664 333.064 267.155 333.586 266.477 333.586C265.797 333.586 265.29 333.064 265.29 332.102C265.29 331.141 265.797 330.618 266.477 330.618C267.155 330.618 267.664 331.141 267.664 332.102ZM268.996 334.075H270.474C271.351 334.075 271.853 333.586 271.853 332.879C271.853 332.173 271.351 331.721 270.474 331.721H269.591V330.641H271.457V330.129H268.996V334.075ZM269.591 333.574V332.222H270.474C270.983 332.222 271.264 332.514 271.264 332.871C271.264 333.237 270.983 333.574 270.474 333.574H269.591ZM272.557 334.075H273.152V332.688H273.961C274.877 332.688 275.33 332.135 275.33 331.406C275.33 330.68 274.881 330.129 273.963 330.129H272.557V334.075ZM273.152 332.183V330.64H273.9C274.489 330.64 274.73 330.959 274.73 331.406C274.73 331.854 274.489 332.183 273.908 332.183H273.152ZM278.66 334.075V330.129H277.253C276.338 330.129 275.887 330.64 275.887 331.366C275.887 331.896 276.128 332.299 276.611 332.478L275.737 334.075H276.415L277.216 332.582C277.23 332.582 277.242 332.582 277.255 332.582H278.064V334.075H278.66ZM278.064 332.069H277.309C276.729 332.069 276.486 331.811 276.486 331.366C276.486 330.919 276.729 330.64 277.317 330.64H278.064V332.069ZM279.525 334.075H282.022V333.563H280.12V332.354H281.87V331.844H280.12V330.641H281.999V330.129H279.525V334.075ZM282.794 330.129V334.075H283.361V331.218H283.397L284.561 334.069H285.031L286.195 331.22H286.232V334.075H286.798V330.129H286.076L284.819 333.197H284.773L283.517 330.129H282.794ZM291.092 332.102C291.092 330.84 290.337 330.075 289.315 330.075C288.29 330.075 287.537 330.84 287.537 332.102C287.537 333.362 288.29 334.129 289.315 334.129C290.337 334.129 291.092 333.364 291.092 332.102ZM290.502 332.102C290.502 333.064 289.994 333.586 289.315 333.586C288.635 333.586 288.128 333.064 288.128 332.102C288.128 331.141 288.635 330.618 289.315 330.618C289.994 330.618 290.502 331.141 290.502 332.102ZM295.112 331.412C294.977 330.568 294.316 330.075 293.482 330.075C292.46 330.075 291.707 330.84 291.707 332.102C291.707 333.364 292.457 334.129 293.482 334.129C294.349 334.129 294.983 333.586 295.112 332.805L294.511 332.803C294.409 333.308 293.985 333.586 293.486 333.586C292.809 333.586 292.299 333.067 292.299 332.102C292.299 331.144 292.807 330.618 293.487 330.618C293.99 330.618 294.412 330.902 294.511 331.412H295.112ZM295.63 330.641H296.859V334.075H297.453V330.641H298.684V330.129H295.63V330.641ZM299.96 331.721V330.129H299.363V334.075H300.84C301.719 334.075 302.222 333.586 302.22 332.879C302.222 332.173 301.719 331.721 300.84 331.721H299.96ZM299.96 332.222H300.84C301.351 332.222 301.632 332.514 301.632 332.871C301.632 333.237 301.351 333.574 300.84 333.574H299.96V332.222Z" fill="#778699"/>
<path d="M314.391 327.075H315.903C316.82 327.075 317.235 326.619 317.235 326.013C317.235 325.403 316.807 325.058 316.416 325.037V324.998C316.778 324.906 317.08 324.659 317.08 324.166C317.08 323.582 316.676 323.129 315.836 323.129H314.391V327.075ZM314.986 326.565V325.301H315.867C316.344 325.301 316.643 325.609 316.643 325.985C316.643 326.316 316.418 326.565 315.845 326.565H314.986ZM314.986 324.836V323.636H315.799C316.271 323.636 316.497 323.884 316.497 324.212C316.497 324.593 316.185 324.836 315.784 324.836H314.986ZM318.542 324.721V323.129H317.945V327.075H319.423C320.301 327.075 320.804 326.586 320.802 325.879C320.804 325.173 320.301 324.721 319.423 324.721H318.542ZM321.762 323.129H321.166V327.075H321.762V323.129ZM318.542 325.222H319.423C319.933 325.222 320.215 325.514 320.215 325.871C320.215 326.237 319.933 326.574 319.423 326.574H318.542V325.222ZM325.908 324.412C325.773 323.568 325.112 323.075 324.278 323.075C323.257 323.075 322.503 323.84 322.503 325.102C322.503 326.364 323.253 327.129 324.278 327.129C325.145 327.129 325.779 326.586 325.908 325.805L325.307 325.803C325.205 326.308 324.781 326.586 324.282 326.586C323.605 326.586 323.095 326.067 323.095 325.102C323.095 324.144 323.603 323.618 324.284 323.618C324.787 323.618 325.209 323.902 325.307 324.412H325.908ZM330.048 325.102C330.048 323.84 329.293 323.075 328.272 323.075C327.247 323.075 326.493 323.84 326.493 325.102C326.493 326.362 327.247 327.129 328.272 327.129C329.293 327.129 330.048 326.364 330.048 325.102ZM329.459 325.102C329.459 326.064 328.95 326.586 328.272 326.586C327.592 326.586 327.085 326.064 327.085 325.102C327.085 324.141 327.592 323.618 328.272 323.618C328.95 323.618 329.459 324.141 329.459 325.102ZM333.132 327.075H333.858L332.22 324.896L333.799 323.129H333.072L331.581 324.796H331.386V323.129H330.791V327.075H331.386V325.306H331.806L333.132 327.075ZM334.743 327.075L335.105 326.031H336.647L337.007 327.075H337.639L336.219 323.129H335.531L334.111 327.075H334.743ZM335.279 325.53L335.861 323.846H335.892L336.474 325.53H335.279ZM340.841 327.075V323.129H339.435C338.519 323.129 338.069 323.64 338.069 324.366C338.069 324.896 338.309 325.299 338.793 325.478L337.918 327.075H338.596L339.398 325.582C339.412 325.582 339.423 325.582 339.437 325.582H340.246V327.075H340.841ZM340.246 325.069H339.491C338.911 325.069 338.668 324.811 338.668 324.366C338.668 323.919 338.911 323.64 339.498 323.64H340.246V325.069ZM317.818 332.102C317.818 330.84 317.063 330.075 316.042 330.075C315.017 330.075 314.263 330.84 314.263 332.102C314.263 333.362 315.017 334.129 316.042 334.129C317.063 334.129 317.818 333.364 317.818 332.102ZM317.229 332.102C317.229 333.064 316.72 333.586 316.042 333.586C315.362 333.586 314.855 333.064 314.855 332.102C314.855 331.141 315.362 330.618 316.042 330.618C316.72 330.618 317.229 331.141 317.229 332.102ZM318.262 335.029H318.833V334.075H321.482V335.023H322.052V333.57H321.605V330.129H319.172L319.079 331.796C319.019 332.894 318.786 333.347 318.522 333.57H318.262V335.029ZM319.224 333.57C319.449 333.21 319.601 332.63 319.65 331.796L319.711 330.641H321.035V333.57H319.224ZM326.132 332.102C326.132 330.84 325.377 330.075 324.356 330.075C323.331 330.075 322.577 330.84 322.577 332.102C322.577 333.362 323.331 334.129 324.356 334.129C325.377 334.129 326.132 333.364 326.132 332.102ZM325.543 332.102C325.543 333.064 325.034 333.586 324.356 333.586C323.676 333.586 323.169 333.064 323.169 332.102C323.169 331.141 323.676 330.618 324.356 330.618C325.034 330.618 325.543 331.141 325.543 332.102ZM326.875 334.075H328.353C329.229 334.075 329.732 333.586 329.732 332.879C329.732 332.173 329.229 331.721 328.353 331.721H327.47V330.641H329.335V330.129H326.875V334.075ZM327.47 333.574V332.222H328.353C328.861 332.222 329.143 332.514 329.143 332.871C329.143 333.237 328.861 333.574 328.353 333.574H327.47ZM330.436 334.075H331.031V332.688H331.84C332.756 332.688 333.208 332.135 333.208 331.406C333.208 330.68 332.76 330.129 331.842 330.129H330.436V334.075ZM331.031 332.183V330.64H331.779C332.368 330.64 332.609 330.959 332.609 331.406C332.609 331.854 332.368 332.183 331.786 332.183H331.031ZM336.539 334.075V330.129H335.132C334.217 330.129 333.766 330.64 333.766 331.366C333.766 331.896 334.007 332.299 334.49 332.478L333.616 334.075H334.294L335.095 332.582C335.109 332.582 335.12 332.582 335.134 332.582H335.943V334.075H336.539ZM335.943 332.069H335.188C334.608 332.069 334.365 331.811 334.365 331.366C334.365 330.919 334.608 330.64 335.196 330.64H335.943V332.069ZM337.404 334.075H339.901V333.563H337.999V332.354H339.749V331.844H337.999V330.641H339.878V330.129H337.404V334.075ZM340.673 330.129V334.075H341.24V331.218H341.276L342.44 334.069H342.91L344.074 331.22H344.111V334.075H344.677V330.129H343.955L342.698 333.197H342.652L341.396 330.129H340.673ZM348.971 332.102C348.971 330.84 348.215 330.075 347.194 330.075C346.169 330.075 345.416 330.84 345.416 332.102C345.416 333.362 346.169 334.129 347.194 334.129C348.215 334.129 348.971 333.364 348.971 332.102ZM348.381 332.102C348.381 333.064 347.872 333.586 347.194 333.586C346.514 333.586 346.007 333.064 346.007 332.102C346.007 331.141 346.514 330.618 347.194 330.618C347.872 330.618 348.381 331.141 348.381 332.102ZM352.991 331.412C352.856 330.568 352.195 330.075 351.361 330.075C350.339 330.075 349.586 330.84 349.586 332.102C349.586 333.364 350.336 334.129 351.361 334.129C352.228 334.129 352.862 333.586 352.991 332.805L352.39 332.803C352.287 333.308 351.864 333.586 351.364 333.586C350.688 333.586 350.178 333.067 350.178 332.102C350.178 331.144 350.686 330.618 351.366 330.618C351.869 330.618 352.291 330.902 352.39 331.412H352.991ZM353.509 330.641H354.738V334.075H355.331V330.641H356.563V330.129H353.509V330.641ZM357.839 331.721V330.129H357.241V334.075H358.719C359.598 334.075 360.101 333.586 360.099 332.879C360.101 332.173 359.598 331.721 358.719 331.721H357.839ZM357.839 332.222H358.719C359.23 332.222 359.511 332.514 359.511 332.871C359.511 333.237 359.23 333.574 358.719 333.574H357.839V332.222Z" fill="#778699"/>
<path d="M43.6247 48.5449H47.7636L41.3201 40.0821L47.4784 32.7599H43.3241L38.083 39.0647H37.4124V32.7599H34.0751V48.5449H37.4124V41.8163H38.5531L43.6247 48.5449ZM49.3802 52.9844H52.6636V46.6489H52.7638C53.2186 47.6354 54.2129 48.7376 56.1243 48.7376C58.8219 48.7376 60.9261 46.6026 60.9261 42.641C60.9261 38.5714 58.7295 36.552 56.132 36.552C54.1512 36.552 53.2032 37.7313 52.7638 38.6947H52.6174V36.7062H49.3802V52.9844ZM52.5943 42.6256C52.5943 40.5137 53.4884 39.1649 55.0838 39.1649C56.7101 39.1649 57.5733 40.5754 57.5733 42.6256C57.5733 44.6912 56.6947 46.1248 55.0838 46.1248C53.5038 46.1248 52.5943 44.7374 52.5943 42.6256ZM68.5103 48.7761C71.4391 48.7761 73.4123 47.3503 73.8747 45.1536L70.838 44.9532C70.5065 45.855 69.6587 46.3252 68.5642 46.3252C66.9225 46.3252 65.882 45.2384 65.882 43.4734V43.4657H73.9441V42.5639C73.9441 38.5406 71.5085 36.552 68.3793 36.552C64.8955 36.552 62.6372 39.0261 62.6372 42.6795C62.6372 46.4331 64.8646 48.7761 68.5103 48.7761ZM65.882 41.4309C65.9514 40.0821 66.9765 39.003 68.4332 39.003C69.8591 39.003 70.8457 40.0204 70.8534 41.4309H65.882ZM75.1619 52.0133H78.3682V48.5449H85.6055V52.0133H88.7348V45.9398H86.9004V36.7062H77.821L77.5127 40.5754C77.3277 42.903 77.1042 45.2846 76.0714 45.9398H75.1619V52.0133ZM79.3393 45.9398C80.0407 44.8376 80.3105 43.1034 80.4878 40.5754L80.6111 39.2342H83.802V45.9398H79.3393ZM93.7851 44.2133V36.7062H90.6482V48.5449H93.9085L98.1553 41.0147V48.5449H101.285V36.7062H98.0474L93.7851 44.2133ZM102.749 39.2882H106.533V48.5449H109.663V39.2882H113.478V36.7062H102.749V39.2882ZM118.605 36.7062H115.468V48.5449H118.605V43.8973H122.652V48.5449H125.766V36.7062H122.652V41.3153H118.605V36.7062ZM131.45 40.3441V36.7062H128.313V48.5449H133.909C137.045 48.5449 138.888 46.9032 138.895 44.4599C138.888 41.9704 137.045 40.3441 133.909 40.3441H131.45ZM140.167 48.5449H143.45V36.7062H140.167V48.5449ZM131.45 42.9261H133.909C135.011 42.9261 135.789 43.5736 135.805 44.4831C135.789 45.3463 135.011 45.9629 133.909 45.9629H131.45V42.9261ZM149.212 44.2133V36.7062H146.075V48.5449H149.335L153.582 41.0147V48.5449H156.711V36.7062H153.474L149.212 44.2133ZM152.911 32.575C152.911 33.2995 152.48 33.9546 151.385 33.9546C150.26 33.9546 149.844 33.2841 149.851 32.575H147.578C147.578 34.4402 149.05 35.6888 151.385 35.6888C153.721 35.6888 155.193 34.4402 155.201 32.575H152.911ZM164.367 52.9844H167.65V46.6489H167.75C168.205 47.6354 169.199 48.7376 171.111 48.7376C173.808 48.7376 175.913 46.6026 175.913 42.641C175.913 38.5714 173.716 36.552 171.118 36.552C169.138 36.552 168.19 37.7313 167.75 38.6947H167.604V36.7062H164.367V52.9844ZM167.581 42.6256C167.581 40.5137 168.475 39.1649 170.07 39.1649C171.697 39.1649 172.56 40.5754 172.56 42.6256C172.56 44.6912 171.681 46.1248 170.07 46.1248C168.49 46.1248 167.581 44.7374 167.581 42.6256ZM183.497 48.7761C186.426 48.7761 188.399 47.3503 188.861 45.1536L185.824 44.9532C185.493 45.855 184.645 46.3252 183.551 46.3252C181.909 46.3252 180.868 45.2384 180.868 43.4734V43.4657H188.93V42.5639C188.93 38.5406 186.495 36.552 183.366 36.552C179.882 36.552 177.624 39.0261 177.624 42.6795C177.624 46.4331 179.851 48.7761 183.497 48.7761ZM180.868 41.4309C180.938 40.0821 181.963 39.003 183.42 39.003C184.846 39.003 185.832 40.0204 185.84 41.4309H180.868ZM194.21 44.2133V36.7062H191.073V48.5449H194.333L198.58 41.0147V48.5449H201.71V36.7062H198.472L194.21 44.2133ZM197.91 32.575C197.91 33.2995 197.478 33.9546 196.384 33.9546C195.258 33.9546 194.842 33.2841 194.85 32.575H192.576C192.576 34.4402 194.048 35.6888 196.384 35.6888C198.719 35.6888 200.191 34.4402 200.199 32.575H197.91ZM203.174 39.2882H206.958V48.5449H210.088V39.2882H213.903V36.7062H203.174V39.2882ZM219.03 44.2133V36.7062H215.893V48.5449H219.154L223.4 41.0147V48.5449H226.53V36.7062H223.292L219.03 44.2133ZM232.299 36.7062H229.162V48.5449H232.299V43.8973H236.345V48.5449H239.459V36.7062H236.345V41.3153H232.299V36.7062ZM250.115 36.7062H242.006V48.5449H245.197V39.2882H250.115V36.7062Z" fill="#2C3F58"/>
<path d="M136.467 205.002H140.232V206.467H141.597V205.002H142.606V203.827H141.597V198.574H139.816L136.467 203.866V205.002ZM140.248 203.827H137.932V203.765L140.186 200.193H140.248V203.827ZM146.755 206.617C148.659 206.621 149.796 205.118 149.796 202.528C149.796 199.954 148.651 198.466 146.755 198.466C144.859 198.466 143.718 199.95 143.714 202.528C143.714 205.114 144.851 206.617 146.755 206.617ZM146.755 205.411C145.772 205.411 145.156 204.424 145.159 202.528C145.163 200.648 145.776 199.657 146.755 199.657C147.738 199.657 148.35 200.648 148.354 202.528C148.354 204.424 147.741 205.411 146.755 205.411ZM154.286 198.574H152.926L150.964 199.834V201.145L152.81 199.966H152.856V206.467H154.286V198.574Z" fill="#A25BAA"/>
<path d="M80.4994 233.706C82.0294 233.706 83.1662 232.746 83.1662 231.455C83.1662 230.453 82.5727 229.725 81.5785 229.559V229.497C82.3762 229.254 82.8733 228.599 82.8733 227.709C82.8733 226.592 81.9908 225.597 80.5302 225.597C79.166 225.597 78.033 226.437 77.9868 227.678H78.9117C78.9464 226.892 79.694 226.43 80.5148 226.43C81.3858 226.43 81.9484 226.958 81.9484 227.755C81.9484 228.588 81.2971 229.127 80.3607 229.127H79.7287V229.975H80.3607C81.5592 229.975 82.2259 230.584 82.2259 231.455C82.2259 232.291 81.4975 232.858 80.484 232.858C79.5707 232.858 78.8462 232.388 78.7884 231.625H77.8172C77.875 232.865 78.9695 233.706 80.4994 233.706ZM87.3167 233.706C89.0586 233.706 90.0606 232.23 90.0606 229.651C90.0606 227.093 89.0432 225.597 87.3167 225.597C85.5902 225.597 84.5728 227.093 84.5728 229.651C84.5728 232.23 85.5748 233.706 87.3167 233.706ZM87.3167 232.858C86.1683 232.858 85.4977 231.705 85.4977 229.651C85.4977 227.601 86.176 226.43 87.3167 226.43C88.4574 226.43 89.1357 227.601 89.1357 229.651C89.1357 231.705 88.4651 232.858 87.3167 232.858ZM94.0993 233.706C95.8412 233.706 96.8432 232.23 96.8432 229.651C96.8432 227.093 95.8258 225.597 94.0993 225.597C92.3728 225.597 91.3554 227.093 91.3554 229.651C91.3554 232.23 92.3574 233.706 94.0993 233.706ZM94.0993 232.858C92.9509 232.858 92.2803 231.705 92.2803 229.651C92.2803 227.601 92.9586 226.43 94.0993 226.43C95.24 226.43 95.9183 227.601 95.9183 229.651C95.9183 231.705 95.2477 232.858 94.0993 232.858Z" fill="#778699"/>
<path d="M106.589 207.561H110.304V209.18H111.214V207.561H112.293V206.713H111.214V201.287H110.057L106.589 206.775V207.561ZM110.304 206.713H107.622V206.652L110.242 202.505H110.304V206.713ZM116.311 209.288C118.053 209.288 119.055 207.812 119.055 205.233C119.055 202.675 118.038 201.179 116.311 201.179C114.585 201.179 113.567 202.675 113.567 205.233C113.567 207.812 114.569 209.288 116.311 209.288ZM116.311 208.44C115.163 208.44 114.492 207.287 114.492 205.233C114.492 203.183 115.17 202.012 116.311 202.012C117.452 202.012 118.13 203.183 118.13 205.233C118.13 207.287 117.46 208.44 116.311 208.44ZM123.094 209.288C124.836 209.288 125.838 207.812 125.838 205.233C125.838 202.675 124.82 201.179 123.094 201.179C121.367 201.179 120.35 202.675 120.35 205.233C120.35 207.812 121.352 209.288 123.094 209.288ZM123.094 208.44C121.945 208.44 121.275 207.287 121.275 205.233C121.275 203.183 121.953 202.012 123.094 202.012C124.234 202.012 124.913 203.183 124.913 205.233C124.913 207.287 124.242 208.44 123.094 208.44Z" fill="#778699"/>
<path d="M167.119 184.871C168.622 184.871 169.724 183.761 169.724 182.25C169.724 180.72 168.661 179.599 167.212 179.599C166.68 179.599 166.164 179.787 165.84 180.046H165.794L166.071 177.718H169.37V176.87H165.27L164.792 180.755L165.686 180.863C166.013 180.628 166.572 180.458 167.058 180.462C168.064 180.47 168.8 181.233 168.8 182.265C168.8 183.279 168.09 184.023 167.119 184.023C166.31 184.023 165.666 183.503 165.593 182.79H164.668C164.726 183.992 165.763 184.871 167.119 184.871ZM173.83 184.871C175.572 184.871 176.574 183.395 176.574 180.816C176.574 178.258 175.556 176.762 173.83 176.762C172.103 176.762 171.086 178.258 171.086 180.816C171.086 183.395 172.088 184.871 173.83 184.871ZM173.83 184.023C172.681 184.023 172.011 182.871 172.011 180.816C172.011 178.766 172.689 177.595 173.83 177.595C174.97 177.595 175.649 178.766 175.649 180.816C175.649 182.871 174.978 184.023 173.83 184.023ZM180.612 184.871C182.354 184.871 183.356 183.395 183.356 180.816C183.356 178.258 182.339 176.762 180.612 176.762C178.886 176.762 177.868 178.258 177.868 180.816C177.868 183.395 178.87 184.871 180.612 184.871ZM180.612 184.023C179.464 184.023 178.793 182.871 178.793 180.816C178.793 178.766 179.472 177.595 180.612 177.595C181.753 177.595 182.431 178.766 182.431 180.816C182.431 182.871 181.761 184.023 180.612 184.023Z" fill="#778699"/>
<path d="M225.152 160.453C226.748 160.472 227.788 159.27 227.788 157.801C227.788 156.275 226.659 155.181 225.307 155.181C224.493 155.181 223.796 155.578 223.364 156.229H223.303C223.306 154.306 224.054 153.192 225.276 153.192C226.108 153.192 226.609 153.716 226.786 154.425H227.727C227.534 153.2 226.601 152.344 225.276 152.344C223.499 152.344 222.409 153.917 222.409 156.707C222.409 159.624 223.858 160.437 225.152 160.453ZM225.152 159.605C224.162 159.605 223.437 158.761 223.441 157.817C223.445 156.872 224.204 156.029 225.183 156.029C226.151 156.029 226.863 156.822 226.863 157.801C226.863 158.803 226.12 159.605 225.152 159.605ZM231.878 160.453C233.62 160.453 234.622 158.977 234.622 156.398C234.622 153.84 233.605 152.344 231.878 152.344C230.152 152.344 229.134 153.84 229.134 156.398C229.134 158.977 230.136 160.453 231.878 160.453ZM231.878 159.605C230.73 159.605 230.059 158.453 230.059 156.398C230.059 154.348 230.737 153.177 231.878 153.177C233.019 153.177 233.697 154.348 233.697 156.398C233.697 158.453 233.027 159.605 231.878 159.605ZM238.661 160.453C240.403 160.453 241.405 158.977 241.405 156.398C241.405 153.84 240.387 152.344 238.661 152.344C236.934 152.344 235.917 153.84 235.917 156.398C235.917 158.977 236.919 160.453 238.661 160.453ZM238.661 159.605C237.512 159.605 236.842 158.453 236.842 156.398C236.842 154.348 237.52 153.177 238.661 153.177C239.801 153.177 240.48 154.348 240.48 156.398C240.48 158.453 239.809 159.605 238.661 159.605Z" fill="#778699"/>
<path d="M252.281 157.74C253.877 157.759 254.917 156.557 254.917 155.088C254.917 153.562 253.788 152.468 252.435 152.468C251.622 152.468 250.925 152.865 250.493 153.516H250.431C250.435 151.593 251.183 150.479 252.405 150.479C253.237 150.479 253.738 151.003 253.915 151.712H254.856C254.663 150.487 253.73 149.631 252.405 149.631C250.628 149.631 249.537 151.204 249.537 153.994C249.537 156.911 250.986 157.724 252.281 157.74ZM252.281 156.892C251.291 156.892 250.566 156.048 250.57 155.104C250.574 154.16 251.333 153.316 252.312 153.316C253.279 153.316 253.992 154.11 253.992 155.088C253.992 156.09 253.249 156.892 252.281 156.892ZM259.007 157.74C260.749 157.74 261.751 156.264 261.751 153.686C261.751 151.127 260.734 149.631 259.007 149.631C257.281 149.631 256.263 151.127 256.263 153.686C256.263 156.264 257.265 157.74 259.007 157.74ZM259.007 156.892C257.859 156.892 257.188 155.74 257.188 153.686C257.188 151.635 257.866 150.464 259.007 150.464C260.148 150.464 260.826 151.635 260.826 153.686C260.826 155.74 260.155 156.892 259.007 156.892ZM265.99 149.739H265.034L263.061 151.05V152.021L264.988 150.741H265.034V157.632H265.99V149.739Z" fill="#778699"/>
<path d="M281.56 135.928H282.562L286.076 128.929V128.035H281.02V128.883H285.09V128.945L281.56 135.928ZM289.918 136.036C291.659 136.036 292.661 134.56 292.661 131.981C292.661 129.423 291.644 127.927 289.918 127.927C288.191 127.927 287.174 129.423 287.174 131.981C287.174 134.56 288.176 136.036 289.918 136.036ZM289.918 135.188C288.769 135.188 288.099 134.036 288.099 131.981C288.099 129.931 288.777 128.76 289.918 128.76C291.058 128.76 291.737 129.931 291.737 131.981C291.737 134.036 291.066 135.188 289.918 135.188ZM296.7 136.036C298.442 136.036 299.444 134.56 299.444 131.981C299.444 129.423 298.427 127.927 296.7 127.927C294.974 127.927 293.956 129.423 293.956 131.981C293.956 134.56 294.958 136.036 296.7 136.036ZM296.7 135.188C295.552 135.188 294.881 134.036 294.881 131.981C294.881 129.931 295.559 128.76 296.7 128.76C297.841 128.76 298.519 129.931 298.519 131.981C298.519 134.036 297.849 135.188 296.7 135.188Z" fill="#778699"/>
<path d="M311.403 133.215H312.405L315.92 126.216V125.322H310.864V126.17H314.934V126.232L311.403 133.215ZM319.761 133.323C321.503 133.323 322.505 131.847 322.505 129.269C322.505 126.71 321.488 125.214 319.761 125.214C318.035 125.214 317.017 126.71 317.017 129.269C317.017 131.847 318.019 133.323 319.761 133.323ZM319.761 132.475C318.613 132.475 317.942 131.323 317.942 129.269C317.942 127.218 318.621 126.047 319.761 126.047C320.902 126.047 321.58 127.218 321.58 129.269C321.58 131.323 320.91 132.475 319.761 132.475ZM326.744 125.322H325.789L323.815 126.633V127.604L325.742 126.324H325.789V133.215H326.744V125.322Z" fill="#778699"/>
<path d="M340.814 111.619C342.39 111.619 343.488 110.698 343.496 109.414C343.488 108.416 342.822 107.568 341.97 107.41V107.364C342.71 107.171 343.195 106.447 343.203 105.607C343.195 104.404 342.186 103.51 340.814 103.51C339.426 103.51 338.417 104.404 338.424 105.607C338.417 106.447 338.902 107.171 339.658 107.364V107.41C338.791 107.568 338.124 108.416 338.132 109.414C338.124 110.698 339.222 111.619 340.814 111.619ZM340.814 110.771C339.731 110.771 339.064 110.216 339.072 109.368C339.064 108.478 339.8 107.842 340.814 107.842C341.812 107.842 342.548 108.478 342.556 109.368C342.548 110.216 341.881 110.771 340.814 110.771ZM340.814 107.025C339.951 107.025 339.342 106.485 339.349 105.668C339.342 104.867 339.927 104.343 340.814 104.343C341.685 104.343 342.271 104.867 342.278 105.668C342.271 106.485 341.662 107.025 340.814 107.025ZM347.547 111.619C349.289 111.619 350.291 110.143 350.291 107.564C350.291 105.006 349.274 103.51 347.547 103.51C345.821 103.51 344.803 105.006 344.803 107.564C344.803 110.143 345.805 111.619 347.547 111.619ZM347.547 110.771C346.399 110.771 345.728 109.619 345.728 107.564C345.728 105.514 346.407 104.343 347.547 104.343C348.688 104.343 349.366 105.514 349.366 107.564C349.366 109.619 348.696 110.771 347.547 110.771ZM354.33 111.619C356.072 111.619 357.074 110.143 357.074 107.564C357.074 105.006 356.056 103.51 354.33 103.51C352.603 103.51 351.586 105.006 351.586 107.564C351.586 110.143 352.588 111.619 354.33 111.619ZM354.33 110.771C353.181 110.771 352.511 109.619 352.511 107.564C352.511 105.514 353.189 104.343 354.33 104.343C355.471 104.343 356.149 105.514 356.149 107.564C356.149 109.619 355.478 110.771 354.33 110.771Z" fill="#778699"/>
<rect width="20.8" height="14.4696" transform="translate(366.41 88.7539)" fill="white"/>
<path d="M370.119 99.8618C371.695 99.8618 372.794 98.9408 372.801 97.6575C372.794 96.6593 372.127 95.8115 371.275 95.6535V95.6073C372.015 95.4146 372.501 94.6901 372.508 93.85C372.501 92.6476 371.491 91.7535 370.119 91.7535C368.732 91.7535 367.722 92.6476 367.73 93.85C367.722 94.6901 368.208 95.4146 368.963 95.6073V95.6535C368.096 95.8115 367.429 96.6593 367.437 97.6575C367.429 98.9408 368.527 99.8618 370.119 99.8618ZM370.119 99.014C369.036 99.014 368.369 98.459 368.377 97.6112C368.369 96.721 369.106 96.0851 370.119 96.0851C371.117 96.0851 371.853 96.721 371.861 97.6112C371.853 98.459 371.187 99.014 370.119 99.014ZM370.119 95.2681C369.256 95.2681 368.647 94.7286 368.655 93.9116C368.647 93.11 369.233 92.5859 370.119 92.5859C370.99 92.5859 371.576 93.11 371.584 93.9116C371.576 94.7286 370.967 95.2681 370.119 95.2681ZM376.745 99.8618C378.248 99.8618 379.35 98.7519 379.35 97.2413C379.35 95.7113 378.286 94.5899 376.837 94.5899C376.305 94.5899 375.789 94.7787 375.465 95.0369H375.419L375.696 92.7092H378.995V91.8614H374.895L374.417 95.746L375.311 95.8539C375.639 95.6188 376.197 95.4493 376.683 95.4531C377.689 95.4608 378.425 96.2239 378.425 97.2567C378.425 98.2702 377.716 99.014 376.745 99.014C375.935 99.014 375.292 98.4937 375.219 97.7808H374.294C374.351 98.9832 375.388 99.8618 376.745 99.8618ZM383.455 99.8618C385.197 99.8618 386.199 98.3858 386.199 95.8077C386.199 93.2488 385.181 91.7535 383.455 91.7535C381.729 91.7535 380.711 93.2488 380.711 95.8077C380.711 98.3858 381.713 99.8618 383.455 99.8618ZM383.455 99.014C382.307 99.014 381.636 97.8617 381.636 95.8077C381.636 93.7575 382.314 92.5859 383.455 92.5859C384.596 92.5859 385.274 93.7575 385.274 95.8077C385.274 97.8617 384.603 99.014 383.455 99.014Z" fill="#778699"/>
<path d="M196.057 182.158C197.56 182.158 198.662 181.048 198.662 179.537C198.662 178.007 197.598 176.886 196.149 176.886C195.618 176.886 195.101 177.075 194.777 177.333H194.731L195.009 175.005H198.307V174.157H194.207L193.729 178.042L194.623 178.15C194.951 177.915 195.51 177.745 195.995 177.749C197.001 177.757 197.737 178.52 197.737 179.553C197.737 180.566 197.028 181.31 196.057 181.31C195.248 181.31 194.604 180.79 194.531 180.077H193.606C193.664 181.279 194.7 182.158 196.057 182.158ZM202.767 182.158C204.509 182.158 205.511 180.682 205.511 178.104C205.511 175.545 204.494 174.049 202.767 174.049C201.041 174.049 200.023 175.545 200.023 178.104C200.023 180.682 201.025 182.158 202.767 182.158ZM202.767 181.31C201.619 181.31 200.948 180.158 200.948 178.104C200.948 176.053 201.626 174.882 202.767 174.882C203.908 174.882 204.586 176.053 204.586 178.104C204.586 180.158 203.916 181.31 202.767 181.31ZM209.75 174.157H208.794L206.821 175.468V176.439L208.748 175.159H208.794V182.05H209.75V174.157Z" fill="#778699"/>
<defs>
<filter id="filter0_dd" x="0.147827" y="0.127777" width="430.47" height="368.07" filterUnits="userSpaceOnUse" color-interpolation-filters="sRGB">
<feFlood flood-opacity="0" result="BackgroundImageFix"/>
<feColorMatrix in="SourceAlpha" type="matrix" values="0 0 0 0 0 0 0 0 0 0 0 0 0 0 0 0 0 0 127 0"/>
<feOffset dx="-3.61739" dy="4.52174"/>
<feGaussianBlur stdDeviation="3.61739"/>
<feColorMatrix type="matrix" values="0 0 0 0 0.262745 0 0 0 0 0.337255 0 0 0 0 0.392157 0 0 0 0.123689 0"/>
<feBlend mode="normal" in2="BackgroundImageFix" result="effect1_dropShadow"/>
<feColorMatrix in="SourceAlpha" type="matrix" values="0 0 0 0 0 0 0 0 0 0 0 0 0 0 0 0 0 0 127 0"/>
<feOffset dx="-0.904348" dy="1.8087"/>
<feGaussianBlur stdDeviation="1.8087"/>
<feColorMatrix type="matrix" values="0 0 0 0 0.262745 0 0 0 0 0.337255 0 0 0 0 0.392157 0 0 0 0.10047 0"/>
<feBlend mode="normal" in2="effect1_dropShadow" result="effect2_dropShadow"/>
<feBlend mode="normal" in="SourceGraphic" in2="effect2_dropShadow" result="shape"/>
</filter>
<linearGradient id="paint0_linear" x1="87.8711" y1="241.589" x2="377.262" y2="107.745" gradientUnits="userSpaceOnUse">
<stop stop-color="#FF3E1D"/>
<stop offset="0.309907" stop-color="#696CFF"/>
<stop offset="0.507906" stop-color="#FFD422"/>
<stop offset="0.704325" stop-color="#03C3EC"/>
<stop offset="1" stop-color="#A7E521"/>
</linearGradient>
</defs>
</svg>
