<svg width="431" height="339" viewBox="0 0 431 339" fill="none" xmlns="http://www.w3.org/2000/svg">
<g filter="url(#filter0_dd)">
<rect x="11" y="2.84082" width="416" height="323.757" rx="7.23478" fill="white"/>
<rect x="11.4522" y="3.29299" width="415.096" height="322.852" rx="6.78261" stroke="#E5E9F2" stroke-width="0.904348"/>
</g>
<rect x="320.741" y="24.9971" width="84.1043" height="31.6522" rx="6.78261" fill="white" stroke="#DCE1E7" stroke-width="0.904348"/>
<path d="M340.025 41.272C340.025 38.3586 338.316 36.5422 335.96 36.5422C333.604 36.5422 331.896 38.3586 331.896 41.272C331.896 44.1855 333.604 46.0019 335.96 46.0019C338.316 46.0019 340.025 44.1855 340.025 41.272ZM338.946 41.272C338.946 43.6639 337.633 44.9588 335.96 44.9588C334.288 44.9588 332.975 43.6639 332.975 41.272C332.975 38.8801 334.288 37.5853 335.96 37.5853C337.633 37.5853 338.946 38.8801 338.946 41.272ZM341.36 39.9592H343.644V45.876H344.705V39.9592H346.971V38.97H341.36V39.9592ZM347.326 45.876H347.686C349.215 45.876 349.655 44.689 349.754 42.423L349.862 39.9592H352.398V45.876H353.459V38.97H348.855L348.729 42.0274C348.639 44.3473 348.405 44.8868 347.578 44.8868H347.326V45.876ZM356.467 44.3114V38.97H355.406V45.876H356.647L359.956 40.5347V45.876H361.017V38.97H359.794L356.467 44.3114ZM368.284 38.97H367.223V42.4725C366.71 42.6208 366.184 42.7108 365.55 42.7108C364.687 42.7108 364.021 42.2252 364.021 41.1641V38.9521H362.96V41.1641C362.96 42.8546 363.985 43.6999 365.55 43.6999C366.202 43.6999 366.723 43.6145 367.223 43.4661V45.876H368.284V38.97ZM371.291 38.97H370.23V45.876H371.291V42.9266H374.601V45.876H375.662V38.97H374.601V41.9374H371.291V38.97ZM378.66 41.4699V38.97H377.599V45.876H380.495C382.113 45.876 382.995 44.8868 382.995 43.6459C382.995 42.387 382.113 41.4699 380.495 41.4699H378.66ZM384.092 45.876H385.153V38.97H384.092V45.876ZM378.66 42.459H380.495C381.336 42.459 381.934 42.9715 381.934 43.6999C381.934 44.3968 381.336 44.8868 380.495 44.8868H378.66V42.459ZM388.156 44.3114V38.97H387.095V45.876H388.336L391.645 40.5347V45.876H392.706V38.97H391.483L388.156 44.3114ZM390.782 36.6681C390.782 37.1357 390.53 37.5493 389.901 37.5493C389.271 37.5493 389.037 37.1357 389.037 36.6681H388.048C388.048 37.6392 388.768 38.3226 389.901 38.3226C391.052 38.3226 391.771 37.6392 391.771 36.6681H390.782Z" fill="#778699"/>
<path fill-rule="evenodd" clip-rule="evenodd" d="M139.418 154.32C139.418 197.523 174.441 232.546 217.644 232.546C231.743 232.546 245.304 228.808 257.201 221.821C280.962 207.868 295.87 182.387 295.87 154.32C295.87 111.117 260.847 76.0938 217.644 76.0938C174.441 76.0938 139.418 111.117 139.418 154.32ZM253.538 215.583C242.744 221.921 230.446 225.312 217.644 225.312C178.437 225.312 146.653 193.528 146.653 154.32C146.653 115.113 178.437 83.3289 217.644 83.3289C256.852 83.3289 288.636 115.113 288.636 154.32C288.636 179.795 275.109 202.916 253.538 215.583Z" fill="#D7E1EA"/>
<path d="M216.821 70.6673C211.832 70.6673 207.787 74.7162 207.787 79.7108C207.787 84.7054 211.832 88.7543 216.821 88.7543C228.639 88.7543 239.978 91.8831 249.935 97.7359C269.843 109.438 282.323 130.789 282.323 154.32C282.323 190.53 252.997 219.885 216.821 219.885C188.951 219.885 164.411 202.301 155.15 176.472C153.465 171.771 148.291 169.328 143.595 171.015C138.898 172.702 136.457 177.881 138.143 182.581C149.96 215.54 181.266 237.972 216.821 237.972C262.976 237.972 300.392 200.519 300.392 154.32C300.392 124.308 284.464 97.057 259.085 82.1393C246.372 74.6668 231.878 70.6673 216.821 70.6673Z" fill="#FF3E1D"/>
<path fill-rule="evenodd" clip-rule="evenodd" d="M216.852 70.6673C211.864 70.6673 207.821 74.7162 207.821 79.7108C207.821 84.7054 211.864 88.7543 216.852 88.7543C228.665 88.7543 240 91.8831 249.953 97.7359C269.854 109.438 282.328 130.789 282.328 154.32C282.328 190.53 253.014 219.885 216.852 219.885C200.246 219.885 184.632 213.682 172.636 202.678C168.958 199.304 163.245 199.554 159.876 203.237C156.507 206.92 156.757 212.64 160.434 216.014C175.729 230.045 195.684 237.972 216.852 237.972C262.989 237.972 300.391 200.519 300.391 154.32C300.391 124.308 284.469 97.057 259.099 82.1393C246.392 74.6668 231.903 70.6673 216.852 70.6673Z" fill="#FFD422"/>
<path d="M216.649 70.6674C211.654 70.6674 207.605 74.7216 207.605 79.7227C207.605 84.7239 211.654 88.7781 216.649 88.7781C228.478 88.7781 239.828 91.911 249.795 97.7715C269.723 109.489 282.214 130.868 282.214 154.429C282.214 173.698 273.889 191.595 259.644 203.996C255.875 207.277 255.476 212.996 258.753 216.771C262.03 220.545 267.742 220.944 271.511 217.663C289.667 201.858 300.301 178.996 300.301 154.429C300.301 124.379 284.357 97.0917 258.954 82.1544C246.229 74.6721 231.72 70.6674 216.649 70.6674Z" fill="#A7E521"/>
<path d="M184.997 177.006H186.166L190.266 168.841V167.798H184.368V168.787H189.115V168.859L184.997 177.006ZM194.696 177.132C196.45 177.132 197.735 175.837 197.735 174.074C197.735 172.29 196.495 170.981 194.804 170.981C194.184 170.981 193.581 171.201 193.203 171.503H193.149L193.473 168.787H197.322V167.798H192.538L191.98 172.33L193.024 172.456C193.406 172.182 194.058 171.984 194.624 171.988C195.798 171.997 196.656 172.887 196.656 174.092C196.656 175.275 195.829 176.143 194.696 176.143C193.752 176.143 193.001 175.536 192.916 174.704H191.837C191.904 176.107 193.113 177.132 194.696 177.132ZM202.525 177.132C204.557 177.132 205.726 175.41 205.726 172.402C205.726 169.417 204.539 167.672 202.525 167.672C200.511 167.672 199.324 169.417 199.324 172.402C199.324 175.41 200.493 177.132 202.525 177.132ZM202.525 176.143C201.185 176.143 200.403 174.798 200.403 172.402C200.403 170.01 201.194 168.643 202.525 168.643C203.856 168.643 204.647 170.01 204.647 172.402C204.647 174.798 203.865 176.143 202.525 176.143ZM216.139 167.51C215.802 167.793 215.298 167.793 214.592 167.789C214.363 167.789 214.111 167.789 213.837 167.798C211.733 167.852 210.69 169.453 210.69 172.528V173.265C210.69 175.819 211.931 177.15 213.783 177.15C215.631 177.15 216.858 175.81 216.858 173.643C216.858 171.467 215.613 170.316 213.999 170.316C213.05 170.316 212.164 170.711 211.697 171.575H211.607C211.751 169.794 212.416 168.841 213.855 168.787C215.132 168.733 216.049 168.769 216.678 168.158L216.139 167.51ZM213.783 176.197C212.524 176.197 211.751 175.189 211.751 173.643C211.773 172.132 212.533 171.269 213.765 171.269C215.028 171.269 215.797 172.132 215.797 173.643C215.797 175.198 215.033 176.197 213.783 176.197ZM220.514 177.168C221.718 177.168 222.348 176.52 222.564 176.071H222.618V177.006H223.679V172.456C223.679 170.262 222.006 170.01 221.125 170.01C220.082 170.01 218.895 170.37 218.355 171.629L219.363 171.988C219.596 171.485 220.149 170.945 221.161 170.945C222.137 170.945 222.618 171.462 222.618 172.348V172.384C222.618 172.896 222.096 172.852 220.837 173.013C219.556 173.18 218.158 173.463 218.158 175.046C218.158 176.394 219.201 177.168 220.514 177.168ZM220.675 176.215C219.83 176.215 219.219 175.837 219.219 175.1C219.219 174.29 219.956 174.038 220.783 173.931C221.233 173.877 222.438 173.751 222.618 173.535V174.506C222.618 175.369 221.934 176.215 220.675 176.215ZM225.004 177.006H225.364C226.892 177.006 227.333 175.819 227.432 173.553L227.54 171.089H230.075V177.006H231.137V170.1H226.533L226.407 173.157C226.317 175.477 226.083 176.017 225.256 176.017H225.004V177.006ZM232.472 177.006H232.832C234.36 177.006 234.801 175.819 234.9 173.553L235.008 171.089H237.543V177.006H238.604V170.1H234.001L233.875 173.157C233.785 175.477 233.551 176.017 232.724 176.017H232.472V177.006ZM243.357 177.15C245.227 177.15 246.486 175.729 246.486 173.589C246.486 171.431 245.227 170.01 243.357 170.01C241.486 170.01 240.228 171.431 240.228 173.589C240.228 175.729 241.486 177.15 243.357 177.15ZM243.357 176.197C241.936 176.197 241.289 174.974 241.289 173.589C241.289 172.204 241.936 170.963 243.357 170.963C244.778 170.963 245.425 172.204 245.425 173.589C245.425 174.974 244.778 176.197 243.357 176.197ZM248.106 177.006H251.361C252.764 177.006 253.609 176.215 253.609 175.153C253.609 174.07 252.786 173.485 252.026 173.373C252.804 173.211 253.357 172.775 253.357 171.934C253.357 170.833 252.413 170.1 250.929 170.1H248.106V177.006ZM249.113 176.035V173.913H251.361C252.089 173.913 252.53 174.349 252.53 175.064C252.53 175.666 252.089 176.035 251.361 176.035H249.113ZM249.113 172.995V171.071H250.929C251.779 171.071 252.296 171.426 252.296 172.006C252.296 172.622 251.779 172.995 250.929 172.995H249.113Z" fill="#778699"/>
<path d="M218.612 152.688C223.201 152.688 226.32 149.699 226.31 145.534C226.32 141.589 223.563 138.751 219.85 138.751C218.039 138.751 216.479 139.506 215.755 140.522H215.634L216.167 135.36H225.173V131.798H212.575L211.599 142.666L215.473 143.36C216.107 142.505 217.334 141.971 218.552 141.971C220.625 141.981 222.114 143.481 222.114 145.644C222.114 147.788 220.655 149.267 218.612 149.267C216.882 149.267 215.483 148.18 215.382 146.58H211.156C211.237 150.142 214.346 152.688 218.612 152.688Z" fill="#2C3F58"/>
<rect width="56.0696" height="28.9391" transform="translate(261.504 141.206)" fill="white"/>
<g filter="url(#filter1_dd)">
<path fill-rule="evenodd" clip-rule="evenodd" d="M290.968 135.633C290.244 134.702 288.837 134.702 288.113 135.633L283.778 141.206H266.93C263.933 141.206 261.504 143.635 261.504 146.632V164.719C261.504 167.716 263.933 170.145 266.93 170.145H312.147C315.144 170.145 317.573 167.716 317.573 164.719V146.632C317.573 143.635 315.144 141.206 312.147 141.206H295.303L290.968 135.633Z" fill="white"/>
</g>
<path d="M279.118 160.728H280.57L284.576 152.752V151.52H278.489V152.711H283.138V152.779L279.118 160.728ZM289.056 160.853C290.908 160.853 292.23 159.545 292.225 157.751C292.23 155.971 290.989 154.676 289.312 154.676C288.628 154.676 287.994 154.937 287.635 155.287H287.581L287.873 152.711H291.78V151.52H286.718L286.201 156.16L287.473 156.348C287.819 156.038 288.44 155.827 288.997 155.827C290.09 155.836 290.881 156.654 290.881 157.778C290.881 158.884 290.112 159.684 289.056 159.684C288.165 159.684 287.459 159.118 287.387 158.327H286.039C286.093 159.792 287.365 160.853 289.056 160.853ZM297.073 160.88C299.2 160.88 300.445 159.145 300.445 156.128C300.445 153.134 299.182 151.394 297.073 151.394C294.96 151.394 293.701 153.129 293.697 156.128C293.697 159.14 294.942 160.876 297.073 160.88ZM297.073 159.68C295.828 159.68 295.077 158.43 295.077 156.128C295.081 153.835 295.832 152.572 297.073 152.572C298.31 152.572 299.065 153.835 299.065 156.128C299.065 158.43 298.314 159.68 297.073 159.68Z" fill="#2C3F58"/>
<rect x="149.363" y="283.188" width="81.3913" height="25.3217" rx="7.23478" fill="#FAFBFD"/>
<rect x="156.598" y="291.328" width="9.04395" height="9.04395" rx="4.52198" fill="#FFD422"/>
<path d="M180.182 294.284C179.889 292.665 178.594 291.71 177.006 291.71C174.987 291.71 173.522 293.266 173.522 295.764C173.522 298.261 174.987 299.818 177.006 299.818C178.594 299.818 179.889 298.862 180.182 297.244H179.226C178.995 298.338 178.054 298.924 177.006 298.924C175.573 298.924 174.447 297.814 174.447 295.764C174.447 293.714 175.573 292.604 177.006 292.604C178.054 292.604 178.995 293.189 179.226 294.284H180.182ZM181.603 301.93H182.512V298.8H182.589C182.79 299.124 183.175 299.833 184.316 299.833C185.796 299.833 186.828 298.646 186.828 296.766C186.828 294.9 185.796 293.714 184.3 293.714C183.144 293.714 182.79 294.423 182.589 294.731H182.481V293.791H181.603V301.93ZM182.497 296.75C182.497 295.425 183.083 294.531 184.193 294.531C185.349 294.531 185.919 295.502 185.919 296.75C185.919 298.014 185.333 299.016 184.193 299.016C183.098 299.016 182.497 298.091 182.497 296.75ZM190.698 299.833C191.9 299.833 192.779 299.232 193.056 298.338L192.177 298.091C191.946 298.708 191.411 299.016 190.698 299.016C189.63 299.016 188.894 298.326 188.852 297.059H193.149V296.673C193.149 294.469 191.838 293.714 190.605 293.714C189.002 293.714 187.938 294.978 187.938 296.797C187.938 298.615 188.987 299.833 190.698 299.833ZM188.852 296.272C188.913 295.351 189.565 294.531 190.605 294.531C191.592 294.531 192.224 295.27 192.224 296.272H188.852ZM193.9 301.406H194.81V299.71H199.187V301.406H200.097V298.862H199.187V293.791H195.426L195.226 296.134C195.083 297.791 194.871 298.361 194.393 298.862H193.9V301.406ZM195.426 298.862C195.842 298.315 195.993 297.371 196.12 296.134L196.274 294.638H198.278V298.862H195.426ZM202.214 293.791H201.304V299.71H202.214V297.182H205.05V299.71H205.959V293.791H205.05V296.334H202.214V293.791ZM208.53 298.369V293.791H207.62V299.71H208.684L211.52 295.132V299.71H212.43V293.791H211.382L208.53 298.369ZM215.005 298.369V293.791H214.096V299.71H215.159L217.996 295.132V299.71H218.905V293.791H217.857L215.005 298.369ZM217.256 291.817C217.256 292.218 217.04 292.573 216.5 292.573C215.961 292.573 215.761 292.218 215.761 291.817H214.913C214.913 292.65 215.529 293.236 216.5 293.236C217.487 293.236 218.104 292.65 218.104 291.817H217.256Z" fill="#778699"/>
<rect x="32.7031" y="283.188" width="109.426" height="25.3217" rx="7.23478" fill="#FAFBFD"/>
<rect x="39.9375" y="291.328" width="9.04395" height="9.04395" rx="4.52198" fill="#FF3E1D"/>
<path d="M57.1706 299.71H60.0224C61.8876 299.71 62.6583 298.8 62.6583 297.614C62.6583 296.365 61.7951 295.687 61.0706 295.64V295.563C61.7488 295.378 62.35 294.931 62.35 293.914C62.35 292.758 61.5793 291.817 59.9299 291.817H57.1706V299.71ZM58.1263 298.862V296.118H60.0686C61.1014 296.118 61.7488 296.812 61.7488 297.614C61.7488 298.307 61.271 298.862 60.0224 298.862H58.1263ZM58.1263 295.286V292.665H59.9299C60.9781 292.665 61.4405 293.22 61.4405 293.914C61.4405 294.746 60.7623 295.286 59.899 295.286H58.1263ZM65.0149 295.933V293.791H64.1054V299.71H66.5872C67.9746 299.71 68.7299 298.862 68.7299 297.798C68.7299 296.719 67.9746 295.933 66.5872 295.933H65.0149ZM69.6702 299.71H70.5797V293.791H69.6702V299.71ZM65.0149 296.781H66.5872C67.3079 296.781 67.8204 297.22 67.8204 297.845C67.8204 298.442 67.3079 298.862 66.5872 298.862H65.0149V296.781ZM74.6493 299.833C75.9596 299.833 76.8228 299.032 76.9769 297.983H76.0675C75.8979 298.631 75.3584 299.016 74.6493 299.016C73.5702 299.016 72.8765 298.122 72.8765 296.75C72.8765 295.409 73.5856 294.531 74.6493 294.531C75.4509 294.531 75.9287 295.024 76.0675 295.563H76.9769C76.8228 294.453 75.8825 293.714 74.6339 293.714C73.0307 293.714 71.9671 294.978 71.9671 296.781C71.9671 298.554 72.9845 299.833 74.6493 299.833ZM80.7112 299.833C82.3144 299.833 83.3934 298.615 83.3934 296.781C83.3934 294.931 82.3144 293.714 80.7112 293.714C79.1081 293.714 78.029 294.931 78.029 296.781C78.029 298.615 79.1081 299.833 80.7112 299.833ZM80.7112 299.016C79.4934 299.016 78.9385 297.968 78.9385 296.781C78.9385 295.594 79.4934 294.531 80.7112 294.531C81.929 294.531 82.484 295.594 82.484 296.781C82.484 297.968 81.929 299.016 80.7112 299.016ZM84.7818 299.71H85.6912V297.213H86.5082L88.4505 299.71H89.6221L87.2019 296.642L89.5912 293.791H88.4197L86.2924 296.365H85.6912V293.791H84.7818V299.71ZM91.52 298.369V293.791H90.6106V299.71H91.6742L94.5106 295.132V299.71H95.42V293.791H94.3718L91.52 298.369ZM97.9953 298.369V293.791H97.0858V299.71H98.1495L100.986 295.132V299.71H101.895V293.791H100.847L97.9953 298.369ZM100.246 291.817C100.246 292.218 100.03 292.573 99.4906 292.573C98.951 292.573 98.7507 292.218 98.7507 291.817H97.9028C97.9028 292.65 98.5194 293.236 99.4906 293.236C100.477 293.236 101.094 292.65 101.094 291.817H100.246ZM106.613 301.93H107.523V298.8H107.6C107.8 299.124 108.186 299.833 109.326 299.833C110.806 299.833 111.839 298.646 111.839 296.766C111.839 294.9 110.806 293.714 109.311 293.714C108.155 293.714 107.8 294.423 107.6 294.731H107.492V293.791H106.613V301.93ZM107.507 296.75C107.507 295.425 108.093 294.531 109.203 294.531C110.359 294.531 110.929 295.502 110.929 296.75C110.929 298.014 110.344 299.016 109.203 299.016C108.109 299.016 107.507 298.091 107.507 296.75ZM114.136 298.369V293.791H113.226V299.71H114.29L117.126 295.132V299.71H118.036V293.791H116.988L114.136 298.369ZM122.106 299.833C123.417 299.833 124.28 299.032 124.434 297.983H123.525C123.355 298.631 122.815 299.016 122.106 299.016C121.027 299.016 120.334 298.122 120.334 296.75C120.334 295.409 121.043 294.531 122.106 294.531C122.908 294.531 123.386 295.024 123.525 295.563H124.434C124.28 294.453 123.34 293.714 122.091 293.714C120.488 293.714 119.424 294.978 119.424 296.781C119.424 298.554 120.442 299.833 122.106 299.833ZM125.764 299.71H126.673V297.213H127.49L129.432 299.71H130.604L128.184 296.642L130.573 293.791H129.401L127.274 296.365H126.673V293.791H125.764V299.71Z" fill="#778699"/>
<rect x="241.605" y="283.188" width="73.2522" height="25.3217" rx="7.23478" fill="#FAFBFD"/>
<rect x="248.84" y="291.328" width="9.04395" height="9.04395" rx="4.52198" fill="#A7E521"/>
<path d="M266.073 299.71H267.029V296.18H271.237V299.71H272.193V291.817H271.237V295.332H267.029V291.817H266.073V299.71ZM274.892 298.369V293.791H273.983V299.71H275.046L277.883 295.132V299.71H278.792V293.791H277.744L274.892 298.369ZM280.088 298.199C280.119 299.17 281.048 299.833 282.308 299.833C283.603 299.833 284.543 299.14 284.543 298.061C284.543 297.321 284.1 296.719 283.433 296.673V296.612C283.996 296.438 284.42 296.03 284.42 295.363C284.42 294.426 283.618 293.714 282.369 293.714C281.136 293.714 280.258 294.392 280.227 295.348H281.183C281.21 294.858 281.722 294.515 282.416 294.515C283.106 294.515 283.495 294.866 283.495 295.394C283.495 295.887 283.156 296.257 282.431 296.257H281.414V297.074H282.431C283.156 297.074 283.618 297.471 283.618 298.061C283.618 298.735 283.021 299.016 282.292 299.016C281.579 299.016 281.102 298.735 281.059 298.199H280.088ZM285.821 299.71H286.73V297.213H287.547L289.489 299.71H290.661L288.241 296.642L290.63 293.791H289.458L287.331 296.365H286.73V293.791H285.821V299.71ZM292.559 298.369V293.791H291.649V299.71H292.713L295.549 295.132V299.71H296.459V293.791H295.411L292.559 298.369ZM299.034 298.369V293.791H298.125V299.71H299.188L302.025 295.132V299.71H302.934V293.791H301.886L299.034 298.369ZM301.285 291.817C301.285 292.218 301.069 292.573 300.529 292.573C299.99 292.573 299.789 292.218 299.789 291.817H298.942C298.942 292.65 299.558 293.236 300.529 293.236C301.516 293.236 302.132 292.65 302.132 291.817H301.285Z" fill="#778699"/>
<path d="M34.0751 48.5449H40.8191C44.3646 48.5449 46.2529 46.6951 46.2529 44.1825C46.2529 41.8471 44.5804 40.4366 42.7845 40.3518V40.1977C44.4262 39.8277 45.6363 38.6639 45.6363 36.8064C45.6363 34.4402 43.879 32.7599 40.3952 32.7599H34.0751V48.5449ZM37.4124 45.8165V41.6236H40.2102C41.8134 41.6236 42.8077 42.5485 42.8077 43.851C42.8077 45.038 41.9984 45.8165 40.1332 45.8165H37.4124ZM37.4124 39.3653V35.4576H39.9482C41.428 35.4576 42.2681 36.2206 42.2681 37.3613C42.2681 38.6099 41.2508 39.3653 39.8865 39.3653H37.4124ZM51.7387 48.7684C53.4883 48.7684 54.6214 48.0054 55.1994 46.9032H55.2919V48.5449H58.4057V40.5599C58.4057 37.739 56.0164 36.552 53.3804 36.552C50.5441 36.552 48.6789 37.9086 48.2241 40.0667L51.2609 40.3133C51.4844 39.5271 52.1858 38.9491 53.365 38.9491C54.4826 38.9491 55.1223 39.5117 55.1223 40.4829V40.5291C55.1223 41.2922 54.3131 41.3924 52.2551 41.5927C49.9121 41.8086 47.8079 42.5947 47.8079 45.2384C47.8079 47.5815 49.4804 48.7684 51.7387 48.7684ZM52.6791 46.5024C51.6694 46.5024 50.9449 46.0323 50.9449 45.1305C50.9449 44.2056 51.7079 43.7509 52.864 43.589C53.5808 43.4888 54.7524 43.3192 55.1455 43.0572V44.3135C55.1455 45.5544 54.1204 46.5024 52.6791 46.5024ZM60.9531 36.7062V48.5449H77.0386V36.7062H73.9017V45.9398H70.5643V36.7062H67.4274V45.9398H64.09V36.7062H60.9531ZM84.6074 52.9844H87.8908V46.6489H87.991C88.4458 47.6354 89.44 48.7376 91.3515 48.7376C94.0491 48.7376 96.1533 46.6026 96.1533 42.641C96.1533 38.5714 93.9566 36.552 91.3592 36.552C89.3784 36.552 88.4303 37.7313 87.991 38.6947H87.8446V36.7062H84.6074V52.9844ZM87.8214 42.6256C87.8214 40.5137 88.7155 39.1649 90.311 39.1649C91.9373 39.1649 92.8005 40.5754 92.8005 42.6256C92.8005 44.6912 91.9218 46.1248 90.311 46.1248C88.7309 46.1248 87.8214 44.7374 87.8214 42.6256ZM103.737 48.7761C106.666 48.7761 108.639 47.3503 109.102 45.1536L106.065 44.9532C105.734 45.855 104.886 46.3252 103.791 46.3252C102.15 46.3252 101.109 45.2384 101.109 43.4734V43.4657H109.171V42.5639C109.171 38.5406 106.736 36.552 103.606 36.552C100.123 36.552 97.8643 39.0261 97.8643 42.6795C97.8643 46.4331 100.092 48.7761 103.737 48.7761ZM101.109 41.4309C101.179 40.0821 102.204 39.003 103.66 39.003C105.086 39.003 106.073 40.0204 106.081 41.4309H101.109ZM114.451 44.2133V36.7062H111.314V48.5449H114.574L118.821 41.0147V48.5449H121.95V36.7062H118.713L114.451 44.2133ZM118.15 32.575C118.15 33.2995 117.719 33.9546 116.624 33.9546C115.499 33.9546 115.083 33.2841 115.091 32.575H112.817C112.817 34.4402 114.289 35.6888 116.624 35.6888C118.96 35.6888 120.432 34.4402 120.44 32.575H118.15ZM123.415 39.2882H127.199V48.5449H130.328V39.2882H134.144V36.7062H123.415V39.2882ZM139.271 44.2133V36.7062H136.134V48.5449H139.394L143.641 41.0147V48.5449H146.77V36.7062H143.533L139.271 44.2133ZM152.539 36.7062H149.403V48.5449H152.539V43.8973H156.586V48.5449H159.7V36.7062H156.586V41.3153H152.539V36.7062ZM170.355 36.7062H162.247V48.5449H165.438V39.2882H170.355V36.7062Z" fill="#2C3F58"/>
<defs>
<filter id="filter0_dd" x="0.147827" y="0.127777" width="430.47" height="338.226" filterUnits="userSpaceOnUse" color-interpolation-filters="sRGB">
<feFlood flood-opacity="0" result="BackgroundImageFix"/>
<feColorMatrix in="SourceAlpha" type="matrix" values="0 0 0 0 0 0 0 0 0 0 0 0 0 0 0 0 0 0 127 0"/>
<feOffset dx="-3.61739" dy="4.52174"/>
<feGaussianBlur stdDeviation="3.61739"/>
<feColorMatrix type="matrix" values="0 0 0 0 0.262745 0 0 0 0 0.337255 0 0 0 0 0.392157 0 0 0 0.123689 0"/>
<feBlend mode="normal" in2="BackgroundImageFix" result="effect1_dropShadow"/>
<feColorMatrix in="SourceAlpha" type="matrix" values="0 0 0 0 0 0 0 0 0 0 0 0 0 0 0 0 0 0 127 0"/>
<feOffset dx="-0.904348" dy="1.8087"/>
<feGaussianBlur stdDeviation="1.8087"/>
<feColorMatrix type="matrix" values="0 0 0 0 0.262745 0 0 0 0 0.337255 0 0 0 0 0.392157 0 0 0 0.10047 0"/>
<feBlend mode="normal" in2="effect1_dropShadow" result="effect2_dropShadow"/>
<feBlend mode="normal" in="SourceGraphic" in2="effect2_dropShadow" result="shape"/>
</filter>
<filter id="filter1_dd" x="250.652" y="132.222" width="70.5391" height="49.6799" filterUnits="userSpaceOnUse" color-interpolation-filters="sRGB">
<feFlood flood-opacity="0" result="BackgroundImageFix"/>
<feColorMatrix in="SourceAlpha" type="matrix" values="0 0 0 0 0 0 0 0 0 0 0 0 0 0 0 0 0 0 127 0"/>
<feOffset dx="-3.61739" dy="4.52174"/>
<feGaussianBlur stdDeviation="3.61739"/>
<feColorMatrix type="matrix" values="0 0 0 0 0.262745 0 0 0 0 0.337255 0 0 0 0 0.392157 0 0 0 0.123689 0"/>
<feBlend mode="normal" in2="BackgroundImageFix" result="effect1_dropShadow"/>
<feColorMatrix in="SourceAlpha" type="matrix" values="0 0 0 0 0 0 0 0 0 0 0 0 0 0 0 0 0 0 127 0"/>
<feOffset dx="-0.904348" dy="1.8087"/>
<feGaussianBlur stdDeviation="1.8087"/>
<feColorMatrix type="matrix" values="0 0 0 0 0.262745 0 0 0 0 0.337255 0 0 0 0 0.392157 0 0 0 0.10047 0"/>
<feBlend mode="normal" in2="effect1_dropShadow" result="effect2_dropShadow"/>
<feBlend mode="normal" in="SourceGraphic" in2="effect2_dropShadow" result="shape"/>
</filter>
</defs>
</svg>
