<svg width="113" height="23" viewBox="0 0 113 23" fill="none" xmlns="http://www.w3.org/2000/svg">
<path d="M108.463 4.45508L104.64 8.75601V4.45508H101.865V15.3076H104.64V10.7292L108.741 15.3076H112.317L107.276 9.61928L111.947 4.45508H108.463Z" fill="white"/>
<path d="M96.9631 8.50936H93.14V4.45508H90.3652V15.3076H93.14V11.0221H96.9631V15.3076H99.7379V4.45508H96.9631V8.50936Z" fill="white"/>
<path d="M16.4645 10.3284C16.4028 12.3478 16.1407 12.7486 15 12.7486V15.2922H15.4162C18.2527 15.2922 18.931 13.8277 19.0389 10.575L19.1468 6.96781H21.7982V15.2922H24.573V4.45508H16.634L16.4645 10.3284Z" fill="white"/>
<path d="M31.4937 7.754H29.4896V4.45508H26.7148V15.2922H31.5245C34.5459 15.2922 35.625 13.3344 35.625 11.4846C35.625 9.09515 34.1297 7.754 31.4937 7.754ZM31.2778 12.9182H29.4896V10.1588H31.2778C32.2336 10.1588 32.8194 10.575 32.8194 11.4846C32.8194 12.4712 32.2644 12.9182 31.2778 12.9182Z" fill="white"/>
<path d="M44.6596 4.20851V0.185059H41.8848V4.20851C38.7092 4.47058 36.5664 6.73666 36.5664 9.86601C36.5664 13.0262 38.7092 15.2769 41.8848 15.5543V19.6395H44.6596V15.5543C47.8352 15.3077 49.9779 13.0262 49.9779 9.86601C49.9779 6.70583 47.8352 4.45516 44.6596 4.20851ZM41.8848 12.9337C40.3432 12.7179 39.3874 11.5617 39.3874 9.86601C39.3874 8.1703 40.3432 7.01414 41.8848 6.79832V12.9337ZM44.6596 12.9337V6.81374C46.2011 7.01414 47.1723 8.1703 47.1723 9.86601C47.1723 11.5617 46.2011 12.7179 44.6596 12.9337Z" fill="white"/>
<path d="M60.3831 11.962V8.32395C60.3831 5.67248 58.6874 3.99219 55.8355 3.99219C52.8912 3.99219 51.3342 5.76497 51.1955 7.61484H54.0011C54.0936 7.21403 54.5252 6.52033 55.8355 6.52033C56.9146 6.52033 57.6083 7.01363 57.6083 8.32395H54.8489C52.3824 8.32395 50.918 9.61886 50.918 11.777C50.918 14.0277 52.5212 15.5693 54.8335 15.5693C56.5292 15.5693 57.4696 14.7676 57.8704 14.1664C58.2403 14.891 59.042 15.3072 60.1056 15.3072H61.0614V12.7945C60.5681 12.7945 60.3831 12.5632 60.3831 11.962ZM57.6083 11.2529C57.6083 12.5016 56.7296 13.2107 55.5735 13.2107C54.5715 13.2107 53.7853 12.8407 53.7853 11.7616C53.7853 10.6979 54.6485 10.5284 55.4039 10.5284H57.6237V11.2529H57.6083Z" fill="white"/>
<path d="M72.2523 5.99671H69.1538V2.92902H76.3374V0.185059H66.2402V15.3077H72.2523C75.582 15.3077 77.4936 13.6582 77.4936 10.606C77.4936 7.73867 75.5975 5.99671 72.2523 5.99671ZM72.129 12.5637H69.1692V8.63277H72.129C73.6705 8.63277 74.5338 9.34188 74.5338 10.5905C74.5338 11.8854 73.6705 12.5637 72.129 12.5637Z" fill="white"/>
<path d="M88.1155 11.962V8.32395C88.1155 5.67248 86.4198 3.99219 83.5679 3.99219C80.6236 3.99219 79.0666 5.76497 78.9279 7.61484H81.7335C81.826 7.21403 82.2576 6.52033 83.5679 6.52033C84.647 6.52033 85.3407 7.01363 85.3407 8.32395H82.5814C80.1149 8.32395 78.6504 9.61886 78.6504 11.777C78.6504 14.0277 80.2536 15.5693 82.5659 15.5693C84.2616 15.5693 85.202 14.7676 85.6028 14.1664C85.9728 14.891 86.7744 15.3072 87.838 15.3072H88.7938V12.7945C88.3005 12.7945 88.1155 12.5632 88.1155 11.962ZM85.3407 11.2529C85.3407 12.5016 84.462 13.2107 83.3059 13.2107C82.3039 13.2107 81.5177 12.8407 81.5177 11.7616C81.5177 10.6979 82.3809 10.5284 83.1363 10.5284H85.3561V11.2529H85.3407Z" fill="white"/>
<path d="M14.8297 19.917H0V23.0001H14.8297V19.917Z" fill="white"/>
<path d="M10.1129 2.25067C9.68124 1.00201 9.20335 0 7.52306 0C5.85818 0 5.34947 0.986594 4.90242 2.25067L0.308594 15.3076H3.34545L4.40912 12.2091H10.267L11.2536 15.3076H14.4909L10.1129 2.25067ZM5.30323 9.57304L7.38432 3.39142H7.4614L9.41917 9.57304H5.30323Z" fill="white"/>
</svg>
