<svg width="25" height="25" viewBox="0 0 25 25" fill="none" stroke="#BFC5D2" xmlns="http://www.w3.org/2000/svg">
<path fill-rule="evenodd" clip-rule="evenodd" d="M5.84206 11.8946C7.5852 15.3203 9.67938 17.4024 13.1051 19.1576L16.0225 16.9545C16.3493 16.6277 16.8335 16.5187 17.2572 16.664C18.613 17.1119 20.0777 17.354 21.5787 17.354C22.2445 17.354 22.7892 17.8987 22.7892 18.5645V22.7892C22.7892 23.455 22.2445 23.9997 21.5787 23.9997C10.212 23.9997 1 14.7877 1 3.42096C1 2.75518 1.54473 2.21045 2.21051 2.21045H6.44731C7.11309 2.21045 7.65783 2.75518 7.65783 3.42096C7.65783 4.93411 7.89993 6.38672 8.34782 7.7425C8.48098 8.16618 8.38413 8.63828 8.04519 8.97722L5.84206 11.8946V11.8946Z" stroke-linecap="round" stroke-linejoin="round"/>
<path d="M19.1576 13.1051H11.8945V5.84204" stroke-linecap="round" stroke-linejoin="round"/>
<path d="M11.8945 13.1051L23.9997 1" stroke-linecap="round" stroke-linejoin="round"/>
</svg>
