<svg width="16" height="16" viewBox="0 0 16 16" fill="none" xmlns="http://www.w3.org/2000/svg">
<path d="M0.299047 0.299047C-0.0996826 0.697777 -0.0996824 1.34425 0.299047 1.74298L6.55607 8L0.299047 14.257C-0.0996824 14.6558 -0.0996826 15.3022 0.299047 15.701C0.697777 16.0997 1.34425 16.0997 1.74298 15.701L8 9.44393L14.257 15.701C14.6558 16.0997 15.3022 16.0997 15.701 15.701C16.0997 15.3022 16.0997 14.6558 15.701 14.257L9.44393 8L15.701 1.74298C16.0997 1.34425 16.0997 0.697777 15.701 0.299047C15.3022 -0.0996827 14.6558 -0.0996822 14.257 0.299047L8 6.55607L1.74298 0.299047C1.34425 -0.0996826 0.697777 -0.0996822 0.299047 0.299047Z" fill="#25272E"/>
</svg>
