<svg width="47" height="49" viewBox="0 0 47 49" fill="none" xmlns="http://www.w3.org/2000/svg">
<path fill-rule="evenodd" clip-rule="evenodd" d="M27.5645 5.08696C27.5645 7.345 25.7356 9.17391 23.4776 9.17391C21.2195 9.17391 19.3906 7.345 19.3906 5.08696C19.3906 2.82891 21.2195 1 23.4776 1C25.7356 1 27.5645 2.82891 27.5645 5.08696V5.08696Z" stroke="#17233B" stroke-width="2" stroke-linecap="round" stroke-linejoin="round"/>
<path fill-rule="evenodd" clip-rule="evenodd" d="M31.6525 17.3477C31.6525 12.8337 27.9926 9.17383 23.4786 9.17383C18.9646 9.17383 15.3047 12.8337 15.3047 17.3477H31.6525V17.3477Z" stroke="#17233B" stroke-width="2" stroke-linecap="round" stroke-linejoin="round"/>
<path fill-rule="evenodd" clip-rule="evenodd" d="M13.2618 35.7391C13.2618 37.9971 11.4329 39.826 9.17485 39.826C6.9168 39.826 5.08789 37.9971 5.08789 35.7391C5.08789 33.481 6.9168 31.6521 9.17485 31.6521C11.4329 31.6521 13.2618 33.481 13.2618 35.7391V35.7391Z" stroke="#17233B" stroke-width="2" stroke-linecap="round" stroke-linejoin="round"/>
<path fill-rule="evenodd" clip-rule="evenodd" d="M17.3478 48.0001C17.3478 43.486 13.688 39.8262 9.17391 39.8262C4.65987 39.8262 1 43.486 1 48.0001H17.3478V48.0001Z" stroke="#17233B" stroke-width="2" stroke-linecap="round" stroke-linejoin="round"/>
<path fill-rule="evenodd" clip-rule="evenodd" d="M41.8692 35.7391C41.8692 37.9971 40.0403 39.826 37.7823 39.826C35.5242 39.826 33.6953 37.9971 33.6953 35.7391C33.6953 33.481 35.5242 31.6521 37.7823 31.6521C40.0403 31.6521 41.8692 33.481 41.8692 35.7391V35.7391Z" stroke="#17233B" stroke-width="2" stroke-linecap="round" stroke-linejoin="round"/>
<path fill-rule="evenodd" clip-rule="evenodd" d="M45.9572 48.0001C45.9572 43.486 42.2973 39.8262 37.7833 39.8262C33.2692 39.8262 29.6094 43.486 29.6094 48.0001H45.9572V48.0001Z" stroke="#17233B" stroke-width="2" stroke-linecap="round" stroke-linejoin="round"/>
<path d="M9.17383 27.5651V11.2173H13.2608" stroke="#FF4E2C" stroke-width="2" stroke-linecap="round" stroke-linejoin="round"/>
<path d="M33.6953 11.2173H37.7823V27.5651" stroke="#FF4E2C" stroke-width="2" stroke-linecap="round" stroke-linejoin="round"/>
</svg>
