<svg width="19" height="17" viewBox="0 0 19 17" fill="none" stroke="#FF4E2C" xmlns="http://www.w3.org/2000/svg">
<path d="M10.75 12.2423H14.5C16.5707 12.2423 18.25 10.6129 18.25 8.60366C18.25 6.59438 16.5707 4.96499 14.5 4.96499C14.4797 4.96499 14.461 4.97008 14.4415 4.97081C14.0792 2.50014 11.896 0.598572 9.25 0.598572C6.3505 0.598572 4 2.87929 4 5.69272C4 5.94233 4.02475 6.18612 4.06075 6.42628C4.03975 6.42628 4.021 6.42046 4 6.42046C2.34325 6.42046 1 7.72383 1 9.3314C1 10.939 2.34325 12.2423 4 12.2423H7.75" stroke-linecap="round" stroke-linejoin="round"/>
<path d="M9.25 8.60364V15.881L7.75 14.4255"  stroke-linecap="round" stroke-linejoin="round"/>
<path d="M10.75 14.4255L9.25 15.8801" stroke-linecap="round" stroke-linejoin="round"/>
</svg>
