<svg width="26" height="25" viewBox="0 0 26 25" fill="none" stroke="#BFC5D2" xmlns="http://www.w3.org/2000/svg">
<path fill-rule="evenodd" clip-rule="evenodd" d="M8.66704 10.8572C8.66704 11.4618 8.17637 11.9524 7.5718 11.9524C6.96723 11.9524 6.47656 11.4618 6.47656 10.8572C6.47656 10.2526 6.96723 9.76196 7.5718 9.76196C8.17637 9.76196 8.66704 10.2526 8.66704 10.8572V10.8572Z" stroke-linecap="round" stroke-linejoin="round"/>
<path fill-rule="evenodd" clip-rule="evenodd" d="M14.1436 10.8573C14.1436 11.4619 13.6529 11.9526 13.0484 11.9526C12.4438 11.9526 11.9531 11.4619 11.9531 10.8573C11.9531 10.2528 12.4438 9.76208 13.0484 9.76208C13.6529 9.76208 14.1436 10.2528 14.1436 10.8573V10.8573Z" stroke-linecap="round" stroke-linejoin="round"/>
<path fill-rule="evenodd" clip-rule="evenodd" d="M19.6202 10.8572C19.6202 11.4618 19.1295 11.9524 18.5249 11.9524C17.9204 11.9524 17.4297 11.4618 17.4297 10.8572C17.4297 10.2526 17.9204 9.76196 18.5249 9.76196C19.1295 9.76196 19.6202 10.2526 19.6202 10.8572V10.8572Z" stroke-linecap="round" stroke-linejoin="round"/>
<path fill-rule="evenodd" clip-rule="evenodd" d="M13.0476 1C6.39405 1 1 5.16738 1 10.3095C1 13.0969 2.59357 15.5908 5.10495 17.2971L3.19048 24L9.08067 19.0922C10.3238 19.4274 11.6556 19.619 13.0476 19.619C19.7012 19.619 25.0952 15.4506 25.0952 10.3095C25.0952 5.16738 19.7012 1 13.0476 1V1Z" stroke-linecap="round" stroke-linejoin="round"/>
</svg>
