<svg width="49" height="48" viewBox="0 0 49 48" fill="none" xmlns="http://www.w3.org/2000/svg">
<path fill-rule="evenodd" clip-rule="evenodd" d="M42.8129 28.1787C42.8129 38.5711 34.3898 46.9943 23.9973 46.9943C13.6048 46.9943 5.18164 38.5711 5.18164 28.1787C5.18164 17.7862 13.6048 9.36304 23.9973 9.36304C34.3898 9.36304 42.8129 17.7862 42.8129 28.1787V28.1787Z" stroke="#17233B" stroke-width="2" stroke-linecap="round" stroke-linejoin="round"/>
<path fill-rule="evenodd" clip-rule="evenodd" d="M38.632 28.1788C38.632 36.2612 32.08 42.8132 23.9976 42.8132C15.9153 42.8132 9.36328 36.2612 9.36328 28.1788C9.36328 20.0964 15.9153 13.5444 23.9976 13.5444C32.08 13.5444 38.632 20.0964 38.632 28.1788V28.1788Z" stroke="#17233B" stroke-width="2" stroke-linecap="round" stroke-linejoin="round"/>
<path d="M23.9961 17.7256V28.1787L32.3586 34.4506" stroke="#FF4E2C" stroke-width="2" stroke-linecap="round" stroke-linejoin="round"/>
<path fill-rule="evenodd" clip-rule="evenodd" d="M1 10.5855C1 13.2155 4.17984 14.5326 6.04049 12.674L12.672 6.0405C14.5326 4.18193 13.2155 1 10.5855 1H10.5792C9.79735 1 9.04472 1.3115 8.4928 1.86552L1.86552 8.4928C1.3115 9.04681 1 9.79735 1 10.5792V10.5855V10.5855Z" stroke="#17233B" stroke-width="2" stroke-linecap="round" stroke-linejoin="round"/>
<path fill-rule="evenodd" clip-rule="evenodd" d="M47.0028 10.5855C47.0028 13.2155 43.823 14.5326 41.9623 12.674L35.3288 6.0405C33.4702 4.18193 34.7873 1 37.4173 1H37.4236C38.2055 1 38.956 1.3115 39.51 1.86552L46.1373 8.4928C46.6913 9.04681 47.0028 9.79735 47.0028 10.5792V10.5855V10.5855Z" stroke="#17233B" stroke-width="2" stroke-linecap="round" stroke-linejoin="round"/>
</svg>
