<svg width="77" height="35" viewBox="0 0 77 35" fill="none" xmlns="http://www.w3.org/2000/svg">
<path fill-rule="evenodd" clip-rule="evenodd" d="M59.9492 33.3908H17.2938C15.0038 33.3908 13.436 31.0781 14.2879 28.95L23.8367 5.07152C24.8214 2.61306 27.2021 1 29.8517 1H72.5072C74.7972 1 76.3649 3.3127 75.513 5.44078L65.9642 29.3193C64.9795 31.7777 62.5988 33.3908 59.9492 33.3908V33.3908Z" stroke="#17233B" stroke-width="2" stroke-linecap="round" stroke-linejoin="round"/>
<path d="M30.3906 7.47852L39.0357 15.1681C41.912 17.4063 45.8054 17.8436 49.1093 16.3018L66.0205 7.47852" stroke="#17233B" stroke-width="2" stroke-linecap="round" stroke-linejoin="round"/>
<path d="M20.6973 26.9108L36.8927 20.4326" stroke="#17233B" stroke-width="2" stroke-linecap="round" stroke-linejoin="round"/>
<path d="M51.457 20.4326L59.5547 26.9108" stroke="#17233B" stroke-width="2" stroke-linecap="round" stroke-linejoin="round"/>
<path d="M1.25 4.23877H14.2063" stroke="#FF4E2C" stroke-width="2" stroke-linecap="round" stroke-linejoin="round"/>
<path d="M4.48908 30.1484H1.25" stroke="#FF4E2C" stroke-width="2" stroke-linecap="round" stroke-linejoin="round"/>
<path d="M1.25 17.1938H7.72817" stroke="#FF4E2C" stroke-width="2" stroke-linecap="round" stroke-linejoin="round"/>
</svg>
