<svg width="64" height="42" viewBox="0 0 64 42" fill="none" xmlns="http://www.w3.org/2000/svg">
<path d="M17.7093 3.74463C16.7147 3.8513 15.528 4.12863 14.392 4.94196C9.25333 4.99263 8.65333 7.13396 8.65333 9.40596C8.65333 10.206 8.952 12.5926 8.952 12.5926H8.82133C8.05333 12.5926 7.46133 13.2673 7.55733 14.0273L7.87467 16.5793C7.95467 17.2166 8.496 17.6966 9.14133 17.6966H9.34667C9.50133 19.6086 10.4293 21.534 11.8293 22.846L11.2027 25.3473L5.94667 26.662C3.04 27.3873 1 30.0006 1 32.9953V33.0006H8.84" stroke="#17233B" stroke-width="2" stroke-linecap="round" stroke-linejoin="round"/>
<path d="M54.4917 32.9998H62.329V32.9972C62.329 29.9998 60.2917 27.3892 57.385 26.6612L52.1263 25.3465L51.529 22.9518C52.993 21.6372 53.9717 19.6612 54.1263 17.6958H54.1903C54.833 17.6958 55.3743 17.2158 55.4543 16.5785L55.7743 14.0265C55.8677 13.2718 55.2837 12.6052 54.5237 12.5972L54.6783 9.40517L55.3157 8.76784C56.1397 7.8905 56.1397 6.83984 55.3157 5.5785C54.4863 4.31184 53.041 3.6665 51.017 3.6665C50.2943 3.6665 49.1983 3.7225 48.041 4.11984" stroke="#17233B" stroke-width="2" stroke-linecap="round" stroke-linejoin="round"/>
<path fill-rule="evenodd" clip-rule="evenodd" d="M44.922 32.3573L37.754 30.5653L36.938 27.2987C38.9327 25.5067 40.2687 22.8133 40.482 20.1307H40.5674C41.442 20.1307 42.1833 19.4773 42.2927 18.608L42.7273 15.128C42.8553 14.0987 42.0554 13.1893 41.0207 13.1787L41.2313 8.82667L42.1007 7.95733C43.226 6.76 43.226 5.328 42.1007 3.608C40.97 1.88 38.9993 1 36.242 1C34.7833 1 32.25 1.07733 29.9273 2.73867C22.9193 2.808 22.1007 5.728 22.1007 8.82667C22.1007 9.91733 22.5113 13.1733 22.5113 13.1733H22.3327C21.2873 13.1733 20.4767 14.0907 20.6073 15.128L21.042 18.608C21.1513 19.4773 21.89 20.1307 22.7673 20.1307H23.05C23.258 22.7387 24.5247 25.3653 26.4313 27.1547L25.5807 30.5653L18.4127 32.3573C14.4473 33.3493 11.666 36.9093 11.666 40.9947V41H51.666V40.9947C51.666 36.9093 48.8847 33.3493 44.922 32.3573V32.3573Z" stroke="#FF4E2C" stroke-width="2" stroke-linecap="round" stroke-linejoin="round"/>
</svg>
