<svg width="46" height="46" viewBox="0 0 46 46" fill="none" xmlns="http://www.w3.org/2000/svg">
<circle cx="23" cy="23" r="22" stroke="#17233B" stroke-width="2"/>
<path d="M31.3242 15.3477L16.017 30.6547" stroke="#FF4E2C" stroke-width="2" stroke-linecap="round" stroke-linejoin="round"/>
<path fill-rule="evenodd" clip-rule="evenodd" d="M21.7591 17.26C20.7029 18.3162 18.9885 18.3162 17.9323 17.26C16.8762 16.2039 16.8762 14.4895 17.9323 13.4333C18.9885 12.3772 20.7029 12.3772 21.7591 13.4333C22.8152 14.4895 22.8152 16.2039 21.7591 17.26V17.26Z" stroke="#FF4E2C" stroke-width="2" stroke-linecap="round" stroke-linejoin="round"/>
<path fill-rule="evenodd" clip-rule="evenodd" d="M29.4114 32.5678C28.3552 33.624 26.6409 33.624 25.5847 32.5678C24.5285 31.5116 24.5285 29.7972 25.5847 28.741C26.6409 27.6848 28.3552 27.6848 29.4114 28.741C30.4676 29.7972 30.4676 31.5116 29.4114 32.5678V32.5678Z" stroke="#FF4E2C" stroke-width="2" stroke-linecap="round" stroke-linejoin="round"/>
</svg>
