<svg width="32" height="48" viewBox="0 0 32 48" fill="none" xmlns="http://www.w3.org/2000/svg">
<path d="M0 15.0063C0.147545 10.5366 2.37809 6.09287 6.89124 2.86423C9.03499 1.32802 11.4478 0.434068 14.0776 0.121619C17.6707 -0.303659 21.0556 0.381993 24.1541 2.24801C28.2332 4.71288 30.7502 8.32341 31.7136 13.0015C32.0521 14.6331 32.0521 16.2735 31.9045 17.9225C31.5747 21.4636 30.5159 24.8051 29.1359 28.0598C27.2872 32.4254 24.9005 36.4872 22.236 40.3928C20.5522 42.8664 18.7643 45.2618 16.8289 47.5531C16.3428 48.1346 15.6659 48.1346 15.1798 47.5618C11.1787 42.823 7.66368 37.7544 4.79089 32.2518C3.28072 29.353 1.98752 26.3587 1.10225 23.1995C0.433957 20.8734 0.0173583 18.4954 0 15.0063ZM16.0043 22.9998C19.3371 22.9912 22.0016 20.3006 21.9929 16.9678C21.9843 13.6784 19.3024 11.0139 16.0043 11.0053C12.6715 10.9966 9.99837 13.6958 10.0071 17.0459C10.0157 20.3267 12.7149 23.0085 16.0043 22.9998Z" fill="#FF4E2C"/>
</svg>
