<svg width="25" height="25" viewBox="0 0 25 25" fill="none" stroke="#BFC5D2" xmlns="http://www.w3.org/2000/svg">
<circle cx="12.5" cy="12.5" r="11.5" stroke-linecap="round" stroke-linejoin="round"/>
<path d="M9.60938 8.21232C9.76438 8.06732 9.93438 7.92982 10.1194 7.79982C10.3094 7.66982 10.5144 7.55482 10.7344 7.45482C10.9594 7.35482 11.1994 7.27732 11.4544 7.22232C11.7144 7.16232 11.9944 7.13232 12.2944 7.13232C12.6894 7.13232 13.0544 7.18982 13.3894 7.30482C13.7294 7.41982 14.0219 7.58232 14.2669 7.79232C14.5119 8.00232 14.7044 8.25732 14.8444 8.55732C14.9844 8.85732 15.0544 9.19483 15.0544 9.56982C15.0544 9.94982 14.9969 10.2773 14.8819 10.5523C14.7719 10.8273 14.6294 11.0698 14.4544 11.2798C14.2844 11.4848 14.0969 11.6648 13.8919 11.8198C13.6919 11.9698 13.5019 12.1123 13.3219 12.2473C13.1419 12.3823 12.9869 12.5173 12.8569 12.6523C12.7319 12.7873 12.6594 12.9373 12.6394 13.1023L12.5044 14.2498H11.5894L11.4994 13.0048C11.4794 12.7798 11.5219 12.5848 11.6269 12.4198C11.7319 12.2498 11.8694 12.0923 12.0394 11.9473C12.2094 11.7973 12.3969 11.6523 12.6019 11.5123C12.8069 11.3673 12.9969 11.2073 13.1719 11.0323C13.3519 10.8573 13.5019 10.6598 13.6219 10.4398C13.7419 10.2148 13.8019 9.94732 13.8019 9.63732C13.8019 9.42232 13.7594 9.22732 13.6744 9.05232C13.5894 8.87732 13.4744 8.72982 13.3294 8.60982C13.1844 8.48482 13.0119 8.38982 12.8119 8.32482C12.6169 8.25982 12.4069 8.22732 12.1819 8.22732C11.8769 8.22732 11.6144 8.26482 11.3944 8.33982C11.1794 8.41482 10.9969 8.49732 10.8469 8.58732C10.6969 8.67732 10.5744 8.75982 10.4794 8.83483C10.3894 8.90982 10.3144 8.94732 10.2544 8.94732C10.1294 8.94732 10.0319 8.88982 9.96188 8.77482L9.60938 8.21232ZM11.0719 17.1748C11.0719 17.0448 11.0944 16.9223 11.1394 16.8073C11.1894 16.6923 11.2544 16.5923 11.3344 16.5073C11.4194 16.4223 11.5194 16.3548 11.6344 16.3048C11.7494 16.2548 11.8719 16.2298 12.0019 16.2298C12.1319 16.2298 12.2544 16.2548 12.3694 16.3048C12.4844 16.3548 12.5844 16.4223 12.6694 16.5073C12.7544 16.5923 12.8219 16.6923 12.8719 16.8073C12.9219 16.9223 12.9469 17.0448 12.9469 17.1748C12.9469 17.3098 12.9219 17.4348 12.8719 17.5498C12.8219 17.6598 12.7544 17.7573 12.6694 17.8423C12.5844 17.9273 12.4844 17.9923 12.3694 18.0373C12.2544 18.0873 12.1319 18.1123 12.0019 18.1123C11.8719 18.1123 11.7494 18.0873 11.6344 18.0373C11.5194 17.9923 11.4194 17.9273 11.3344 17.8423C11.2544 17.7573 11.1894 17.6598 11.1394 17.5498C11.0944 17.4348 11.0719 17.3098 11.0719 17.1748Z"/>
</svg>
