<svg width="42" height="48" viewBox="0 0 42 48" fill="none" xmlns="http://www.w3.org/2000/svg">
<path d="M1.73633 40.264C6.22833 44.754 12.1143 47 18.0023 47C23.8863 47 29.7743 44.754 34.2643 40.264C38.7543 35.774 41.0003 29.888 41.0003 24C41.0003 18.114 38.7543 12.228 34.2643 7.736C29.7723 3.246 23.8863 1 18.0003 1C12.1123 1 6.22633 3.246 1.73633 7.736" stroke="#17233B" stroke-width="2" stroke-linecap="round" stroke-linejoin="round"/>
<path d="M1 1V9H9" stroke="#17233B" stroke-width="2" stroke-linecap="round" stroke-linejoin="round"/>
<path d="M17.793 15.9395H21.4297C24.4785 15.9395 26.1465 17.5938 26.1465 20.2188C26.1465 22.8574 24.4648 24.5117 21.4297 24.5117H17.793V15.9395ZM23.6035 30.4727V29.0234H17.793V26.1523H21.8535C25.6133 26.1523 28.0605 23.7051 28.0605 20.2188C28.0605 16.7461 25.627 14.2715 21.8672 14.2715H15.9336V24.5117H13.1992V26.1523H15.9336V29.0234H13.1992V30.4727H15.9336V34H17.793V30.4727H23.6035Z" fill="#FF4E2C"/>
</svg>
