<svg width="48" height="46" viewBox="0 0 48 46" fill="none" xmlns="http://www.w3.org/2000/svg">
<path d="M1 22.9899C1 10.8438 11.2961 1 24.0001 1C34.2342 1 41.3342 7.45355 45.8903 16.2247" stroke="white" stroke-linecap="round" stroke-linejoin="round"/>
<path d="M39 16.2971H47.0001V8.72876" stroke="white" stroke-linecap="round" stroke-linejoin="round"/>
<path d="M46.9996 22.99C46.9996 35.1361 36.7036 44.98 23.9995 44.98C13.7654 44.98 6.6654 38.5264 2.10938 29.7553" stroke="white" stroke-linecap="round" stroke-linejoin="round"/>
<path d="M9.00005 29.6821H1V37.2505" stroke="white" stroke-linecap="round" stroke-linejoin="round"/>
<path fill-rule="evenodd" clip-rule="evenodd" d="M33.0001 22.99C33.0001 27.7418 28.9701 31.5948 24.0001 31.5948C19.03 31.5948 15 27.7418 15 22.99C15 18.2383 19.03 14.3853 24.0001 14.3853C28.9701 14.3853 33.0001 18.2383 33.0001 22.99Z" stroke="white" stroke-linecap="round" stroke-linejoin="round"/>
</svg>
