<svg width="23" height="22" viewBox="0 0 23 22" fill="none" xmlns="http://www.w3.org/2000/svg">
<path d="M20.5501 4.17318C20.315 3.84495 20.0799 3.51671 19.8449 3.18848L6.82082 10.6441L0.52039 7.03353C0.379336 7.45554 0.285299 7.83067 0.238281 8.25269L6.86784 12.0508L20.5501 4.17318Z" fill="#27A536"/>
<path d="M6.81763 13.4574L0.0470181 9.56542C-3.50313e-09 9.79988 0 10.0812 0 10.3157C0 16.4584 4.98392 21.4757 11.1903 21.4757C17.3497 21.4757 22.3806 16.5053 22.3806 10.3157C22.3806 8.48693 21.9575 6.75197 21.1582 5.25146L6.81763 13.4574Z" fill="#27A536"/>
<path d="M18.9417 2.25029C18.6126 1.92205 18.2834 1.6876 17.9543 1.40625L6.811 7.8303L1.45094 4.78239C1.26286 5.11063 1.07479 5.48575 0.886719 5.86088L6.76398 9.23702L18.9417 2.25029Z" fill="#27A536"/>
<path d="M16.83 0.656472C16.4068 0.422018 15.9836 0.187563 15.5135 0L6.8151 5.01732L2.91259 2.81345C2.63048 3.0948 2.39539 3.42303 2.11328 3.75127L6.76808 6.42405L16.83 0.656472Z" fill="#27A536"/>
</svg>
