<svg width="31" height="28" viewBox="0 0 31 28" fill="none" xmlns="http://www.w3.org/2000/svg">
<path d="M30.6164 12.9585L31 11.6696L29.6689 11.7118C29.0546 11.6876 28.461 11.4835 27.9618 11.1249C28.0231 11.1249 28.0807 11.1249 28.1421 11.1249C28.5415 11.1238 28.9328 11.0112 29.2716 10.7997C29.6105 10.5883 29.8836 10.2863 30.0601 9.92798L30.6317 8.65821C30.1714 8.66212 29.7113 8.6352 29.2545 8.57765C28.8192 8.47441 28.4273 8.23687 28.1344 7.89865C27.9376 7.68847 27.7 7.52055 27.4362 7.40514C27.1724 7.28972 26.8879 7.22922 26.5999 7.22732C26.372 7.22834 26.1455 7.26457 25.9286 7.33473C25.961 7.23167 25.9867 7.12659 26.0053 7.02017C26.0953 6.27237 25.8857 5.51934 25.4222 4.92563L24.4248 3.68655L23.8034 5.14429C23.7054 5.35114 23.5545 5.52846 23.366 5.65833C23.2599 5.13957 23.0038 4.66338 22.6295 4.28882C22.3187 3.97032 21.9469 3.71782 21.5362 3.54643C21.1256 3.37505 20.6845 3.28832 20.2396 3.29142C20.0829 3.29063 19.9264 3.30217 19.7716 3.32595L18.5747 3.55995C18.6794 3.15379 18.845 2.76579 19.0657 2.40911L19.7255 1.35416L18.0415 1.53446L17.5082 0.383616L16.4725 0.916842L15.5058 0L14.5582 0.943695L13.5186 0.410469L12.9854 1.53446L11.309 1.34266L11.9765 2.39376C12.1966 2.75032 12.3609 3.13841 12.4637 3.54461L11.3128 3.31828H11.2745C11.1145 3.29405 10.9529 3.2825 10.7911 3.28375C10.3461 3.28042 9.90501 3.36706 9.49432 3.53845C9.08363 3.70985 8.71181 3.96247 8.40119 4.28115C8.02568 4.65536 7.76825 5.13154 7.66081 5.65066C7.47481 5.52399 7.32533 5.3507 7.22732 5.14812L6.60587 3.68655L5.58928 4.9333C5.13374 5.52768 4.92861 6.27661 5.0177 7.02017C5.03665 7.12653 5.06228 7.23159 5.09442 7.33473C4.87761 7.26415 4.6511 7.2279 4.42309 7.22732C4.13518 7.22944 3.85071 7.29005 3.58694 7.40545C3.32316 7.52085 3.08559 7.68864 2.88863 7.89865C2.59742 8.23328 2.2104 8.47032 1.77998 8.57765C1.32039 8.64571 0.855658 8.67267 0.391287 8.65821L0.962875 9.92798C1.13974 10.286 1.41291 10.5877 1.75173 10.7992C2.09054 11.0106 2.48159 11.1234 2.88095 11.1249C2.94233 11.1249 2.99988 11.1249 3.06125 11.1249C2.5633 11.4876 1.9696 11.6957 1.35416 11.7233L0 11.6811L0.410469 12.97C0.557736 13.4658 0.846214 13.908 1.24066 14.2425C1.6351 14.5769 2.11844 14.7893 2.6316 14.8536C2.57827 15.1878 2.44605 15.5044 2.24591 15.7773C2.04577 16.0501 1.78347 16.2713 1.48076 16.4226L0.471847 16.8369L1.02425 17.7959C1.24747 18.1439 1.55529 18.4295 1.91892 18.626C2.28255 18.8226 2.6901 18.9237 3.10345 18.9199C3.32263 18.9195 3.54118 18.8963 3.7556 18.8509C3.80484 19.0917 3.86629 19.3298 3.93973 19.5644C4.12968 20.068 4.1432 20.6211 3.9781 21.1334L3.4794 22.1768L4.59188 22.4684C4.84269 22.5319 5.10039 22.5641 5.35911 22.5643C5.54677 22.5623 5.73352 22.5378 5.91536 22.4914C6.04622 22.4621 6.17451 22.4224 6.29897 22.3725C6.44157 22.6294 6.61694 22.8666 6.82069 23.0783C7.53422 23.811 8.54696 24.1831 9.8244 24.1831H10.7374L8.85002 24.9504L10.2847 25.6447C10.8608 25.9303 11.4511 26.1864 12.0532 26.4119L11.8729 26.903L12.3678 27.1293C13.189 27.4536 14.0595 27.6352 14.9418 27.6664C14.9418 27.6664 15.3255 27.6664 15.5326 27.6664C15.7398 27.6664 16.1195 27.6664 16.1195 27.6664C16.9965 27.6349 17.8617 27.4546 18.6783 27.1331L19.1731 26.9068L18.9928 26.4158C19.6018 26.1817 20.1985 25.9167 20.7805 25.6217L22.1883 24.9389L20.3048 24.1716H21.2216C22.5029 24.1716 23.5233 23.788 24.2292 23.0668C24.4332 22.8554 24.6086 22.618 24.7509 22.361C24.8755 22.4105 25.0038 22.4502 25.1345 22.4799C25.3131 22.5213 25.4959 22.5419 25.6792 22.5413C25.9379 22.5406 26.1956 22.5084 26.4465 22.4454L27.5666 22.15L27.0794 21.1257C26.9052 20.6075 26.916 20.0449 27.1101 19.5337C27.1869 19.2997 27.2559 19.0619 27.3096 18.8279C27.5253 18.8733 27.7451 18.8965 27.9656 18.8969C28.3824 18.9 28.7929 18.7957 29.1578 18.5942C29.5226 18.3926 29.8294 18.1005 30.0486 17.7461L30.5934 16.7985L29.5845 16.3842C29.2814 16.2335 29.0187 16.0124 28.8185 15.7395C28.6183 15.4665 28.4863 15.1496 28.4336 14.8152C28.9458 14.7482 29.4277 14.5348 29.8217 14.2007C30.2157 13.8666 30.5049 13.426 30.6547 12.9317L30.6164 12.9585Z" fill="white"/>
<path d="M15.49 3.94427C14.4197 3.94427 13.6179 4.29719 13.4453 4.7115L15.49 5.51709L17.5385 4.70766C17.3659 4.29336 16.5641 3.94043 15.49 3.94043" fill="white"/>
<path d="M15.5339 25.3206H15.507C14.8421 25.3148 14.1801 25.2298 13.5352 25.0674L13.0059 26.4714C14.645 26.944 16.3844 26.944 18.0236 26.4714L17.5057 25.0712C16.8608 25.2334 16.1989 25.3184 15.5339 25.3244" fill="white"/>
<path d="M19.4486 23.9302C18.887 24.2107 18.3032 24.4442 17.7031 24.6284L18.1213 25.7792C18.7905 25.6035 19.4408 25.362 20.0624 25.058L19.1916 24.7703L19.4486 23.9302Z" fill="white"/>
<path d="M11.5923 23.9302L11.8493 24.7703L10.9785 25.058C11.599 25.3614 12.2479 25.603 12.9158 25.7792L13.3378 24.6284C12.7377 24.4441 12.1539 24.2106 11.5923 23.9302Z" fill="white"/>
<path d="M15.5064 2.6041C16.2745 2.59612 17.0326 2.77936 17.7122 3.13732C17.7777 2.91641 17.8571 2.69987 17.95 2.48901L17.7199 2.51587L17.4782 2.54272L17.3746 2.32406L17.0677 1.67575L16.5077 1.9673L16.289 2.07854L16.124 1.91743L15.5064 1.2998L14.9041 1.91743L14.7392 2.07471L14.5205 1.96346L13.9566 1.67191L13.6535 2.32022L13.55 2.53888L13.3083 2.51203L13.0781 2.48518C13.1706 2.69619 13.2501 2.91271 13.316 3.13349C13.9915 2.77962 14.7438 2.59779 15.5064 2.6041Z" fill="white"/>
<path d="M27.832 10.1147C27.9343 10.1505 28.042 10.1686 28.1504 10.1684C28.3657 10.1665 28.5765 10.1067 28.7607 9.99536C28.945 9.884 29.0959 9.72516 29.1977 9.53546C28.5246 9.42477 27.9106 9.08456 27.4599 8.57258C27.3531 8.45314 27.2225 8.35732 27.0765 8.29126C26.9305 8.22521 26.7723 8.19036 26.6121 8.18896C26.3614 8.19366 26.117 8.26804 25.9062 8.40379C26.9919 8.98305 27.2144 9.9114 27.8243 10.1186" fill="white"/>
<path d="M2.89081 10.1703C2.99797 10.1705 3.10437 10.1524 3.20538 10.1166C3.82683 9.90945 4.04933 8.96575 5.12346 8.40184C4.91268 8.26609 4.66827 8.19171 4.4176 8.18701C4.25672 8.18788 4.09781 8.22246 3.95112 8.28854C3.80443 8.35461 3.67323 8.45071 3.56598 8.57063C3.11624 9.08184 2.50371 9.42198 1.83203 9.5335C1.93382 9.72321 2.08474 9.88205 2.26898 9.99341C2.45323 10.1048 2.66403 10.1645 2.8793 10.1665" fill="white"/>
<path d="M28.1219 13.887H28.168C29.3188 13.887 29.7024 12.6671 29.7024 12.6671H29.6794C29.0797 12.6468 28.4917 12.4959 27.9563 12.2249C27.421 11.9539 26.9512 11.5694 26.5798 11.0981C25.7934 10.0969 25.1451 9.21837 23.8715 8.87312L23.7449 8.8501L23.718 8.72351C23.6835 8.52786 23.8178 8.33989 24.1017 8.14808C25.8624 6.99724 24.6656 5.52799 24.6656 5.52799C24.6656 5.52799 24.163 6.70185 23.039 6.70185H22.9546C22.8259 6.69948 22.6976 6.68666 22.571 6.66349L22.3639 6.62513C22.4483 6.33158 22.4508 6.02051 22.371 5.72566C22.2912 5.43081 22.1322 5.16344 21.9112 4.95256C21.6903 4.72617 21.4259 4.5469 21.1338 4.42558C20.8417 4.30426 20.5281 4.24341 20.2118 4.24671C20.0987 4.24538 19.9857 4.25437 19.8742 4.27356C20.2578 4.77994 20.5455 5.62389 20.0967 6.14561C19.7131 6.59444 18.7617 6.61362 18.7617 7.29646C18.7617 7.58033 19.0264 7.90641 19.4983 8.20179C20.9215 9.09945 22.3332 10.2887 22.924 11.8807C23.6567 13.8678 22.8319 15.1874 21.6503 15.947C21.9066 16.1631 22.2222 16.2968 22.5557 16.3306C22.6669 16.3306 22.7705 16.3306 22.8702 16.3306C23.4874 16.3558 24.0943 16.1675 24.5888 15.7974C24.5043 16.3188 24.2833 16.8085 23.9482 17.2168C23.6592 17.5527 23.2978 17.8187 22.8911 17.9948C22.4845 18.1708 22.0432 18.2524 21.6005 18.2333C21.6004 18.4128 21.6387 18.5902 21.7128 18.7536C21.7869 18.917 21.8951 19.0627 22.0301 19.1809C22.3359 19.3862 22.6853 19.5175 23.0505 19.5645C23.0505 19.5645 21.7156 19.8369 21.566 21.8086C21.5696 22.31 21.4483 22.8044 21.213 23.2472H21.236C24.3357 23.2472 24.2551 20.5887 24.2551 20.5887C24.3354 20.833 24.477 21.0527 24.6664 21.2266C24.8558 21.4005 25.0867 21.523 25.3369 21.5823C25.4423 21.6086 25.5505 21.6215 25.6591 21.6207C25.835 21.6195 26.0101 21.5976 26.1808 21.5555C25.9007 20.8138 25.9007 19.9954 26.1808 19.2538C26.399 18.6383 26.5043 17.9885 26.4916 17.3357C26.6661 17.5494 26.889 17.7186 27.1418 17.8293C27.3945 17.9401 27.67 17.9891 27.9455 17.9725C28.1902 17.9769 28.4321 17.9194 28.6487 17.8054C28.8653 17.6914 29.0496 17.5246 29.1846 17.3203C27.1169 16.461 27.324 13.6952 27.324 13.6952C27.5618 13.8406 27.8356 13.9164 28.1143 13.9138L28.1219 13.887ZM27.4928 16.8063C26.6527 16.392 26.1195 15.291 25.9929 14.8882C25.8663 17.0518 24.796 18.5633 23.5646 20.021C23.1843 20.4587 22.889 20.9635 22.6938 21.5094C22.7958 20.959 23.0301 20.4416 23.3766 20.0018C24.5275 18.6055 25.6438 16.8677 25.7243 14.8614C25.7892 13.6422 25.4873 12.4316 24.8574 11.3858C25.0538 11.9526 25.083 12.5639 24.9415 13.1468C24.8 13.7298 24.4938 14.2597 24.0595 14.6734C24.0595 14.6734 26.1732 12.1223 23.181 9.50992C21.9918 8.51636 20.6875 7.90257 20.0161 7.46525C22.4368 8.2555 23.6221 7.38469 23.6221 7.38469C23.2916 7.64098 22.9102 7.82384 22.5033 7.92108C22.0965 8.01832 21.6736 8.0277 21.2629 7.9486C21.4317 8.02916 21.6081 8.1174 21.7961 8.21714C23.837 9.32579 25.6745 11.1518 25.9852 13.6798V13.6606C26.4609 16.1426 27.5197 16.7794 27.5197 16.7794" fill="white"/>
<path d="M7.97591 19.5406C8.33529 19.4989 8.68038 19.3755 8.98482 19.18C9.12287 19.0641 9.23439 18.9198 9.31183 18.757C9.38927 18.5942 9.43081 18.4166 9.43365 18.2364C8.99036 18.2554 8.54851 18.1739 8.14125 17.9978C7.73398 17.8218 7.37187 17.5558 7.08208 17.2198C6.73318 16.8167 6.49755 16.3282 6.39924 15.8042C6.89286 16.176 7.50045 16.3646 8.11784 16.3375C8.22142 16.3375 8.325 16.3375 8.43624 16.3375C8.77104 16.3042 9.08796 16.1704 9.34541 15.9538C8.16388 15.1866 7.33527 13.8785 8.06797 11.8875C8.65491 10.2955 10.0704 9.10246 11.4937 8.20864C11.9655 7.91325 12.2302 7.58334 12.2302 7.3033C12.2302 6.63581 11.2827 6.61663 10.8952 6.15246C10.4464 5.63074 10.7264 4.79062 11.1139 4.28041C11.0024 4.26115 10.8894 4.25216 10.7763 4.25356C10.46 4.25026 10.1464 4.31111 9.8543 4.43243C9.56221 4.55375 9.29775 4.73302 9.07688 4.95941C8.85554 5.17004 8.69627 5.4374 8.61645 5.73234C8.53663 6.02727 8.53931 6.33846 8.62422 6.63198L8.41706 6.67417C8.29039 6.69695 8.16213 6.70978 8.03345 6.71254H7.95289C6.82506 6.71254 6.32636 5.53867 6.32636 5.53867C6.32636 5.53867 5.14866 6.99641 6.90945 8.15109C7.21251 8.34674 7.34678 8.53471 7.29307 8.72652L7.26622 8.85311L7.13962 8.87613C5.86602 9.22138 5.22154 10.0999 4.4313 11.1011C4.06103 11.568 3.59387 11.9491 3.06205 12.218C2.53023 12.4869 1.94641 12.6372 1.35086 12.6586H1.3125C1.3125 12.6586 1.69612 13.8785 2.84696 13.8785H2.90067C3.17936 13.881 3.45317 13.8053 3.69092 13.6598C3.69092 13.6598 3.89423 16.4257 1.82655 17.285C1.96174 17.489 2.14611 17.6556 2.36266 17.7696C2.5792 17.8835 2.82095 17.9412 3.06562 17.9371C3.34109 17.9538 3.61656 17.9047 3.86934 17.794C4.12212 17.6833 4.34497 17.5141 4.51953 17.3003C4.50706 17.9532 4.61232 18.6029 4.83026 19.2184C5.10969 19.9602 5.10969 20.7783 4.83026 21.5201C4.99973 21.562 5.17355 21.5839 5.34814 21.5853C5.45675 21.5863 5.56504 21.5734 5.67038 21.547C5.9206 21.4877 6.15144 21.3652 6.34083 21.1912C6.53023 21.0173 6.67185 20.7977 6.75217 20.5534C6.75217 20.5534 6.67161 23.2118 9.77123 23.2118H9.79424C9.56106 22.7684 9.44113 22.2743 9.44515 21.7733C9.29938 19.8015 7.96056 19.5291 7.96056 19.5291L7.97591 19.5406ZM7.46186 20.0087C6.21895 18.5509 5.16017 17.0395 5.01056 14.8567C4.88013 15.2403 4.35074 16.3528 3.51062 16.7748C3.51062 16.7748 4.56556 16.138 5.04508 13.656V13.6752C5.35965 11.1471 7.19333 9.32112 9.238 8.21247C9.42597 8.1089 9.60244 8.0245 9.77123 7.94394C9.35517 8.02819 8.9258 8.02141 8.5126 7.92407C8.09941 7.82673 7.71217 7.64114 7.37747 7.38003C7.37747 7.38003 8.559 8.25083 10.9835 7.46059C10.3236 7.90174 9.02318 8.51553 7.83397 9.50909C4.85711 12.1215 6.98618 14.6726 6.98618 14.6726C6.55181 14.2589 6.24562 13.7289 6.10414 13.146C5.96266 12.5631 5.99186 11.9518 6.18826 11.385C5.55727 12.4303 5.2552 13.6413 5.32128 14.8605C5.40184 16.8707 6.50666 18.6046 7.66518 20.001C8.01303 20.4403 8.2487 20.9578 8.35185 21.5086C8.15448 20.9628 7.85795 20.4582 7.47721 20.0202" fill="white"/>
<path d="M13.207 9.82047C13.2568 9.87418 13.3067 9.93555 13.3566 9.9931L13.3911 10.0353L13.5254 10.2194L13.556 10.2616C13.6059 10.3384 13.6558 10.4227 13.7057 10.5033C13.8767 10.8456 14.1318 11.1389 14.4472 11.3556C14.7626 11.5723 15.1278 11.7054 15.5086 11.7424C15.8885 11.7052 16.2526 11.5724 16.5673 11.3564C16.8819 11.1404 17.1366 10.8482 17.3078 10.5071C17.3577 10.4227 17.4075 10.3384 17.4613 10.2616L17.4843 10.2271C17.5303 10.1619 17.5763 10.0967 17.6224 10.0353L17.6531 9.99693C17.7029 9.93555 17.7528 9.87418 17.8065 9.82047L17.8295 9.79745C18.0628 9.55249 18.3586 9.37604 18.685 9.28724L18.5315 9.20668L17.9024 8.82307L17.2579 8.43945L15.5086 9.39849L13.7824 8.45863L13.1379 8.84225L12.5088 9.22586L12.3477 9.31793C12.6717 9.39631 12.9685 9.56064 13.207 9.79362L13.2338 9.82047H13.207ZM14.8258 9.74375H16.2759V10.2463C16.2095 10.1821 16.1295 10.1336 16.0419 10.1044C15.9542 10.0751 15.8612 10.066 15.7695 10.0775V10.7987C15.7678 10.9775 15.8099 11.154 15.8923 11.3127H15.1864C15.2742 11.1568 15.3217 10.9814 15.3245 10.8025V10.0813C15.2329 10.0698 15.1398 10.079 15.0522 10.1082C14.9645 10.1374 14.8845 10.1859 14.8181 10.2501L14.8258 9.74375Z" fill="white"/>
<path d="M15.3663 8.77271V5.83804L13.498 5.20508L13.9737 8.05535L15.3663 8.77271ZM14.9826 6.55924V7.03109L14.8906 6.98889C14.7498 6.94145 14.6195 6.8672 14.507 6.77023C14.4068 6.7069 14.3209 6.62335 14.2548 6.52493C14.1888 6.4265 14.144 6.31537 14.1233 6.19864L14.9826 6.55924Z" fill="white"/>
<path d="M17.0393 8.05548L17.5303 5.21289L15.6621 5.84586V8.78052L17.0393 8.05548ZM16.0649 6.55938L16.9127 6.20262C16.8921 6.31934 16.8473 6.43048 16.7812 6.5289C16.7152 6.62733 16.6293 6.71088 16.5291 6.77421C16.4165 6.87117 16.2862 6.94543 16.1455 6.99287L16.0572 7.03507L16.0649 6.55938Z" fill="white"/>
<path d="M12.7361 15.5782C12.9021 15.6321 13.0756 15.6593 13.2501 15.6588V15.6051C13.2609 15.571 13.2698 15.5364 13.277 15.5015C13.3046 15.3482 13.32 15.193 13.323 15.0373C13.2184 14.975 13.1334 14.8846 13.0775 14.7764C13.0542 14.7122 13.0113 14.6569 12.9549 14.6183C12.8984 14.5798 12.8313 14.5599 12.763 14.5616C12.5931 14.5759 12.4295 14.6326 12.2873 14.7266C12.2638 14.8948 12.2924 15.0663 12.3692 15.2178C12.446 15.3694 12.5673 15.4938 12.7169 15.5744" fill="white"/>
<path d="M16.8535 14.0215C16.5082 14.4051 15.8254 15.0572 15.7947 15.0879L15.7525 15.1301L13.6081 15.0956C13.6063 15.2729 13.5831 15.4494 13.5391 15.6212V15.6902L16.0901 16.1506C16.3548 15.9664 17.0875 15.4294 17.3714 15.2222C17.1963 14.9537 17.1317 14.628 17.1911 14.313C17.0682 14.2361 16.9592 14.1388 16.8688 14.0253" fill="white"/>
<path d="M17.1442 11.4385C16.938 11.6686 16.6855 11.8526 16.4031 11.9782C16.1208 12.1038 15.8151 12.1683 15.5061 12.1673C15.4282 12.1714 15.3501 12.1714 15.2721 12.1673C15.1947 12.1611 15.1178 12.1495 15.042 12.1328C15.0014 12.3082 15.0161 12.4918 15.0842 12.6584C15.1389 12.765 15.2148 12.8594 15.3071 12.9359C15.3994 13.0124 15.5063 13.0694 15.6212 13.1034L15.7094 13.1379V13.2338C15.7201 13.4292 15.7945 13.6156 15.9213 13.7646C16.0481 13.9136 16.2203 14.0169 16.4115 14.0586C16.5227 13.9435 16.6225 13.8399 16.6992 13.7555C16.6308 13.6217 16.607 13.4695 16.6311 13.3211C16.6553 13.1728 16.7262 13.036 16.8334 12.9307C16.8024 13.1565 16.839 13.3863 16.9387 13.5912C17.0384 13.7961 17.1967 13.9668 17.3935 14.0816L17.5009 14.1315L17.4702 14.2465C17.4003 14.4705 17.42 14.7128 17.5252 14.9224C17.6304 15.1321 17.8129 15.2927 18.0342 15.3705L18.1761 15.4242L18.1147 15.5623C18.0224 15.7702 18.0135 16.0056 18.0899 16.2198C18.1663 16.434 18.3222 16.6107 18.5252 16.7132H20.1095V15.4473C19.8927 15.419 19.6908 15.3211 19.5345 15.1681C19.3781 15.0152 19.2756 14.8157 19.2426 14.5995C19.003 14.5683 18.7854 14.4443 18.6364 14.2542C18.5513 14.1343 18.5024 13.9924 18.4956 13.8455C18.4888 13.6986 18.5244 13.5529 18.5981 13.4256C18.6016 13.6822 18.6953 13.9293 18.8628 14.1238C19.0007 14.2674 19.1861 14.356 19.3845 14.3731H19.4996V14.4921C19.5095 14.6604 19.5747 14.8207 19.6849 14.9483C19.7952 15.0759 19.9444 15.1636 20.1095 15.1979V12.6123C20.1246 12.2089 20.2116 11.8113 20.3665 11.4385H17.1442Z" fill="white"/>
<path d="M12.8663 12.6247L12.8203 14.2704L13.0083 14.2973L13.4648 12.7206L13.2346 12.2334L12.8663 12.6247Z" fill="white"/>
<path d="M17.9028 20.1695H17.9488C18.2327 20.2501 18.3056 21.2743 18.8043 21.3664C18.8489 21.371 18.8939 21.371 18.9385 21.3664C19.0024 21.3667 19.0653 21.3511 19.1215 21.3209C19.1778 21.2908 19.2257 21.2471 19.2608 21.1938C19.2608 21.1938 19.0114 20.8101 18.8234 20.5339C18.5741 20.1849 18.3823 19.7667 17.9143 19.7667H17.8797C17.792 19.77 17.7069 19.7979 17.6342 19.8473C17.4791 19.7457 17.2979 19.6911 17.1125 19.69C16.8992 19.716 16.6887 19.7609 16.4834 19.8243L15.4476 19.7207C15.3078 19.6875 15.1866 19.6007 15.11 19.479V19.4521C15.11 19.4253 15.11 19.3946 15.11 19.3677C15.1167 19.0902 15.0288 18.8187 14.8608 18.5977C14.6928 18.3768 14.4547 18.2195 14.1855 18.1517C14.1855 18.1517 14.2124 17.9906 14.151 17.9292L13.9208 18.2054L13.1536 17.8218L13.6907 18.4471L13.2073 18.9841C13.1851 19.0055 13.1705 19.0336 13.1656 19.064C13.1608 19.0945 13.166 19.1257 13.1805 19.1529L13.3761 19.3256L13.6254 19.1759C13.6455 19.1704 13.6667 19.1704 13.6868 19.1759C13.7559 19.1759 13.8595 19.1759 13.9515 19.1759C14.0436 19.1759 14.1395 19.1529 14.151 19.0609C14.1203 19.3754 13.8288 19.9202 14.0206 20.3498L14.1625 20.6759L13.2457 20.5455L12.8237 21.2705C12.7603 21.366 12.7266 21.4781 12.7266 21.5927C12.7266 21.7073 12.7603 21.8194 12.8237 21.915L12.9848 22.1144C13.0964 22.0018 13.1896 21.8724 13.261 21.7308L13.1881 21.6503C13.1616 21.6248 13.145 21.5907 13.1415 21.5541C13.138 21.5175 13.1477 21.4808 13.1689 21.4508L13.4375 21.0058L14.5193 21.259L14.5768 21.1631C14.6063 21.1117 14.6496 21.0697 14.7019 21.0419C14.7541 21.0141 14.8132 21.0016 14.8722 21.0058C14.9207 21.0021 14.9695 21.0021 15.018 21.0058C15.3022 21.0632 15.5912 21.0941 15.8811 21.0979C16.0443 21.1141 16.209 21.0977 16.3658 21.0496C16.5225 21.0016 16.6681 20.9228 16.7941 20.8178C17.1777 21.4009 17.9795 21.493 17.9181 21.7884L17.7071 22.7819C17.8452 22.7819 17.9795 22.7819 18.0907 22.7512L18.2902 21.7155C18.3132 21.6042 18.3324 21.4508 18.3324 21.4508C18.1827 21.3242 18.0534 21.1754 17.9488 21.0096C17.8069 20.7411 17.8836 20.5992 17.7532 20.2424C17.7659 20.2187 17.7847 20.1988 17.8076 20.1847C17.8305 20.1705 17.8567 20.1626 17.8836 20.1618L17.9028 20.1695ZM13.8326 18.7041C13.8202 18.7036 13.808 18.7006 13.7967 18.6953C13.7855 18.69 13.7754 18.6824 13.7672 18.6731C13.7589 18.6638 13.7526 18.6529 13.7487 18.6411C13.7448 18.6292 13.7433 18.6168 13.7444 18.6044C13.7448 18.5919 13.7478 18.5797 13.7532 18.5685C13.7585 18.5572 13.766 18.5472 13.7754 18.5389C13.7847 18.5307 13.7956 18.5244 13.8074 18.5205C13.8192 18.5166 13.8317 18.5151 13.8441 18.5161C13.869 18.5161 13.8929 18.526 13.9106 18.5437C13.9282 18.5613 13.9381 18.5852 13.9381 18.6101C13.9381 18.635 13.9282 18.6589 13.9106 18.6766C13.8929 18.6942 13.869 18.7041 13.8441 18.7041" fill="white"/>
<path d="M12.3783 21.0997C12.3783 21.0997 12.7389 20.9501 12.7619 20.8465L12.7159 20.7276C12.6959 20.6947 12.6884 20.6556 12.6948 20.6176C12.7011 20.5796 12.7208 20.5452 12.7504 20.5205L13.134 20.2519L13.7823 20.3747C13.7094 20.2761 13.6715 20.1559 13.6749 20.0333L13.0573 19.9028L12.4742 20.2558C12.3728 20.3309 12.2996 20.4379 12.2662 20.5596C12.2328 20.6813 12.2412 20.8107 12.2901 20.9271L12.3783 21.0997Z" fill="white"/>
<path d="M16.9492 22.7979H17.3328C17.3328 22.7979 17.6666 21.8235 17.6858 21.7928C17.4378 21.6772 17.1958 21.5491 16.9607 21.4092C17.0605 21.5588 17.2983 21.7237 17.2523 21.8542L16.9492 22.7979Z" fill="white"/>
<path d="M20.1091 17.0249H10.9023V20.4774C10.9023 21.893 11.9266 22.7791 13.438 22.7791C14.7001 22.7791 15.0339 22.829 15.5057 23.2932C15.6526 23.1358 15.831 23.0111 16.0293 22.9271C16.2276 22.8432 16.4413 22.8019 16.6566 22.806V22.7523L16.9596 21.8661L16.4686 21.3061C16.2711 21.3656 16.0647 21.3903 15.8587 21.3789C15.552 21.3751 15.2464 21.343 14.9457 21.283C14.9138 21.2794 14.8816 21.2794 14.8498 21.283C14.8076 21.283 14.8076 21.283 14.796 21.3061L14.7385 21.402L14.6349 21.5746L14.4354 21.5286L13.5531 21.3214L13.4304 21.5209V21.5439L13.5378 21.6628L13.4918 21.8163C13.4113 22.0041 13.2953 22.1748 13.1503 22.3188L12.9278 22.5566L12.7284 22.3035L12.5787 22.1155C12.4998 22.0119 12.4485 21.89 12.4297 21.7611C12.4109 21.6323 12.4253 21.5007 12.4713 21.3789L12.222 21.4825L12.1107 21.2408L12.034 21.0682C11.9576 20.8923 11.9437 20.6955 11.9947 20.5105C12.0456 20.3256 12.1583 20.1636 12.3141 20.0516L13.0237 19.668L13.6989 19.8023C13.6989 19.7371 13.7411 19.5069 13.7603 19.4455H13.7219L13.3383 19.5913L12.9547 19.3304C12.9359 19.3119 12.921 19.2898 12.9108 19.2654C12.9006 19.241 12.8954 19.2149 12.8954 19.1885C12.8954 19.1621 12.9006 19.1359 12.9108 19.1116C12.921 19.0872 12.9359 19.0651 12.9547 19.0466L13.3191 18.4942L12.3946 17.3433L13.814 17.9264L13.9099 17.8113L14.1017 17.5811L14.3204 17.7883C14.3774 17.8436 14.4174 17.9142 14.4354 17.9916C14.8191 18.1451 15.5249 18.5939 15.5863 19.3228L15.3676 19.411C15.3945 19.4474 15.4301 19.4764 15.4712 19.4954L16.484 19.5951L16.576 19.5683C16.748 19.5039 16.9295 19.4689 17.1131 19.4647C17.2965 19.4659 17.4773 19.5079 17.6425 19.5875C17.7153 19.5612 17.7915 19.5457 17.8688 19.5414H17.9187C18.1392 19.561 18.3506 19.6388 18.5312 19.7669C18.7119 19.8949 18.8553 20.0687 18.9468 20.2703L19.058 20.4314C19.246 20.6999 19.4953 21.0874 19.503 21.1066L19.6143 21.2792L19.4762 21.4365C19.4134 21.5184 19.3327 21.5849 19.2403 21.6308C19.1479 21.6767 19.0461 21.7007 18.9429 21.7012C18.8817 21.7069 18.82 21.7069 18.7588 21.7012C18.6931 21.675 18.6312 21.6401 18.5747 21.5976C18.5747 21.6513 18.5747 21.7165 18.544 21.7702L18.3675 22.6947C18.8736 22.5945 19.3272 22.3168 19.6465 21.9117C19.9659 21.5065 20.1299 21.0006 20.1091 20.4851V17.0249Z" fill="#FCE527"/>
<path d="M10.9057 16.7433H18.0754C17.9321 16.5928 17.8322 16.4064 17.7863 16.2038C17.7404 16.0012 17.7501 15.7899 17.8146 15.5924C17.7175 15.546 17.6272 15.4866 17.5461 15.4159C17.266 15.6231 16.3952 16.2446 16.1881 16.4018L16.142 16.4325L13.334 15.9262H13.2764C13.1857 15.9314 13.0948 15.9314 13.004 15.9262C12.991 15.9867 12.9576 16.041 12.9095 16.0801C12.8613 16.1192 12.8013 16.1406 12.7394 16.141H12.6933C12.6208 16.1287 12.5561 16.0885 12.513 16.0289C12.47 15.9693 12.4521 15.8952 12.4631 15.8226V15.7612C12.2862 15.6327 12.1506 15.4554 12.0729 15.251C11.9952 15.0466 11.9789 14.8239 12.0258 14.6104L12.0565 14.5758L12.0987 14.5451C12.0987 14.5451 12.1524 14.5068 12.2253 14.4684L12.022 14.4377C11.9856 14.4312 11.9532 14.4106 11.9317 14.3805C11.9102 14.3505 11.9013 14.3132 11.9069 14.2766C11.9097 14.2584 11.9161 14.2409 11.9258 14.2251C11.9354 14.2094 11.9481 14.1958 11.9632 14.185C11.9782 14.1743 11.9952 14.1667 12.0132 14.1627C12.0312 14.1586 12.0499 14.1582 12.068 14.1615L12.5552 14.2382L12.6013 12.5273L13.3263 11.7601L13.779 12.7115L13.2841 14.3418L13.7137 14.4109C13.7501 14.4174 13.7825 14.438 13.804 14.468C13.8255 14.4981 13.8344 14.5354 13.8288 14.572C13.8233 14.6045 13.8064 14.634 13.7811 14.6551C13.7557 14.6762 13.7237 14.6875 13.6907 14.6871H13.6677L13.3186 14.6295V14.6564C13.3574 14.7249 13.4163 14.7798 13.4874 14.8137L15.628 14.8482L16.1765 14.3073C15.9717 14.2365 15.791 14.1093 15.6553 13.9403C15.5195 13.7713 15.4343 13.5674 15.4093 13.3521C15.1428 13.2508 14.9248 13.0519 14.7994 12.7958C14.6953 12.5534 14.6777 12.2825 14.7495 12.0286C14.4117 11.8963 14.1067 11.6921 13.8557 11.4302H10.6602C10.8107 11.8066 10.8938 12.2065 10.9057 12.6117V16.7433Z" fill="#FCE527"/>
<path d="M13.8598 18.5247C13.8474 18.5237 13.8349 18.5252 13.8231 18.5291C13.8113 18.533 13.8004 18.5393 13.7911 18.5475C13.7818 18.5558 13.7742 18.5658 13.7689 18.5771C13.7636 18.5883 13.7606 18.6005 13.7601 18.613C13.759 18.6254 13.7605 18.6379 13.7644 18.6497C13.7684 18.6615 13.7746 18.6724 13.7829 18.6817C13.7911 18.691 13.8012 18.6986 13.8124 18.7039C13.8237 18.7092 13.8359 18.7122 13.8483 18.7127C13.8733 18.7127 13.8972 18.7028 13.9148 18.6852C13.9324 18.6676 13.9423 18.6437 13.9423 18.6187C13.9423 18.5938 13.9324 18.5699 13.9148 18.5523C13.8972 18.5346 13.8733 18.5247 13.8483 18.5247" fill="#222220"/>
<path d="M20.1047 24.803L19.5754 24.5996L19.7211 24.0511L19.8823 23.4526C19.1586 23.8234 18.4006 24.1227 17.6189 24.3465C17.2353 24.4539 16.9591 24.5037 16.9591 24.5037V24.9104C16.4884 24.9868 16.0127 25.0279 15.5359 25.0331H15.5014C15.0245 25.028 14.5488 24.9869 14.0781 24.9104V24.5037C14.0781 24.5037 13.7943 24.4539 13.4183 24.3465C12.6366 24.1229 11.8786 23.8235 11.155 23.4526L11.3123 24.0511L11.4619 24.5996L10.9287 24.803L10.3379 25.0216C11.1322 25.4395 11.9614 25.7873 12.816 26.0612L12.6127 26.6136C13.5343 26.9651 14.5153 27.1345 15.5014 27.1123H15.5244C16.5143 27.136 17.4994 26.9667 18.4245 26.6136L18.2212 26.0612C19.0733 25.7888 19.9 25.4422 20.6917 25.0255L20.1047 24.803ZM10.9632 25.06L11.834 24.7723L11.577 23.9322C12.1385 24.2126 12.7224 24.4461 13.3224 24.6303L12.9004 25.7812C12.2326 25.6048 11.5838 25.3632 10.9632 25.06ZM15.5014 26.8246C14.6556 26.8155 13.8147 26.6956 13.0002 26.4679L13.5181 25.0677C14.1669 25.2295 14.8327 25.3132 15.5014 25.317H15.5436C16.2085 25.3108 16.8704 25.2259 17.5153 25.0638L18.0179 26.4679C17.2007 26.695 16.3572 26.8137 15.509 26.8208L15.5014 26.8246ZM18.1176 25.7812L17.6956 24.6303C18.2957 24.4462 18.8795 24.2126 19.4411 23.9322L19.1841 24.7723L20.0549 25.06C19.4332 25.3637 18.783 25.6053 18.1138 25.7812" fill="#222220"/>
<path d="M15.507 2.94708C16.3751 2.92093 17.228 3.17961 17.9353 3.68362C18.0503 3.11483 18.2673 2.57156 18.5759 2.08011L17.7051 2.17985L17.2371 1.21314L16.3625 1.66197L15.507 0.825684L14.663 1.66197L13.7922 1.21314L13.3396 2.17985L12.4688 2.08011C12.7722 2.57253 12.984 3.11578 13.094 3.68362C13.7974 3.18332 14.6441 2.92485 15.507 2.94708ZM13.3012 2.51743L13.5429 2.54428L13.6465 2.32562L13.9495 1.67731L14.5134 1.96886L14.7321 2.08011L14.9047 1.91899L15.507 1.30137L16.1246 1.91899L16.2972 2.09162L16.5159 1.98037L17.076 1.68882L17.3829 2.33713L17.4864 2.55579L17.7281 2.52894L17.9583 2.50208C17.8654 2.71294 17.7859 2.92948 17.7204 3.1504C17.0384 2.80096 16.283 2.61872 15.5166 2.61872C14.7502 2.61872 13.9948 2.80096 13.3127 3.1504C13.2468 2.92961 13.1674 2.7131 13.0749 2.50208L13.3012 2.51743Z" fill="#222220"/>
<path d="M28.1654 14.2634C29.5617 14.2634 30.0297 12.844 30.0489 12.7827L30.2062 12.284H29.6845C29.1395 12.2655 28.6052 12.1282 28.1189 11.8817C27.6325 11.6352 27.2059 11.2855 26.8687 10.8569L26.7652 10.7265C26.0516 9.82114 25.3765 8.95801 24.1643 8.56288C24.2123 8.52057 24.2636 8.48209 24.3177 8.4478C24.6018 8.28662 24.8479 8.06615 25.0392 7.80137C25.2305 7.53658 25.3626 7.23371 25.4263 6.91333C25.4914 6.32826 25.3263 5.74084 24.966 5.27529L24.5824 4.79577L24.3292 5.3712C24.3292 5.40572 23.9034 6.31873 23.0441 6.31873H22.9789H22.8101C22.8317 6.01933 22.7881 5.71881 22.6821 5.43796C22.5761 5.15711 22.4103 4.90265 22.1963 4.6922C21.94 4.43072 21.6337 4.2236 21.2956 4.08321C20.9574 3.94282 20.5945 3.87204 20.2284 3.8751C20.0909 3.87448 19.9537 3.88474 19.8179 3.90578L19.231 4.02087L19.5916 4.49655C19.8754 4.88017 20.1324 5.54382 19.8294 5.89675C19.6842 6.02311 19.518 6.12308 19.3384 6.19214C18.9547 6.37243 18.4023 6.62946 18.4023 7.27393C18.4023 7.69207 18.7284 8.1294 19.3153 8.49767C21.0531 9.59097 22.1234 10.7303 22.5876 11.9886C23.305 13.9067 22.3689 15.0306 21.4598 15.6099L21.0531 15.8708L21.4099 16.1968C21.7281 16.468 22.1217 16.6354 22.5377 16.6764C22.6605 16.6764 22.7756 16.6764 22.8868 16.6764C23.2429 16.6778 23.5971 16.6261 23.9379 16.5229C23.853 16.6714 23.7541 16.8114 23.6425 16.9411C23.3874 17.2378 23.0677 17.4723 22.708 17.6266C22.3483 17.7808 21.9581 17.8508 21.5672 17.831H21.2258L21.1989 18.1725C21.1974 18.4088 21.2478 18.6427 21.3466 18.8574C21.4454 19.0722 21.5901 19.2627 21.7705 19.4154C21.8661 19.4993 21.9734 19.5691 22.0889 19.6225C21.5221 20.1748 21.1978 20.9296 21.1874 21.7209C21.1969 22.1687 21.1024 22.6125 20.9112 23.0175L20.5276 23.593H21.2104C22.3357 23.593 23.1975 23.2848 23.796 22.6684C24.1066 22.3419 24.3377 21.9481 24.4711 21.5176C24.6929 21.7045 24.9559 21.8359 25.2384 21.9012C25.373 21.9323 25.5107 21.9478 25.6488 21.9472C25.8556 21.9467 26.0615 21.9222 26.2626 21.8744L26.6961 21.7593L26.5043 21.3526C26.264 20.7041 26.264 19.991 26.5043 19.3425C26.6466 18.9188 26.7455 18.4818 26.7997 18.0382C27.1452 18.2143 27.5283 18.3038 27.916 18.2991C28.2275 18.3037 28.535 18.2295 28.81 18.0833C29.085 17.9371 29.3186 17.7236 29.4888 17.4628L29.6998 17.0792L29.3162 16.918C28.0311 16.3848 27.7472 14.9539 27.6935 14.179C27.8199 14.2047 27.9482 14.2201 28.0771 14.2251L28.1654 14.2634ZM29.1819 17.294C29.047 17.4982 28.8627 17.665 28.6461 17.779C28.4295 17.893 28.1876 17.9505 27.9429 17.9461C27.6674 17.9625 27.3921 17.9132 27.1393 17.8026C26.8866 17.6919 26.6637 17.5228 26.489 17.3093C26.5004 17.9624 26.3938 18.6122 26.1744 19.2274C25.8943 19.9691 25.8943 20.7874 26.1744 21.5291C26.0037 21.5713 25.8285 21.5932 25.6527 21.5943C25.5441 21.5951 25.4358 21.5822 25.3304 21.556C25.0802 21.4967 24.8494 21.3742 24.66 21.2002C24.4706 21.0263 24.329 20.8067 24.2486 20.5624C24.2486 20.5624 24.3292 23.2208 21.2296 23.2208H21.2066C21.4417 22.778 21.563 22.2837 21.5595 21.7823C21.7053 19.8105 23.0403 19.5381 23.0403 19.5381C22.6798 19.4982 22.3334 19.3762 22.0275 19.1814C21.8895 19.0654 21.7779 18.9211 21.7005 18.7583C21.6231 18.5955 21.5815 18.418 21.5787 18.2377C22.0249 18.2595 22.4702 18.1789 22.8805 18.002C23.2908 17.8252 23.6551 17.5567 23.9456 17.2173C24.2967 16.8151 24.5337 16.3264 24.6323 15.8017C24.1386 16.1735 23.5311 16.3621 22.9137 16.3349C22.8139 16.3349 22.7065 16.3349 22.5991 16.3349C22.2656 16.3011 21.95 16.1674 21.6938 15.9513C22.8753 15.1841 23.7001 13.876 22.9674 11.885C22.3804 10.293 20.9649 9.09994 19.5417 8.20612C19.0698 7.91074 18.8051 7.58083 18.8051 7.30079C18.8051 6.63329 19.7527 6.61411 20.1401 6.14994C20.589 5.62822 20.3089 4.7881 19.9176 4.27789C20.0291 4.2587 20.1421 4.24971 20.2552 4.25104C20.5715 4.24774 20.8851 4.30859 21.1772 4.42991C21.4693 4.55123 21.7338 4.7305 21.9546 4.95689C22.1756 5.16777 22.3346 5.43514 22.4144 5.72999C22.4942 6.02484 22.4918 6.33591 22.4073 6.62946L22.6144 6.67166C22.7411 6.69464 22.8694 6.70747 22.9981 6.71002H23.0825C24.2064 6.71002 24.709 5.53615 24.709 5.53615C24.709 5.53615 25.902 7.0054 24.1451 8.15625C23.842 8.35189 23.7077 8.53987 23.7615 8.73167L23.7883 8.85827L23.9149 8.88128C25.1885 9.22654 25.833 10.105 26.6232 11.1063C26.9911 11.5689 27.4542 11.9471 27.981 12.2152C28.5079 12.4833 29.0862 12.6349 29.6768 12.6599H29.6998C29.6998 12.6599 29.3162 13.8798 28.1654 13.8798H28.1117C27.833 13.8823 27.5592 13.8066 27.3214 13.6611C27.3214 13.6611 27.1181 16.427 29.1819 17.2863" fill="#222220"/>
<path d="M25.7207 8.73192C26.1496 8.97636 26.5212 9.30993 26.8102 9.71014C27.0278 10.0483 27.3399 10.3151 27.7079 10.4774C27.8476 10.5242 27.994 10.5475 28.1413 10.5464C28.4287 10.5456 28.7103 10.4657 28.9552 10.3155C29.2002 10.1653 29.399 9.95055 29.53 9.6948L29.7525 9.19993L29.2116 9.16925C28.6316 9.06407 28.105 8.76354 27.7194 8.31762C27.5771 8.16312 27.4046 8.03948 27.2125 7.95436C27.0205 7.86924 26.8131 7.82445 26.603 7.82275C26.276 7.82839 25.9571 7.9254 25.6824 8.10279L25.1875 8.45188L25.7207 8.73192ZM26.603 8.18719C26.7633 8.18859 26.9215 8.22343 27.0674 8.28949C27.2134 8.35555 27.344 8.45136 27.4508 8.5708C27.9015 9.08278 28.5156 9.42299 29.1886 9.53368C29.0865 9.72312 28.9355 9.88174 28.7513 9.99306C28.5672 10.1044 28.3565 10.1643 28.1413 10.1666C28.0329 10.1669 27.9253 10.1487 27.8229 10.1129C27.2053 9.90579 26.9828 8.96209 25.9049 8.39818C26.1156 8.26225 26.36 8.18784 26.6107 8.18335" fill="#222220"/>
<path d="M25.9678 13.6618C25.6532 11.1338 23.8196 9.3078 21.7787 8.19915C21.5908 8.09941 21.4143 8.01117 21.2455 7.93061C21.6622 8.01518 22.0922 8.00857 22.5061 7.91123C22.9199 7.81389 23.3078 7.62813 23.6431 7.3667C23.6431 7.3667 22.4616 8.23751 20.0371 7.44726C20.7084 7.88074 22.0089 8.49453 23.2019 9.49193C26.175 12.1044 24.0497 14.6554 24.0497 14.6554C24.4841 14.2417 24.7903 13.7118 24.9318 13.1289C25.0732 12.5459 25.044 11.9346 24.8477 11.3678C25.4773 12.4137 25.7793 13.6243 25.7146 14.8434C25.6341 16.8535 24.5293 18.5875 23.3669 19.9838C23.0204 20.4236 22.7861 20.941 22.6841 21.4914C22.8837 20.9517 23.1816 20.4536 23.5625 20.0222C24.8055 18.5644 25.8642 17.053 26.01 14.8702C26.1404 15.2538 26.6698 16.3663 27.5099 16.7883C27.5099 16.7883 26.4512 16.1515 25.9755 13.6695" fill="#222220"/>
<path d="M10.1422 23.0145C9.95607 22.6223 9.85788 22.1942 9.85447 21.7601C9.84406 20.9688 9.51979 20.214 8.95297 19.6617C9.06862 19.6085 9.17588 19.5388 9.27137 19.4546C9.45221 19.3022 9.59719 19.1118 9.696 18.897C9.7948 18.6821 9.84498 18.4481 9.84296 18.2117L9.81994 17.8703H9.47468C9.08443 17.8894 8.69495 17.8192 8.33596 17.6649C7.97696 17.5107 7.65792 17.2765 7.40316 16.9803C7.27935 16.8469 7.16885 16.7017 7.07325 16.5468C7.41276 16.6498 7.76574 16.7015 8.12052 16.7002C8.23177 16.7002 8.34686 16.7002 8.46961 16.7002C8.88599 16.6577 9.27946 16.489 9.59744 16.2169L9.9542 15.8908L9.54757 15.6299C8.6384 15.0468 7.70622 13.942 8.41974 12.0086C8.88392 10.7503 9.95421 9.611 11.692 8.5177C12.2789 8.13408 12.6012 7.70827 12.6012 7.29397C12.6012 6.64949 12.0641 6.3963 11.669 6.21217C11.4892 6.14332 11.323 6.04333 11.1779 5.91678C10.871 5.56386 11.1281 4.88486 11.4119 4.51659L11.7764 4.0409L11.1856 3.92582C11.0511 3.90487 10.9151 3.8946 10.779 3.89513C10.4128 3.89185 10.0498 3.96253 9.71166 4.10294C9.3735 4.24334 9.06717 4.45058 8.81103 4.71223C8.60456 4.92303 8.44541 5.17543 8.3442 5.4526C8.24299 5.72977 8.20204 6.02534 8.2241 6.31958H8.05531H7.99393C7.13079 6.31958 6.72416 5.40658 6.70882 5.37205L6.46714 4.80046L6.08352 5.27998C5.72569 5.74664 5.56212 6.33356 5.62702 6.91802C5.69057 7.23848 5.82251 7.54146 6.01383 7.80628C6.20516 8.07109 6.45138 8.29151 6.73567 8.45249C6.78993 8.48651 6.84126 8.52501 6.88912 8.56757C5.67689 8.95119 5.00173 9.82583 4.2882 10.7312L4.18462 10.8616C3.84709 11.2906 3.41983 11.6407 2.93277 11.8872C2.44571 12.1337 1.91064 12.2707 1.36505 12.2886L0.820312 12.2733L0.98143 12.772C0.98143 12.8334 1.46479 14.2528 2.86115 14.2528H2.9302C3.05908 14.2475 3.18736 14.2322 3.31382 14.2067C3.25627 14.974 2.9724 16.4125 1.68728 16.9457L1.30367 17.1069L1.51466 17.4905C1.68482 17.7526 1.91876 17.9671 2.19453 18.1141C2.47031 18.261 2.77888 18.3355 3.09132 18.3306C3.47775 18.3346 3.85942 18.2451 4.2038 18.0697C4.25771 18.5134 4.35668 18.9504 4.49919 19.374C4.7395 20.0225 4.7395 20.7357 4.49919 21.3842L4.30738 21.7908L4.7447 21.9059C4.94581 21.9537 5.15177 21.9782 5.35849 21.9788C5.49663 21.9795 5.63439 21.964 5.76896 21.9327C6.05158 21.8678 6.31461 21.7362 6.53619 21.5491C6.66852 21.9793 6.89824 22.3731 7.20752 22.7C7.80596 23.3163 8.66781 23.6245 9.79309 23.6245H10.4759L10.1422 23.0145ZM9.81227 23.2255C6.71265 23.2255 6.79321 20.5671 6.79321 20.5671C6.71289 20.8114 6.57127 21.031 6.38187 21.2049C6.19248 21.3789 5.96164 21.5013 5.71141 21.5606C5.60608 21.5871 5.49779 21.6 5.38918 21.599C5.21458 21.5977 5.04075 21.5758 4.87129 21.5338C5.15073 20.792 5.15073 19.9739 4.87129 19.2321C4.65336 18.6166 4.5481 17.9668 4.56057 17.314C4.38601 17.5278 4.16316 17.697 3.91038 17.8077C3.6576 17.9184 3.38212 17.9674 3.10666 17.9508C2.86199 17.9548 2.62024 17.8972 2.4037 17.7833C2.18715 17.6693 2.00278 17.5026 1.86758 17.2987C3.93144 16.4394 3.73196 13.6735 3.73196 13.6735C3.49421 13.8189 3.2204 13.8947 2.94171 13.8922H2.85348C1.70263 13.8922 1.31901 12.6723 1.31901 12.6723H1.34203C1.94112 12.6517 2.5285 12.5006 3.06319 12.2296C3.59788 11.9587 4.067 11.5743 4.43781 11.1033C5.22422 10.102 5.87253 9.22355 7.14614 8.8783L7.27273 8.85528L7.29958 8.72869C7.33411 8.53304 7.19984 8.34507 6.91597 8.15326C5.15901 7.00242 6.35205 5.53317 6.35205 5.53317C6.35205 5.53317 6.85075 6.70703 7.97858 6.70703H8.05914C8.18782 6.70426 8.31608 6.69143 8.44276 6.66867L8.64991 6.62647C8.56501 6.33296 8.56232 6.02177 8.64214 5.72683C8.72196 5.4319 8.88123 5.16454 9.10258 4.95391C9.32344 4.72751 9.5879 4.54824 9.87999 4.42692C10.1721 4.3056 10.4857 4.24476 10.802 4.24806C10.9151 4.24664 11.0281 4.25563 11.1396 4.27491C10.756 4.78128 10.4721 5.62524 10.9209 6.14695C11.3045 6.59578 12.2559 6.61497 12.2559 7.2978C12.2559 7.58168 11.9912 7.90775 11.5194 8.20313C10.0961 9.1008 8.68444 10.29 8.09367 11.882C7.36096 13.8691 8.18957 15.1888 9.37111 15.9483C9.11366 16.1649 8.79674 16.2987 8.46194 16.332C8.35069 16.332 8.24712 16.332 8.14354 16.332C7.52615 16.3591 6.91856 16.1705 6.42494 15.7987C6.52324 16.3227 6.75888 16.8112 7.10778 17.2143C7.39756 17.5503 7.75967 17.8163 8.16694 17.9923C8.57421 18.1684 9.01606 18.2499 9.45934 18.2309C9.45471 18.4133 9.41045 18.5925 9.32963 18.7561C9.24882 18.9198 9.13338 19.0638 8.99133 19.1784C8.68441 19.3842 8.33369 19.5156 7.96708 19.562C7.96708 19.562 9.30206 19.8344 9.45167 21.8062C9.44765 22.3071 9.56757 22.8013 9.80076 23.2447L9.81227 23.2255Z" fill="#222220"/>
<path d="M2.88267 10.538C3.02999 10.539 3.17646 10.5157 3.31616 10.4689C3.6842 10.3068 3.99639 10.04 4.21382 9.7017C4.50286 9.30149 4.87437 8.96791 5.30329 8.72348L5.84035 8.43577L5.34165 8.08668C5.06697 7.90909 4.74801 7.81208 4.42097 7.80664C4.21094 7.80833 4.00348 7.85313 3.81146 7.93825C3.61944 8.02337 3.44694 8.14701 3.30465 8.3015C2.91905 8.74743 2.39245 9.04796 1.81238 9.15313L1.27148 9.20684L1.49398 9.7017C1.6255 9.95674 1.82459 10.1707 2.06951 10.3202C2.31442 10.4697 2.59572 10.5491 2.88267 10.5495V10.538ZM3.56934 8.58154C3.6766 8.46163 3.8078 8.36553 3.95449 8.29945C4.10118 8.23338 4.26009 8.19879 4.42097 8.19793C4.67704 8.19558 4.92849 8.2661 5.146 8.40125C4.06037 8.98051 3.83787 9.90886 3.22793 10.116C3.12692 10.1518 3.02052 10.17 2.91336 10.1697C2.69808 10.1678 2.48729 10.108 2.30304 9.99665C2.11879 9.8853 1.96788 9.72645 1.86609 9.53675C2.53777 9.42522 3.1503 9.08508 3.60003 8.57387" fill="#222220"/>
<path d="M5.3265 14.8614C5.26042 13.6422 5.56248 12.4312 6.19347 11.3859C5.99708 11.9527 5.96788 12.564 6.10936 13.1469C6.25084 13.7298 6.55703 14.2598 6.9914 14.6735C6.9914 14.6735 4.86233 12.1224 7.83919 9.51C9.0284 8.51643 10.3289 7.90265 11.0002 7.46532C8.57957 8.25557 7.39419 7.38477 7.39419 7.38477C7.7289 7.64588 8.11614 7.83147 8.52933 7.92881C8.94253 8.02615 9.37189 8.03293 9.78796 7.94868C9.61916 8.02924 9.4427 8.11747 9.25473 8.21721C7.21006 9.32586 5.37637 11.1519 5.06181 13.6799V13.6607C4.58612 16.1427 3.52734 16.7795 3.52734 16.7795C4.36746 16.3652 4.89685 15.2642 5.02728 14.8614C5.16922 17.0442 6.23184 18.5557 7.47859 20.0134C7.85941 20.4514 8.15594 20.956 8.35323 21.5018C8.25008 20.951 8.01441 20.4336 7.66656 19.9942C6.51571 18.5979 5.40323 16.8601 5.32267 14.8538" fill="#222220"/>
<path d="M14.8145 9.74805V10.2506C14.8809 10.1864 14.9608 10.1379 15.0485 10.1087C15.1361 10.0795 15.2292 10.0703 15.3208 10.0818V10.803C15.318 10.9819 15.2705 11.1573 15.1827 11.3132H15.8886C15.8015 11.157 15.7541 10.9818 15.7505 10.803V10.0818C15.8421 10.0703 15.9352 10.0795 16.0228 10.1087C16.1105 10.1379 16.1904 10.1864 16.2568 10.2506V9.74805H14.8145Z" fill="#222220"/>
<path d="M14.503 6.77471C14.6155 6.87168 14.7458 6.94593 14.8866 6.99337L14.9787 7.03557V6.55989L14.1309 6.20312C14.1515 6.31985 14.1963 6.43098 14.2623 6.52941C14.3284 6.62783 14.4143 6.71138 14.5145 6.77471" fill="#222220"/>
<path d="M16.5286 6.77471C16.629 6.71156 16.715 6.62806 16.7811 6.52961C16.8471 6.43115 16.8918 6.31993 16.9122 6.20312L16.0645 6.55989V7.03174L16.1527 6.98954C16.2937 6.94264 16.4241 6.86833 16.5363 6.77088" fill="#222220"/>
<path d="M18.0598 4.85354C18.0598 4.13617 16.8553 3.4917 15.5241 3.4917C14.193 3.4917 12.9884 4.13617 12.9884 4.85354L13.0153 5.03L13.5485 8.09893L13.0153 8.40966L11.6228 9.20758C11.6228 9.20758 11.312 9.3687 11.1663 9.4646C10.6407 9.84822 10.5294 10.3623 10.8325 10.5809C10.8692 10.3279 10.9978 10.0972 11.1938 9.93299C11.3899 9.76881 11.6396 9.68263 11.8951 9.69093C12.1128 9.69681 12.3261 9.75409 12.5174 9.85809C12.7087 9.9621 12.8728 10.1099 12.9961 10.2894C13.0712 10.3821 13.1404 10.4795 13.2033 10.5809C13.2838 10.7114 13.3644 10.8264 13.4411 10.9377H9.89648C10.1953 11.4531 10.37 12.031 10.4067 12.6256V20.4859C10.4067 22.404 11.8721 23.3016 13.4756 23.3016C14.6994 23.3016 14.8643 23.2441 15.5433 23.9192C16.2146 23.2441 16.3796 23.3016 17.6072 23.3016C19.1915 23.3016 20.6569 22.3925 20.6569 20.4859V12.6141C20.6936 12.0195 20.8683 11.4416 21.1671 10.9262H17.588C17.6685 10.8149 17.7491 10.6998 17.8258 10.5694C17.8896 10.4686 17.9587 10.3712 18.033 10.2779C18.1565 10.0986 18.3206 9.95097 18.5119 9.84699C18.7032 9.74301 18.9163 9.6856 19.134 9.67942C19.3893 9.67197 19.6385 9.75845 19.8344 9.92249C20.0302 10.0865 20.1591 10.3167 20.1966 10.5694C20.5035 10.3508 20.3922 9.80218 19.8628 9.45309C19.7324 9.35335 19.414 9.20758 19.414 9.20758L18.033 8.40198L17.4997 8.09125L18.033 5.02233L18.0598 4.85354ZM13.5025 5.20646L15.3707 5.83943V8.77409L13.9782 8.05673L13.5025 5.20646ZM13.8861 11.4402C14.137 11.7023 14.442 11.9065 14.7799 12.0387C14.7081 12.2926 14.7257 12.5634 14.8298 12.8059C14.9549 13.0622 15.173 13.2611 15.4397 13.3621C15.4647 13.5774 15.5499 13.7813 15.6857 13.9503C15.8214 14.1193 16.0021 14.2465 16.207 14.3173L15.6469 14.8467L13.5063 14.8122C13.4352 14.7783 13.3763 14.7234 13.3375 14.6549V14.6281L13.6866 14.6856H13.7096C13.7426 14.6861 13.7746 14.6747 13.8 14.6536C13.8253 14.6325 13.8422 14.603 13.8477 14.5705C13.8533 14.534 13.8444 14.4967 13.8229 14.4666C13.8014 14.4365 13.769 14.416 13.7326 14.4094L13.303 14.3404L13.7787 12.6946L13.326 11.7433L12.601 12.5105L12.5549 14.2214L12.0601 14.1447C12.0419 14.1414 12.0233 14.1418 12.0053 14.1459C11.9873 14.1499 11.9702 14.1575 11.9552 14.1682C11.9402 14.179 11.9275 14.1926 11.9178 14.2083C11.9082 14.224 11.9017 14.2415 11.899 14.2598C11.8934 14.2964 11.9023 14.3336 11.9238 14.3637C11.9453 14.3938 11.9777 14.4143 12.014 14.4209L12.2174 14.4516C12.1445 14.4938 12.0946 14.5245 12.0908 14.5322L12.0601 14.5782V14.6281C12.0131 14.8416 12.0295 15.0643 12.1072 15.2687C12.1848 15.4731 12.3205 15.6504 12.4974 15.7789V15.8403C12.4863 15.913 12.5042 15.9871 12.5473 16.0466C12.5903 16.1062 12.6551 16.1464 12.7276 16.1587H12.7736C12.8356 16.1583 12.8956 16.1369 12.9437 16.0978C12.9918 16.0588 13.0252 16.0045 13.0383 15.9439C13.129 15.9492 13.22 15.9492 13.3107 15.9439H13.3682L16.1763 16.4502L16.2223 16.4196C16.4448 16.2623 17.3003 15.6523 17.5803 15.4337C17.6615 15.5043 17.7518 15.5636 17.8488 15.6101C17.7844 15.8076 17.7746 16.0189 17.8205 16.2215C17.8665 16.4241 17.9664 16.6106 18.1097 16.761H10.9092V12.6141C10.8933 12.2107 10.8063 11.8133 10.6522 11.4402H13.8861ZM17.3386 15.2188C17.0548 15.4298 16.322 15.9631 16.0574 16.1472L13.5063 15.6868V15.6178C13.5502 15.446 13.5734 15.2696 13.5754 15.0922L15.7198 15.1268L15.762 15.0846C15.7927 15.0539 16.4755 14.3941 16.8208 14.0181C16.9113 14.1314 17.0202 14.2287 17.143 14.3058C17.0836 14.6208 17.1482 14.9465 17.3233 15.215L17.3386 15.2188ZM13.0882 14.7777C13.1441 14.8858 13.2291 14.9762 13.3337 15.0385C13.3305 15.1942 13.3151 15.3494 13.2876 15.5027C13.2876 15.5372 13.2876 15.5718 13.2608 15.6063V15.66C13.0863 15.6606 12.9127 15.6334 12.7468 15.5794C12.5972 15.4989 12.4758 15.3744 12.399 15.2229C12.3222 15.0713 12.2936 14.8999 12.3171 14.7316C12.4548 14.6447 12.6113 14.592 12.7736 14.5782C12.8414 14.5767 12.908 14.5967 12.9637 14.6353C13.0195 14.6739 13.0617 14.7291 13.0843 14.793L13.0882 14.7777ZM12.8273 14.2675L12.8695 12.6218L13.2531 12.2381L13.4833 12.7215L13.0268 14.2982L12.8273 14.2675ZM17.3386 22.7914H16.955L17.2581 21.8669C17.3041 21.7365 17.0663 21.5677 16.9665 21.4181C17.2015 21.5583 17.4435 21.6863 17.6916 21.8017C17.6916 21.8324 17.3386 22.8068 17.3386 22.8068V22.7914ZM18.2938 21.7326L18.0944 22.7684C17.9678 22.7684 17.8335 22.7953 17.7107 22.7991L17.9217 21.8055C17.9831 21.5101 17.189 21.4219 16.7977 20.835C16.6719 20.9401 16.5263 21.019 16.3695 21.0671C16.2127 21.1152 16.0479 21.1315 15.8847 21.115C15.5948 21.1112 15.3058 21.0804 15.0216 21.0229C14.9731 21.0191 14.9243 21.0191 14.8758 21.0229C14.8168 21.0187 14.7577 21.0312 14.7055 21.0591C14.6532 21.0869 14.6099 21.1289 14.5804 21.1802L14.5229 21.2761L13.4411 21.0229L13.1726 21.4679C13.1521 21.4982 13.1428 21.5347 13.1463 21.5711C13.1498 21.6075 13.1659 21.6416 13.1917 21.6674L13.2646 21.748C13.1933 21.8895 13.1 22.019 12.9884 22.1316L12.8273 21.9168C12.764 21.8212 12.7302 21.7092 12.7302 21.5945C12.7302 21.4799 12.764 21.3678 12.8273 21.2723L13.257 20.5473L14.1738 20.6777L14.0319 20.3516C13.8401 19.922 14.1316 19.3772 14.1623 19.0627C14.1623 19.1586 14.0626 19.1778 13.9628 19.1778C13.8631 19.1778 13.7672 19.1778 13.6981 19.1778C13.6781 19.172 13.6568 19.172 13.6367 19.1778L13.3874 19.3274L13.2109 19.1547C13.1965 19.1275 13.1913 19.0963 13.1961 19.0658C13.2009 19.0354 13.2156 19.0073 13.2378 18.9859L13.6904 18.4757L13.1534 17.8504L13.9206 18.2341L14.1508 17.9579C14.2122 18.0192 14.1853 18.1804 14.1853 18.1804C14.4545 18.2481 14.6926 18.4054 14.8606 18.6264C15.0286 18.8474 15.1165 19.1189 15.1098 19.3964C15.1098 19.4233 15.1098 19.4501 15.1098 19.4808V19.5077C15.1863 19.6293 15.3076 19.7161 15.4474 19.7493L16.4832 19.8529C16.6885 19.7896 16.899 19.7447 17.1123 19.7187C17.2978 19.7195 17.479 19.7742 17.634 19.8759C17.7066 19.8264 17.7917 19.7985 17.8795 19.7954H17.9141C18.3782 19.7954 18.5739 20.2174 18.8232 20.5626C19.0112 20.8273 19.2605 21.2224 19.2605 21.2224C19.2254 21.2757 19.1776 21.3194 19.1213 21.3496C19.065 21.3797 19.0021 21.3954 18.9383 21.3951C18.8937 21.3995 18.8487 21.3995 18.804 21.3951C18.3053 21.303 18.2325 20.2787 17.9486 20.1982H17.9025C17.8757 20.199 17.8494 20.2069 17.8266 20.221C17.8037 20.2351 17.7849 20.255 17.7721 20.2787C17.9025 20.6278 17.8258 20.7698 17.9678 21.046C18.0723 21.2118 18.2017 21.3605 18.3514 21.4871C18.3514 21.4871 18.3322 21.6367 18.3092 21.7518L18.2938 21.7326ZM12.7199 20.7391L12.7659 20.858C12.7352 20.9616 12.3823 21.1112 12.3823 21.1112L12.3056 20.9424C12.2567 20.826 12.2483 20.6966 12.2817 20.5749C12.3151 20.4532 12.3883 20.3462 12.4897 20.2711L13.0728 19.9181L13.6904 20.0486C13.6871 20.1712 13.7249 20.2914 13.7979 20.39L13.1495 20.2672L12.7659 20.5358C12.7364 20.5605 12.7166 20.5949 12.7103 20.6329C12.7039 20.6709 12.7114 20.71 12.7314 20.7429L12.7199 20.7391ZM18.4012 22.6993L18.5815 21.771C18.5815 21.7173 18.6007 21.6521 18.6084 21.5984C18.6602 21.6207 18.7142 21.6374 18.7695 21.6482C18.8308 21.654 18.8924 21.654 18.9537 21.6482C19.0569 21.6478 19.1586 21.6237 19.251 21.5778C19.3435 21.5319 19.4241 21.4655 19.4869 21.3835L19.625 21.2263L19.5137 21.0536C19.5137 21.0536 19.2567 20.647 19.0687 20.3785L18.9613 20.2174C18.8698 20.0157 18.7264 19.842 18.5458 19.714C18.3652 19.5859 18.1538 19.5081 17.9332 19.4885H17.8834C17.8061 19.4926 17.7298 19.5081 17.657 19.5345C17.4919 19.4548 17.311 19.4129 17.1276 19.4118C16.9441 19.416 16.7625 19.451 16.5906 19.5153L16.4985 19.5422L15.4858 19.4425C15.4443 19.4223 15.4087 19.3919 15.3822 19.3542L15.6009 19.266C15.5395 18.5371 14.8336 18.0883 14.45 17.9348C14.4326 17.8561 14.3926 17.7841 14.3349 17.7277L14.1163 17.5205L13.9245 17.7507L13.8285 17.8658L12.4092 17.2827L13.3298 18.4335L12.9654 18.9859C12.9466 19.0045 12.9317 19.0266 12.9215 19.051C12.9113 19.0753 12.9061 19.1015 12.9061 19.1279C12.9061 19.1543 12.9113 19.1804 12.9215 19.2048C12.9317 19.2292 12.9466 19.2513 12.9654 19.2698L13.349 19.5307L13.7326 19.3849H13.771C13.771 19.4425 13.7288 19.6765 13.7096 19.7417L13.0345 19.6074L12.3248 19.991C12.16 20.1074 12.0425 20.2792 11.9939 20.475C11.9453 20.6708 11.9688 20.8776 12.0601 21.0575L12.1406 21.2301L12.2519 21.4718L12.5012 21.3682C12.4552 21.49 12.4408 21.6215 12.4596 21.7504C12.4784 21.8792 12.5297 22.0012 12.6086 22.1047L12.7583 22.2927L12.9577 22.5459L13.1802 22.3081C13.3255 22.1643 13.4415 21.9936 13.5217 21.8055L13.5677 21.6521L13.4603 21.5332V21.5101L13.583 21.3107L14.4653 21.5178L14.6648 21.5638L14.7722 21.3874L14.8298 21.2915C14.8298 21.2723 14.8298 21.2685 14.8835 21.2685H14.9794C15.2801 21.3284 15.5858 21.3605 15.8924 21.3644C16.0984 21.3757 16.3048 21.351 16.5023 21.2915L16.9665 21.8669L16.6635 22.7607V22.8144C16.4482 22.8104 16.2345 22.8516 16.0362 22.9356C15.8379 23.0195 15.6595 23.1442 15.5126 23.3016C15.0408 22.8336 14.7109 22.7876 13.4449 22.7876C11.9335 22.7876 10.9092 21.9014 10.9092 20.4859V17.0333H20.116V20.4859C20.1371 21.0003 19.9741 21.5053 19.6563 21.9103C19.3385 22.3153 18.8867 22.5937 18.3821 22.6955L18.4012 22.6993ZM20.373 11.4402C20.2179 11.813 20.1309 12.2106 20.116 12.6141V15.1958C19.9528 15.1612 19.8053 15.0743 19.696 14.9483C19.5866 14.8223 19.5213 14.6641 19.5099 14.4976V14.3787H19.3948C19.1964 14.3616 19.011 14.273 18.8731 14.1294C18.7034 13.9345 18.6083 13.6857 18.6046 13.4274C18.5241 13.5588 18.4851 13.7115 18.4926 13.8654C18.5001 14.0194 18.5538 14.1675 18.6468 14.2905C18.7957 14.4806 19.0134 14.6046 19.2529 14.6357C19.2858 14.8514 19.3877 15.0505 19.5433 15.2034C19.6989 15.3562 19.8998 15.4545 20.116 15.4835V16.7495H18.5317C18.3286 16.647 18.1728 16.4703 18.0964 16.2561C18.02 16.0419 18.0289 15.8065 18.1212 15.5986L18.1826 15.4605L18.0406 15.4068C17.8193 15.329 17.6369 15.1684 17.5317 14.9587C17.4265 14.749 17.4068 14.5067 17.4767 14.2828L17.5074 14.1677L17.4 14.1179C17.2032 14.003 17.0449 13.8324 16.9452 13.6275C16.8455 13.4226 16.8089 13.1927 16.8399 12.967C16.7327 13.0723 16.6618 13.209 16.6376 13.3574C16.6135 13.5057 16.6373 13.6579 16.7057 13.7918C16.6289 13.8762 16.5292 13.9836 16.418 14.0948C16.2262 14.053 16.0535 13.9491 15.9267 13.7994C15.7998 13.6496 15.7257 13.4623 15.7159 13.2662V13.1588L15.6277 13.1243C15.5111 13.0879 15.4033 13.0279 15.3109 12.9481C15.2185 12.8682 15.1435 12.7702 15.0906 12.6601C15.0164 12.4828 15.0029 12.2858 15.0523 12.1C15.1281 12.117 15.205 12.1285 15.2825 12.1346C15.3604 12.1386 15.4385 12.1386 15.5165 12.1346C15.8235 12.1339 16.127 12.0686 16.4072 11.943C16.6874 11.8175 16.9381 11.6344 17.143 11.4057L20.373 11.4402ZM17.8987 8.82396L18.5278 9.20758L18.6851 9.29964C18.3588 9.38862 18.063 9.56504 17.8297 9.80985L17.8143 9.82136C17.7606 9.8789 17.7107 9.93645 17.6609 9.99783L17.6302 10.0362C17.5816 10.0976 17.5356 10.1615 17.4921 10.228L17.4691 10.2625C17.4154 10.3392 17.3655 10.4236 17.3156 10.508C17.1441 10.8496 16.8887 11.1421 16.5734 11.3582C16.2581 11.5742 15.8931 11.7067 15.5126 11.7433C15.1335 11.7055 14.7701 11.5724 14.4562 11.3564C14.1423 11.1404 13.8881 10.8486 13.7173 10.508C13.6674 10.4236 13.6176 10.3431 13.5677 10.2664L13.537 10.2242L13.4027 10.04L13.3682 9.99783C13.3183 9.93645 13.2685 9.8789 13.2186 9.8252L13.2109 9.79451C12.9772 9.55095 12.6814 9.37585 12.3555 9.28814L12.5166 9.19607L13.1457 8.81245L13.7902 8.42884L15.5126 9.39938L17.2389 8.45953L17.8987 8.82396ZM17.0471 8.05673L15.6699 8.78176V5.83943L17.5381 5.20646L17.0471 8.05673ZM15.5126 5.52486L13.4679 4.71543C13.6406 4.30496 14.4462 3.9482 15.5126 3.9482C16.5791 3.9482 17.3847 4.30113 17.5611 4.71543L15.5126 5.52486Z" fill="#222220"/>
</svg>
