<svg width="48" height="48" viewBox="0 0 48 48" fill="none" xmlns="http://www.w3.org/2000/svg">
<path d="M37.3242 40.9961L31.9902 39.2181C29.3242 38.1081 28.4362 33.8301 28.4362 32.9961C29.7122 31.9401 31.1022 30.1081 31.1022 28.5521C31.1022 26.9961 31.9902 26.7741 31.9902 26.7741C31.9902 26.7741 32.8802 24.5521 32.8802 23.2181C32.8802 23.2181 32.6582 22.3301 31.9902 22.3301V16.9961C31.9902 12.6261 29.7682 12.9961 30.2122 12.5521C30.2122 11.5141 28.9542 8.99609 23.9902 8.99609C18.9362 8.99609 15.9902 13.8101 15.9902 16.9961V22.3301C15.3242 22.3301 15.1022 23.2181 15.1022 23.2181C15.1022 24.5521 15.9902 26.7741 15.9902 26.7741C15.9902 26.7741 16.8802 26.9961 16.8802 28.5521C16.8802 30.1081 18.2682 31.9401 19.5462 32.9961C19.5462 33.8301 18.6582 38.1081 15.9902 39.2181L10.6582 40.9961" stroke="#FF4E2C" stroke-width="2" stroke-linecap="round" stroke-linejoin="round"/>
<path fill-rule="evenodd" clip-rule="evenodd" d="M47 24C47 36.702 36.702 47 24 47C11.298 47 1 36.702 1 24C1 11.298 11.298 1 24 1C36.702 1 47 11.298 47 24V24Z" stroke="#17233B" stroke-width="2" stroke-linecap="round" stroke-linejoin="round"/>
</svg>
