<svg width="25" height="25" viewBox="0 0 25 25" fill="none" stroke="#BFC5D2" xmlns="http://www.w3.org/2000/svg">
<path d="M19.1621 20.998L16.4951 20.109C15.1621 19.554 14.7181 17.415 14.7181 16.998C15.3561 16.47 16.0511 15.554 16.0511 14.776C16.0511 13.998 16.4951 13.887 16.4951 13.887C16.4951 13.887 16.9401 12.776 16.9401 12.109C16.9401 12.109 16.8291 11.665 16.4951 11.665V8.99805C16.4951 6.81305 15.3841 6.99805 15.6061 6.77605C15.6061 6.25705 14.9771 4.99805 12.4951 4.99805C9.9681 4.99805 8.4951 7.40505 8.4951 8.99805V11.665C8.1621 11.665 8.0511 12.109 8.0511 12.109C8.0511 12.776 8.4951 13.887 8.4951 13.887C8.4951 13.887 8.9401 13.998 8.9401 14.776C8.9401 15.554 9.6341 16.47 10.2731 16.998C10.2731 17.415 9.8291 19.554 8.4951 20.109L5.8291 20.998" stroke-linecap="round" stroke-linejoin="round"/>
<path fill-rule="evenodd" clip-rule="evenodd" d="M24 12.5C24 18.851 18.851 24 12.5 24C6.149 24 1 18.851 1 12.5C1 6.149 6.149 1 12.5 1C18.851 1 24 6.149 24 12.5V12.5Z" stroke-linecap="round" stroke-linejoin="round"/>
</svg>
