<svg width="40" height="40" viewBox="0 0 40 40" fill="none" xmlns="http://www.w3.org/2000/svg">
<rect width="40" height="40" rx="20" fill="#273B7A"/>
<path d="M29.5269 28.9649H10.3903C9.6483 28.9649 9.02344 28.3477 9.02344 27.5711V13.4739C9.02344 12.7172 9.62878 12.0801 10.3903 12.0801H29.5269C30.2689 12.0801 30.8938 12.6973 30.8938 13.4739V27.5711C30.8938 28.3477 30.2884 28.9649 29.5269 28.9649Z" fill="#E3E3E3"/>
<path opacity="0.1" d="M11.7578 28.9641L19.9396 22.254L19.9982 21.8956L11.5625 15.7031L11.543 28.6654L11.7578 28.9641Z" fill="#231F20"/>
<path d="M10.3903 28.964C9.62878 28.964 9.02344 28.3468 9.02344 27.5702V13.453C9.02344 12.6765 9.62878 12.5371 10.3903 12.5371C11.1519 12.5371 11.7572 12.6964 11.7572 13.453V28.964H10.3903Z" fill="#D54B3D"/>
<path fill-rule="evenodd" clip-rule="evenodd" d="M9.02344 13.453C9.02344 12.6964 9.62878 12.5371 10.3903 12.5371C11.1519 12.5371 11.7572 12.6765 11.7572 13.453V28.964H10.3903C9.62878 28.964 9.02344 28.3468 9.02344 27.5702V13.453ZM11.5619 13.453C11.5619 13.0349 11.3667 12.7362 10.3903 12.7362C9.41396 12.7362 9.21869 13.015 9.21869 13.453V27.5702C9.21869 28.2273 9.74592 28.7649 10.3903 28.7649H11.5619V13.453Z" fill="#D72B27"/>
<path d="M29.5271 28.964H28.1602V13.4132C28.1602 12.6367 28.7655 12.5371 29.5271 12.5371C30.2886 12.5371 30.8939 12.6367 30.8939 13.4132V27.5901C30.8939 28.3468 30.2886 28.964 29.5271 28.964Z" fill="#D54B3D"/>
<path fill-rule="evenodd" clip-rule="evenodd" d="M28.1602 13.4132C28.1602 12.6367 28.7655 12.5371 29.5271 12.5371C30.2886 12.5371 30.8939 12.6367 30.8939 13.4132V27.5901C30.8939 28.3667 30.2886 28.9839 29.5271 28.9839H28.1602V13.4132ZM30.6987 13.4132C30.6987 12.9154 30.4058 12.7362 29.527 12.7362C28.6483 12.7362 28.3554 12.8955 28.3554 13.4132V28.7848H29.527C30.1714 28.7848 30.6987 28.2472 30.6987 27.5901V13.4132Z" fill="#D72B27"/>
<path d="M23.6676 28.9651L9.13672 14.0331L9.90103 14.3501L20.0161 21.7771L30.8926 13.6445V27.5912C30.8926 28.3478 30.2873 28.9651 29.5257 28.9651H23.6676Z" fill="url(#paint0_linear)"/>
<path d="M19.9373 22.2546L9.60743 14.6086C9.00209 14.1507 8.82635 13.2746 9.27547 12.6573C9.72459 12.0401 10.6033 11.9007 11.2282 12.3586L19.9568 18.8298L28.744 12.279C29.3493 11.821 30.2085 11.9604 30.6576 12.5976C31.1067 13.2148 30.9701 14.0909 30.3452 14.5489L19.9373 22.2546Z" fill="#D54B3D"/>
<path fill-rule="evenodd" clip-rule="evenodd" d="M28.7252 12.2588C28.9595 12.0796 29.2524 12 29.5258 12C29.9554 12 30.3655 12.1991 30.6389 12.5973C31.0685 13.2345 30.9318 14.0907 30.3264 14.5487L19.938 22.2743L9.6082 14.6084C9.00286 14.1504 8.82712 13.2743 9.25672 12.6571C9.5301 12.2788 9.95969 12.0796 10.3893 12.0796C10.6822 12.0796 10.9751 12.1593 11.2094 12.3385L19.938 18.8097L28.7252 12.2588ZM30.4827 12.6969C30.2483 12.3783 29.8969 12.1991 29.5258 12.1991C29.272 12.1991 29.0377 12.2787 28.8229 12.4181L20.0552 18.969L19.938 19.0486L19.8209 18.969L11.1118 12.5177C10.9165 12.3584 10.6627 12.2787 10.4088 12.2787C10.0183 12.2787 9.64728 12.4779 9.43248 12.7765C9.06146 13.2942 9.19815 14.0509 9.72538 14.4491L19.938 22.0154L30.2288 14.3694C30.7365 13.9712 30.8537 13.2345 30.4827 12.6969Z" fill="#D72B27"/>
<defs>
<linearGradient id="paint0_linear" x1="9.13757" y1="28.9669" x2="30.8997" y2="28.9669" gradientUnits="userSpaceOnUse">
<stop stop-opacity="0.1"/>
<stop offset="1" stop-opacity="0.2"/>
</linearGradient>
</defs>
</svg>
