<svg width="40" height="40" viewBox="0 0 40 40" fill="none" xmlns="http://www.w3.org/2000/svg">
<rect width="40" height="40" rx="20" fill="#EE3F2E"/>
<path fill-rule="evenodd" clip-rule="evenodd" d="M15.5078 12.125C11.4045 12.174 7.81404 15.9505 7.96973 20.0371C7.90133 23.3442 10.1865 26.5003 13.3288 27.5292C16.2897 28.5208 19.9294 27.779 21.8994 25.2514C23.3381 23.4806 23.6646 21.1195 23.5089 18.9133C21.2548 18.8932 19.0007 18.8969 16.7492 18.9006C16.4683 18.9011 16.1874 18.9015 15.9065 18.902C15.9027 19.8006 15.9065 20.6959 15.9103 21.5946L15.9103 21.5999C16.75 21.623 17.5897 21.6276 18.4295 21.6321C19.108 21.6358 19.7864 21.6395 20.4648 21.653C20.0816 22.9622 19.2083 24.1806 17.8837 24.6535C15.3257 25.7773 12.0617 24.3091 11.2568 21.6338C10.2848 19.0723 11.8754 15.9806 14.5018 15.2351C16.1302 14.6639 17.8078 15.307 19.2011 16.1509C19.9067 15.4924 20.5672 14.789 21.2165 14.0773C19.6338 12.7568 17.5992 11.9471 15.5078 12.125ZM30.7032 16.6309H28.4452C28.4373 17.384 28.4297 18.1409 28.426 18.8933C27.6671 18.9008 26.9117 18.9046 26.1562 18.9084V21.1636C26.2592 21.1642 26.3623 21.1647 26.4654 21.1652C27.1186 21.1687 27.7738 21.1722 28.426 21.179C28.4301 21.5732 28.4321 21.9673 28.434 22.362C28.4358 22.7213 28.4376 23.0811 28.4411 23.4418C28.6912 23.4418 28.9418 23.4414 29.1928 23.4409C29.6955 23.4401 30.1995 23.4393 30.7032 23.4418L30.7042 23.2622C30.708 22.5657 30.7117 21.8722 30.7187 21.1752L32.9884 21.1639V18.9087L32.9772 18.9086C32.2255 18.9049 31.47 18.9011 30.7187 18.8936C30.7166 18.5173 30.7138 18.1399 30.711 17.7625C30.7081 17.385 30.7053 17.0075 30.7032 16.6309Z" fill="white"/>
</svg>
