<svg width="40" height="40" viewBox="0 0 40 40" fill="none" xmlns="http://www.w3.org/2000/svg">
<rect width="40" height="40" rx="20" fill="#0077B5"/>
<path fill-rule="evenodd" clip-rule="evenodd" d="M13.824 11.2256C15.0039 11.2256 15.963 12.1865 15.963 13.3691C15.963 14.553 15.0039 15.5139 13.824 15.5139C12.6409 15.5139 11.6836 14.553 11.6836 13.3691C11.6836 12.1865 12.6409 11.2256 13.824 11.2256ZM11.9766 29.0405H15.6675V17.1406H11.9766V29.0405Z" fill="#FFFFFE"/>
<path fill-rule="evenodd" clip-rule="evenodd" d="M17.9844 17.1405H21.5243V18.7666H21.5737C22.0664 17.831 23.2705 16.8447 25.066 16.8447C28.8036 16.8447 29.4937 19.3095 29.4937 22.513V29.0404H25.8053V23.2534C25.8053 21.8735 25.7799 20.0984 23.8873 20.0984C21.9671 20.0984 21.6721 21.6016 21.6721 23.1535V29.0404H17.9844V17.1405Z" fill="#FFFFFE"/>
</svg>
