<svg width="40" height="40" viewBox="0 0 40 40" fill="none" xmlns="http://www.w3.org/2000/svg">
<rect width="40" height="40" rx="20" fill="#0071C5"/>
<path d="M20.4072 9H22.0198C22.0198 10.7838 22.0198 12.565 22.0198 14.3488C24.8135 14.3542 27.6045 14.3408 30.3955 14.3488C30.9456 14.3221 31.698 14.4799 31.6872 15.1672C31.7897 18.5503 31.6899 21.9415 31.7357 25.3273C31.7465 25.9264 31.7276 26.8705 30.9052 26.8785C27.947 26.9801 24.9807 26.8865 22.0198 26.9186C22.0198 28.6115 22.0198 30.3071 22.0198 32H20.3479C16.2382 31.2592 12.1178 30.5772 8.0027 29.8605C8 23.621 8 17.3816 8 11.1449C12.1366 10.4255 16.2733 9.73012 20.4072 9Z" fill="white"/>
<path d="M22.0195 15.151C25.0074 15.1536 27.9926 15.1429 30.9804 15.1563C30.9292 15.5067 30.8213 15.8517 30.5247 16.071C28.7395 17.7211 26.9651 19.3792 25.1854 21.0347C24.1148 20.0746 23.0739 19.0824 22.0195 18.1062C22.0195 17.1193 22.0195 16.1351 22.0195 15.151Z" fill="#0071C5"/>
<path d="M13.783 16.13C15.3039 15.5604 17.081 16.36 17.7255 17.8176C18.6046 19.8234 18.4805 22.5674 16.7331 24.0838C15.1232 25.4504 12.4239 24.6721 11.6904 22.7305C10.725 20.492 11.1942 17.0474 13.783 16.13Z" fill="#0071C5"/>
<path d="M26.0328 21.2725C27.6535 19.7454 29.2876 18.229 30.9164 16.71C30.9245 19.8444 30.9164 22.9815 30.9191 26.1159C27.9528 26.1159 24.9865 26.1159 22.0202 26.1159C22.0202 23.7838 22.0175 21.4517 22.0229 19.1223C23.0287 20.0048 23.9294 21.0104 24.9973 21.8154C25.4368 21.8957 25.7335 21.5186 26.0328 21.2725Z" fill="#0071C5"/>
<path d="M14.0415 17.7373C14.7588 17.3977 15.6568 17.7427 15.9939 18.446C16.5332 19.5051 16.5305 20.7969 16.1772 21.9148C15.9264 22.7091 15.05 23.3643 14.2006 23.0514C13.1408 22.7198 12.8199 21.4735 12.8091 20.4973C12.7957 19.4864 13.0303 18.2267 14.0415 17.7373Z" fill="white"/>
</svg>
