<svg width="40" height="40" viewBox="0 0 40 40" fill="none" xmlns="http://www.w3.org/2000/svg">
<rect width="40" height="40" rx="20" fill="#00A8E5"/>
<path d="M16.5838 28.0202C24.0235 28.0202 28.0944 21.8471 28.0944 16.5028C28.0944 16.3291 28.0944 16.1555 28.0865 15.9818C28.8754 15.4134 29.5618 14.6951 30.1062 13.882C29.3804 14.2056 28.5993 14.4188 27.7788 14.5214C28.6151 14.0241 29.2541 13.2268 29.5618 12.2795C28.7808 12.7452 27.9129 13.0768 26.9899 13.2583C26.2483 12.4689 25.199 11.9795 24.0393 11.9795C21.8066 11.9795 19.992 13.7951 19.992 16.0291C19.992 16.3449 20.0314 16.6528 20.0946 16.9528C16.7337 16.787 13.7515 15.1687 11.7555 12.7215C11.4084 13.3215 11.2111 14.0162 11.2111 14.7582C11.2111 16.1633 11.9291 17.4027 13.0099 18.129C12.3472 18.1053 11.7239 17.9237 11.1796 17.6237C11.1796 17.6395 11.1796 17.6553 11.1796 17.679C11.1796 19.6367 12.576 21.2787 14.4221 21.6497C14.0829 21.7445 13.7278 21.7918 13.357 21.7918C13.0967 21.7918 12.8442 21.7681 12.5997 21.7208C13.1125 23.3312 14.6114 24.4995 16.3787 24.5311C14.9901 25.6204 13.2466 26.2678 11.3531 26.2678C11.0297 26.2678 10.7062 26.252 10.3906 26.2125C12.1736 27.3492 14.3038 28.0202 16.5838 28.0202Z" fill="white"/>
</svg>
