<svg width="40" height="40" viewBox="0 0 40 40" fill="none" xmlns="http://www.w3.org/2000/svg">
<rect width="40" height="40" rx="20" fill="#0AD561"/>
<mask id="mask0" mask-type="alpha" maskUnits="userSpaceOnUse" x="9" y="9" width="22" height="22">
<path fill-rule="evenodd" clip-rule="evenodd" d="M9 9H30.9928V30.9935H9V9Z" fill="white"/>
</mask>
<g mask="url(#mask0)">
<path fill-rule="evenodd" clip-rule="evenodd" d="M25.0331 22.1802C24.7595 22.044 23.4143 21.3852 23.1635 21.2943C22.9127 21.2034 22.7303 21.158 22.5479 21.4305C22.3655 21.7032 21.8412 22.3165 21.6815 22.4983C21.5219 22.68 21.3623 22.7028 21.0887 22.5665C20.8151 22.4302 19.9335 22.1426 18.8884 21.2148C18.075 20.4928 17.5258 19.6011 17.3662 19.3284C17.2067 19.0558 17.3493 18.9085 17.4863 18.7727C17.6093 18.6506 17.7599 18.4546 17.8966 18.2956C18.0335 18.1366 18.079 18.0229 18.1703 17.8413C18.2615 17.6595 18.2159 17.5005 18.1475 17.3642C18.0791 17.228 17.5318 15.8875 17.3039 15.3422C17.0818 14.8114 16.8562 14.8833 16.6882 14.8748C16.5288 14.8669 16.3462 14.8652 16.1638 14.8652C15.9814 14.8652 15.685 14.9334 15.4342 15.2059C15.1834 15.4786 14.4766 16.1374 14.4766 17.4777C14.4766 18.8181 15.457 20.1129 15.5938 20.2947C15.7306 20.4765 17.5232 23.227 20.2679 24.4065C20.9207 24.6871 21.4304 24.8547 21.8277 24.9801C22.4832 25.1875 23.0797 25.1582 23.5511 25.0881C24.0768 25.0099 25.1699 24.4293 25.3979 23.7933C25.6259 23.1571 25.6259 22.6119 25.5575 22.4983C25.4891 22.3847 25.3067 22.3165 25.0331 22.1802ZM20.0424 28.9638H20.0387C18.4056 28.9632 16.8037 28.5265 15.4063 27.7012L15.0739 27.5049L11.6292 28.4042L12.5486 25.0616L12.3322 24.7189C11.4212 23.2766 10.94 21.6098 10.9407 19.8982C10.9427 14.9038 15.0256 10.8406 20.046 10.8406C22.477 10.8414 24.7622 11.7849 26.4807 13.4971C28.199 15.2092 29.1448 17.4852 29.1439 19.9055C29.1419 24.9002 25.0589 28.9638 20.0424 28.9638ZM27.7885 12.1961C25.7211 10.1361 22.9716 9.00115 20.0423 9C14.0065 9 9.0942 13.8887 9.09178 19.8975C9.09099 21.8184 9.59521 23.6932 10.5535 25.3461L9 30.9935L14.805 29.4779C16.4044 30.3462 18.2052 30.8038 20.0379 30.8045H20.0424H20.0424C26.0775 30.8045 30.9903 25.9153 30.9928 19.9063C30.9939 16.9943 29.8559 14.2561 27.7885 12.1961Z" fill="white"/>
</g>
</svg>
