<svg width="46" height="48" viewBox="0 0 46 48" fill="none" xmlns="http://www.w3.org/2000/svg">
<path fill-rule="evenodd" clip-rule="evenodd" d="M7 39H11V23H7V39Z" stroke="#FF4E2C" stroke-width="2" stroke-linecap="round" stroke-linejoin="round"/>
<path fill-rule="evenodd" clip-rule="evenodd" d="M13 43H5V41C5 39.896 5.896 39 7 39H11C12.104 39 13 39.896 13 41V43V43Z" stroke="#17233B" stroke-width="2" stroke-linecap="round" stroke-linejoin="round"/>
<path fill-rule="evenodd" clip-rule="evenodd" d="M21 39H25V23H21V39Z" stroke="#FF4E2C" stroke-width="2" stroke-linecap="round" stroke-linejoin="round"/>
<path fill-rule="evenodd" clip-rule="evenodd" d="M27 43H19V41C19 39.896 19.896 39 21 39H25C26.104 39 27 39.896 27 41V43V43Z" stroke="#17233B" stroke-width="2" stroke-linecap="round" stroke-linejoin="round"/>
<path fill-rule="evenodd" clip-rule="evenodd" d="M35 39H39V23H35V39Z" stroke="#FF4E2C" stroke-width="2" stroke-linecap="round" stroke-linejoin="round"/>
<path fill-rule="evenodd" clip-rule="evenodd" d="M41 43H33V41C33 39.896 33.896 39 35 39H39C40.104 39 41 39.896 41 41V43V43Z" stroke="#17233B" stroke-width="2" stroke-linecap="round" stroke-linejoin="round"/>
<path fill-rule="evenodd" clip-rule="evenodd" d="M43 43H3C1.896 43 1 43.896 1 45V47H45V45C45 43.896 44.104 43 43 43V43Z" stroke="#17233B" stroke-width="2" stroke-linecap="round" stroke-linejoin="round"/>
<path fill-rule="evenodd" clip-rule="evenodd" d="M33 19H41V21C41 22.104 40.104 23 39 23H35C33.896 23 33 22.104 33 21V19V19Z" stroke="#17233B" stroke-width="2" stroke-linecap="round" stroke-linejoin="round"/>
<path fill-rule="evenodd" clip-rule="evenodd" d="M19 19H27V21C27 22.104 26.104 23 25 23H21C19.896 23 19 22.104 19 21V19V19Z" stroke="#17233B" stroke-width="2" stroke-linecap="round" stroke-linejoin="round"/>
<path fill-rule="evenodd" clip-rule="evenodd" d="M5 19H13V21C13 22.104 12.104 23 11 23H7C5.896 23 5 22.104 5 21V19V19Z" stroke="#17233B" stroke-width="2" stroke-linecap="round" stroke-linejoin="round"/>
<path fill-rule="evenodd" clip-rule="evenodd" d="M23 1L1 15H45L23 1V1Z" stroke="#17233B" stroke-width="2" stroke-linecap="round" stroke-linejoin="round"/>
<path fill-rule="evenodd" clip-rule="evenodd" d="M3 19H43V15H3V19Z" stroke="#17233B" stroke-width="2" stroke-linecap="round" stroke-linejoin="round"/>
<path fill-rule="evenodd" clip-rule="evenodd" d="M23 7L17 11H29L23 7V7Z" stroke="#17233B" stroke-width="2" stroke-linecap="round" stroke-linejoin="round"/>
</svg>
