<svg width="136" height="34" viewBox="0 0 136 34" fill="none" xmlns="http://www.w3.org/2000/svg">
<path d="M52.1426 4.84912C53.9339 4.84912 55.836 5.44751 57.1415 6.73367L55.63 9.19524C54.7713 8.44919 53.4851 7.83525 52.2922 7.83525C49.6247 7.83525 48.5251 9.7198 48.5251 11.6393C48.5251 13.6171 49.718 15.6493 52.2922 15.6493C53.6153 15.6493 54.9228 14.9208 55.836 14.0076L57.5146 16.3954C57.3358 16.5799 57.1435 16.7587 56.9375 16.9316C55.7893 17.8952 54.2137 18.6316 52.1426 18.6316C47.8529 18.6316 45.1484 15.6668 45.1484 11.7132C45.1484 7.83331 48.0219 4.84912 52.1426 4.84912Z" fill="#2D3540"/>
<path d="M64.7814 4.84912C68.9216 4.84912 71.7562 7.83331 71.7562 11.6568C71.7562 15.5736 68.9216 18.6316 64.7814 18.6316C60.6412 18.6316 57.8066 15.5736 57.8066 11.6568C57.8047 7.83331 60.6393 4.84912 64.7814 4.84912ZM64.7814 15.6474C66.8894 15.6474 68.3815 13.9319 68.3815 11.6568C68.3815 9.47501 66.8894 7.83331 64.7814 7.83331C62.6734 7.83331 61.1813 9.47501 61.1813 11.6568C61.1813 13.9319 62.6734 15.6474 64.7814 15.6474Z" fill="#2D3540"/>
<path d="M73.543 5.07227H76.8438L80.5372 11.301C81.0598 12.1772 81.6562 13.576 81.6562 13.576H81.6932C81.6932 13.576 81.5436 12.1403 81.5436 11.301V5.07227H84.8075V18.4079H81.5241L77.8133 12.1966C77.2907 11.3204 76.6942 9.92158 76.6942 9.92158H76.6573C76.6573 9.92158 76.8069 11.3573 76.8069 12.1966V18.4079H73.543V5.07227Z" fill="#2D3540"/>
<path d="M90.8575 7.86995H86.8105V5.07227H98.1684V7.86995H94.1214V18.4079H90.8575V7.86995Z" fill="#2D3540"/>
<path d="M102.32 5.07227H105.751L110.283 18.4079H106.926L106.106 15.6102H101.947L101.144 18.4079H97.7871L102.32 5.07227ZM105.341 12.999L104.595 10.4073C104.352 9.56798 104.055 8.1128 104.055 8.1128H104.018C104.018 8.1128 103.719 9.56798 103.478 10.4073L102.712 12.999H105.341Z" fill="#2D3540"/>
<path d="M117.789 4.84888C119.58 4.84888 121.482 5.44727 122.788 6.73343L121.277 9.19499C120.418 8.44895 119.132 7.83501 117.939 7.83501C115.271 7.83501 114.172 9.71956 114.172 11.6391C114.172 13.6169 115.364 15.6491 117.939 15.6491C119.262 15.6491 120.569 14.9205 121.482 14.0074L123.161 16.3951C121.986 17.6075 120.233 18.6333 117.789 18.6333C113.499 18.6333 110.795 15.6685 110.795 11.7149C110.795 7.83307 113.666 4.84888 117.789 4.84888Z" fill="#2D3540"/>
<path d="M128.689 7.86995H124.643V5.07227H136V7.86995H131.953V18.4079H128.689V7.86995Z" fill="#2D3540"/>
<path d="M33.2652 12.0645C32.9135 10.7492 31.5613 9.96625 30.246 10.3179C28.9307 10.6696 28.1478 12.0218 28.4994 13.3371C28.7695 14.3435 28.9055 15.3887 28.9055 16.4437C28.9055 23.0532 23.5297 28.429 16.9201 28.429C16.2945 28.429 15.6787 28.3804 15.0783 28.2872C17.8644 27.6499 19.9451 25.1611 19.9451 22.1828C19.9451 18.7226 17.1397 15.9152 13.6775 15.9152C10.2174 15.9152 7.40997 18.7207 7.40997 22.1828C7.40997 22.8569 7.51877 23.5039 7.71499 24.1101C5.98004 22.0312 4.93285 19.356 4.93285 16.4417C4.93285 11.0037 8.59898 6.23795 13.8485 4.85271C15.1658 4.50495 15.9507 3.15468 15.6029 1.83744C15.2551 0.520196 13.9049 -0.266652 12.5876 0.0830577C5.17571 2.04143 0 8.76752 0 16.4417C0 25.7712 7.59065 33.3599 16.9182 33.3599C26.2477 33.3599 33.8364 25.7712 33.8364 16.4417C33.8383 14.9613 33.646 13.4886 33.2652 12.0645Z" fill="#F58A1F"/>
<path d="M27.4892 5.72946C27.7115 3.484 26.0715 1.48344 23.826 1.26109C21.5806 1.03873 19.58 2.67877 19.3577 4.92423C19.1353 7.16969 20.7754 9.17025 23.0208 9.3926C25.2663 9.61496 27.2668 7.97491 27.4892 5.72946Z" fill="#F58A1F"/>
<path d="M45.9961 29.8795V23.9946H49.6098V24.9155H47.0647V26.2755H48.242C48.7899 26.2755 49.2329 26.4407 49.5728 26.769C49.9128 27.0973 50.0819 27.5384 50.0819 28.0921C50.0819 28.6225 49.9128 29.0538 49.5767 29.386C49.2387 29.7182 48.8035 29.8834 48.2673 29.8834H45.9961V29.8795ZM47.0666 28.9586H48.0788C48.3722 28.9586 48.5975 28.8809 48.7588 28.7274C48.9181 28.5719 48.9997 28.3602 48.9997 28.0882C48.9997 27.8181 48.9162 27.6005 48.751 27.4373C48.5859 27.2741 48.3566 27.1925 48.0633 27.1925H47.0685V28.9586H47.0666Z" fill="#2D3540"/>
<path d="M50.9102 29.8802V25.6526H51.9632V27.1039H52.717C53.2202 27.1039 53.6107 27.2243 53.8905 27.4653C54.1702 27.7062 54.3082 28.052 54.3082 28.5047C54.3082 28.9301 54.1761 29.2663 53.9099 29.5111C53.6437 29.7578 53.2435 29.8802 52.7073 29.8802H50.9102ZM51.9612 29.1594H52.5421C52.7733 29.1594 52.9501 29.0992 53.0686 28.9768C53.1872 28.8544 53.2474 28.6951 53.2474 28.4969C53.2474 28.2929 53.1872 28.1278 53.0648 28.0034C52.9424 27.8791 52.7636 27.8169 52.5266 27.8169H51.9632V29.1594H51.9612ZM54.8891 29.8802V25.6526H55.9421V29.8802H54.8891Z" fill="#2D3540"/>
<path d="M58.059 29.8802V26.5482H56.666V25.6526H60.5051V26.5482H59.1043V29.8802H58.059Z" fill="#2D3540"/>
<path d="M61.2168 29.8802V25.6526H62.2698V27.1039H63.0567C63.5599 27.1039 63.9504 27.2243 64.2301 27.4653C64.5099 27.7062 64.6478 28.052 64.6478 28.5047C64.6478 28.9301 64.5157 29.2663 64.2496 29.5111C63.9834 29.7578 63.5832 29.8802 63.0469 29.8802H61.2168ZM62.2698 29.1594H62.8837C63.1149 29.1594 63.2917 29.0992 63.4103 28.9768C63.5288 28.8544 63.589 28.6951 63.589 28.4969C63.589 28.2929 63.5288 28.1278 63.4064 28.0034C63.284 27.8791 63.1052 27.8169 62.8682 27.8169H62.2718V29.1594H62.2698Z" fill="#2D3540"/>
<path d="M67.3086 27.4108C67.3086 26.6045 67.466 25.9595 67.7807 25.4796C68.0954 24.9997 68.6317 24.6112 69.3894 24.3197L70.8484 23.7485L71.1632 24.6014L69.5545 25.2154C69.1679 25.3766 68.8706 25.567 68.6627 25.7866C68.4549 26.008 68.3402 26.2898 68.3189 26.6317H68.3364C68.6627 26.2237 69.1271 26.0178 69.7294 26.0178C70.2714 26.0178 70.7066 26.1946 71.0388 26.5482C71.3711 26.9018 71.5362 27.3719 71.5362 27.9567C71.5362 28.5473 71.3458 29.033 70.965 29.4119C70.5842 29.7907 70.083 29.9792 69.4651 29.9792C68.7579 29.9792 68.2217 29.7461 67.8565 29.2778C67.4912 28.8116 67.3086 28.1899 67.3086 27.4108ZM68.3791 27.9645C68.3791 28.3123 68.4782 28.5901 68.6783 28.798C68.8784 29.0058 69.1251 29.1088 69.4243 29.1088C69.7235 29.1088 69.9722 29.0058 70.1743 28.8018C70.3763 28.5978 70.4774 28.322 70.4774 27.9723C70.4774 27.6245 70.3783 27.3467 70.1782 27.1388C69.978 26.9309 69.7332 26.8279 69.4399 26.8279C69.1368 26.8279 68.8823 26.9348 68.6822 27.1465C68.4801 27.3622 68.3791 27.6342 68.3791 27.9645Z" fill="#2D3540"/>
<path d="M71.9629 29.9203V28.9916C72.2504 28.9527 72.47 28.7837 72.6215 28.4826C72.7731 28.1814 72.8488 27.6802 72.8488 26.9788V25.6519H75.9321V29.8795H74.8791V26.5048H73.8513V26.9769C73.8513 27.9386 73.7056 28.6632 73.4122 29.1528C73.1208 29.6424 72.6371 29.8989 71.9629 29.9203Z" fill="#2D3540"/>
<path d="M77.0586 29.8795V25.6519H78.0611V27.9153C78.0611 28.1193 78.0533 28.2883 78.0358 28.4204H78.0533C78.0747 28.3699 78.1796 28.2028 78.3681 27.9153L79.934 25.6519H80.954V29.8795H79.9515V27.6238C79.9515 27.5014 79.9592 27.3343 79.9767 27.1187H79.9592C79.9418 27.1576 79.8368 27.3266 79.6445 27.6238L78.0786 29.8795H77.0586Z" fill="#2D3540"/>
<path d="M81.627 29.8802L82.9209 27.7081V27.6906L81.7358 25.6506H82.8296L83.766 27.2923H84.2809V25.6506H85.2678V27.2923H85.7827L86.7191 25.6506H87.8129L86.6356 27.6906V27.7081L87.9295 29.8802H86.7657L85.7963 28.1802H85.2659V29.8802H84.2789V28.1802H83.7485L82.779 29.8802H81.627Z" fill="#2D3540"/>
<path d="M88.1992 27.7656C88.1992 27.1128 88.3993 26.5824 88.7996 26.1706C89.1998 25.7587 89.7185 25.5527 90.3538 25.5527C90.9386 25.5527 91.3991 25.7412 91.7294 26.12C92.0616 26.4989 92.2267 26.9788 92.2267 27.5577C92.2267 27.651 92.2151 27.787 92.1937 27.9638H89.2833C89.3164 28.3174 89.4523 28.5933 89.6894 28.7895C89.9264 28.9857 90.2139 29.0829 90.552 29.0829C90.9716 29.0829 91.3758 28.9274 91.7624 28.6185L92.1762 29.3723C91.9664 29.5608 91.708 29.7085 91.401 29.8153C91.094 29.9222 90.7871 29.9766 90.4762 29.9766C89.7962 29.9766 89.2464 29.7629 88.8268 29.3335C88.411 28.908 88.1992 28.3854 88.1992 27.7656ZM89.3105 27.243H91.1756C91.1698 26.9671 91.0882 26.7476 90.9308 26.5883C90.7735 26.429 90.5734 26.3474 90.3305 26.3474C90.0643 26.3474 89.8409 26.429 89.6583 26.5922C89.4776 26.7553 89.361 26.9729 89.3105 27.243Z" fill="#2D3540"/>
</svg>
