<svg width="59" height="36" viewBox="0 0 59 36" fill="none" xmlns="http://www.w3.org/2000/svg">
<path d="M36.997 32.1508H21.248V3.8479H36.997V32.1508Z" fill="#6C6BBD"/>
<path d="M22.2468 18C22.2468 12.2586 24.935 7.14439 29.1211 3.84856C26.0599 1.43849 22.1965 0 17.9977 0C8.0576 0 0 8.05875 0 18C0 27.9413 8.0576 36 17.9977 36C22.1965 36 26.0599 34.5615 29.1211 32.1514C24.935 28.8556 22.2468 23.7414 22.2468 18Z" fill="#D32011"/>
<path d="M58.2434 18C58.2434 27.9413 50.1858 36 40.2456 36C36.0469 36 32.1835 34.5615 29.1211 32.1514C33.3084 28.8556 35.9965 23.7414 35.9965 18C35.9965 12.2586 33.3084 7.14439 29.1211 3.84856C32.1835 1.43849 36.0469 0 40.2456 0C50.1858 0 58.2434 8.05875 58.2434 18Z" fill="#0099DF"/>
</svg>
