<svg width="100" height="32" viewBox="0 0 100 32" fill="none" xmlns="http://www.w3.org/2000/svg">
<path d="M37.5931 0.550143L24.6189 31.4957H16.1834L9.81089 6.83095C9.44413 5.31805 9.07736 4.76791 7.93123 4.12607C5.95989 3.07163 2.79656 2.06304 0 1.46705L0.183381 0.550143H13.7994C15.5415 0.550143 17.1003 1.69628 17.467 3.71347L20.8596 21.5931L29.2034 0.550143H37.5931ZM70.7393 21.4097C70.7851 13.2493 59.4613 12.7908 59.5072 9.16905C59.553 8.06877 60.6074 6.87679 62.8997 6.55587C64.0458 6.41834 67.2092 6.2808 70.7851 7.93123L72.2063 1.37536C70.2808 0.687679 67.8052 0 64.7335 0C56.8481 0 51.255 4.21776 51.2092 10.2235C51.1633 14.6705 55.1977 17.1461 58.2235 18.659C61.341 20.1719 62.3954 21.1347 62.3954 22.51C62.3496 24.5731 59.9198 25.49 57.6275 25.5358C53.5931 25.5817 51.255 24.4355 49.4212 23.5645L47.9542 30.3496C49.8338 31.2206 53.2722 31.9542 56.8481 32C65.2378 32 70.6934 27.8281 70.7393 21.4097ZM91.6447 31.4957H99.0258L92.5616 0.550143H85.7307C84.1719 0.550143 82.8883 1.4212 82.3381 2.79656L70.3266 31.4499H78.7163L80.3668 26.8195H90.6361L91.6447 31.4957ZM82.7049 20.5387L86.9226 8.93983L89.3524 20.5387H82.7049ZM49.0086 0.550143L42.4069 31.4957H34.4298L41.0315 0.550143H49.0086Z" fill="url(#paint0_linear)"/>
<defs>
<linearGradient id="paint0_linear" x1="0" y1="15.9904" x2="99.0258" y2="15.9904" gradientUnits="userSpaceOnUse">
<stop stop-color="#24215B"/>
<stop offset="1" stop-color="#0C509F"/>
</linearGradient>
</defs>
</svg>
