<svg width="59" height="36" viewBox="0 0 59 36" fill="none" xmlns="http://www.w3.org/2000/svg">
<path d="M37 3.85034H21.25V32.1503H37V3.85034Z" fill="#FF5F00"/>
<path d="M22.25 18C22.25 12.25 24.95 7.15 29.1 3.85C26.05 1.45 22.2 0 18 0C8.05 0 0 8.05 0 18C0 27.95 8.05 36 18 36C22.2 36 26.05 34.55 29.1 32.15C24.95 28.9 22.25 23.75 22.25 18Z" fill="#EB001B"/>
<path d="M58.2504 18C58.2504 27.95 50.2004 36 40.2504 36C36.0504 36 32.2004 34.55 29.1504 32.15C33.3504 28.85 36.0004 23.75 36.0004 18C36.0004 12.25 33.3004 7.15 29.1504 3.85C32.2004 1.45 36.0504 0 40.2504 0C50.2004 0 58.2504 8.1 58.2504 18Z" fill="#F79E1B"/>
</svg>
