<svg width="103" height="46" viewBox="0 0 103 46" fill="none" xmlns="http://www.w3.org/2000/svg">
<path d="M50.1641 26.0771H51.7694V29.675H52.9292L55.0105 26.0771H56.7656L54.2675 30.2997V30.3293L56.9144 34.9373H55.1002L52.9588 31.0714H51.7999V34.9373H50.1936V26.0762H50.1641V26.0771ZM60.5123 28.4264C62.4438 28.4264 64.0205 29.8238 64.0205 31.7563C64.0205 33.7193 62.4743 35.0871 60.5418 35.0871C58.6084 35.0871 57.0622 33.7193 57.0622 31.7563C57.0327 29.7942 58.5788 28.4264 60.5123 28.4264ZM65.2691 28.5743H66.7857V33.5705H68.7782V28.5752H70.2939V33.5705H72.2865V28.5752H73.8031V34.9373H65.3282V28.5743H65.2691ZM78.2937 28.4264C80.107 28.4264 81.1181 29.7646 81.1181 31.43C81.1131 31.6391 81.0933 31.8476 81.0589 32.0539H76.6875C76.7771 33.1536 77.6394 33.7488 78.5913 33.7488C79.2447 33.7488 79.8991 33.4512 80.4046 33.0649L81.0294 34.1952C80.375 34.759 79.3935 35.1166 78.4721 35.1166C76.3603 35.1166 75.0526 33.6 75.0526 31.7858C75.0526 29.7942 76.3899 28.4264 78.2937 28.4264ZM81.8611 33.6C82.6347 33.4808 83.1994 32.8274 83.1994 30.5668V28.5752H87.8388V34.9373H86.2621V29.8524H84.716V30.5659C84.716 33.3311 83.9729 34.9373 81.8611 34.9965V33.5991V33.6ZM92.3581 28.4264C94.1714 28.4264 95.1824 29.7646 95.1824 31.43C95.1775 31.6391 95.1577 31.8476 95.1233 32.0539H90.7519C90.8415 33.1536 91.7038 33.7488 92.6557 33.7488C93.3091 33.7488 93.9634 33.4512 94.469 33.0649L95.0937 34.1952C94.4394 34.759 93.4579 35.1166 92.5365 35.1166C90.4256 35.1166 89.117 33.6 89.117 31.7858C89.117 29.7942 90.4552 28.4264 92.3581 28.4264ZM96.4911 28.5743H98.0669V31.0132H98.8404L100.387 28.5752H102.141L100.119 31.6075V31.638L102.378 34.9373H100.535L98.87 32.3514H98.0382V34.9373H96.4606V28.5743H96.4902H96.4911ZM60.5123 33.7193C61.5529 33.7193 62.4152 32.9161 62.4152 31.7267C62.4152 30.5668 61.5529 29.7341 60.5113 29.7341C59.4716 29.7341 58.6389 30.5382 58.6389 31.7267C58.6389 32.9161 59.4707 33.7193 60.5123 33.7193ZM79.5128 30.9541C79.5128 30.1214 78.9471 29.6158 78.2337 29.6158C77.4315 29.6158 76.8363 30.1509 76.6875 30.9541H79.5128ZM93.5771 30.9541C93.5771 30.1214 93.0124 29.6158 92.299 29.6158C91.4949 29.6158 90.9007 30.1509 90.7519 30.9541H93.5771Z" fill="#2D3540"/>
<path d="M72.3745 6.77896V21.7952C72.3758 21.8502 72.3659 21.9049 72.3454 21.9559C72.325 22.0069 72.2944 22.0533 72.2555 22.0921C72.2166 22.131 72.1703 22.1616 72.1192 22.1821C72.0682 22.2025 72.0136 22.2124 71.9586 22.2111H68.8958C68.8409 22.2124 68.7862 22.2025 68.7352 22.1821C68.6842 22.1616 68.6378 22.131 68.5989 22.0921C68.5601 22.0533 68.5295 22.0069 68.509 21.9559C68.4886 21.9049 68.4787 21.8502 68.4799 21.7952V6.77896C68.4787 6.724 68.4886 6.66935 68.509 6.61832C68.5295 6.56729 68.5601 6.52094 68.5989 6.48207C68.6378 6.44319 68.6842 6.41261 68.7352 6.39215C68.7862 6.3717 68.8409 6.36181 68.8958 6.36307H71.9586C72.0136 6.36181 72.0682 6.3717 72.1192 6.39215C72.1703 6.41261 72.2166 6.44319 72.2555 6.48207C72.2944 6.52094 72.325 6.56729 72.3454 6.61832C72.3659 6.66935 72.3758 6.724 72.3745 6.77896ZM96.2815 6.36307C96.4007 6.36307 96.5496 6.42222 96.6974 6.54144C96.7871 6.63016 96.7871 6.77896 96.7575 6.89818L91.7021 21.944C91.6715 22.0219 91.6184 22.0889 91.5496 22.1366C91.4809 22.1843 91.3995 22.2106 91.3158 22.2121H88.5802C88.4019 22.2121 88.2531 22.1224 88.1939 21.944L85.2485 13.1725L82.305 21.9431C82.2743 22.021 82.2212 22.088 82.1524 22.1357C82.0837 22.1834 82.0023 22.2097 81.9186 22.2111H79.183C79.0047 22.2111 78.8559 22.1224 78.7967 21.9431L73.7414 6.89725C73.7118 6.77896 73.7118 6.65974 73.8005 6.54144C73.8606 6.42222 74.0094 6.36307 74.1277 6.36307H77.5472C77.7256 6.36307 77.8744 6.48137 77.9344 6.65974L80.6396 15.5505L83.6136 6.65974C83.6443 6.58188 83.6974 6.51486 83.7661 6.46716C83.8349 6.41945 83.9163 6.3932 83.9999 6.39172H86.4084C86.5867 6.39172 86.7355 6.48137 86.7947 6.65974L89.7687 15.5505L92.4748 6.65974C92.499 6.57551 92.5496 6.50127 92.6192 6.44788C92.6887 6.3945 92.7735 6.36478 92.8611 6.36307H96.2806H96.2815ZM101.455 6.36307C101.663 6.36307 101.841 6.54144 101.871 6.77896V21.7952C101.872 21.8502 101.862 21.9049 101.842 21.9559C101.822 22.0069 101.791 22.0533 101.752 22.0921C101.713 22.131 101.667 22.1616 101.616 22.1821C101.565 22.2025 101.51 22.2124 101.455 22.2111H98.3924C98.3374 22.2124 98.2828 22.2025 98.2318 22.1821C98.1807 22.1616 98.1344 22.131 98.0955 22.0921C98.0566 22.0533 98.026 22.0069 98.0056 21.9559C97.9851 21.9049 97.9752 21.8502 97.9765 21.7952V6.77896C97.9752 6.724 97.9851 6.66935 98.0056 6.61832C98.026 6.56729 98.0566 6.52094 98.0955 6.48207C98.1344 6.44319 98.1807 6.41261 98.2318 6.39215C98.2828 6.3717 98.3374 6.36181 98.3924 6.36307H101.455ZM66.6953 21.677C66.8737 21.8849 66.7249 22.1816 66.4569 22.1816H62.7102C62.6364 22.1836 62.5632 22.1685 62.4962 22.1376C62.4292 22.1066 62.3702 22.0606 62.3239 22.0032L61.7001 21.2306C60.3914 22.0623 58.8443 22.5688 57.2094 22.5688C52.631 22.5688 48.9139 18.8517 48.9139 14.2723C48.9139 9.69294 52.631 5.97583 57.2094 5.97583C61.7888 5.97583 65.5059 9.69294 65.5059 14.2723C65.5059 15.9081 65.0299 17.4543 64.1972 18.762L66.6953 21.676V21.677ZM35.3837 28.9614C36.1572 29.259 36.4548 30.418 36.514 30.9235C36.6332 31.8458 36.3661 32.2026 36.0685 32.2026C35.7709 32.2026 35.3541 31.8458 34.9086 31.1324C34.4622 30.418 34.2839 29.6158 34.5223 29.199C34.6702 28.9309 34.9973 28.8126 35.3846 28.9614H35.3837ZM30.8644 32.3218C31.3403 32.3218 31.8754 32.5298 32.3514 32.9456C33.2728 33.7192 33.5408 34.611 33.0649 35.2654C32.7968 35.5925 32.3514 35.8005 31.8459 35.8005C31.3403 35.8005 30.8052 35.6221 30.4485 35.2949C29.6158 34.5815 29.3783 33.3911 29.9124 32.7377C30.1213 32.4697 30.4485 32.3218 30.8644 32.3218ZM20.4579 40.915C9.15783 40.915 0 31.7562 0 20.457C0 9.15783 9.15876 0 20.457 0C31.7562 0 40.915 9.15875 40.915 20.457C40.915 24.2924 39.8447 27.8912 38.0315 30.954C37.9714 31.0427 37.8226 31.0132 37.793 30.8939C37.0796 25.8691 34.0168 23.103 29.5566 22.2712C29.1694 22.2111 29.1102 21.9736 29.6158 21.9145C30.9836 21.7952 32.9161 21.8248 33.9271 22.0032C33.9863 21.4977 34.0168 20.9626 34.0168 20.4274C34.0168 12.9637 27.9504 6.89725 20.4866 6.89725C13.0237 6.89725 6.95733 12.9637 6.95733 20.4274C6.95733 27.8912 13.0237 33.9576 20.4875 33.9576H21.1113C20.8994 32.7504 20.8096 31.5249 20.8433 30.2997C20.8738 29.467 21.0522 29.3478 21.4089 30.0021C23.2823 33.2432 25.9587 36.1572 31.1915 37.3171C35.4733 38.269 39.7551 39.3688 44.364 45.2263C44.7799 45.7319 44.1561 46.267 43.6801 45.8511C38.9825 41.6876 34.7007 40.3198 30.8052 40.3198C26.4338 40.3503 23.4606 40.915 20.457 40.915H20.4579ZM59.2611 18.3462L57.6253 16.3536C57.4478 16.1457 57.5966 15.8185 57.8637 15.8185H61.3128C61.4912 15.3425 61.5808 14.8074 61.5808 14.2723C61.5808 11.8047 59.7371 9.66336 57.2094 9.66336C54.6827 9.66336 52.838 11.8047 52.838 14.2723C52.838 16.7399 54.6827 18.8517 57.2094 18.8517C57.9229 18.8813 58.6373 18.6733 59.2611 18.3462Z" fill="#FF8C00"/>
</svg>
