<svg width="150" height="29" viewBox="0 0 150 29" fill="none" xmlns="http://www.w3.org/2000/svg">
<path d="M7.22299 15.0958L3.04915 24.4807H0L4.58622 14.446C3.51152 13.8961 2.64926 13.0963 1.98695 12.0341C1.32463 10.9719 0.999721 9.53484 0.999721 7.69785C0.999721 6.42321 1.18717 5.29852 1.56206 4.32379C1.93696 3.34906 2.44932 2.54929 3.09914 1.91197C3.74895 1.27464 4.51124 0.78728 5.3735 0.474867C6.23576 0.149958 7.1605 0 8.11024 0H12.0466V24.4932H9.40988V15.1083H7.22299V15.0958ZM9.40988 2.18689H8.01027C7.48541 2.18689 6.97306 2.28686 6.4732 2.47431C5.97333 2.67425 5.52346 2.97417 5.13607 3.39905C4.74868 3.82393 4.43626 4.38628 4.19883 5.08608C3.9614 5.78588 3.83643 6.64814 3.83643 7.68535C3.83643 8.67258 3.9489 9.49735 4.16134 10.1597C4.37378 10.822 4.6737 11.3593 5.04859 11.7717C5.42349 12.1841 5.87336 12.4715 6.38572 12.6465C6.89808 12.8214 7.43543 12.9089 8.01027 12.9089H9.40988V2.18689Z" fill="#EE2E24"/>
<path d="M24.7576 7.22405V24.4817H22.1208V16.7464H18.1469V24.4817H15.4727V7.22405H18.1469V14.5595H22.1208V7.22405H24.7576ZM38.4912 27.8683H36.0919V24.4817H28.694V27.8683H26.2946V22.2823H27.3568C27.7442 21.3701 28.0566 20.3579 28.2816 19.2457C28.5065 18.1335 28.6815 16.9963 28.8064 15.8217C28.9314 14.647 29.0064 13.4473 29.0439 12.2227C29.0814 10.998 29.0939 9.82333 29.0939 8.67365V7.22405H37.1041V22.2948H38.4787V27.8683H38.4912ZM34.4799 9.41094H31.5057V9.72335C31.5057 10.6356 31.4932 11.6353 31.4557 12.71C31.4182 13.7972 31.3432 14.8969 31.2308 16.0091C31.1183 17.1213 30.9558 18.221 30.7559 19.3082C30.556 20.3954 30.2685 21.3826 29.8936 22.2948H34.4799V9.41094ZM50.1005 23.3196C49.5507 23.7569 48.9258 24.0943 48.2135 24.3443C47.5012 24.5942 46.7139 24.7192 45.8517 24.7192C44.0647 24.7192 42.6651 24.0319 41.6404 22.6447C40.6156 21.2576 40.1033 19.2332 40.1033 16.5714C40.1033 15.1843 40.2033 13.8972 40.3907 12.735C40.5907 11.5728 40.8906 10.5606 41.3155 9.69836C41.7403 8.8361 42.2777 8.17379 42.94 7.69892C43.6023 7.22405 44.3896 6.97412 45.3018 6.97412C46.0141 6.97412 46.664 7.11158 47.2513 7.399C47.8386 7.68642 48.351 8.14879 48.7634 8.78612C49.1758 9.42344 49.4882 10.2482 49.7256 11.2729C49.9505 12.2851 50.063 13.5223 50.063 14.9844V16.459H42.865C42.865 18.4209 43.1274 19.908 43.6648 20.9077C44.2021 21.9075 45.0019 22.4198 46.0766 22.4198C46.8264 22.4198 47.5012 22.2948 48.0761 22.0199C48.6634 21.7575 49.1258 21.4951 49.4632 21.2451L50.1005 23.3196ZM45.3018 9.17351C44.4771 9.17351 43.9022 9.63588 43.5523 10.5606C43.2024 11.4854 42.99 12.7225 42.9025 14.2721H47.3263C47.3263 13.5473 47.2888 12.86 47.2263 12.2352C47.1638 11.6103 47.0513 11.0605 46.9014 10.6106C46.7514 10.1482 46.5515 9.79833 46.2891 9.5484C46.0266 9.29847 45.6892 9.17351 45.3018 9.17351ZM55.474 15.8841V24.4817H52.7997V7.22405H55.474V15.2093L59.6228 7.22405H62.3346L58.0483 15.3468L62.9469 24.4942H60.0352L55.474 15.8841ZM69.2077 24.7192C67.3582 24.7192 65.9086 23.9819 64.8589 22.5073C63.8092 21.0327 63.2843 18.8083 63.2843 15.8466C63.2843 14.497 63.4093 13.2724 63.6842 12.1852C63.9466 11.0855 64.334 10.1607 64.8464 9.39844C65.3587 8.63616 65.9961 8.03632 66.7584 7.61144C67.5206 7.18656 68.4079 6.97412 69.4076 6.97412C70.1824 6.97412 70.8072 7.0616 71.2946 7.23655C71.7695 7.4115 72.2068 7.62394 72.5942 7.87387L72.2193 10.4107C71.8569 10.0858 71.4196 9.79833 70.9322 9.5484C70.4448 9.29847 69.92 9.17351 69.3701 9.17351C68.4079 9.17351 67.6206 9.71086 67.0083 10.7981C66.396 11.8728 66.0835 13.5223 66.0835 15.7217C66.0835 17.8961 66.346 19.5831 66.8583 20.7703C67.3707 21.9574 68.183 22.5448 69.2702 22.5448C69.9325 22.5448 70.5073 22.4323 70.9822 22.2074C71.457 21.9824 71.8569 21.7325 72.1818 21.4451L72.7942 23.432C72.3318 23.8194 71.8194 24.1318 71.2571 24.3693C70.6948 24.6067 70.0075 24.7192 69.2077 24.7192Z" fill="black"/>
<path d="M90.9654 24.4804H80.4808L80.2434 28.5542H78.9062V23.1183H79.631C80.2184 22.6184 80.6808 21.7186 81.0057 20.444C81.3306 19.1694 81.5805 17.6448 81.7555 15.8828C81.9429 14.0583 82.0679 11.8089 82.1303 9.14716C82.1928 6.4854 82.2553 3.43625 82.3053 0.012207H90.8654V23.1308H92.5399V28.5792H91.2028L90.9654 24.4804ZM89.1409 1.36183H83.8299C83.7799 4.49846 83.7174 7.26018 83.6299 9.62203C83.5425 11.9964 83.43 14.0708 83.2925 15.8578C83.1301 17.7198 82.9051 19.2443 82.6302 20.444C82.3428 21.6437 81.9679 22.5309 81.518 23.1058H89.1534V1.36183H89.1409Z" fill="black"/>
<path d="M95.8199 16.1203C95.8699 18.5071 96.1948 20.3191 96.8071 21.5687C97.4194 22.8184 98.3567 23.4432 99.6188 23.4432C100.194 23.4432 100.694 23.3557 101.131 23.1683C101.568 22.9809 101.931 22.7559 102.231 22.506C102.568 22.2561 102.868 21.9311 103.118 21.5687L103.63 22.8684C103.355 23.2558 103.03 23.5932 102.643 23.8556C102.306 24.1055 101.881 24.3305 101.381 24.5179C100.881 24.7054 100.281 24.8053 99.5938 24.8053C97.7693 24.8053 96.4197 24.0181 95.5574 22.4435C94.6952 20.8689 94.2578 18.6696 94.2578 15.8328C94.2578 14.4207 94.3828 13.1586 94.6327 12.0464C94.8826 10.9342 95.2325 9.99698 95.6824 9.22219C96.1323 8.44741 96.6571 7.86007 97.2695 7.46018C97.8818 7.0603 98.5566 6.86035 99.2939 6.86035C100.044 6.86035 100.719 7.0603 101.318 7.44769C101.906 7.83508 102.406 8.42242 102.793 9.1972C103.18 9.97198 103.455 10.9342 103.618 12.0964C103.78 13.2461 103.793 14.5957 103.655 16.1203H95.8199ZM99.2814 8.24746C98.3692 8.24746 97.5819 8.80981 96.9321 9.93449C96.2822 11.0592 95.9198 12.6962 95.8574 14.8581H102.131C102.268 12.5588 102.043 10.8842 101.468 9.83452C100.893 8.78481 100.144 8.24746 99.2814 8.24746Z" fill="black"/>
<path d="M114.182 16.2329H108.296V24.4931H106.684V7.2229H108.296V14.8583H114.182V7.2229H115.794V24.4806H114.182V16.2329Z" fill="black"/>
<path d="M119.596 7.2229H121.208V13.6211H122.47C124.119 13.6211 125.432 14.071 126.406 14.9582C127.394 15.8455 127.881 17.1951 127.881 18.9946C127.881 20.8191 127.369 22.1937 126.344 23.106C125.319 24.0182 123.994 24.4806 122.37 24.4806H119.596V7.2229ZM121.208 14.8958V23.2184H122.232C123.445 23.2184 124.419 22.8935 125.182 22.2437C125.944 21.5939 126.306 20.5317 126.306 19.0446C126.306 17.5825 125.969 16.5328 125.282 15.8705C124.594 15.2207 123.632 14.8958 122.407 14.8958H121.208Z" fill="black"/>
<path d="M132.225 8.58502V24.4806H130.65V7.2229H137.948V8.59752H132.225V8.58502Z" fill="black"/>
<path d="M148.463 12.46C148.463 11.9976 148.475 11.5852 148.5 11.2103C148.525 10.8354 148.563 10.4605 148.6 10.0981H148.5C148.388 10.4855 148.25 10.8604 148.088 11.2103C147.925 11.5602 147.75 11.9351 147.575 12.3225L141.964 24.4816H140.59V7.22392H142.102V19.2081C142.102 19.6705 142.089 20.0828 142.064 20.4702C142.039 20.8576 142.002 21.245 141.964 21.6324H142.064C142.177 21.245 142.314 20.8576 142.477 20.4827C142.639 20.1078 142.802 19.7204 142.989 19.333L148.6 7.21143H150V24.4691H148.463V12.46Z" fill="black"/>
</svg>
