<svg width="24" height="24" viewBox="0 0 24 24" fill="none" xmlns="http://www.w3.org/2000/svg">
<g clip-path="url(#clip0)">
<path d="M23.0433 12.264C23.0433 11.4823 22.9799 10.6963 22.8447 9.92725H11.9976V14.3557H18.2092C17.9515 15.7839 17.1232 17.0474 15.9105 17.8503V20.7237H19.6163C21.7925 18.7207 23.0433 15.7628 23.0433 12.264Z" fill="#4285F4"/>
<path d="M11.9979 23.5C15.0995 23.5 17.7151 22.4816 19.6209 20.7237L15.915 17.8503C14.884 18.5518 13.5529 18.949 12.0021 18.949C9.00192 18.949 6.4581 16.9249 5.54537 14.2036H1.72119V17.1658C3.67342 21.0491 7.64972 23.5 11.9979 23.5Z" fill="#34A853"/>
<path d="M5.54131 14.2036C5.05959 12.7754 5.05959 11.2288 5.54131 9.80053V6.83838H1.72136C0.0902755 10.0879 0.0902755 13.9163 1.72136 17.1658L5.54131 14.2036Z" fill="#FBBC04"/>
<path d="M11.9979 5.05103C13.6374 5.02567 15.222 5.64261 16.4094 6.77507L19.6927 3.49178C17.6137 1.53954 14.8544 0.466238 11.9979 0.500043C7.64972 0.500043 3.67342 2.9509 1.72119 6.83846L5.54114 9.80061C6.44965 7.07509 8.99769 5.05103 11.9979 5.05103Z" fill="#EA4335"/>
</g>
<defs>
<clipPath id="clip0">
<rect width="22.5436" height="23" fill="white" transform="translate(0.5 0.5)"/>
</clipPath>
</defs>
</svg>
