<svg width="120" height="19" viewBox="0 0 120 19" fill="none" xmlns="http://www.w3.org/2000/svg">
<g clip-path="url(#clip0)">
<path d="M77.8754 0.43388H68.1138C68.0053 0.43388 67.9511 0.488111 67.9511 0.596574C67.6799 4.98929 66.8665 9.76163 65.6734 13.612V13.7747C65.7276 13.829 65.7818 13.829 65.8361 13.829H69.1984C69.2526 13.829 69.3611 13.7747 69.3611 13.7205C70.283 10.7378 71.0422 6.83315 71.3134 3.52505H74.513V13.6663C74.513 13.7747 74.5673 13.829 74.6757 13.829H77.8754C77.9838 13.829 78.0381 13.7747 78.0381 13.6663V0.650805C78.0381 0.542343 77.9838 0.43388 77.8754 0.43388ZM119.145 0.43388H115.946C115.837 0.43388 115.783 0.488111 115.783 0.596574V10.6836C115.078 10.9005 114.373 10.9547 113.614 10.9547C111.499 10.9547 111.011 10.3039 111.011 7.48392V0.650805C111.011 0.542343 110.956 0.488111 110.848 0.488111H107.648C107.54 0.488111 107.486 0.542343 107.486 0.650805V7.91777C107.486 12.4732 109.004 14.2628 112.963 14.2628C115.186 14.2628 117.735 13.6663 119.199 13.124C119.254 13.124 119.308 13.0155 119.308 12.9613V0.650805C119.308 0.542343 119.254 0.43388 119.145 0.43388ZM51.6275 0.488111H48.3737C48.2652 0.488111 48.211 0.542343 48.211 0.596574C47.7229 2.60312 46.6925 5.96545 45.2825 9.49047L42.0286 0.542343C42.0286 0.488111 41.9202 0.43388 41.8659 0.43388H38.6121C38.5578 0.43388 38.5036 0.488111 38.4494 0.488111C38.3951 0.542343 38.3951 0.596574 38.4494 0.650805L43.3302 13.9916C42.8421 15.022 42.354 15.8897 41.9202 16.7032C41.5948 17.2997 41.2694 17.8963 40.944 18.5471C40.8898 18.6013 40.944 18.6555 40.944 18.7098C40.9982 18.764 41.0525 18.8182 41.1067 18.8182H44.6317C44.6859 18.8182 44.7402 18.764 44.7944 18.7098C45.3909 17.5709 46.1502 15.944 46.8552 14.317C48.916 9.43624 50.5971 4.88083 51.8444 0.705036C51.8444 0.650805 51.8444 0.596574 51.7902 0.542343C51.736 0.488111 51.6817 0.488111 51.6275 0.488111ZM63.233 10.7378C63.233 10.6836 63.1787 10.6293 63.1245 10.6293H62.9618C62.2026 10.9005 60.7383 11.1716 59.708 11.1716C57.4845 11.1716 56.4541 10.5751 56.4541 7.15853C56.4541 4.44698 56.7795 3.14543 59.708 3.14543C60.5214 3.14543 61.3349 3.2539 62.311 3.57928C62.4195 3.57928 62.4737 3.57928 62.528 3.47082C62.9076 2.76582 63.3414 1.95235 63.8295 0.867729V0.705036C63.8295 0.650805 63.7753 0.596574 63.7211 0.596574C62.4195 0.162725 60.8468 -0.0541992 59.491 -0.0541992C54.8272 -0.0541992 52.7664 2.11504 52.7664 7.05007C52.7664 12.0393 54.8272 14.2628 59.491 14.2628C60.6299 14.2628 62.9618 13.9916 64.0464 13.5578C64.1549 13.5036 64.1549 13.4493 64.1549 13.3409L63.233 10.7378ZM93.5481 0.488111H90.2943C90.2401 0.488111 90.1316 0.542343 90.1316 0.596574C89.6435 2.60312 88.6131 5.96545 87.2031 9.49047L83.9492 0.542343C83.9492 0.488111 83.8408 0.43388 83.7866 0.43388H80.5327C80.4785 0.43388 80.4242 0.488111 80.37 0.488111C80.3158 0.542343 80.3158 0.596574 80.37 0.650805L85.2508 13.9916C84.7627 15.022 84.2746 15.8355 83.8408 16.7032C83.5154 17.2997 83.19 17.8963 82.8646 18.5471C82.8104 18.6013 82.8646 18.6555 82.8646 18.7098C82.9189 18.764 82.9731 18.8182 83.0273 18.8182H86.5523C86.6066 18.8182 86.6608 18.764 86.715 18.7098C87.3116 17.5709 88.0708 15.944 88.7758 14.317C90.8366 9.43624 92.5178 4.88083 93.7108 0.705036C93.7108 0.650805 93.7108 0.596574 93.6566 0.542343C93.6566 0.488111 93.6024 0.488111 93.5481 0.488111ZM105.479 0.43388H96.0428C95.9343 0.43388 95.8801 0.488111 95.8801 0.596574V13.6663C95.8801 13.7747 95.9343 13.829 96.0428 13.829H99.2424C99.3509 13.829 99.4051 13.7747 99.4051 13.6663V3.57928H104.34C104.394 3.57928 104.503 3.52505 104.503 3.47082C104.882 2.60312 105.262 1.62696 105.642 0.705036V0.542343C105.587 0.488111 105.533 0.43388 105.479 0.43388Z" fill="#EE3F58"/>
<path d="M16.9743 11.2801C14.8593 11.2801 14.2085 10.6835 14.2085 7.1585C14.2085 3.36233 14.9135 3.03694 16.9743 3.03694C19.0351 3.03694 19.7943 3.36233 19.7943 7.1585C19.7943 10.7378 19.0893 11.2801 16.9743 11.2801ZM16.9743 0.0542311C12.3647 0.0542311 10.5751 2.00655 10.5751 7.10427C10.5751 12.2562 12.3647 14.2628 16.9743 14.2628C21.584 14.2628 23.4278 12.2562 23.4278 7.10427C23.4278 2.06078 21.584 0.0542311 16.9743 0.0542311ZM36.1179 10.7377C36.1179 10.6835 36.0637 10.6293 36.0094 10.6293H35.8467C35.0875 10.9004 33.6233 11.1716 32.5929 11.1716C30.3694 11.1716 29.339 10.5751 29.339 7.1585C29.339 4.44695 29.6644 3.1454 32.5929 3.1454C33.4063 3.1454 34.2198 3.25386 35.196 3.57925C35.2502 3.57925 35.3587 3.57925 35.4129 3.47079C35.7925 2.76578 36.2263 1.95232 36.7144 0.867697V0.705004C36.7144 0.650773 36.6602 0.596542 36.606 0.596542C35.3587 0.216924 33.786 0 32.4302 0C27.7663 0 25.7055 2.16924 25.7055 7.10427C25.7055 12.0935 27.7663 14.317 32.4302 14.317C33.569 14.317 35.901 14.0458 36.9856 13.612C37.094 13.5578 37.0941 13.5035 37.0941 13.3951L36.1179 10.7377ZM9.5989 0.433848H0.162693C0.0542311 0.433848 0 0.542311 0 0.650773V13.7205C0 13.8289 0.0542311 13.8832 0.162693 13.8832H3.36233C3.47079 13.8832 3.52502 13.8289 3.52502 13.7205V3.57925H8.46005C8.51428 3.57925 8.56851 3.52502 8.62274 3.47079C9.00236 2.60309 9.38197 1.62693 9.76159 0.705004V0.542311C9.70736 0.48808 9.65313 0.433848 9.5989 0.433848Z" fill="#0065B1"/>
</g>
<defs>
<clipPath id="clip0">
<rect width="119.308" height="18.8182" fill="white"/>
</clipPath>
</defs>
</svg>
