<svg width="24" height="24" viewBox="0 0 24 24" fill="none" xmlns="http://www.w3.org/2000/svg">
<path d="M15.4593 12C15.4584 12.9172 15.0936 13.7965 14.4451 14.4451C13.7965 15.0936 12.9172 15.4584 12 15.4593C11.0828 15.4584 10.2035 15.0936 9.55492 14.4451C8.90638 13.7965 8.54161 12.9172 8.54066 12C8.54161 11.0828 8.90638 10.2035 9.55492 9.55492C10.2035 8.90638 11.0828 8.54161 12 8.54066C12.9172 8.54161 13.7965 8.90638 14.4451 9.55492C15.0936 10.2035 15.4584 11.0828 15.4593 12ZM12 0.5C5.65919 0.5 0.5 5.65919 0.5 12C0.5 18.3408 5.65919 23.5 12 23.5C14.323 23.5 16.5633 22.8086 18.4781 21.4997L18.5112 21.4767L16.9615 19.6755L16.9357 19.6928C15.4639 20.6402 13.7503 21.1436 12 21.1425C6.95869 21.1425 2.8575 17.0413 2.8575 12C2.8575 6.95869 6.95869 2.8575 12 2.8575C17.0413 2.8575 21.1425 6.95869 21.1425 12C21.1425 12.6533 21.0699 13.3146 20.9269 13.9651C20.6379 15.1517 19.8071 15.5154 19.1832 15.4672C18.5557 15.4162 17.8219 14.9692 17.8168 13.8752V12C17.8168 8.79222 15.2078 6.18316 12 6.18316C8.79222 6.18316 6.18316 8.79222 6.18316 12C6.18316 15.2078 8.79222 17.8168 12 17.8168C12.7666 17.8187 13.5258 17.6678 14.2334 17.3729C14.941 17.0781 15.5828 16.6453 16.1213 16.0998C16.4337 16.5896 16.856 16.9999 17.3547 17.298C17.8534 17.5961 18.4148 17.7737 18.9942 17.8168C19.9404 17.8906 20.8809 17.6149 21.6377 17.042C22.327 16.5188 22.8416 15.7619 23.1262 14.8527C23.1715 14.7061 23.2549 14.3697 23.2556 14.3676L23.2578 14.3553C23.4253 13.6258 23.5 12.8984 23.5 12C23.5 5.65919 18.3408 0.5 12 0.5Z" fill="#FF9E00"/>
</svg>
