<svg width="15" height="24" viewBox="0 0 15 24" fill="none" xmlns="http://www.w3.org/2000/svg">
<path d="M7.38805 12.3709C10.6618 12.3709 13.3244 9.71009 13.3244 6.43639C13.3244 3.16269 10.6618 0.5 7.38805 0.5C4.11435 0.5 1.45166 3.16269 1.45166 6.43639C1.45166 9.70823 4.11435 12.3709 7.38805 12.3709ZM7.38805 3.97924C8.74275 3.97924 9.8452 5.08169 9.8452 6.43639C9.8452 7.79109 8.74275 8.89354 7.38805 8.89354C6.03335 8.89354 4.9309 7.79109 4.9309 6.43639C4.9309 5.08169 6.03335 3.97924 7.38805 3.97924Z" fill="#EE8208"/>
<path d="M9.78942 17.2122C10.9984 16.9375 12.1643 16.4592 13.2369 15.7846C14.0497 15.2726 14.2945 14.2001 13.7825 13.3873C13.2705 12.5726 12.198 12.3278 11.3852 12.8398C8.95417 14.3683 5.82248 14.3683 3.39336 12.8398C2.58054 12.3278 1.50613 12.5726 0.996011 13.3873C0.482159 14.2001 0.726939 15.2726 1.53976 15.7846C2.61231 16.4592 3.77828 16.9375 4.98537 17.2122L1.66869 20.5307C0.990405 21.209 0.990405 22.3096 1.66869 22.9897C2.00877 23.3298 2.45348 23.498 2.8982 23.498C3.34478 23.498 3.7895 23.328 4.1277 22.9897L7.38833 19.7291L10.6508 22.9897C11.3291 23.668 12.4297 23.668 13.108 22.9897C13.7881 22.3096 13.7881 21.209 13.108 20.5307L9.78942 17.2122Z" fill="#EE8208"/>
</svg>
