<svg width="26" height="26" viewBox="0 0 26 26" fill="none" xmlns="http://www.w3.org/2000/svg">
<path fill-rule="evenodd" clip-rule="evenodd" d="M9.14925 0.45459H16.8518C23.8815 0.45459 25.546 2.11905 25.546 9.14876V16.8513C25.546 23.881 23.8815 25.5455 16.8518 25.5455H9.14925C2.11954 25.5455 0.455078 23.881 0.455078 16.8513V9.14876C0.455078 2.11905 2.11954 0.45459 9.14925 0.45459Z" fill="#4680C2"/>
<path fill-rule="evenodd" clip-rule="evenodd" d="M20.9953 9.0956C21.1193 8.70605 20.9953 8.42274 20.4464 8.42274H18.6226C18.1622 8.42274 17.9497 8.67064 17.8258 8.93624C17.8258 8.93624 16.8873 11.2027 15.577 12.6724C15.152 13.0974 14.9572 13.2391 14.727 13.2391C14.6031 13.2391 14.4437 13.0974 14.4437 12.7078V9.0779C14.4437 8.61751 14.3021 8.40503 13.9125 8.40503H11.044C10.7607 8.40503 10.5836 8.61751 10.5836 8.83C10.5836 9.27267 11.2388 9.37892 11.3096 10.6184V13.3099C11.3096 13.8942 11.2033 14.0005 10.9731 14.0005C10.3534 14.0005 8.8483 11.7163 7.94524 9.11331C7.76817 8.59981 7.5911 8.40503 7.13072 8.40503H5.28918C4.75797 8.40503 4.66943 8.65293 4.66943 8.91853C4.66943 9.39662 5.28918 11.8048 7.55569 14.9921C9.06079 17.17 11.2033 18.3387 13.1334 18.3387C14.3021 18.3387 14.4437 18.0731 14.4437 17.6304V15.9837C14.4437 15.4524 14.55 15.3639 14.9218 15.3639C15.1874 15.3639 15.6655 15.5056 16.7456 16.5503C17.9851 17.7898 18.1976 18.3564 18.8882 18.3564H20.712C21.2432 18.3564 21.4911 18.0908 21.3495 17.5773C21.1901 17.0638 20.5881 16.3201 19.809 15.4347C19.384 14.9389 18.7465 14.39 18.5518 14.1244C18.2862 13.7703 18.357 13.6286 18.5518 13.3099C18.5341 13.3099 20.7652 10.158 20.9953 9.0956Z" fill="white"/>
</svg>
