<svg width="26" height="26" viewBox="0 0 26 26" fill="none" xmlns="http://www.w3.org/2000/svg">
<g clip-path="url(#clip0)">
<path d="M25.5455 13C25.5455 6.07138 19.9287 0.45459 13 0.45459C6.07138 0.45459 0.45459 6.07138 0.45459 13C0.45459 19.2617 5.04226 24.4519 11.0398 25.3931V16.6265H7.85445V13H11.0398V10.2361C11.0398 7.09192 12.9128 5.35516 15.7784 5.35516C17.1511 5.35516 18.5867 5.60019 18.5867 5.60019V8.68754H17.0048C15.4464 8.68754 14.9603 9.65467 14.9603 10.6468V13H18.4397L17.8835 16.6265H14.9603V25.3931C20.9578 24.4519 25.5455 19.2617 25.5455 13Z" fill="#1877F2"/>
<path d="M17.8835 16.6265L18.4397 13.0001H14.9603V10.6469C14.9603 9.65474 15.4465 8.68761 17.0048 8.68761H18.5867V5.60025C18.5867 5.60025 17.1511 5.35522 15.7785 5.35522C12.9129 5.35522 11.0399 7.09199 11.0399 10.2362V13.0001H7.85449V16.6265H11.0399V25.3932C11.6787 25.4934 12.3331 25.5456 13.0001 25.5456C13.6671 25.5456 14.3215 25.4934 14.9603 25.3932V16.6265H17.8835Z" fill="white"/>
</g>
<defs>
<clipPath id="clip0">
<rect width="25.0909" height="25.0909" fill="white" transform="translate(0.45459 0.45459)"/>
</clipPath>
</defs>
</svg>
