<svg width="24" height="25" viewBox="0 0 24 25" fill="none" xmlns="http://www.w3.org/2000/svg">
<path fill-rule="evenodd" clip-rule="evenodd" d="M4 20H6V12H4V20Z" stroke="#17233B" stroke-linecap="round" stroke-linejoin="round"/>
<path fill-rule="evenodd" clip-rule="evenodd" d="M7 22H3V21C3 20.448 3.448 20 4 20H6C6.552 20 7 20.448 7 21V22V22Z" stroke="#17233B" stroke-linecap="round" stroke-linejoin="round"/>
<path fill-rule="evenodd" clip-rule="evenodd" d="M11 20H13V12H11V20Z" stroke="#17233B" stroke-linecap="round" stroke-linejoin="round"/>
<path fill-rule="evenodd" clip-rule="evenodd" d="M14 22H10V21C10 20.448 10.448 20 11 20H13C13.552 20 14 20.448 14 21V22V22Z" stroke="#17233B" stroke-linecap="round" stroke-linejoin="round"/>
<path fill-rule="evenodd" clip-rule="evenodd" d="M18 20H20V12H18V20Z" stroke="#17233B" stroke-linecap="round" stroke-linejoin="round"/>
<path fill-rule="evenodd" clip-rule="evenodd" d="M21 22H17V21C17 20.448 17.448 20 18 20H20C20.552 20 21 20.448 21 21V22V22Z" stroke="#17233B" stroke-linecap="round" stroke-linejoin="round"/>
<path fill-rule="evenodd" clip-rule="evenodd" d="M22 22H2C1.448 22 1 22.448 1 23V24H23V23C23 22.448 22.552 22 22 22V22Z" stroke="#17233B" stroke-linecap="round" stroke-linejoin="round"/>
<path fill-rule="evenodd" clip-rule="evenodd" d="M17 10H21V11C21 11.552 20.552 12 20 12H18C17.448 12 17 11.552 17 11V10V10Z" stroke="#17233B" stroke-linecap="round" stroke-linejoin="round"/>
<path fill-rule="evenodd" clip-rule="evenodd" d="M10 10H14V11C14 11.552 13.552 12 13 12H11C10.448 12 10 11.552 10 11V10V10Z" stroke="#17233B" stroke-linecap="round" stroke-linejoin="round"/>
<path fill-rule="evenodd" clip-rule="evenodd" d="M3 10H7V11C7 11.552 6.552 12 6 12H4C3.448 12 3 11.552 3 11V10V10Z" stroke="#17233B" stroke-linecap="round" stroke-linejoin="round"/>
<path fill-rule="evenodd" clip-rule="evenodd" d="M12 1L1 8H23L12 1V1Z" stroke="#17233B" stroke-linecap="round" stroke-linejoin="round"/>
<path fill-rule="evenodd" clip-rule="evenodd" d="M2 10H22V8H2V10Z" stroke="#17233B" stroke-linecap="round" stroke-linejoin="round"/>
<path fill-rule="evenodd" clip-rule="evenodd" d="M12 4L9 6H15L12 4V4Z" stroke="#17233B" stroke-linecap="round" stroke-linejoin="round"/>
</svg>
