<svg width="48" height="48" viewBox="0 0 48 48" fill="none" xmlns="http://www.w3.org/2000/svg">
<path fill-rule="evenodd" clip-rule="evenodd" d="M10.6842 22.7893C14.1705 29.6409 18.3589 33.8051 25.2105 37.3156L31.0452 32.9093C31.6989 32.2556 32.6673 32.0377 33.5147 32.3282C36.2263 33.224 39.1558 33.7082 42.1579 33.7082C43.4894 33.7082 44.5789 34.7977 44.5789 36.1293V44.5788C44.5789 45.9103 43.4894 46.9998 42.1579 46.9998C19.4242 46.9998 1 28.5756 1 5.84195C1 4.51037 2.08947 3.4209 3.42105 3.4209H11.8947C13.2263 3.4209 14.3158 4.51037 14.3158 5.84195C14.3158 8.86826 14.8 11.7735 15.6958 14.4851C15.9621 15.3325 15.7684 16.2767 15.0905 16.9546L10.6842 22.7893V22.7893Z" stroke="#17233B" stroke-width="2" stroke-linecap="round" stroke-linejoin="round"/>
<path d="M37.3154 25.2099H22.7891V10.6836" stroke="#FF4E2C" stroke-width="2" stroke-linecap="round" stroke-linejoin="round"/>
<path d="M22.7891 25.2105L46.9996 1" stroke="#FF4E2C" stroke-width="2" stroke-linecap="round" stroke-linejoin="round"/>
</svg>
