<svg width="24" height="16" viewBox="0 0 24 16" fill="none" xmlns="http://www.w3.org/2000/svg">
<path d="M3.36094 0.319824C2.04094 0.319824 0.960938 1.39982 0.960938 2.71982V13.2798C0.960938 14.5998 2.04094 15.6798 3.36094 15.6798H20.6409C21.9609 15.6798 23.0409 14.5998 23.0409 13.2798V2.71982C23.0409 1.39982 21.9609 0.319824 20.6409 0.319824H3.36094ZM3.36094 1.27982H20.6409C21.4416 1.27982 22.0809 1.9192 22.0809 2.71982V13.2798C22.0809 14.0805 21.4416 14.7198 20.6409 14.7198H3.36094C2.56031 14.7198 1.92094 14.0805 1.92094 13.2798V2.71982C1.92094 1.9192 2.56031 1.27982 3.36094 1.27982ZM4.80094 3.67982C4.27594 3.67982 3.84094 4.11482 3.84094 4.63982V6.07982C3.84094 6.60482 4.27594 7.03982 4.80094 7.03982H6.72094C7.24594 7.03982 7.68094 6.60482 7.68094 6.07982V4.63982C7.68094 4.11482 7.24594 3.67982 6.72094 3.67982H4.80094ZM4.80094 4.63982H6.72094V6.07982H4.80094V4.63982ZM13.3059 4.63982C13.0416 4.67732 12.8559 4.92295 12.8934 5.18732C12.9309 5.4517 13.1766 5.63732 13.4409 5.59982H19.6809C19.8534 5.6017 20.0147 5.5117 20.1028 5.3617C20.1891 5.2117 20.1891 5.02795 20.1028 4.87795C20.0147 4.72795 19.8534 4.63795 19.6809 4.63982H13.4409C13.4259 4.63982 13.4109 4.63982 13.3959 4.63982C13.3809 4.63982 13.3659 4.63982 13.3509 4.63982C13.3359 4.63982 13.3209 4.63982 13.3059 4.63982ZM4.18594 9.43983C3.92156 9.47732 3.73594 9.72295 3.77344 9.98732C3.81094 10.2517 4.05656 10.4373 4.32094 10.3998H6.72094C6.89344 10.4017 7.05469 10.3117 7.14281 10.1617C7.22906 10.0117 7.22906 9.82795 7.14281 9.67795C7.05469 9.52795 6.89344 9.43795 6.72094 9.43983H4.32094C4.30594 9.43983 4.29094 9.43983 4.27594 9.43983C4.26094 9.43983 4.24594 9.43983 4.23094 9.43983C4.21594 9.43983 4.20094 9.43983 4.18594 9.43983ZM8.50594 9.43983C8.24156 9.47732 8.05594 9.72295 8.09344 9.98732C8.13094 10.2517 8.37656 10.4373 8.64094 10.3998H11.0409C11.2134 10.4017 11.3747 10.3117 11.4628 10.1617C11.5491 10.0117 11.5491 9.82795 11.4628 9.67795C11.3747 9.52795 11.2134 9.43795 11.0409 9.43983H8.64094C8.62594 9.43983 8.61094 9.43983 8.59594 9.43983C8.58094 9.43983 8.56594 9.43983 8.55094 9.43983C8.53594 9.43983 8.52094 9.43983 8.50594 9.43983ZM12.8259 9.43983C12.5616 9.47732 12.3759 9.72295 12.4134 9.98732C12.4509 10.2517 12.6966 10.4373 12.9609 10.3998H15.3609C15.5334 10.4017 15.6947 10.3117 15.7828 10.1617C15.8691 10.0117 15.8691 9.82795 15.7828 9.67795C15.6947 9.52795 15.5334 9.43795 15.3609 9.43983H12.9609C12.9459 9.43983 12.9309 9.43983 12.9159 9.43983C12.9009 9.43983 12.8859 9.43983 12.8709 9.43983C12.8559 9.43983 12.8409 9.43983 12.8259 9.43983ZM17.1459 9.43983C16.8816 9.47732 16.6959 9.72295 16.7334 9.98732C16.7709 10.2517 17.0166 10.4373 17.2809 10.3998H19.6809C19.8534 10.4017 20.0147 10.3117 20.1028 10.1617C20.1891 10.0117 20.1891 9.82795 20.1028 9.67795C20.0147 9.52795 19.8534 9.43795 19.6809 9.43983H17.2809C17.2659 9.43983 17.2509 9.43983 17.2359 9.43983C17.2209 9.43983 17.2059 9.43983 17.1909 9.43983C17.1759 9.43983 17.1609 9.43983 17.1459 9.43983ZM4.18594 11.8398C3.92156 11.8773 3.73594 12.1229 3.77344 12.3873C3.81094 12.6517 4.05656 12.8373 4.32094 12.7998H10.5609C10.7334 12.8017 10.8947 12.7117 10.9828 12.5617C11.0691 12.4117 11.0691 12.228 10.9828 12.0779C10.8947 11.9279 10.7334 11.8379 10.5609 11.8398H4.32094C4.30594 11.8398 4.29094 11.8398 4.27594 11.8398C4.26094 11.8398 4.24594 11.8398 4.23094 11.8398C4.21594 11.8398 4.20094 11.8398 4.18594 11.8398Z" fill="#8C94A8"/>
</svg>
