<svg width="25" height="18" viewBox="0 0 25 18" fill="none" stroke="#BFC5D2" xmlns="http://www.w3.org/2000/svg">
<path fill-rule="evenodd" clip-rule="evenodd" d="M9 1C4.582 1 1 3.628 1 6.5C1 8.073 2.08 9.781 3.778 10.734C3.734 11.653 2.094 13.452 2.094 13.452L2.095 13.453C2.037 13.511 2 13.588 2 13.673C2 13.853 2.156 13.998 2.348 13.998C2.406 13.998 5.983 13.48 7.594 11.915C8.051 11.968 8.52 12 9 12C13.418 12 17 9.372 17 6.5C17 3.628 13.418 1 9 1V1Z" stroke-linecap="round" stroke-linejoin="round"/>
<path d="M11.1504 13.8119C12.4964 14.5429 14.1724 14.9999 16.0004 14.9999C16.4804 14.9999 16.9484 14.9679 17.4054 14.9149C19.0174 16.4799 22.5944 16.9979 22.6524 16.9979C22.8444 16.9979 23.0004 16.8529 23.0004 16.6729C23.0004 16.5879 22.9634 16.5109 22.9054 16.4529L22.9064 16.4519C22.9064 16.4519 21.2664 14.6529 21.2214 13.7339C22.9204 12.7809 24.0004 11.0729 24.0004 9.49991C24.0004 7.20691 21.7144 5.07391 18.5444 4.30591" stroke-linecap="round" stroke-linejoin="round"/>
</svg>
