<svg width="25" height="25" viewBox="0 0 25 25" fill="none" xmlns="http://www.w3.org/2000/svg">
<path fill-rule="evenodd" clip-rule="evenodd" d="M1 12.5C1 6.1497 6.1497 1 12.5 1C18.8503 1 24 6.1497 24 12.5C24 18.8503 18.8503 24 12.5 24C6.1497 24 1 18.8503 1 12.5V12.5Z" stroke="#FF0706" stroke-linecap="round" stroke-linejoin="round"/>
<path d="M11.9531 18H13.3125V9.875H11.9531V18ZM12.6328 8.50781C13.1016 8.50781 13.4844 8.125 13.4844 7.66406C13.4844 7.19531 13.1016 6.82031 12.6328 6.82031C12.1719 6.82031 11.7891 7.19531 11.7891 7.66406C11.7891 8.125 12.1719 8.50781 12.6328 8.50781Z" fill="#FF0706"/>
</svg>
