<svg width="51" height="48" viewBox="0 0 51 48" fill="none" xmlns="http://www.w3.org/2000/svg">
<path fill-rule="evenodd" clip-rule="evenodd" d="M16.3302 20.7149C16.3302 21.924 15.3488 22.9054 14.1397 22.9054C12.9306 22.9054 11.9492 21.924 11.9492 20.7149C11.9492 19.5057 12.9306 18.5244 14.1397 18.5244C15.3488 18.5244 16.3302 19.5057 16.3302 20.7149V20.7149Z" stroke="#FF4E2C" stroke-width="2" stroke-linecap="round" stroke-linejoin="round"/>
<path fill-rule="evenodd" clip-rule="evenodd" d="M27.2892 20.7149C27.2892 21.924 26.3078 22.9054 25.0987 22.9054C23.8895 22.9054 22.9082 21.924 22.9082 20.7149C22.9082 19.5057 23.8895 18.5244 25.0987 18.5244C26.3078 18.5244 27.2892 19.5057 27.2892 20.7149V20.7149Z" stroke="#FF4E2C" stroke-width="2" stroke-linecap="round" stroke-linejoin="round"/>
<path fill-rule="evenodd" clip-rule="evenodd" d="M38.2364 20.7149C38.2364 21.924 37.2551 22.9054 36.0459 22.9054C34.8368 22.9054 33.8555 21.924 33.8555 20.7149C33.8555 19.5057 34.8368 18.5244 36.0459 18.5244C37.2551 18.5244 38.2364 19.5057 38.2364 20.7149V20.7149Z" stroke="#FF4E2C" stroke-width="2" stroke-linecap="round" stroke-linejoin="round"/>
<path fill-rule="evenodd" clip-rule="evenodd" d="M25.0952 1C11.7881 1 1 9.33476 1 19.619C1 25.1938 4.18714 30.1815 9.20991 33.5943L5.38095 47L17.1613 37.1845C19.6475 37.8548 22.3111 38.2381 25.0952 38.2381C38.4024 38.2381 49.1905 29.9011 49.1905 19.619C49.1905 9.33476 38.4024 1 25.0952 1V1Z" stroke="#17233B" stroke-width="2" stroke-linecap="round" stroke-linejoin="round"/>
</svg>
