<svg width="48" height="48" viewBox="0 0 48 48" fill="none" xmlns="http://www.w3.org/2000/svg">
<path fill-rule="evenodd" clip-rule="evenodd" d="M47 24C47 36.7023 36.7023 47 24 47C11.2977 47 1 36.7023 1 24C1 11.2977 11.2977 1 24 1C36.7023 1 47 11.2977 47 24V24Z" stroke="#17233B" stroke-width="2" stroke-linecap="round" stroke-linejoin="round"/>
<path d="M37.0456 13.5452C33.9803 9.7251 29.2779 7.27246 23.9983 7.27246C18.7188 7.27246 14.0184 9.7251 10.9531 13.5452" stroke="#17233B" stroke-width="2" stroke-linecap="round" stroke-linejoin="round"/>
<path d="M11.875 35.5C14.9235 38.7137 19.2225 40.7273 24.0002 40.7273C28.78 40.7273 33.0789 38.7137 36.1275 35.5" stroke="#17233B" stroke-width="2" stroke-linecap="round" stroke-linejoin="round"/>
<path d="M17.7266 28.1815V19.8179H19.8175C20.9717 19.8179 21.9084 20.7546 21.9084 21.9088C21.9084 23.063 20.9717 23.9997 19.8175 23.9997H17.7266L21.9084 28.1815" stroke="#FF4E2C" stroke-width="2" stroke-linecap="round" stroke-linejoin="round"/>
<path d="M30.2736 28.1815H26.0918V19.8179H30.2736" stroke="#FF4E2C" stroke-width="2" stroke-linecap="round" stroke-linejoin="round"/>
<path d="M26.0918 24H28.1827" stroke="#FF4E2C" stroke-width="2" stroke-linecap="round" stroke-linejoin="round"/>
<path d="M38.6369 28.1815H34.4551V19.8179H38.6369" stroke="#FF4E2C" stroke-width="2" stroke-linecap="round" stroke-linejoin="round"/>
<path d="M34.4551 24H36.546" stroke="#FF4E2C" stroke-width="2" stroke-linecap="round" stroke-linejoin="round"/>
<path d="M9.36328 28.1815V19.8179H13.5451" stroke="#FF4E2C" stroke-width="2" stroke-linecap="round" stroke-linejoin="round"/>
<path d="M9.36328 24H11.4542" stroke="#FF4E2C" stroke-width="2" stroke-linecap="round" stroke-linejoin="round"/>
</svg>
