<svg width="48" height="48" viewBox="0 0 48 48" fill="none" xmlns="http://www.w3.org/2000/svg">
<path fill-rule="evenodd" clip-rule="evenodd" d="M2.29128 44.4026L3.4791 45.5904C5.31192 47.4232 8.32256 47.287 9.98111 45.296L26.9212 24.9647L22.915 20.9585L2.58573 37.9006C0.594664 39.5591 0.458454 42.5698 2.29128 44.4026V44.4026Z" stroke="#17233B" stroke-width="2" stroke-linecap="round" stroke-linejoin="round"/>
<path fill-rule="evenodd" clip-rule="evenodd" d="M18.9102 16.9539L30.9287 28.9724L40.9441 18.957L28.9256 6.93848L18.9102 16.9539V16.9539Z" stroke="#17233B" stroke-width="2" stroke-linecap="round" stroke-linejoin="round"/>
<path fill-rule="evenodd" clip-rule="evenodd" d="M40.4827 19.4185L31.3907 28.5105C30.0286 29.8726 30.0286 32.08 31.3907 33.4401L31.3947 33.4441C33.3497 35.3991 36.5206 35.3991 38.4756 33.4441L45.4163 26.5034C47.3713 24.5484 47.3713 21.3775 45.4163 19.4225L45.4123 19.4185C44.0502 18.0584 41.8428 18.0584 40.4827 19.4185V19.4185Z" stroke="#17233B" stroke-width="2" stroke-linecap="round" stroke-linejoin="round"/>
<path fill-rule="evenodd" clip-rule="evenodd" d="M28.4625 7.39985L19.3706 16.4918C18.0085 17.8539 15.8031 17.8539 14.441 16.4918L14.437 16.4878C12.482 14.5328 12.482 11.3619 14.437 9.40694L21.3776 2.46626C23.3327 0.511248 26.5035 0.511248 28.4585 2.46626L28.4625 2.47026C29.8246 3.83236 29.8246 6.03976 28.4625 7.39985V7.39985Z" stroke="#17233B" stroke-width="2" stroke-linecap="round" stroke-linejoin="round"/>
<path fill-rule="evenodd" clip-rule="evenodd" d="M42.9481 42.9939H31.18C28.9666 42.9939 27.1738 44.7867 27.1738 47.0001H46.9543C46.9543 44.7867 45.1615 42.9939 42.9481 42.9939V42.9939Z" stroke="#FF4E2C" stroke-width="2" stroke-linecap="round" stroke-linejoin="round"/>
</svg>
