<svg width="46" height="48" viewBox="0 0 46 48" fill="none" xmlns="http://www.w3.org/2000/svg">
<path fill-rule="evenodd" clip-rule="evenodd" d="M44.9098 20.8636C44.9098 31.8346 41.6333 40.7273 37.5916 40.7273C33.5499 40.7273 30.2734 31.8346 30.2734 20.8636C30.2734 9.89264 33.5499 1 37.5916 1C41.6333 1 44.9098 9.89264 44.9098 20.8636V20.8636Z" stroke="#17233B" stroke-width="2" stroke-linecap="round" stroke-linejoin="round"/>
<path d="M36.5449 15.6362C38.8554 15.6362 40.7267 17.976 40.7267 20.8635C40.7267 23.751 38.8554 26.0908 36.5449 26.0908" stroke="#FF4E2C" stroke-width="2" stroke-linecap="round" stroke-linejoin="round"/>
<path fill-rule="evenodd" clip-rule="evenodd" d="M34.0343 3.5105L19.8182 13.5448H8.31818C4.27645 13.5448 1 16.8212 1 20.863C1 24.9047 4.27645 28.1811 8.31818 28.1811H19.8182L34.0343 38.2154C31.7907 34.8219 30.2727 28.3275 30.2727 20.863C30.2727 13.3984 31.7907 6.90404 34.0343 3.5105V3.5105Z" stroke="#17233B" stroke-width="2" stroke-linecap="round" stroke-linejoin="round"/>
<path d="M7.27344 28.1818L11.4553 32.3636V40.5809C11.4553 41.9776 12.1536 43.2844 13.3183 44.0601L17.728 47L18.5936 46.1343C19.3777 45.3502 19.8189 44.286 19.8189 43.1778V42.4585C19.8189 41.3503 19.3777 40.286 18.5936 39.502L18.5894 39.4999C18.0521 38.9604 17.8179 38.1868 17.9663 37.4403L19.8189 28.1818C15.7772 28.1818 13.5462 24.9053 13.5462 20.8636C13.5462 16.8219 15.7772 13.5454 19.8189 13.5454" stroke="#17233B" stroke-width="2" stroke-linecap="round" stroke-linejoin="round"/>
</svg>
