<svg width="51" height="48" viewBox="0 0 51 48" fill="none" xmlns="http://www.w3.org/2000/svg">
<path fill-rule="evenodd" clip-rule="evenodd" d="M43.046 30.191C43.046 31.3508 42.1047 32.2921 40.9449 32.2921C39.7851 32.2921 38.8438 31.3508 38.8438 30.191C38.8438 29.0311 39.7851 28.0898 40.9449 28.0898C42.1047 28.0898 43.046 29.0311 43.046 30.191V30.191Z" stroke="#17233B" stroke-width="2" stroke-linecap="round" stroke-linejoin="round"/>
<path fill-rule="evenodd" clip-rule="evenodd" d="M40.944 36.4944H49.3485V23.8877H40.944C37.4624 23.8877 34.6406 26.7095 34.6406 30.1911C34.6406 33.6726 37.4624 36.4944 40.944 36.4944V36.4944Z" stroke="#17233B" stroke-width="2" stroke-linecap="round" stroke-linejoin="round"/>
<path d="M1.02344 19.6853V17.5842C1.02344 11.783 5.72785 7.07861 11.529 7.07861H18.883" stroke="#17233B" stroke-width="2" stroke-linecap="round" stroke-linejoin="round"/>
<path d="M49.3494 19.6853V17.5842C49.3494 11.783 44.6449 7.07861 38.8438 7.07861" stroke="#17233B" stroke-width="2" stroke-linecap="round" stroke-linejoin="round"/>
<path d="M7.32617 13.3821L28.9194 1.75448C32.0501 0.0693819 35.9561 1.30484 37.5466 4.48594L41.9947 13.3821" stroke="#FF4E2C" stroke-width="2" stroke-linecap="round" stroke-linejoin="round"/>
<path d="M22.1836 13.382L37.7928 4.97754" stroke="#FF4E2C" stroke-width="2" stroke-linecap="round" stroke-linejoin="round"/>
<path fill-rule="evenodd" clip-rule="evenodd" d="M43.0459 13.3823H7.3268C3.84524 13.3823 1.02344 16.2041 1.02344 19.6857V40.6969C1.02344 44.1785 3.84524 47.0003 7.3268 47.0003H43.0459C46.5274 47.0003 49.3492 44.1785 49.3492 40.6969V19.6857C49.3492 16.2041 46.5274 13.3823 43.0459 13.3823V13.3823Z" stroke="#17233B" stroke-width="2" stroke-linecap="round" stroke-linejoin="round"/>
</svg>
