<svg width="48" height="47" viewBox="0 0 48 47" fill="none" xmlns="http://www.w3.org/2000/svg">
<path fill-rule="evenodd" clip-rule="evenodd" d="M44.9091 22.5593H3.09091C1.93673 22.5593 1 21.6226 1 20.4684V14.1956C1 13.0415 1.93673 12.1047 3.09091 12.1047H44.9091C46.0633 12.1047 47 13.0415 47 14.1956V20.4684C47 21.6226 46.0633 22.5593 44.9091 22.5593V22.5593Z" stroke="#17233B" stroke-width="2" stroke-linecap="round" stroke-linejoin="round"/>
<path fill-rule="evenodd" clip-rule="evenodd" d="M40.7282 45.5596H7.27361C4.96316 45.5596 3.0918 43.6882 3.0918 41.3778V22.5596H44.91V41.3778C44.91 43.6882 43.0386 45.5596 40.7282 45.5596V45.5596Z" stroke="#17233B" stroke-width="2" stroke-linecap="round" stroke-linejoin="round"/>
<path fill-rule="evenodd" clip-rule="evenodd" d="M13.9796 4.63585C15.2634 8.95566 19.2654 12.1046 24.0013 12.1046C24.0013 7.36866 20.8524 3.36666 16.5326 2.08285C15.0083 1.62912 13.5258 3.11157 13.9796 4.63585V4.63585Z" stroke="#FF4E2C" stroke-width="2" stroke-linecap="round" stroke-linejoin="round"/>
<path fill-rule="evenodd" clip-rule="evenodd" d="M34.0217 4.63585C32.7379 8.95566 28.7359 12.1046 24 12.1046C24 7.36866 27.1489 3.36666 31.4687 2.08285C32.993 1.62912 34.4755 3.11157 34.0217 4.63585V4.63585Z" stroke="#FF4E2C" stroke-width="2" stroke-linecap="round" stroke-linejoin="round"/>
<path d="M23.9993 45.5595V12.105L17.7266 18.3777" stroke="#17233B" stroke-width="2" stroke-linecap="round" stroke-linejoin="round"/>
<path d="M23.9993 12.1047L17.7266 18.3775" stroke="#FF4E2C" stroke-width="2" stroke-linecap="round" stroke-linejoin="round"/>
<path d="M24 12.1047L30.2727 18.3775" stroke="#FF4E2C" stroke-width="2" stroke-linecap="round" stroke-linejoin="round"/>
</svg>
