<svg width="48" height="49" viewBox="0 0 48 49" fill="none" xmlns="http://www.w3.org/2000/svg">
<path d="M41 5.00293C44.314 5.00293 47 7.68893 47 11.0029V41.0029C47 44.3169 44.314 47.0029 41 47.0029H7C3.686 47.0029 1 44.3169 1 41.0029V11.0029C1 7.68893 3.686 5.00293 7 5.00293" stroke="#17233B" stroke-width="2" stroke-linecap="round" stroke-linejoin="round"/>
<path d="M15 5.00293H33" stroke="#17233B" stroke-width="2" stroke-linecap="round" stroke-linejoin="round"/>
<path d="M11 1.00293V9.00293" stroke="#17233B" stroke-width="2" stroke-linecap="round" stroke-linejoin="round"/>
<path d="M37 1.00293V9.00293" stroke="#17233B" stroke-width="2" stroke-linecap="round" stroke-linejoin="round"/>
<path d="M1 15.0029H47" stroke="#17233B" stroke-width="2" stroke-linecap="round" stroke-linejoin="round"/>
<path d="M21.223 37.3V39H11.623V37.3H15.4605V25.0875C15.4605 24.7208 15.473 24.35 15.498 23.975L12.3105 26.7125C12.2022 26.8042 12.0939 26.8625 11.9855 26.8875C11.8772 26.9042 11.7772 26.9042 11.6855 26.8875C11.5939 26.8708 11.5064 26.8375 11.423 26.7875C11.348 26.7375 11.2897 26.6833 11.248 26.625L10.548 25.6625L15.8855 21.05H17.698V37.3H21.223ZM32.125 32.5375V25.15C32.125 24.9333 32.1333 24.6958 32.15 24.4375C32.1667 24.1792 32.1917 23.9167 32.225 23.65L25.7 32.5375H32.125ZM36.7875 32.5375V33.8125C36.7875 33.9458 36.7458 34.0583 36.6625 34.15C36.5875 34.2417 36.4667 34.2875 36.3 34.2875H34.075V39H32.125V34.2875H24.175C24.0083 34.2875 23.8625 34.2417 23.7375 34.15C23.6208 34.05 23.5458 33.9292 23.5125 33.7875L23.2875 32.65L32 21.0875H34.075V32.5375H36.7875Z" fill="#FF4E2C"/>
</svg>
