<svg width="57" height="42" viewBox="0 0 57 42" fill="none" xmlns="http://www.w3.org/2000/svg">
<path d="M31.002 21H33.502C33.502 22.38 34.622 23.5 36.002 23.5V33.5C34.622 33.5 33.502 34.62 33.502 36H31.002" stroke="#FF4E2C" stroke-width="2" stroke-linecap="round" stroke-linejoin="round"/>
<path d="M11 21H8.5C8.5 22.38 7.38 23.5 6 23.5V33.5C7.38 33.5 8.5 34.62 8.5 36H11" stroke="#FF4E2C" stroke-width="2" stroke-linecap="round" stroke-linejoin="round"/>
<path fill-rule="evenodd" clip-rule="evenodd" d="M28.5 28.5C28.5 32.6425 25.1425 36 21 36C16.8575 36 13.5 32.6425 13.5 28.5C13.5 24.3575 16.8575 21 21 21C25.1425 21 28.5 24.3575 28.5 28.5V28.5Z" stroke="#FF4E2C" stroke-width="2" stroke-linecap="round" stroke-linejoin="round"/>
<path d="M6 15.9998V10.9998H46V35.9998H41" stroke="#17233B" stroke-width="2" stroke-linecap="round" stroke-linejoin="round"/>
<path d="M11 11V6H51V31H46" stroke="#17233B" stroke-width="2" stroke-linecap="round" stroke-linejoin="round"/>
<path d="M16 6V1H56V26H51" stroke="#17233B" stroke-width="2" stroke-linecap="round" stroke-linejoin="round"/>
<path fill-rule="evenodd" clip-rule="evenodd" d="M1 41H41V16H1V41Z" stroke="#17233B" stroke-width="2" stroke-linecap="round" stroke-linejoin="round"/>
</svg>
