<svg width="116" height="32" viewBox="0 0 116 32" fill="none" xmlns="http://www.w3.org/2000/svg">
<g clip-path="url(#clip0)">
<path d="M44.508 9.84863C40.4596 9.84863 38.1152 12.906 38.1152 16.894C38.1152 20.2535 40.0004 22.1628 43.2995 22.1628C46.3569 22.1628 48.5684 20.5556 49.1726 17.4257H45.6077C45.3056 18.6825 44.6167 19.323 43.5775 19.323C42.3811 19.323 41.7044 18.4287 41.7044 16.8456C41.7044 15.2263 42.3932 12.7369 44.3992 12.7369C45.5593 12.7369 46.0065 13.4257 46.0306 14.5012H49.4868C49.4989 14.3683 49.4989 14.2716 49.4989 14.1991C49.4989 11.5526 47.5533 9.84863 44.508 9.84863Z" fill="#17233B"/>
<path d="M56.9186 13.124C55.6256 13.124 54.9367 13.7041 54.2237 14.6829L54.5259 13.3657H51.3959L49.6074 21.8733H52.8461L53.6558 18.0908C53.9337 16.7494 54.55 15.8914 56.0969 15.8914C56.5077 15.8914 56.8582 15.9518 57.3174 16.1089L57.9337 13.2328C57.4745 13.1361 57.2812 13.124 56.9186 13.124Z" fill="#17233B"/>
<path d="M62.6341 13.1357C59.6251 13.1357 57.5586 15.1901 57.5586 18.1871C57.5586 21.027 59.3592 22.1146 61.8728 22.1146C63.9393 22.1146 65.7761 21.4379 66.4166 19.3593H63.2384C63.0208 19.8064 62.622 20.024 62.0299 20.024C61.0873 20.024 60.5918 19.5285 60.5918 18.598C60.5918 18.5255 60.5918 18.4771 60.6039 18.3684H66.7671C66.8879 17.74 66.9 17.5466 66.9 17.027C66.9242 14.5859 65.3169 13.1357 62.6341 13.1357ZM63.8668 16.6765H60.8939C61.1356 15.7823 61.764 15.2505 62.5979 15.2505C63.3713 15.2505 63.8668 15.746 63.8668 16.4953V16.6765Z" fill="#17233B"/>
<path d="M75.4796 10.1146L74.5733 14.3926C74.0657 13.5346 73.2561 13.1237 72.0959 13.1237C69.1836 13.1237 67.8301 15.9152 67.8301 18.5134C67.8301 20.6282 68.7848 22.1025 70.9479 22.1025C72.0113 22.1025 72.7364 21.74 73.2923 20.9182C73.2319 21.1962 73.2077 21.2445 73.1715 21.4741L73.111 21.8729H76.2289L78.7304 10.1025H75.4796V10.1146ZM72.3255 19.6131C71.528 19.6131 71.1171 19.1539 71.1171 18.2234C71.1171 17.1358 71.528 15.5769 72.8694 15.5769C73.679 15.5769 74.0295 16.1932 74.0295 16.9182C74.0295 17.9575 73.6307 19.6131 72.3255 19.6131Z" fill="#17233B"/>
<path d="M78.1504 21.8732H81.4253L83.2259 13.3535H79.9752L78.1504 21.8732Z" fill="#17233B"/>
<path d="M80.6514 10.1143L80.168 12.3862H83.4429L83.9263 10.1143H80.6514Z" fill="#17233B"/>
<path d="M95.166 15.3837H96.9183L97.3775 13.3534H95.6253L96.1811 10.7432H92.9304L92.3382 13.3534H90.6585H90.4651H88.9062L89.4742 10.7432H86.2234L85.6313 13.3534H84.2053L83.7461 15.3837H85.1721L84.5316 18.3806C84.2778 19.5045 84.2536 19.6979 84.2536 20.0362C84.2536 21.716 85.7401 22.0181 87.0935 22.0181C88.024 22.0181 88.302 22.006 88.9908 21.8852L89.4863 19.577C89.1842 19.6133 88.8941 19.6133 88.592 19.6133C88.1086 19.6133 87.6857 19.6012 87.6857 19.0211C87.6857 18.9003 87.7582 18.5256 87.8307 18.1994L88.4591 15.4078H90.0059H90.2114H91.8911L91.2506 18.4048C91.0089 19.5287 90.9727 19.722 90.9727 20.0604C90.9727 21.7401 92.4591 22.0423 93.8126 22.0423C94.7431 22.0423 95.021 22.0302 95.7098 21.9093L96.2053 19.6012C95.9032 19.6374 95.6132 19.6374 95.3111 19.6374C94.8277 19.6374 94.4047 19.6253 94.4047 19.0453C94.4047 18.9244 94.4651 18.5498 94.5497 18.2235L95.166 15.3837Z" fill="#17233B"/>
<path d="M102.417 13.1357C99.4083 13.1357 97.3418 15.1901 97.3418 18.1871C97.3418 21.027 99.1424 22.1146 101.656 22.1146C103.722 22.1146 105.559 21.4379 106.2 19.3593H103.022C102.804 19.8064 102.405 20.024 101.813 20.024C100.871 20.024 100.375 19.5285 100.375 18.598C100.375 18.5255 100.375 18.4771 100.387 18.3684H106.55C106.671 17.74 106.683 17.5466 106.683 17.027C106.695 14.5859 105.088 13.1357 102.417 13.1357ZM103.638 16.6765H100.665C100.907 15.7823 101.535 15.2505 102.369 15.2505C103.142 15.2505 103.638 15.746 103.638 16.4953V16.6765Z" fill="#17233B"/>
<path d="M111.747 14.6702L112.049 13.353H108.919L107.131 21.8727H110.37L111.179 18.0902C111.457 16.7488 112.073 15.8908 113.62 15.8908C114.031 15.8908 114.382 15.9512 114.841 16.1083L115.457 13.2322C114.998 13.1355 114.817 13.1113 114.454 13.1113C113.161 13.1234 112.46 13.6914 111.747 14.6702Z" fill="#17233B"/>
<path d="M25.861 2.3807C25.7401 2.33236 25.4138 2.16318 24.6162 1.86106C23.0694 1.25683 20.6404 0.592179 18.0543 0.253811C10.1631 -0.567942 4.85793 3.14203 3.20234 12.0967L1.48633 21.6677L4.74917 27.0574C5.02711 26.7553 8.79751 22.8278 8.97878 22.6466C9.58301 22.0182 9.99388 21.2327 10.1268 20.4351L11.6011 12.0967C11.6011 12.0967 12.0603 9.20849 14.1389 6.56197C10.4531 7.64958 8.36246 10.5741 7.29902 14.2236C7.38361 13.9215 7.37153 13.5469 7.39569 13.2327C8.22953 2.56197 17.0634 1.29309 25.861 2.3807Z" fill="#17233B"/>
<path d="M30.5136 0L25.3535 5.38973L22.7674 19.9154C22.7674 19.9154 21.3051 29.0514 11.9033 29.7281C16.3746 28.3142 19.7341 25.3172 20.6888 19.9154L22.4048 10.3444C19.4924 5.53474 20.2054 6.70695 19.142 4.95468C18.7674 5.34139 16.3142 7.90332 14.9124 9.36556C14.3082 9.99396 13.8973 10.7795 13.7643 11.577L12.29 19.9033C12.29 19.9033 11.8308 22.7915 9.75226 25.4381C13.4381 24.3505 15.5287 21.426 16.5921 17.7764C16.5076 18.0786 16.5438 18.4532 16.4955 18.7674C15.3958 27.5408 8.72507 30.6949 0 29.6193C0.120846 29.6798 10.139 35.5287 23.6495 28.6767C27.2991 26.8882 30.4773 23.71 31.1541 19.9033L33.5106 6.91239C33.6918 5.93353 33.4985 4.90634 32.9788 4.06042L30.5136 0Z" fill="#FF4E2C"/>
</g>
<defs>
<clipPath id="clip0">
<rect width="115.456" height="32" fill="white"/>
</clipPath>
</defs>
</svg>
