<svg width="20" height="20" viewBox="0 0 20 20" fill="none" stroke="#BFC5D2" xmlns="http://www.w3.org/2000/svg">
<path fill-rule="evenodd" clip-rule="evenodd" d="M5 8.99988C6.44 11.8299 8.17 13.5499 11 14.9999L13.41 13.1799C13.68 12.9099 14.08 12.8199 14.43 12.9399C15.55 13.3099 16.76 13.5099 18 13.5099C18.55 13.5099 19 13.9599 19 14.5099V17.9999C19 18.5499 18.55 18.9999 18 18.9999C8.61 18.9999 1 11.3899 1 1.99988C1 1.44988 1.45 0.999878 2 0.999878H5.5C6.05 0.999878 6.5 1.44988 6.5 1.99988C6.5 3.24988 6.7 4.44988 7.07 5.56988C7.18 5.91988 7.1 6.30988 6.82 6.58988L5 8.99988V8.99988Z" stroke-linecap="round" stroke-linejoin="round"/>
<path d="M12 0.999878C15.866 0.999878 19 4.13388 19 7.99988" stroke-linecap="round" stroke-linejoin="round"/>
<path d="M12 4.99988C13.657 4.99988 15 6.34288 15 7.99988" stroke-linecap="round" stroke-linejoin="round"/>
</svg>
