<svg width="46" height="46" fill="none" xmlns="http://www.w3.org/2000/svg">
  <circle cx="23" cy="23" r="22" stroke="#17233B" stroke-width="2"/>
  <path d="M18 13.304c.33-.31.693-.603 1.088-.88a8.673 8.673 0 0 1 1.312-.736c.48-.213.992-.379 1.536-.496A7.959 7.959 0 0 1 23.728 11c.843 0 1.621.123 2.336.368.725.245 1.35.592 1.872 1.04.523.448.933.992 1.232 1.632.299.64.448 1.36.448 2.16 0 .81-.123 1.51-.368 2.096a5.725 5.725 0 0 1-.912 1.552 7.198 7.198 0 0 1-1.2 1.152l-1.216.912a8.227 8.227 0 0 0-.992.864 1.693 1.693 0 0 0-.464.96l-.288 2.448h-1.952l-.192-2.656c-.043-.48.048-.896.272-1.248.224-.363.517-.699.88-1.008.363-.32.763-.63 1.2-.928.437-.31.843-.65 1.216-1.024.384-.373.704-.795.96-1.264.256-.48.384-1.05.384-1.712 0-.459-.09-.875-.272-1.248a2.792 2.792 0 0 0-.736-.944 3.167 3.167 0 0 0-1.104-.608 4.224 4.224 0 0 0-1.344-.208c-.65 0-1.21.08-1.68.24-.459.16-.848.336-1.168.528-.32.192-.581.368-.784.528-.192.16-.352.24-.48.24-.267 0-.475-.123-.624-.368l-.752-1.2zm3.12 19.12c0-.277.048-.539.144-.784a2.21 2.21 0 0 1 .416-.64c.181-.181.395-.325.64-.432.245-.107.507-.16.784-.16s.539.053.784.16c.245.107.459.25.64.432.181.181.325.395.432.64.107.245.16.507.16.784 0 .288-.053.555-.16.8a2.11 2.11 0 0 1-.432.624c-.181.181-.395.32-.64.416-.245.107-.507.16-.784.16s-.539-.053-.784-.16a1.845 1.845 0 0 1-.64-.416c-.17-.181-.31-.39-.416-.624a2.176 2.176 0 0 1-.144-.8z" fill="#FF4E2C"/>
</svg>
