<svg width="48" height="48" viewBox="0 0 48 48" fill="none" xmlns="http://www.w3.org/2000/svg">
<path fill-rule="evenodd" clip-rule="evenodd" d="M24 1C11.296 1 1 11.296 1 24C1 36.704 11.296 47 24 47C36.704 47 47 36.704 47 24C47 11.296 36.704 1 24 1Z" stroke="#17233B" stroke-width="2" stroke-linecap="round" stroke-linejoin="round"/>
<path d="M17.056 34.988C13.418 32.686 11 28.624 11 24C11 16.82 16.82 11 24 11C24.338 11 24.67 11.026 25 11.05" stroke="#FF4E2C" stroke-width="2" stroke-linecap="round" stroke-linejoin="round"/>
<path d="M23 15L27 11L23 7" stroke="#FF4E2C" stroke-width="2" stroke-linecap="round" stroke-linejoin="round"/>
<path d="M30.968 13.0273C34.592 15.3333 37 19.3853 37 23.9993C37 31.1793 31.178 36.9993 24 36.9993C23.662 36.9993 23.33 36.9753 23 36.9493" stroke="#FF4E2C" stroke-width="2" stroke-linecap="round" stroke-linejoin="round"/>
<path d="M25 33L21 37L25 41" stroke="#FF4E2C" stroke-width="2" stroke-linecap="round" stroke-linejoin="round"/>
</svg>
