<svg width="48" height="47" viewBox="0 0 48 47" fill="none" xmlns="http://www.w3.org/2000/svg">
<path d="M1 23.8346C1 11.6885 11.2961 1.84473 24.0001 1.84473C34.2342 1.84473 41.3342 8.29828 45.8903 17.0694" stroke="#17233B" stroke-width="2" stroke-linecap="round" stroke-linejoin="round"/>
<path d="M39 17.1416H47.0001V9.57324" stroke="#17233B" stroke-width="2" stroke-linecap="round" stroke-linejoin="round"/>
<path d="M46.9996 23.8345C46.9996 35.9806 36.7036 45.8245 23.9995 45.8245C13.7654 45.8245 6.6654 39.3709 2.10938 30.5997" stroke="#17233B" stroke-width="2" stroke-linecap="round" stroke-linejoin="round"/>
<path d="M9.00005 30.5269H1V38.0952" stroke="#17233B" stroke-width="2" stroke-linecap="round" stroke-linejoin="round"/>
<path fill-rule="evenodd" clip-rule="evenodd" d="M33.0001 23.8347C33.0001 28.5865 28.9701 32.4395 24.0001 32.4395C19.03 32.4395 15 28.5865 15 23.8347C15 19.083 19.03 15.23 24.0001 15.23C28.9701 15.23 33.0001 19.083 33.0001 23.8347Z" stroke="#FF4E2C" stroke-width="2" stroke-linecap="round" stroke-linejoin="round"/>
</svg>
