<svg width="114" height="22" viewBox="0 0 114 22" fill="none" xmlns="http://www.w3.org/2000/svg">
<path d="M29.9705 13.2233C30.4407 13.7391 31.0049 14.1142 31.7102 14.3955C32.4155 14.6769 33.2148 14.8176 34.2022 14.8176C34.6723 14.8176 35.1425 14.7707 35.5187 14.7238C35.9418 14.6769 36.271 14.5831 36.6001 14.4424C36.9292 14.3486 37.2113 14.208 37.4934 14.1142C37.7285 13.9735 37.9636 13.8797 38.1517 13.786L37.8225 13.0826C37.6345 13.1764 37.4464 13.2702 37.2583 13.3639C37.0703 13.4577 36.8822 13.5046 36.6471 13.5984C36.412 13.6453 36.1769 13.7391 35.8948 13.7391C35.6127 13.786 35.2836 13.786 34.9074 13.786C34.2022 13.786 33.5909 13.6453 33.1678 13.3639C32.6976 13.0826 32.3684 12.7075 32.0863 12.2854C31.8512 11.8165 31.6632 11.2538 31.5691 10.6443C31.4751 9.98779 31.4281 9.33132 31.4281 8.58107C31.4281 8.01838 31.4751 7.4088 31.5221 6.79922C31.5691 6.18963 31.7102 5.67383 31.9453 5.20493C32.1804 4.73602 32.4625 4.36089 32.8856 4.03265C33.3088 3.75131 33.873 3.56375 34.5783 3.56375C35.2365 3.56375 35.8008 3.75131 36.2709 4.07955C36.7411 4.40778 37.0232 4.97047 37.1643 5.67383H37.9166V3.37618C37.6815 3.2824 37.4464 3.18862 37.1643 3.09484C36.8822 3.00106 36.6001 2.95416 36.2709 2.90727C35.9418 2.86038 35.6597 2.86038 35.3306 2.81349C35.0485 2.81349 34.7664 2.7666 34.5313 2.7666C33.4969 2.7666 32.6506 2.90727 31.8983 3.18862C31.193 3.46996 30.5818 3.89198 30.1116 4.40778C29.6414 4.92358 29.3123 5.58005 29.0772 6.33031C28.8421 7.08056 28.748 7.97149 28.748 8.9093C28.748 9.80023 28.8421 10.6443 29.0772 11.3476C29.2182 12.1448 29.5474 12.7544 29.9705 13.2233Z" fill="white"/>
<path d="M75.9606 14.4424C76.5248 14.3955 77.089 14.2079 77.5122 13.9734C77.9824 13.6921 78.3585 13.317 78.5936 12.8012C78.8757 12.2854 79.0168 11.582 79.0168 10.6911C79.0168 10.0346 78.9227 9.51882 78.7347 9.04991C78.5466 8.581 78.2645 8.25277 77.8413 7.92453C77.4182 7.64319 76.901 7.45562 76.2427 7.31495C75.5844 7.17428 74.7851 7.12739 73.8448 7.12739H72.8574V4.36083C72.8574 4.07948 72.9044 3.89192 73.0455 3.79814C73.1865 3.70436 73.4216 3.70435 73.7978 3.70435H75.2083C75.6315 3.70435 76.0076 3.70435 76.2897 3.75125C76.5718 3.79814 76.8069 3.84503 76.948 3.9857C77.136 4.12637 77.2771 4.31394 77.3711 4.54839C77.4652 4.78284 77.6062 5.11108 77.7003 5.5331H78.3115V2.9541H70.3184H69.6602V3.32923C69.7072 3.32923 69.7542 3.37612 69.8952 3.37612C70.0363 3.42301 70.1303 3.4699 70.1774 3.51679C70.2244 3.56368 70.2714 3.65746 70.3184 3.79814C70.3184 3.93881 70.3654 4.07948 70.3654 4.26705V6.61159V10.8787V13.2232C70.3654 13.4108 70.3654 13.5983 70.3184 13.6921C70.3184 13.8328 70.2714 13.9266 70.1774 13.9734C70.1303 14.0203 70.0363 14.1141 69.8952 14.1141C69.7542 14.161 69.7072 14.161 69.6602 14.161V14.5361H74.0328C74.7381 14.5361 75.3494 14.5361 75.9606 14.4424ZM73.0925 13.5983C72.9984 13.5045 72.9514 13.4108 72.9514 13.2701C72.9514 13.1294 72.9044 12.9418 72.9044 12.7074V7.83075H73.8918C74.7851 7.83075 75.4434 8.0652 75.8195 8.53411C76.1957 9.00302 76.3838 9.75327 76.3838 10.7849C76.3838 11.4882 76.3367 12.004 76.1957 12.4261C76.0546 12.8481 75.9136 13.1294 75.6785 13.3639C75.4434 13.5514 75.2083 13.6921 74.9732 13.7859C74.6911 13.8328 74.409 13.8797 74.1269 13.8797C73.8448 13.8328 73.6097 13.8328 73.4686 13.7859C73.3276 13.739 73.1865 13.6921 73.0925 13.5983Z" fill="white"/>
<path d="M63.5917 14.161C63.5447 14.161 63.4976 14.1141 63.3566 14.1141C63.2155 14.0672 63.1215 14.0203 63.0745 13.9734C63.0275 13.9266 62.9804 13.8328 62.9334 13.6921C62.9334 13.5514 62.8864 13.4108 62.8864 13.2232V9.98773H64.0619C64.6731 9.98773 65.2373 9.94084 65.8015 9.84706C66.3657 9.75327 66.8359 9.56571 67.2591 9.33126C67.6823 9.04991 68.0114 8.72168 68.2465 8.20588C68.4816 7.73697 68.6226 7.0805 68.6226 6.28335C68.6226 5.5331 68.4816 4.92352 68.2935 4.5015C68.0584 4.07948 67.7293 3.70436 67.3531 3.4699C66.977 3.23545 66.5068 3.09477 65.9896 3.04788C65.4724 3.00099 64.9552 2.9541 64.391 2.9541H60.4415H59.7832V3.32923C59.8302 3.32923 59.8772 3.37612 60.0183 3.37612C60.1593 3.42301 60.2534 3.4699 60.3004 3.51679C60.3474 3.56368 60.3944 3.65746 60.4415 3.79814C60.4415 3.93881 60.4885 4.07948 60.4885 4.26705V13.1763C60.4885 13.3639 60.4885 13.5514 60.4415 13.6452C60.4415 13.7859 60.3944 13.8797 60.3004 13.9266C60.2534 13.9735 60.1593 14.0672 60.0183 14.0672C59.8772 14.1141 59.8302 14.1141 59.7832 14.1141V14.4892H63.5917V14.161ZM62.9334 4.26705C62.9334 4.17326 62.9334 4.07948 62.9804 3.9857C62.9804 3.89192 63.0275 3.84503 63.0745 3.79814C63.1215 3.75125 63.2155 3.70436 63.3566 3.70436C63.4976 3.70436 63.6387 3.65746 63.8738 3.65746C64.1559 3.65746 64.438 3.70435 64.7201 3.75125C65.0022 3.84503 65.1903 3.9857 65.4254 4.17326C65.6135 4.36083 65.7545 4.64217 65.8956 4.97041C65.9896 5.29864 66.0366 5.72066 66.0366 6.18957C66.0366 7.17428 65.8956 7.92453 65.6135 8.44033C65.3313 8.95613 64.8141 9.23747 64.1089 9.23747H62.9334V4.26705Z" fill="white"/>
<path d="M58.2325 11.8634H57.4802C57.3862 12.3323 57.2921 12.6605 57.1981 12.9419C57.1041 13.2232 57.01 13.4108 56.822 13.5514C56.6809 13.6921 56.4458 13.7859 56.1637 13.7859C55.8816 13.8328 55.5055 13.8328 54.9883 13.8328C54.5181 13.8328 54.1419 13.8328 53.9068 13.7859C53.6247 13.739 53.4367 13.6921 53.2956 13.5983C53.1546 13.5045 53.0605 13.3639 53.0605 13.2232C53.0135 13.0356 53.0135 12.8481 53.0135 12.5667V8.90924H54.5651C54.7061 8.90924 54.8472 8.90924 55.0353 8.90924C55.2233 8.90924 55.4114 8.95613 55.5995 8.95613C55.7876 8.95613 55.9756 9.00302 56.1637 9.04991C56.3518 9.0968 56.4928 9.14369 56.6339 9.23747V7.73697C56.4928 7.83075 56.3518 7.87764 56.1637 7.92453C55.9756 7.97142 55.7876 8.01831 55.5995 8.01831C55.4114 8.0652 55.2233 8.0652 55.0353 8.0652C54.8472 8.0652 54.7061 8.0652 54.5651 8.0652H53.0135V4.22015C53.0135 3.9857 53.0605 3.79814 53.1075 3.70436C53.2016 3.61057 53.3426 3.61057 53.5777 3.61057H54.8472C55.2704 3.61057 55.6465 3.61057 55.9286 3.65746C56.2107 3.70436 56.4458 3.75125 56.5869 3.89192C56.7749 4.03259 56.916 4.22015 57.01 4.45461C57.1041 4.68906 57.2451 5.0173 57.3392 5.43932H57.9504V2.9541H50.5215H49.8633V3.32923C49.9103 3.32923 49.9573 3.37612 50.0984 3.37612C50.2394 3.42301 50.3335 3.4699 50.3805 3.51679C50.4275 3.56368 50.4745 3.65746 50.5215 3.79814C50.5215 3.93881 50.5686 4.07948 50.5686 4.26705V13.1763C50.5686 13.3639 50.5686 13.5514 50.5215 13.6452C50.5215 13.7859 50.4745 13.8797 50.3805 13.9266C50.3335 13.9735 50.2394 14.0672 50.0984 14.0672C49.9573 14.1141 49.9103 14.1141 49.8633 14.1141V14.4892H58.2325V11.8634Z" fill="white"/>
<path d="M45.4409 14.4424C46.0051 14.3955 46.5693 14.2079 46.9925 13.9734C47.4627 13.6921 47.8388 13.317 48.1209 12.8012C48.4031 12.2854 48.5441 11.582 48.5441 10.6911C48.5441 10.0346 48.4501 9.51882 48.262 9.04991C48.0739 8.581 47.7918 8.25277 47.3687 7.92453C46.9455 7.64319 46.4283 7.45562 45.77 7.31495C45.1118 7.17428 44.3125 7.12739 43.3721 7.12739H42.3847V4.36083C42.3847 4.07948 42.4318 3.89192 42.5728 3.79814C42.7139 3.70436 42.9489 3.70435 43.3251 3.70435H44.7356C45.1588 3.70435 45.5349 3.70435 45.8171 3.75125C46.0992 3.79814 46.3343 3.84503 46.4753 3.9857C46.6634 4.12637 46.8044 4.31394 46.8985 4.54839C46.9925 4.78284 47.1336 5.11108 47.2276 5.5331H47.8388V2.9541H39.8458H39.1875V3.32923C39.2345 3.32923 39.2815 3.37612 39.4226 3.37612C39.5636 3.42301 39.6577 3.4699 39.7047 3.51679C39.7517 3.56368 39.7987 3.65746 39.8458 3.79814C39.8458 3.93881 39.8928 4.07948 39.8928 4.26705V4.5015V6.5647V10.7849V12.5198C39.8928 12.5198 39.8928 12.5198 39.8928 12.5667V13.1763C39.8928 13.3639 39.8928 13.5045 39.8458 13.6452C39.8458 13.7859 39.7987 13.8797 39.7047 13.9266C39.6577 13.9734 39.5636 14.0672 39.4226 14.0672C39.2815 14.1141 39.2345 14.1141 39.1875 14.1141V14.5361H43.5602C44.2655 14.5361 44.8297 14.5361 45.4409 14.4424ZM42.5728 13.5983C42.4788 13.5045 42.4318 13.4108 42.4318 13.2701C42.4318 13.1294 42.3847 12.9418 42.3847 12.7074V7.83075H43.3721C44.2655 7.83075 44.9237 8.0652 45.2999 8.53411C45.676 9.00302 45.8641 9.75327 45.8641 10.7849C45.8641 11.4882 45.8171 12.004 45.676 12.4261C45.5349 12.8481 45.3939 13.1294 45.1588 13.3639C44.9237 13.5514 44.6886 13.6921 44.4535 13.7859C44.1714 13.8328 43.8893 13.8797 43.6072 13.8797C43.3251 13.8328 43.137 13.8328 42.949 13.7859C42.8079 13.739 42.6668 13.6921 42.5728 13.5983Z" fill="white"/>
<path d="M113.902 17.8174H28.6582V18.9428H113.902V17.8174Z" fill="white"/>
<path d="M107.088 10.1753C107.323 10.5035 107.511 10.7848 107.746 11.0662C107.934 11.3475 108.17 11.6289 108.358 11.9102C108.546 12.1916 108.734 12.4729 108.969 12.7543C109.204 13.0825 109.392 13.3638 109.58 13.6921C109.768 13.9734 109.909 14.3017 110.05 14.583L114 14.6299C113.577 14.2079 113.2 13.7859 112.777 13.3638C112.401 12.9418 112.072 12.5667 111.837 12.3322C111.461 11.9102 111.132 11.5351 110.85 11.2069C110.52 10.8317 110.238 10.5035 109.956 10.1753C109.674 9.84702 109.392 9.4719 109.157 9.14366C108.922 8.81542 108.64 8.39341 108.405 8.01828L108.593 7.78383C108.875 7.4087 109.204 7.03357 109.58 6.56466C109.956 6.09576 110.332 5.62685 110.756 5.20483C111.179 4.73592 111.555 4.3139 111.978 3.93878C112.401 3.56365 112.73 3.28231 113.059 3.04785H110.332C110.238 3.28231 110.097 3.56365 109.909 3.89189C109.721 4.22012 109.533 4.59525 109.251 4.97038C109.016 5.3455 108.734 5.76752 108.499 6.18954C108.217 6.61156 107.981 6.98668 107.699 7.36181C107.417 7.73694 107.182 8.11206 106.947 8.39341C106.712 8.72164 106.524 8.9561 106.383 9.19055C106.618 9.51879 106.853 9.84702 107.088 10.1753Z" fill="white"/>
<path d="M106.752 14.161C106.705 14.161 106.658 14.1141 106.517 14.1141C106.376 14.0672 106.282 14.0203 106.235 13.9734C106.188 13.9266 106.141 13.8328 106.094 13.6921C106.094 13.5514 106.047 13.4108 106.047 13.2232V4.31394C106.047 4.12637 106.047 3.93881 106.094 3.84503C106.094 3.70435 106.141 3.61057 106.235 3.56368C106.282 3.51679 106.376 3.4699 106.517 3.42301C106.658 3.37612 106.705 3.37612 106.752 3.37612V2.9541H103.602H102.943V3.32923C102.99 3.32923 103.037 3.37612 103.178 3.37612C103.32 3.42301 103.414 3.4699 103.461 3.51679C103.508 3.56368 103.555 3.65746 103.602 3.79814C103.602 3.93881 103.649 4.07948 103.649 4.26705V13.1763C103.649 13.3639 103.649 13.5514 103.602 13.6452C103.602 13.7859 103.555 13.8797 103.461 13.9266C103.414 13.9735 103.32 14.0672 103.178 14.0672C103.037 14.1141 102.99 14.1141 102.943 14.1141V14.4892H106.752V14.161Z" fill="white"/>
<path d="M81.4565 13.1294C81.5976 12.4729 81.8797 11.5351 82.2558 10.3628H85.9703L86.4875 11.8633C86.7226 12.5198 86.9106 13.0825 87.0047 13.5514C87.1457 14.0203 87.2398 14.3486 87.2398 14.583H90.2019C90.0608 14.3486 89.9198 14.0203 89.7317 13.6452C89.5436 13.2701 89.3086 12.7074 89.0735 12.004L86.3934 4.4077C86.2524 4.07947 86.2054 3.79812 86.1583 3.56367C86.1113 3.32921 86.1113 3.14165 86.0643 3.00098H82.726V3.3761C82.773 3.3761 82.82 3.42299 82.9611 3.42299C83.1022 3.46988 83.1962 3.51678 83.2432 3.56367C83.2902 3.61056 83.3372 3.70434 83.3843 3.84501C83.3843 3.93879 83.3843 3.98568 83.3843 4.07947C83.3843 4.36081 83.3372 4.64216 83.2432 4.82972L81.3625 9.42502C81.0334 10.2691 80.7042 11.0193 80.4691 11.582C80.234 12.1447 79.999 12.6605 79.8579 13.0356C79.6698 13.4107 79.5288 13.739 79.3877 13.9734C79.2467 14.2079 79.1526 14.3955 79.0586 14.583H81.1744C81.2214 14.2548 81.3155 13.7859 81.4565 13.1294ZM84.1366 4.87661L85.6882 9.56569H82.4909L84.1366 4.87661Z" fill="white"/>
<path d="M94.6737 14.161H94.5797C94.5326 14.161 94.4856 14.1141 94.3446 14.1141C94.2035 14.0672 94.1095 14.0203 94.0625 13.9734C94.0155 13.9266 93.9684 13.8328 93.9214 13.6921C93.9214 13.5514 93.8744 13.4108 93.8744 13.2232V8.76857H98.3881V13.1763C98.3881 13.3639 98.3881 13.5514 98.3411 13.6452C98.3411 13.7859 98.2941 13.8797 98.2001 13.9266C98.153 13.9734 98.059 14.0672 97.918 14.0672C97.7769 14.1141 97.7299 14.1141 97.6829 14.1141V14.4892H101.491V14.1141C101.444 14.1141 101.397 14.0672 101.256 14.0672C101.115 14.0203 101.021 13.9734 100.974 13.9266C100.927 13.8797 100.88 13.7859 100.833 13.6452C100.833 13.5045 100.786 13.3639 100.786 13.1763V10.8787V10.7849V6.5647V6.5178V4.22015C100.786 4.03259 100.786 3.84503 100.833 3.75125C100.833 3.61057 100.88 3.51679 100.974 3.4699C101.021 3.42301 101.115 3.37612 101.256 3.32923C101.397 3.28234 101.444 3.28234 101.491 3.28234V2.9541H98.3411H97.7769V3.32923C97.8239 3.32923 97.8709 3.37612 98.012 3.37612C98.153 3.42301 98.2471 3.4699 98.2941 3.51679C98.3411 3.56368 98.3881 3.65746 98.4352 3.79814C98.4352 3.93881 98.4822 4.07948 98.4822 4.26705V7.97142H93.9684V4.26705C93.9684 4.07948 93.9684 3.89192 94.0154 3.79814C94.0154 3.65746 94.0625 3.56368 94.1565 3.51679C94.2035 3.4699 94.2976 3.42301 94.4386 3.37612C94.5797 3.32923 94.6267 3.32923 94.6737 3.32923V2.9541H91.5235H90.8652V3.32923C90.9123 3.32923 90.9593 3.37612 91.1003 3.37612C91.2414 3.42301 91.3354 3.4699 91.3824 3.51679C91.4294 3.56368 91.4765 3.65746 91.5235 3.79814C91.5235 3.93881 91.5705 4.07948 91.5705 4.26705V4.54839V12.5667V12.6136V13.2232C91.5705 13.4108 91.5705 13.5514 91.5235 13.6921C91.5235 13.8328 91.4765 13.9266 91.3824 13.9734C91.3354 14.0203 91.2414 14.1141 91.1003 14.1141C90.9593 14.161 90.9123 14.161 90.8652 14.161V14.5361H94.6737V14.161Z" fill="white"/>
<path d="M20.9036 4.17318C20.6685 3.84495 20.4335 3.51671 20.1984 3.18848L7.17434 10.6441L0.873906 7.03353C0.732851 7.45554 0.638815 7.83067 0.591797 8.25269L7.22136 12.0508L20.9036 4.17318Z" fill="white"/>
<path d="M7.17115 13.4578L0.400534 9.56591C0.353516 9.80036 0.353516 10.0817 0.353516 10.3162C0.353516 16.4589 5.33744 21.4762 11.5438 21.4762C17.7032 21.4762 22.7342 16.5058 22.7342 10.3162C22.7342 8.48742 22.311 6.75246 21.5117 5.25195L7.17115 13.4578Z" fill="white"/>
<path d="M19.2971 2.25029C18.968 1.92205 18.6389 1.6876 18.3098 1.40625L7.16647 7.8303L1.80641 4.78239C1.61833 5.11063 1.43026 5.48575 1.24219 5.86088L7.11945 9.23702L19.2971 2.25029Z" fill="white"/>
<path d="M17.1835 0.656472C16.7603 0.422018 16.3372 0.187563 15.867 0L7.16861 5.01732L3.26611 2.81345C2.984 3.0948 2.74891 3.42303 2.4668 3.75127L7.12159 6.42405L17.1835 0.656472Z" fill="white"/>
</svg>
