<svg width="25" height="23" viewBox="0 0 25 23" fill="none" xmlns="http://www.w3.org/2000/svg">
<path d="M12 3L2.414 12.586C1.509 13.491 1 14.719 1 16C1 17.281 1.509 18.509 2.414 19.414L3.586 20.586C4.491 21.491 5.719 22 7 22C8.281 22 9.509 21.491 10.414 20.586L22.939 8.061C23.618 7.382 24 6.46 24 5.5C24 4.54 23.618 3.618 22.939 2.939L22.061 2.061C21.382 1.382 20.46 1 19.5 1C18.54 1 17.618 1.382 16.939 2.061L5.707 13.293C5.254 13.746 5 14.36 5 15C5 15.64 5.254 16.254 5.707 16.707L6.293 17.293C6.746 17.746 7.36 18 8 18C8.64 18 9.254 17.746 9.707 17.293L18 9" stroke="#BFC5D2" stroke-linecap="round" stroke-linejoin="round"/>
</svg>
