<svg width="52" height="48" viewBox="0 0 52 48" fill="none" xmlns="http://www.w3.org/2000/svg">
<path fill-rule="evenodd" clip-rule="evenodd" d="M26 1.03906C12.1935 1.03906 1 10.2565 1 21.6282C1 27.9543 4.49783 33.5804 9.95 37.3565L5.34783 46.563L14.9891 40.0891C18.3152 41.4369 22.0435 42.2151 26 42.2151C39.8065 42.2151 51 32.9978 51 21.6282C51 10.2565 39.8065 1.03906 26 1.03906V1.03906Z" stroke="#17233B" stroke-width="2" stroke-linecap="round" stroke-linejoin="round"/>
<path d="M25.4414 31.1719H27.8203V16.9531H25.4414V31.1719ZM26.6309 14.5605C27.4512 14.5605 28.1211 13.8906 28.1211 13.084C28.1211 12.2637 27.4512 11.6074 26.6309 11.6074C25.8242 11.6074 25.1543 12.2637 25.1543 13.084C25.1543 13.8906 25.8242 14.5605 26.6309 14.5605Z" fill="#FF4E2C"/>
</svg>
