<svg width="105" height="14" viewBox="0 0 105 14" fill="none" xmlns="http://www.w3.org/2000/svg">
<path d="M5.74591 3.88391H0V0.361328H15.6397V3.88391H9.91464V13.5623H5.74591V3.88391Z" fill="black"/>
<path d="M17.1133 13.5623V0.361328H21.282V13.5623H17.1133Z" fill="black"/>
<path d="M34.8365 7.60798V0.361328H38.6717V13.5623H35.1144L27.972 6.27398V13.5623H24.1367V0.361328H27.8608L34.8365 7.60798Z" fill="black"/>
<path d="M45.6118 13.5623H41.582V0.361328H45.6118V5.32907H46.7235L51.587 0.361328H56.6451L50.1974 6.69086L56.8952 13.5623H51.5314L46.7235 8.55984H45.6118V13.5623Z" fill="black"/>
<path d="M73.9244 6.99653C73.9244 10.9429 70.6728 14 65.2882 14C59.9035 14 56.6172 10.9429 56.6172 6.99653C56.6172 3.05012 59.8688 0 65.309 0C70.7492 0 73.9244 3.05707 73.9244 6.99653ZM69.7001 6.99653C69.7001 4.82878 67.9561 3.25161 65.2882 3.25161C62.6202 3.25161 60.8693 4.82878 60.8693 6.99653C60.8693 9.16427 62.5924 10.7831 65.309 10.7831C68.0256 10.7831 69.7001 9.16427 69.7001 6.99653Z" fill="black"/>
<path d="M79.8989 3.71716V6.10723H88.7922V8.88639H79.8989V13.5623H75.8691V0.361328H89.1257V3.71716H79.8989Z" fill="black"/>
<path d="M95.0523 3.71716V6.10723H103.946V8.88639H95.0523V13.5623H91.0156V0.361328H104.265V3.71716H95.0523Z" fill="black"/>
</svg>
