<svg width="16" height="16" viewBox="0 0 16 16" fill="none" xmlns="http://www.w3.org/2000/svg">
<path fill-rule="evenodd" clip-rule="evenodd" d="M0 8C0 12.416 3.584 16 8 16C12.416 16 16 12.416 16 8C16 3.584 12.416 0 8 0C3.584 0 0 3.584 0 8Z" fill="#BFC5D2"/>
<path d="M9.06693 13.4096C9.10835 13.4096 9.14193 13.376 9.14193 13.3346V6.93457C9.14193 6.89315 9.10835 6.85957 9.06693 6.85957H6.93359C6.89217 6.85957 6.85859 6.89315 6.85859 6.93457V13.3346C6.85859 13.376 6.89217 13.4096 6.93359 13.4096H9.06693Z" fill="white" stroke="white" stroke-width="0.15" stroke-linecap="round" stroke-linejoin="round"/>
<path d="M9.06693 4.8763C9.10835 4.8763 9.14193 4.84272 9.14193 4.8013V2.66797C9.14193 2.62655 9.10835 2.59297 9.06693 2.59297H6.93359C6.89217 2.59297 6.85859 2.62655 6.85859 2.66797V4.8013C6.85859 4.84272 6.89217 4.8763 6.93359 4.8763H9.06693Z" fill="white" stroke="white" stroke-width="0.15" stroke-linecap="round" stroke-linejoin="round"/>
</svg>
