<svg width="56" height="50" viewBox="0 0 56 50" fill="none" xmlns="http://www.w3.org/2000/svg">
<path d="M47 29.3618V5.56882C47 3.39755 45.1286 1.63892 42.8182 1.63892H5.18182C2.87136 1.63892 1 3.39755 1 5.56882V40.9379C1 43.1092 2.87136 44.8678 5.18182 44.8678H34.5" stroke="#17233B" stroke-width="2" stroke-linecap="round" stroke-linejoin="round"/>
<path d="M1 9.49854H47" stroke="#17233B" stroke-width="2" stroke-linecap="round" stroke-linejoin="round"/>
<path fill-rule="evenodd" clip-rule="evenodd" d="M6.22763 5.5689C6.22763 6.11123 5.75926 6.55138 5.18217 6.55138C4.60508 6.55138 4.13672 6.11123 4.13672 5.5689C4.13672 5.02657 4.60508 4.58643 5.18217 4.58643C5.75926 4.58643 6.22763 5.02657 6.22763 5.5689Z" fill="#17233B"/>
<path fill-rule="evenodd" clip-rule="evenodd" d="M10.4073 5.5689C10.4073 6.11123 9.93895 6.55138 9.36186 6.55138C8.78477 6.55138 8.31641 6.11123 8.31641 5.5689C8.31641 5.02657 8.78477 4.58643 9.36186 4.58643C9.93895 4.58643 10.4073 5.02657 10.4073 5.5689Z" fill="#17233B"/>
<path fill-rule="evenodd" clip-rule="evenodd" d="M14.5909 5.5689C14.5909 6.11123 14.1225 6.55138 13.5455 6.55138C12.9684 6.55138 12.5 6.11123 12.5 5.5689C12.5 5.02657 12.9684 4.58643 13.5455 4.58643C14.1225 4.58643 14.5909 5.02657 14.5909 5.5689Z" fill="#17233B"/>
<path d="M14 36.0764H32.5" stroke="#17233B" stroke-width="2" stroke-linecap="round"/>
<line x1="7" y1="36.0164" x2="9" y2="36.0164" stroke="#17233B" stroke-width="2" stroke-linecap="round"/>
<line x1="14" y1="16.2812" x2="40" y2="16.2812" stroke="#17233B" stroke-width="2" stroke-linecap="round"/>
<line x1="7" y1="16.2812" x2="9" y2="16.2812" stroke="#17233B" stroke-width="2" stroke-linecap="round"/>
<line x1="14" y1="22.8596" x2="40" y2="22.8596" stroke="#17233B" stroke-width="2" stroke-linecap="round"/>
<line x1="7" y1="22.8596" x2="9" y2="22.8596" stroke="#17233B" stroke-width="2" stroke-linecap="round"/>
<path d="M14 29.498H38.5" stroke="#17233B" stroke-width="2" stroke-linecap="round"/>
<line x1="7" y1="29.4377" x2="9" y2="29.4377" stroke="#17233B" stroke-width="2" stroke-linecap="round"/>
<ellipse cx="47" cy="41.1084" rx="8" ry="7.51807" stroke="#FF4E2C" stroke-width="1.77778" stroke-linecap="round" stroke-linejoin="round"/>
<path d="M43.5 41.5784L46.1304 44.0322L51 39.1292" stroke="#FF4E2C" stroke-width="1.73913" stroke-linecap="round"/>
</svg>
