<svg width="53" height="51" viewBox="0 0 53 51" fill="none" xmlns="http://www.w3.org/2000/svg">
<path d="M47 26.4614V5.62863C47 3.45736 45.1286 1.69873 42.8182 1.69873H5.18182C2.87136 1.69873 1 3.45736 1 5.62863V40.9977C1 43.169 2.87136 44.9276 5.18182 44.9276H38.5" stroke="#17233B" stroke-width="2" stroke-linecap="round" stroke-linejoin="round"/>
<path d="M1 9.55859H47" stroke="#17233B" stroke-width="2" stroke-linecap="round" stroke-linejoin="round"/>
<path fill-rule="evenodd" clip-rule="evenodd" d="M6.22763 5.62872C6.22763 6.17104 5.75926 6.61119 5.18217 6.61119C4.60508 6.61119 4.13672 6.17104 4.13672 5.62872C4.13672 5.08639 4.60508 4.64624 5.18217 4.64624C5.75926 4.64624 6.22763 5.08639 6.22763 5.62872Z" fill="#17233B"/>
<path fill-rule="evenodd" clip-rule="evenodd" d="M10.4073 5.62872C10.4073 6.17104 9.93895 6.61119 9.36186 6.61119C8.78477 6.61119 8.31641 6.17104 8.31641 5.62872C8.31641 5.08639 8.78477 4.64624 9.36186 4.64624C9.93895 4.64624 10.4073 5.08639 10.4073 5.62872Z" fill="#17233B"/>
<path fill-rule="evenodd" clip-rule="evenodd" d="M14.5909 5.62872C14.5909 6.17104 14.1225 6.61119 13.5455 6.61119C12.9684 6.61119 12.5 6.17104 12.5 5.62872C12.5 5.08639 12.9684 4.64624 13.5455 4.64624C14.1225 4.64624 14.5909 5.08639 14.5909 5.62872Z" fill="#17233B"/>
<path d="M14 36.137H38.5" stroke="#17233B" stroke-width="2" stroke-linecap="round"/>
<line x1="7" y1="36.0767" x2="9" y2="36.0767" stroke="#17233B" stroke-width="2" stroke-linecap="round"/>
<line x1="14" y1="16.3418" x2="40" y2="16.3418" stroke="#17233B" stroke-width="2" stroke-linecap="round"/>
<line x1="7" y1="16.3418" x2="9" y2="16.3418" stroke="#17233B" stroke-width="2" stroke-linecap="round"/>
<line x1="14" y1="22.9202" x2="40" y2="22.9202" stroke="#17233B" stroke-width="2" stroke-linecap="round"/>
<line x1="7" y1="22.9202" x2="9" y2="22.9202" stroke="#17233B" stroke-width="2" stroke-linecap="round"/>
<path d="M14 29.5586H38.5" stroke="#17233B" stroke-width="2" stroke-linecap="round"/>
<line x1="7" y1="29.4985" x2="9" y2="29.4985" stroke="#17233B" stroke-width="2" stroke-linecap="round"/>
<path fill-rule="evenodd" clip-rule="evenodd" d="M51.2826 34.7132C51.2826 36.9932 49.3175 38.84 46.8913 38.84C44.4651 38.84 42.5 36.9932 42.5 34.7132C42.5 32.4332 44.4651 30.5864 46.8913 30.5864C49.3175 30.5864 51.2826 32.4332 51.2826 34.7132V34.7132Z" stroke="#FF4E2C" stroke-width="2" stroke-linecap="round" stroke-linejoin="round"/>
<path d="M44.6957 38.8398L42.5 49.1568L46.8913 47.0934L51.2826 49.1568L49.087 38.8398" stroke="#FF4E2C" stroke-width="2" stroke-linecap="round" stroke-linejoin="round"/>
</svg>
