<svg width="40" height="40" viewBox="0 0 40 40" fill="none" xmlns="http://www.w3.org/2000/svg">
<rect width="40" height="40" rx="20" fill="#34ABE0"/>
<path d="M15.5455 28C14.927 28 15.0321 27.7682 14.8188 27.1838L13 21.243L27 13" fill="#B5DAEB"/>
<path d="M16 28C16.5455 28 16.7865 27.7758 17.0909 27.5098L20 24.967L16.3713 23" fill="#93C3DF"/>
<path d="M16.2269 23.8789L24.0093 29.7548C24.8974 30.2556 25.5384 29.9963 25.7596 28.9122L28.9275 13.6564C29.2518 12.3276 28.4318 11.7249 27.5822 12.1191L8.98051 19.4491C7.71077 19.9697 7.71817 20.6936 8.74907 21.0161L13.5227 22.5388L24.5741 15.4135C25.0958 15.0902 25.5747 15.2641 25.1817 15.6205" fill="white"/>
</svg>
