<svg width="40" height="40" viewBox="0 0 40 40" fill="none" xmlns="http://www.w3.org/2000/svg">
<rect width="40" height="40" rx="20" fill="#665CAC"/>
<path fill-rule="evenodd" clip-rule="evenodd" d="M20.6587 8.85135C25.79 8.87534 28.094 10.5408 28.6656 11.0617C30.5598 12.6963 31.6067 16.3219 30.9007 22.0482C30.2796 27.1077 26.7331 28.0053 25.5433 28.3064C25.4268 28.3359 25.3329 28.3596 25.2665 28.381C24.9463 28.4838 22.112 29.1898 18.4305 28.8813C18.0241 29.3508 17.4834 29.9676 17.0943 30.3857C16.9767 30.5118 16.8666 30.6362 16.7614 30.7552C16.2288 31.3573 15.8213 31.818 15.2002 31.6263C14.5837 31.4378 14.6182 30.5057 14.6182 30.5057L14.6216 28.2062H14.6182C9.23196 26.6984 9.31117 21.1435 9.37316 18.1758C9.43171 15.2082 10.0103 12.8162 11.653 11.1816C14.6044 8.48811 20.6587 8.85135 20.6587 8.85135ZM24.9337 26.7043C25.9449 26.4708 28.7689 25.8187 29.2903 21.6366C29.8896 16.8527 29.0734 13.5869 27.472 12.2196C26.9898 11.7844 24.9098 10.4856 20.5671 10.465C20.5671 10.465 15.4254 10.1292 12.9286 12.3772C11.5407 13.7411 11.0723 15.7698 11.0207 18.2474C11.019 18.3292 11.017 18.4134 11.0151 18.4998C10.9568 21.0335 10.8541 25.499 15.2566 26.7152C15.2566 26.7152 15.2394 30.2277 15.236 30.5361C15.236 30.752 15.2704 30.8994 15.3944 30.9302C15.4839 30.9542 15.6182 30.9062 15.7319 30.7932C16.4585 30.0632 18.79 27.2669 18.79 27.2669C21.917 27.4725 24.4035 26.8557 24.6721 26.77C24.734 26.7504 24.823 26.7299 24.9337 26.7043Z" fill="white"/>
<path d="M22.7709 18.0452C22.7158 16.9109 22.1372 16.318 21.0352 16.2598" stroke="white" stroke-width="0.580998" stroke-linecap="round" stroke-linejoin="round"/>
<path d="M24.2615 18.5422C24.2856 17.4867 23.9722 16.606 23.3178 15.8966C22.6635 15.1873 21.7578 14.7932 20.5938 14.7109" stroke="white" stroke-width="0.580998" stroke-linecap="round" stroke-linejoin="round"/>
<path d="M25.7851 19.1389C25.7713 17.3055 25.2203 15.8663 24.1354 14.8108C23.0506 13.7587 21.6972 13.2241 20.082 13.2139" stroke="white" stroke-width="0.580998" stroke-linecap="round" stroke-linejoin="round"/>
<path d="M21.0931 21.915C21.0931 21.915 21.5029 21.9493 21.7198 21.6786L22.1469 21.144C22.3535 20.8767 22.8529 20.7088 23.3419 20.9795C23.614 21.1337 24.103 21.4319 24.406 21.6546C24.7298 21.8911 25.3944 22.4428 25.3944 22.4428C25.7113 22.7066 25.7836 23.0973 25.5701 23.5085C25.5701 23.512 25.5666 23.5154 25.5666 23.5154C25.3462 23.9026 25.0501 24.2693 24.6747 24.6086C24.6712 24.612 24.6712 24.612 24.6678 24.6154C24.3613 24.869 24.0582 25.0163 23.762 25.0506C23.7276 25.0575 23.6828 25.0609 23.6312 25.0575C23.5003 25.0575 23.3729 25.0403 23.2455 24.9992L23.2351 24.9855C22.7771 24.8587 22.016 24.5366 20.7452 23.8409C19.9187 23.3886 19.2334 22.926 18.6548 22.4668C18.3483 22.2269 18.0349 21.9527 17.7146 21.6375C17.7043 21.6272 17.694 21.6169 17.6836 21.6066C17.6733 21.5963 17.663 21.5861 17.6527 21.5758C17.6423 21.5655 17.632 21.5552 17.6217 21.5449C17.6113 21.5347 17.601 21.5244 17.5907 21.5141C17.2738 21.1954 16.9983 20.8836 16.7572 20.5786C16.2958 20.0029 15.8309 19.3175 15.3763 18.4985C14.6772 17.234 14.3534 16.4766 14.226 16.0208L14.2122 16.0106C14.1709 15.8838 14.1503 15.757 14.1537 15.6268C14.1503 15.5754 14.1537 15.5308 14.1606 15.4965C14.195 15.2018 14.3431 14.9003 14.598 14.5953C14.6014 14.5918 14.6014 14.5918 14.6048 14.5884C14.9458 14.2149 15.3108 13.9202 15.7034 13.7009C15.7069 13.7009 15.7103 13.6974 15.7103 13.6974C16.1236 13.485 16.5162 13.5569 16.7814 13.8722C16.7848 13.8756 17.3358 14.5336 17.5734 14.8557C17.7973 15.1607 18.1004 15.6439 18.2519 15.9146C18.5239 16.4012 18.3552 16.8981 18.0866 17.1037L17.5493 17.5287C17.2773 17.748 17.3117 18.1524 17.3117 18.1524C17.3117 18.1524 18.1107 21.1577 21.0931 21.915Z" fill="white"/>
</svg>
