<svg width="20" height="21" viewBox="0 0 20 21" fill="none" xmlns="http://www.w3.org/2000/svg">
<path d="M15.9026 13.0162C16.2503 13.15 16.384 13.6709 16.4106 13.8981C16.4642 14.3126 16.3441 14.4729 16.2104 14.4729C16.0766 14.4729 15.8893 14.3126 15.6891 13.9919C15.4885 13.6709 15.4083 13.3103 15.5155 13.123C15.5819 13.0025 15.729 12.9494 15.903 13.0162H15.9026ZM13.8715 14.5265C14.0854 14.5265 14.3259 14.62 14.5398 14.8069C14.9539 15.1545 15.0744 15.5554 14.8605 15.8494C14.74 15.9965 14.5398 16.0899 14.3126 16.0899C14.0854 16.0899 13.8449 16.0098 13.6846 15.8627C13.3103 15.5421 13.2036 15.0071 13.4437 14.7134C13.5375 14.593 13.6846 14.5265 13.8715 14.5265ZM9.19449 18.3886C4.11584 18.3886 0 14.2723 0 9.19407C0 4.11584 4.11625 0 9.19407 0C14.2723 0 18.3886 4.11625 18.3886 9.19407C18.3886 10.9178 17.9076 12.5353 17.0926 13.9118C17.0656 13.9516 16.9987 13.9384 16.9855 13.8848C16.6648 11.6264 15.2883 10.3833 13.2837 10.0094C13.1097 9.98243 13.0831 9.87568 13.3103 9.8491C13.9251 9.79552 14.7936 9.80881 15.248 9.88897C15.2746 9.66177 15.2883 9.42127 15.2883 9.18078C15.2883 5.8263 12.5618 3.09986 9.20736 3.09986C5.8533 3.09986 3.12686 5.8263 3.12686 9.18078C3.12686 12.5353 5.8533 15.2617 9.20778 15.2617H9.48815C9.3929 14.7191 9.35254 14.1683 9.36769 13.6177C9.3814 13.2434 9.46157 13.1899 9.6219 13.4839C10.4638 14.9406 11.6667 16.2503 14.0185 16.7715C15.9429 17.1994 17.8673 17.6937 19.9387 20.3262C20.1256 20.5534 19.8452 20.7939 19.6313 20.607C17.52 18.7358 15.5957 18.1211 13.8449 18.1211C11.8802 18.1348 10.544 18.3886 9.19407 18.3886H9.19449Z" fill="#FF8C00"/>
</svg>
