<?xml version="1.0" standalone="no"?>
<!DOCTYPE svg PUBLIC "-//W3C//DTD SVG 20010904//EN"
 "http://www.w3.org/TR/2001/REC-SVG-20010904/DTD/svg10.dtd">
<svg version="1.0" xmlns="http://www.w3.org/2000/svg"
 width="700.000000pt" height="700.000000pt" viewBox="0 0 700.000000 700.000000"
 preserveAspectRatio="xMidYMid meet">
<metadata>
Created by potrace 1.11, written by Peter Selinger 2001-2013
</metadata>
<g transform="translate(0.000000,700.000000) scale(0.100000,-0.100000)"
fill="#000000" stroke="none">
<path d="M1151 6989 c-465 -54 -879 -372 -1054 -809 -43 -108 -74 -230 -87
-345 -14 -124 -14 -4546 0 -4670 41 -363 228 -688 520 -905 189 -140 401 -223
635 -250 124 -14 4546 -14 4670 0 363 41 688 228 905 520 140 189 223 401 250
635 14 124 14 4546 0 4670 -27 234 -110 446 -250 635 -217 292 -542 479 -905
520 -112 12 -4575 11 -4684 -1z m1109 -1984 c203 -44 381 -122 512 -225 l78
-61 -31 -62 c-165 -331 -182 -339 -414 -204 -44 26 -117 60 -163 77 -231 84
-514 43 -639 -91 -37 -40 -75 -137 -81 -204 -10 -128 31 -213 139 -285 86 -59
158 -90 411 -176 324 -110 449 -167 567 -257 117 -90 215 -247 246 -392 17
-81 19 -271 4 -365 -5 -36 -25 -109 -43 -163 -106 -311 -361 -528 -711 -607
-137 -30 -399 -28 -560 5 -236 49 -460 156 -633 303 -30 25 -56 50 -58 57 -5
13 133 244 170 283 47 53 118 67 179 36 18 -9 73 -43 122 -75 214 -138 374
-188 565 -175 279 18 421 134 452 368 33 250 -85 366 -504 493 -200 61 -278
88 -379 132 -347 150 -501 399 -486 783 4 104 10 141 35 220 104 317 388 542
757 600 88 13 376 4 465 -15z m3035 11 c217 -30 412 -101 592 -219 75 -48 193
-144 193 -157 0 -19 -202 -285 -230 -303 -51 -32 -99 -20 -233 62 -181 110
-327 152 -537 153 -507 4 -846 -325 -911 -883 -14 -122 -6 -337 16 -449 63
-314 243 -568 492 -694 234 -118 630 -114 873 9 27 14 90 56 141 95 81 61 98
70 135 70 34 0 49 -7 82 -37 53 -49 212 -224 212 -233 0 -17 -163 -172 -232
-220 -237 -168 -494 -241 -847 -240 -334 0 -576 67 -819 224 -251 163 -445
423 -545 731 -78 236 -104 528 -72 795 77 644 477 1114 1075 1266 169 42 430
55 615 30z"/>
</g>
</svg>
